<svg width="42" height="42" viewBox="0 0 42 42" fill="none" xmlns="http://www.w3.org/2000/svg">
<g clip-path="url(#clip0)">
<path fill-rule="evenodd" clip-rule="evenodd" d="M4.7363 18.1862C6.07442 19.7209 8.15552 20.5777 10.219 20.4479C11.6562 20.3488 12.8822 19.8427 13.965 18.8993C15.5253 17.5398 16.3724 15.4881 16.2304 13.4129C16.133 11.9752 15.6282 10.7509 14.6857 9.66985C13.4404 8.23891 11.5529 7.38379 9.63812 7.38379C9.48944 7.38379 9.34244 7.38925 9.19502 7.39849C7.75778 7.49761 6.5318 8.00329 5.44652 8.94829C3.88748 10.3091 3.04076 12.3595 3.1823 14.4335C3.28142 15.8762 3.78878 17.1034 4.7363 18.1862Z" fill="#231F20"/>
<mask id="mask0" mask-type="alpha" maskUnits="userSpaceOnUse" x="0" y="22" width="28" height="18">
<path d="M0 22.6821H27.8174V39.391H0V22.6821Z" fill="white"/>
</mask>
<g mask="url(#mask0)">
<path fill-rule="evenodd" clip-rule="evenodd" d="M25.7628 32.0036C25.5671 32.0036 25.3688 32.0317 25.1723 32.0913L19.6505 34.306C19.4779 32.3585 19.2574 29.8868 19.086 27.9728C19.0776 27.8838 19.0688 27.7855 19.0613 27.699C18.9739 26.7246 18.9021 25.9249 18.8592 25.4482C18.858 25.4369 18.858 25.4327 18.8567 25.4222C18.8311 25.1399 18.8156 24.9694 18.8151 24.9677C18.7946 24.7888 18.7534 24.6132 18.695 24.4431C18.6497 24.3071 18.5833 24.1798 18.5153 24.0521C18.5014 24.0273 18.4922 24 18.4775 23.9753C18.2536 23.5897 17.9302 23.2512 17.4753 23.024C17.0201 22.7963 16.5224 22.6825 15.9827 22.6825C15.805 22.6825 15.6223 22.6947 15.4354 22.7195C15.0864 22.7657 14.7689 22.8585 14.4702 22.9794H10.7234H8.37268H4.82956C4.45912 22.8316 4.06306 22.7274 3.61702 22.706C3.54646 22.7027 3.47674 22.7014 3.40786 22.7014C2.73334 22.7014 2.1277 22.8602 1.59178 23.1794C0.79294 23.6548 0.3973 24.4398 0.34648 25.226L0.00669988 38.9264C0.00669988 38.9264 -0.17054 39.3914 1.2982 39.3914C2.76694 39.3914 17.8164 39.3401 17.8164 39.3401L17.8441 39.3153C18.01 39.3086 18.1767 39.2927 18.3431 39.2431L26.3495 36.0314C27.4377 35.7059 28.056 34.5605 27.7309 33.4723C27.4646 32.5815 26.6465 32.0036 25.7628 32.0036Z" fill="#231F20"/>
</g>
<mask id="mask1" mask-type="alpha" maskUnits="userSpaceOnUse" x="8" y="2" width="35" height="28">
<path d="M8.34082 2.93958H42.1021V29.9494H8.34082V2.93958Z" fill="white"/>
</mask>
<g mask="url(#mask1)">
<path fill-rule="evenodd" clip-rule="evenodd" d="M41.2755 3.76614C40.7244 3.2151 40.0621 2.93958 39.2885 2.93958H11.1539C10.3799 2.93958 9.71751 3.2151 9.16689 3.76614C8.61543 4.31718 8.34033 4.97952 8.34033 5.75316V6.14292C8.59317 6.10176 8.84097 6.04884 9.10221 6.03078C9.60033 5.99718 10.0985 6.02574 10.5911 6.08664V5.75316C10.5911 5.60112 10.6466 5.46924 10.7583 5.35794C10.8692 5.24622 11.0015 5.19078 11.1539 5.19078H39.2885C39.4409 5.19078 39.5724 5.24622 39.6841 5.35794C39.7954 5.46924 39.8508 5.60112 39.8508 5.75316V22.6342C39.8508 22.7863 39.7954 22.9186 39.6841 23.0294C39.5724 23.1412 39.4409 23.197 39.2885 23.197H19.6039C19.9004 23.675 20.1083 24.2147 20.1764 24.8107L20.1701 24.8115C20.1839 24.9299 20.2041 25.1248 20.2347 25.4474H24.0958V27.6982H20.4397C20.4943 28.3118 20.5607 29.0573 20.64 29.9494H32.5361C32.7003 29.9494 32.8352 29.8964 32.9406 29.7906C33.046 29.6852 33.0989 29.5504 33.0989 29.3861V28.261C33.0989 28.0967 33.046 27.9619 32.9406 27.8565C32.8352 27.7511 32.7003 27.6982 32.5361 27.6982H26.3466V25.4474H39.2885C40.0621 25.4474 40.7244 25.1723 41.2755 24.6208C41.8265 24.0702 42.102 23.4079 42.102 22.6342V5.75316C42.102 4.97952 41.8265 4.31718 41.2755 3.76614Z" fill="#231F20"/>
</g>
<path d="M19.1406 19.0992H37.422M19.1406 9.34323H37.422H19.1406ZM19.1406 11.7824H37.422H19.1406ZM19.1406 14.2212H37.422H19.1406ZM19.1406 16.6604H37.422H19.1406Z" stroke="#231F20" stroke-width="0.75" stroke-linecap="round"/>
</g>
<defs>
<clipPath id="clip0">
<rect width="42" height="42" fill="white"/>
</clipPath>
</defs>
</svg>
