<svg width="42" height="42" viewBox="0 0 42 42" fill="none" xmlns="http://www.w3.org/2000/svg">
<path d="M25.4014 37.7664H1.46135C1.07465 37.787 0.703073 37.6138 0.470154 37.3044C0.256391 36.9792 0.214096 36.5703 0.356754 36.2082L10.9912 5.80021C11.3051 4.99982 12.064 4.46198 12.9232 4.43101H36.8631C37.2494 4.41268 37.62 4.58541 37.8544 4.89301C38.0667 5.21742 38.1074 5.62499 37.9636 5.98501L27.3334 36.393C27.0199 37.1943 26.2612 37.7337 25.4014 37.7664ZM12.9232 5.00641C12.3007 5.04053 11.7532 5.42945 11.5162 6.00601L0.873354 36.393C0.790059 36.5836 0.804143 36.8027 0.911154 36.981C1.04418 37.1405 1.24574 37.2265 1.45295 37.212H25.393C26.0157 37.1752 26.5625 36.7851 26.8 36.2082L37.447 5.80021C37.5324 5.61147 37.5183 5.39255 37.4091 5.21641C37.2815 5.05468 37.0811 4.9679 36.8758 4.98541L12.9232 5.00641Z" fill="#231F20"/>
<path d="M9.84033 19.0428H30.0255M13.0239 9.99182H33.2091H13.0239ZM11.9655 13.0074H32.1465H11.9655ZM10.9029 16.0272H31.0839H10.9029Z" stroke="#231F20" stroke-width="0.25" stroke-linecap="round"/>
<path d="M37.7242 19.1478L22.3018 29.1102V31.3152L24.4102 32.4198L38.182 23.5158L37.7242 19.1478Z" fill="white"/>
<path d="M37.1991 24.1542L24.4101 32.4198L20.1597 32.8314L22.3059 29.1102L35.0907 20.8446L37.1991 24.1542ZM25.9263 30.4206L24.7335 28.56L23.3349 29.463L22.7847 30.4206L24.0909 30.2946L23.4315 31.4412L24.5277 31.332L25.9263 30.4206ZM34.5405 22.3314C34.4652 22.3413 34.3933 22.3686 34.3305 22.4112L25.9977 27.7956C25.9336 27.8353 25.8803 27.8901 25.8423 27.9552C25.7709 28.0728 25.8171 28.1442 25.9515 28.1316C26.0267 28.1217 26.0986 28.0944 26.1615 28.0518L34.4943 22.68C34.5585 22.6391 34.613 22.5846 34.6539 22.5204C34.7169 22.3902 34.6749 22.3188 34.5405 22.3314ZM40.7397 21.8694L38.1819 23.52L36.0819 20.2146L38.6397 18.5682C38.9749 18.3443 39.3572 18.2006 39.7569 18.1482C40.0289 18.0883 40.3117 18.1836 40.4919 18.396L41.6847 20.2566C41.7883 20.5133 41.7484 20.8057 41.5797 21.0252C41.3673 21.3667 41.0801 21.6554 40.7397 21.8694Z" fill="#231F20"/>
</svg>
