<svg width="42" height="42" viewBox="0 0 42 42" fill="none" xmlns="http://www.w3.org/2000/svg">
<g clip-path="url(#clip0)">
<path fill-rule="evenodd" clip-rule="evenodd" d="M0.583496 13.7526C0.99771 13.7526 1.3335 14.0884 1.3335 14.5026V39.5658H41.3655C41.7797 39.5658 42.1155 39.9016 42.1155 40.3158C42.1155 40.73 41.7797 41.0658 41.3655 41.0658H0.583496C0.169283 41.0658 -0.166504 40.73 -0.166504 40.3158V14.5026C-0.166504 14.0884 0.169283 13.7526 0.583496 13.7526Z" fill="#231F20"/>
<path fill-rule="evenodd" clip-rule="evenodd" d="M1.92026 15.2559L1.38686 14.9199L1.65336 14.4969L2.18675 14.8329L1.92026 15.2559Z" fill="#231F20"/>
<path fill-rule="evenodd" clip-rule="evenodd" d="M4.3028 16.7575L3.00395 15.9406L3.27015 15.5173L4.569 16.3342L4.3028 16.7575ZM9.4982 20.0251L6.9005 18.3913L7.1667 17.968L9.7644 19.6018L9.4982 20.0251ZM14.6936 23.2927L12.0959 21.6589L12.3621 21.2356L14.9598 22.8694L14.6936 23.2927ZM19.889 26.5603L17.2913 24.9265L17.5575 24.5032L20.1552 26.137L19.889 26.5603ZM25.0844 29.8279L22.4867 28.1941L22.7529 27.7708L25.3506 29.4046L25.0844 29.8279ZM30.2798 33.0955L27.6821 31.4617L27.9483 31.0384L30.546 32.6722L30.2798 33.0955ZM35.4752 36.3631L32.8775 34.7293L33.1437 34.306L35.7414 35.9398L35.4752 36.3631ZM39.3718 38.8138L38.0729 37.9969L38.3391 37.5736L39.638 38.3905L39.3718 38.8138Z" fill="#231F20"/>
<path fill-rule="evenodd" clip-rule="evenodd" d="M40.4469 39.4899L39.9135 39.1539L40.18 38.7309L40.7134 39.0669L40.4469 39.4899Z" fill="#231F20"/>
<path fill-rule="evenodd" clip-rule="evenodd" d="M24.779 6.78921C27.1066 6.78265 28.9901 4.89387 28.9901 2.56621H29.4901C29.4901 5.16946 27.3836 7.28187 24.7804 7.28921L24.779 6.78921ZM0.35256 31.1817C0.391291 31.0882 0.482486 31.0274 0.583612 31.0274C5.71409 31.0298 9.8719 35.1895 9.8719 40.32C9.8719 40.4211 9.81097 40.5123 9.71754 40.551C9.62411 40.5897 9.51657 40.5683 9.44508 40.4967L0.406678 31.4541C0.335188 31.3826 0.313828 31.2751 0.35256 31.1817ZM9.34998 39.6943L1.20905 31.5496C5.56472 31.8579 9.04373 35.3385 9.34998 39.6943Z" fill="#231F20"/>
<path fill-rule="evenodd" clip-rule="evenodd" d="M0.0646094 6.22855C0.0646094 5.81434 0.400396 5.47855 0.814609 5.47855H18.3202C18.7344 5.47855 19.0702 5.81434 19.0702 6.22855V16.6194C19.0702 17.0336 18.7344 17.3694 18.3202 17.3694C17.906 17.3694 17.5702 17.0336 17.5702 16.6194V6.97855H0.814609C0.400396 6.97855 0.0646094 6.64277 0.0646094 6.22855Z" fill="#231F20"/>
<path fill-rule="evenodd" clip-rule="evenodd" d="M16.3662 15.5823L16.908 15.9099L16.6493 16.3377L16.1075 16.0101L16.3662 15.5823Z" fill="#231F20"/>
<path fill-rule="evenodd" clip-rule="evenodd" d="M4.22462 8.83289L2.68007 7.89996L2.93858 7.47198L4.48313 8.4049L4.22462 8.83289ZM10.4028 12.5646L7.31372 10.6987L7.57223 10.2708L10.6613 12.1366L10.4028 12.5646ZM15.0365 15.3634L13.4919 14.4304L13.7504 14.0025L15.295 14.9354L15.0365 15.3634Z" fill="#231F20"/>
<path fill-rule="evenodd" clip-rule="evenodd" d="M1.86303 6.82497L2.40063 7.14837L2.14289 7.57682L1.60529 7.25342L1.86303 6.82497Z" fill="#231F20"/>
<path fill-rule="evenodd" clip-rule="evenodd" d="M23.849 2.48218C23.849 2.06796 24.1848 1.73218 24.599 1.73218H41.5838C41.998 1.73218 42.3338 2.06796 42.3338 2.48218C42.3338 2.89639 41.998 3.23218 41.5838 3.23218H25.349V26.4726C25.349 26.8868 25.0132 27.2226 24.599 27.2226C24.1848 27.2226 23.849 26.8868 23.849 26.4726V2.48218Z" fill="#231F20"/>
<path fill-rule="evenodd" clip-rule="evenodd" d="M40.6523 3.62834L41.0135 3.11174L41.4233 3.39825L41.0621 3.91485L40.6523 3.62834Z" fill="#231F20"/>
<path fill-rule="evenodd" clip-rule="evenodd" d="M40.3562 4.92299L39.496 6.15149L39.0864 5.8647L39.9467 4.6362L40.3562 4.92299ZM37.7756 8.60849L36.0552 11.0655L35.6456 10.7787L37.366 8.3217L37.7756 8.60849ZM34.3347 13.5225L32.6143 15.9795L32.2048 15.6927L33.9252 13.2357L34.3347 13.5225ZM30.8939 18.4365L29.1735 20.8935L28.7639 20.6067L30.4843 18.1497L30.8939 18.4365ZM27.453 23.3505L26.5928 24.579L26.1833 24.2922L27.0435 23.0637L27.453 23.3505Z" fill="#231F20"/>
<path fill-rule="evenodd" clip-rule="evenodd" d="M25.4693 25.3129L25.8305 24.7963L26.2403 25.0828L25.8791 25.5995L25.4693 25.3129Z" fill="#231F20"/>
<path fill-rule="evenodd" clip-rule="evenodd" d="M15.7898 6.22856C15.7898 7.62855 16.9213 8.76524 18.3213 8.77155L18.319 9.27155C16.6438 9.26399 15.2898 7.90381 15.2898 6.22855L15.7898 6.22856Z" fill="#231F20"/>
</g>
<defs>
<clipPath id="clip0">
<rect width="42" height="42" fill="white"/>
</clipPath>
</defs>
</svg>
