<svg width="42" height="42" viewBox="0 0 42 42" fill="none" xmlns="http://www.w3.org/2000/svg">
<path d="M35.0028 34.545C34.9566 34.6069 34.8825 34.6415 34.8054 34.6374C34.7381 34.6387 34.673 34.613 34.6248 34.566C34.5796 34.5235 34.5538 34.4643 34.5534 34.4022C34.5623 34.3237 34.5835 34.2472 34.6164 34.1754C34.6145 34.1452 34.599 34.1174 34.5744 34.0998C34.5474 34.0807 34.5151 34.0704 34.482 34.0704C34.3224 34.0704 34.1838 34.2468 34.062 34.5954C33.9742 34.93 33.9055 35.2694 33.8562 35.6118H34.5828L34.5366 35.8302H33.81L33.1884 37.9302C33.0909 38.4107 32.9119 38.8709 32.6592 39.291C32.4928 39.602 32.1718 39.7994 31.8192 39.8076C31.6795 39.8132 31.5423 39.7685 31.4328 39.6816C31.3414 39.6164 31.2855 39.5124 31.2816 39.4002C31.2819 39.3347 31.304 39.2711 31.3446 39.2196C31.389 39.161 31.4604 39.1293 31.5336 39.1356C31.6024 39.1332 31.6691 39.159 31.7184 39.207C31.7677 39.254 31.7952 39.3195 31.794 39.3876C31.7947 39.4293 31.783 39.4702 31.7604 39.5052C31.7442 39.5309 31.7328 39.5594 31.7268 39.5892C31.7268 39.5892 31.7268 39.6228 31.7646 39.6354C31.7961 39.6446 31.8296 39.6446 31.8612 39.6354C32.046 39.6354 32.2014 39.4926 32.3274 39.2154C32.4106 39.0134 32.4739 38.8038 32.5164 38.5896L33.285 35.805H32.676L32.7222 35.5866H33.3522C33.4348 35.1951 33.5764 34.8184 33.7722 34.4694C33.9156 34.1454 34.229 33.9295 34.5828 33.9108C34.716 33.906 34.8462 33.951 34.9482 34.0368C35.0398 34.1051 35.0942 34.2123 35.0952 34.3266C35.0969 34.4092 35.0633 34.4887 35.0028 34.545ZM36.54 34.0956C36.3605 34.2824 36.1961 34.4832 36.0486 34.6962C35.8187 35.0489 35.6391 35.432 35.5152 35.8344C35.4022 36.1942 35.3165 36.5621 35.259 36.9348C35.2145 37.2213 35.1879 37.5102 35.1792 37.8C35.1735 38.0993 35.1931 38.3986 35.238 38.6946C35.3006 39.0043 35.3863 39.309 35.4942 39.606L35.3808 39.648C35.1525 39.2796 34.9772 38.8809 34.86 38.4636C34.757 38.0715 34.7048 37.6678 34.7046 37.2624C34.6954 36.7816 34.7855 36.304 34.9692 35.8596C35.322 35.146 35.8266 34.5181 36.4476 34.02L36.54 34.0956ZM35.8848 38.0436C35.9293 38.0091 35.9838 37.9899 36.0402 37.989C36.0666 37.9846 36.0936 37.9846 36.12 37.989L36.204 38.0268L36.3174 38.0856L36.3636 38.1066H36.4098C36.4558 38.1105 36.5013 38.0953 36.5358 38.0646C36.561 38.0394 36.6366 37.9428 36.7584 37.7832C36.8802 37.6236 37.023 37.4178 37.3044 37.0062C37.3044 37.0062 37.2792 36.876 37.2288 36.6576C37.1784 36.4392 37.1364 36.2376 37.0944 36.1032C37.0708 35.9982 37.0341 35.8966 36.9852 35.8008C36.9408 35.7454 36.8709 35.7168 36.8004 35.7252C36.7407 35.7313 36.6817 35.7426 36.624 35.7588L36.4392 35.805L36.414 35.7042L36.771 35.5824C36.8634 35.5488 36.9516 35.5236 37.0314 35.5026C37.0971 35.4843 37.1648 35.4744 37.233 35.4732C37.3099 35.4685 37.3851 35.4977 37.4388 35.553C37.5311 35.7103 37.5911 35.8846 37.6152 36.0654L37.6824 36.4392C37.8177 36.2182 37.9693 36.0076 38.136 35.8092C38.215 35.7127 38.3085 35.6291 38.4132 35.5614C38.4849 35.5117 38.5696 35.484 38.6568 35.4816C38.7184 35.478 38.7801 35.488 38.8374 35.511C38.9196 35.5534 38.9678 35.6415 38.9592 35.7336C38.9617 35.7963 38.9408 35.8577 38.9004 35.9058C38.858 35.9477 38.8004 35.9704 38.7408 35.9688H38.6694L38.6022 35.9436L38.5182 35.9058L38.451 35.8806H38.4006C38.3054 35.8806 38.1654 36.0066 37.9806 36.2586C37.8742 36.3855 37.7865 36.5269 37.7202 36.6786C37.7337 36.7846 37.7533 36.8898 37.779 36.9936L37.9092 37.5606C37.9386 37.6931 37.9764 37.8236 38.0226 37.9512C38.073 38.0688 38.1276 38.1276 38.1906 38.1276C38.2602 38.1213 38.3241 38.0863 38.367 38.031C38.4642 37.9183 38.5553 37.8005 38.64 37.6782L38.7324 37.7328C38.6499 37.882 38.5528 38.0227 38.4426 38.1528C38.3221 38.339 38.1252 38.4621 37.905 38.4888C37.7971 38.4896 37.698 38.4294 37.6488 38.3334C37.5993 38.2393 37.5625 38.139 37.5396 38.0352L37.338 37.233L36.6744 38.1066C36.5834 38.2167 36.4837 38.3192 36.3762 38.4132C36.2981 38.4654 36.2055 38.4919 36.1116 38.4888C36.0007 38.5024 35.8916 38.452 35.8302 38.3586C35.8001 38.311 35.7854 38.2553 35.7882 38.199C35.793 38.1345 35.8291 38.0764 35.8848 38.0436ZM38.6106 39.5388C38.7989 39.3425 38.9716 39.1319 39.1272 38.9088C39.3479 38.5655 39.5177 38.192 39.6312 37.8C39.743 37.4544 39.8272 37.1005 39.8832 36.7416C39.9368 36.4153 39.9649 36.0853 39.9672 35.7546C39.971 35.4147 39.9386 35.0754 39.8706 34.7424C39.8237 34.493 39.7461 34.2503 39.6396 34.02L39.7656 33.978C39.9775 34.3292 40.1401 34.708 40.2486 35.1036C40.3663 35.5133 40.4271 35.9373 40.4292 36.3636C40.4356 36.8018 40.3616 37.2374 40.2108 37.6488C39.8758 38.4229 39.3567 39.1034 38.6988 39.6312L38.6106 39.5388ZM31.6806 29.2572L27.3 24.885L27.4302 24.696C29.6143 21.5056 29.3278 17.2341 26.7372 14.364C24.4255 11.7873 20.763 10.9053 17.5316 12.1471C14.3003 13.3889 12.1711 16.4967 12.18 19.9584C12.1798 20.2559 12.1966 20.5532 12.2304 20.8488C12.3374 21.7848 12.6044 22.6955 13.02 23.541C14.068 25.7519 16.0335 27.3915 18.3965 28.0261C20.7595 28.6607 23.2819 28.2264 25.2966 26.838L25.4856 26.7078L29.8452 31.08C30.0843 31.3262 30.4134 31.4642 30.7566 31.4622C31.2782 31.4629 31.7492 31.1503 31.9512 30.6694C32.1531 30.1884 32.0464 29.6332 31.6806 29.2614V29.2572ZM16.0608 23.541C15.4352 22.763 15.024 21.8349 14.868 20.8488C14.8151 20.5548 14.7857 20.2571 14.7798 19.9584C14.7653 17.2484 16.6438 14.8956 19.2898 14.3097C21.9358 13.7239 24.6319 15.0638 25.7628 17.5266C26.1218 18.2813 26.3097 19.1059 26.313 19.9416C26.3245 22.3926 24.78 24.581 22.4668 25.3912C20.1536 26.2014 17.5811 25.4551 16.0608 23.5326V23.541ZM3.38519 32.2518L4.52339 33.9696C4.81739 34.4148 5.06519 34.8096 5.32979 35.2716H5.38019C5.64479 34.7928 5.90939 34.3812 6.16979 33.9486L7.29539 32.2686H8.86199L6.14039 36.12L8.94179 40.2444H7.29539L6.12359 38.4468C5.80859 37.9848 5.54399 37.5354 5.28359 37.0608H5.24579C4.98539 37.5354 4.70399 37.9638 4.40579 38.4468L3.23399 40.236H1.63379L4.47299 36.1578L1.76819 32.2518H3.38519ZM8.95439 34.5702L9.79439 33.7806C10.9032 32.781 11.4744 32.1552 11.4744 31.4748C11.4848 31.2098 11.3787 30.9535 11.184 30.7733C10.9894 30.5932 10.7256 30.5073 10.4622 30.5382C10.0548 30.5627 9.66407 30.709 9.34079 30.9582L9.05939 30.3576C9.52316 29.9913 10.098 29.7943 10.689 29.799C11.949 29.799 12.4614 30.5844 12.4614 31.3068C12.4614 32.3064 11.7012 33.0414 10.689 33.9318L10.269 34.3056V34.335H12.5496V35.0658H8.95439V34.5702ZM11.7222 8.673V8.9586C11.4256 9.08704 11.1195 9.19235 10.8066 9.2736C10.458 9.3618 10.143 9.429 9.84899 9.4752H9.50879V3.3894H6.90059V5.985C6.90059 6.2748 6.90059 6.573 6.86699 6.8838C6.8461 7.18786 6.80966 7.49066 6.75779 7.791C6.70739 8.085 6.64859 8.3706 6.58139 8.631C6.522 8.87522 6.44622 9.11516 6.35459 9.3492C6.24476 9.40235 6.12375 9.42828 6.00179 9.4248C5.84639 9.4248 5.69519 9.4248 5.55239 9.4248C5.42441 9.42154 5.29677 9.41032 5.17019 9.3912C5.06099 9.3702 5.00639 9.3576 5.00639 9.3492L4.93499 9.24C5.16641 8.86784 5.35119 8.46865 5.48519 8.0514C5.65262 7.54547 5.79282 7.03093 5.90519 6.51C6.01859 5.964 6.10259 5.418 6.16139 4.8678C6.21679 4.37549 6.24623 3.8806 6.24959 3.3852H6.01859C5.76074 3.38707 5.50768 3.45503 5.28359 3.5826C5.0218 3.73993 4.79577 3.95022 4.61999 4.2L4.43939 4.0908C4.48237 3.87076 4.54276 3.65448 4.61999 3.444C4.68801 3.2565 4.79379 3.08496 4.93079 2.94C5.08655 2.77998 5.27796 2.65909 5.48939 2.5872C5.77744 2.49165 6.08103 2.45174 6.38399 2.4696H6.93839L7.87919 2.499L9.02999 2.52H10.206H10.92C11.085 2.51881 11.2496 2.50193 11.4114 2.4696C11.5322 2.45208 11.6496 2.41669 11.76 2.3646C11.86 2.31577 11.9521 2.25204 12.033 2.1756L12.2262 2.2974C12.1912 2.58358 12.0662 2.85125 11.8692 3.0618C11.6352 3.29424 11.3119 3.41375 10.983 3.3894H10.8192V8.5638L11.7222 8.673Z" fill="#231F20"/>
<path fill-rule="evenodd" clip-rule="evenodd" d="M40.5846 8.01357H29.085V2.23438L40.5846 8.01357Z" stroke="#231F20" stroke-linejoin="round"/>
</svg>
