<svg width="42" height="42" viewBox="0 0 42 42" fill="none" xmlns="http://www.w3.org/2000/svg">
<path d="M35.78 14.0196L35.822 13.8768C36.1241 12.9526 35.9831 11.9406 35.4398 11.1342C35.1154 10.7154 34.6783 10.3978 34.1798 10.2186C34.1798 10.3152 34.1798 10.4202 34.1798 10.5252C34.202 10.8708 34.1637 11.2176 34.0664 11.55L33.7934 12.4446L33.9572 12.5412C34.6185 12.9638 35.23 13.4598 35.78 14.0196Z" fill="black"/>
<path d="M7.00566 38.787L7.43406 38.5644L8.86626 37.8336L10.2943 38.5644L10.7269 38.787V32.8398H7.00566V38.787Z" fill="black"/>
<path d="M28.1401 31.9536H28.0519C27.9889 31.9536 27.93 31.9536 27.8671 31.9536L27.7075 32.466C27.6479 32.6553 27.5492 32.8299 27.4177 32.9784C26.9888 33.4319 26.3912 33.6873 25.767 33.684H11.2141V36.4098H25.7292C27.6798 36.3297 29.3726 35.0395 29.9671 33.18L30.3871 31.7394C29.6967 31.8874 28.9931 31.9648 28.2871 31.9704L28.1401 31.9536ZM32.34 17.1906L29.2993 27.1908C30.0798 27.0637 30.826 26.7778 31.4917 26.3508C31.7428 26.1836 31.9814 25.9983 32.2057 25.7964L33.9864 19.9374C33.9122 19.6502 33.8153 19.3693 33.6967 19.0974C33.3768 18.3773 32.9154 17.7289 32.34 17.1906ZM29.9881 15.8004C26.9804 15.1219 23.9594 16.8819 23.0662 19.833C22.173 22.784 23.7111 25.9238 26.5903 27.027C26.5981 26.9956 26.608 26.9648 26.6197 26.9346L29.9881 15.8004Z" fill="black"/>
<path d="M33.6001 13.1166C30.0915 10.8809 25.5563 11.092 22.2706 13.6441C18.9849 16.1962 17.6582 20.5382 18.9563 24.4908C20.2544 28.4435 23.8971 31.1535 28.0561 31.2606C28.1443 31.2606 28.2283 31.2606 28.3165 31.2606C30.3105 31.2567 32.257 30.6522 33.9025 29.526L34.0201 29.4462L39.0055 34.44C39.3101 34.7556 39.7303 34.9331 40.1689 34.9314C41.0739 34.9157 41.8038 34.1858 41.8195 33.2808C41.8182 32.8466 41.6462 32.4302 41.3407 32.1216L36.3553 27.1236L36.4393 27.006C39.0478 23.2188 38.6813 18.1291 35.5573 14.7546C34.9782 14.1266 34.3203 13.576 33.6001 13.1166ZM31.8655 26.922C29.5177 28.4401 26.4652 28.3012 24.265 26.576C22.0648 24.8508 21.2018 21.9195 22.1161 19.2774C23.0304 16.6352 25.5206 14.8643 28.3165 14.868C28.9511 14.8676 29.5824 14.961 30.1897 15.1452C32.6333 15.8774 34.4287 17.9628 34.7894 20.4881C35.1502 23.0134 34.0106 25.5182 31.8697 26.9052L31.8655 26.922Z" fill="black"/>
<path d="M17.7787 21.42C17.7856 15.6023 22.4988 10.8873 28.3165 10.878C29.3417 10.8828 30.3606 11.0384 31.3405 11.34L32.4535 7.65241C32.7679 6.721 32.6264 5.69595 32.0713 4.88461C31.5039 4.11629 30.5986 3.67148 29.6437 3.69181H13.4401C13.0729 3.71385 12.7094 3.77725 12.3565 3.88081V3.81781C9.64746 3.04921 9.47946 5.96821 8.57646 7.28701C8.23626 7.77841 7.73646 8.20681 7.63986 8.61001C7.54326 9.01321 7.79106 9.35341 7.74486 9.71881C7.50489 11.0781 7.01502 12.3811 6.30006 13.5618C5.98086 13.9818 5.51466 14.2002 5.36346 14.6874C5.23746 15.0276 5.44746 15.5274 5.40546 15.9684C5.14408 17.3292 4.66321 18.6385 3.98166 19.845C3.76746 20.223 3.36426 20.5254 3.25506 20.9286C3.14586 21.3318 3.36426 21.7686 3.25506 22.1634C2.90568 23.5301 2.36857 24.8418 1.65906 26.061C1.30206 26.6364 0.840064 26.9976 0.768664 27.51C0.726664 27.7662 0.919864 28.0392 0.894664 28.3836C0.894664 28.8918 0.789664 29.3202 0.747664 29.7444C0.442706 30.6228 0.457579 31.5807 0.789664 32.4492C1.57926 34.6668 3.90186 36.3888 6.07326 36.3888H6.51846V33.663H6.09846C4.92666 33.663 3.45666 33.4068 3.03246 32.172C2.86026 31.7058 2.88126 31.5126 3.03246 31.2564C3.23687 31.0302 3.53502 30.9122 3.83886 30.9372H22.3651C22.7868 30.9419 23.2081 30.9124 23.6251 30.849C20.0393 29.0762 17.7724 25.42 17.7787 21.42Z" fill="black"/>
</svg>
