<svg width="42" height="42" viewBox="0 0 42 42" fill="none" xmlns="http://www.w3.org/2000/svg">
<g clip-path="url(#clip0)">
<path d="M4.64075 28.56C4.25855 28.56 3.86375 28.56 3.45215 28.56V28.4214C7.65215 28.5474 9.98315 28.0434 11.7219 26.6238C13.5573 25.1286 14.7879 22.4658 16.3419 18.8748C16.9619 17.2959 17.7639 15.7948 18.7317 14.4018C19.5003 13.3854 20.2269 12.8898 20.9577 12.8898C21.6675 12.8898 22.3689 13.3518 23.1039 14.3052C24.0238 15.6006 24.7839 17.0023 25.3678 18.48C25.5903 18.9882 25.7877 19.4754 25.9935 19.9458C27.2997 23.0034 28.2195 25.2 29.8953 26.5986C31.5711 27.9972 34.1247 28.5474 38.2953 28.3584V28.497C34.0953 28.6902 31.5753 28.1568 29.8407 26.7162C28.1061 25.2756 27.2031 23.0874 25.9011 19.9962C25.7037 19.5258 25.4811 19.0386 25.2795 18.5304C23.6541 14.7504 22.2765 12.9822 20.9535 12.9822C20.2563 12.9822 19.5549 13.461 18.8073 14.448C17.8432 15.8344 17.044 17.3285 16.4259 18.9C14.8803 22.512 13.6455 25.2 11.8059 26.6994C10.1973 27.9972 8.13935 28.56 4.64075 28.56Z" fill="#231F20" stroke="#231F20" stroke-width="2" stroke-linecap="round"/>
<g style="mix-blend-mode:multiply">
<path d="M1.85205 20.874H41.5504" stroke="#231F20" stroke-width="0.5" stroke-linejoin="round" stroke-dasharray="3 3"/>
</g>
<path d="M41.6427 41.3238H0.583496V0.764404" stroke="#231F20" stroke-width="1.5" stroke-linecap="round" stroke-linejoin="round"/>
</g>
<defs>
<clipPath id="clip0">
<rect width="42" height="42" fill="white"/>
</clipPath>
</defs>
</svg>
