<svg width="42" height="42" viewBox="0 0 42 42" fill="none" xmlns="http://www.w3.org/2000/svg">
<path d="M31.1219 32.5752L32.2811 34.3224C32.5793 34.776 32.8355 35.196 33.1211 35.6496H33.1715C33.4403 35.1624 33.7091 34.7466 33.9779 34.3056L35.1203 32.5752H36.7163L33.9443 36.5106L36.8003 40.7106H35.1203L33.9275 38.8794C33.6083 38.409 33.3395 37.9554 33.0539 37.4682H33.0203C32.7515 37.9554 32.4659 38.3922 32.1803 38.8794L31.0043 40.7106H29.3369L32.2307 36.54L29.4755 32.5584L31.1219 32.5752ZM36.7961 34.9356L37.6361 34.1334C38.7659 33.117 39.3497 32.4534 39.3497 31.7814C39.3602 31.5112 39.2518 31.2499 39.053 31.0664C38.8542 30.883 38.5851 30.7959 38.3165 30.828C37.9022 30.8502 37.5041 30.9965 37.1741 31.248L36.9053 30.66C37.3778 30.288 37.9629 30.088 38.5643 30.093C39.8243 30.093 40.3703 30.891 40.3703 31.626C40.3703 32.6466 39.5975 33.3942 38.5643 34.3056L38.1443 34.6878V34.713H40.4711V35.4606H36.7961V34.9356Z" fill="#231F20"/>
<path d="M41.8374 15.9715L0.169434 16.1024L0.173445 17.3792L41.8414 17.2482L41.8374 15.9715Z" fill="#231F20"/>
<path d="M21.4744 1.26422H20.1934V31.7352H21.4744V1.26422Z" fill="#231F20"/>
<path d="M10.5331 18.0604C11.2823 18.0581 11.8878 17.4507 11.8854 16.7038C11.8831 15.9569 11.2738 15.3533 10.5246 15.3557C9.77534 15.358 9.16987 15.9654 9.17222 16.7123C9.17456 17.4592 9.78383 18.0628 10.5331 18.0604Z" fill="#231F20"/>
<path d="M30.9911 17.992C31.7403 17.9896 32.3458 17.3822 32.3434 16.6353C32.3411 15.8884 31.7318 15.2848 30.9826 15.2872C30.2333 15.2895 29.6279 15.8969 29.6302 16.6438C29.6326 17.3907 30.2418 17.9943 30.9911 17.992Z" fill="#231F20"/>
<path d="M31.5211 27.6528C31.2891 27.6528 31.1011 27.4648 31.1011 27.2328C31.0801 16.1448 29.9629 10.1892 27.8335 9.5214C25.7041 8.8536 22.4743 13.4946 19.5931 17.5812C16.7119 21.6678 14.1835 25.242 12.2557 24.6414C10.7815 24.1794 10.1179 21.4788 10.0969 15.8802L10.0801 7.98C10.0801 7.74804 10.2681 7.56 10.5001 7.56C10.732 7.56 10.9201 7.74804 10.9201 7.98L10.9453 15.876C10.9663 22.3776 11.9323 23.6502 12.5035 23.8308C13.8349 24.2508 16.5187 20.4456 18.8833 17.1108C22.0837 12.5748 25.3933 7.8708 28.0813 8.7108C29.7235 9.24 31.9201 11.697 31.9495 27.2244C31.9518 27.3387 31.9074 27.449 31.8266 27.5299C31.7457 27.6107 31.6354 27.6551 31.5211 27.6528Z" fill="#231F20"/>
</svg>
