<svg width="42" height="42" viewBox="0 0 42 42" fill="none" xmlns="http://www.w3.org/2000/svg">
<path fill-rule="evenodd" clip-rule="evenodd" d="M20.4918 5.15767C20.5355 5.15095 20.5798 5.16481 20.6118 5.19521C20.6439 5.22561 20.66 5.26912 20.6556 5.31307L20.6178 26.7331C20.6211 26.8332 20.5488 26.9198 20.4498 26.9347L0.621621 29.7025C0.578309 29.7075 0.534981 29.6931 0.503346 29.6631C0.47171 29.6331 0.455033 29.5906 0.457821 29.5471L0.495621 8.12707C0.497569 8.02884 0.567358 7.9451 0.663621 7.92547L20.4918 5.15767ZM20.2902 26.5777L20.328 5.53147L0.840021 8.27827L0.789621 29.3245L20.2902 26.5861V26.5777Z" stroke="#231F20" stroke-width="0.75" stroke-linejoin="round"/>
<path fill-rule="evenodd" clip-rule="evenodd" d="M20.4918 5.15767C20.5355 5.15095 20.5798 5.16481 20.6118 5.19521C20.6439 5.22561 20.66 5.26912 20.6556 5.31307L20.6178 26.7331C20.6211 26.8332 20.5488 26.9198 20.4498 26.9347L0.621621 29.7025C0.578309 29.7075 0.534981 29.6931 0.503346 29.6631C0.47171 29.6331 0.455033 29.5906 0.457821 29.5471L0.495621 8.12707C0.497569 8.02884 0.567358 7.9451 0.663621 7.92547L20.4918 5.15767ZM20.2902 26.5777L20.328 5.53147L0.840021 8.27827L0.789621 29.3245L20.2902 26.5861V26.5777Z" stroke="#231F20" stroke-width="0.75" stroke-linejoin="round"/>
<path fill-rule="evenodd" clip-rule="evenodd" d="M30.6601 10.6808C30.7041 10.6743 30.7486 10.6881 30.7813 10.7183C30.8139 10.7485 30.8311 10.7918 30.8281 10.8362L30.7861 32.2562C30.7875 32.3556 30.7162 32.4412 30.6181 32.4578L10.7773 35.2256C10.7337 35.2323 10.6894 35.2184 10.6573 35.188C10.6253 35.1576 10.6091 35.1141 10.6135 35.0702L10.6513 13.6712C10.6544 13.5725 10.7232 13.4881 10.8193 13.4654L30.6601 10.6808ZM30.4585 32.1008L30.5005 11.0546L10.9873 13.8056L10.9453 34.8602L30.4459 32.1176L30.4585 32.1008Z" stroke="#231F20" stroke-width="0.75" stroke-linejoin="round"/>
<path fill-rule="evenodd" clip-rule="evenodd" d="M30.6601 10.6808C30.7041 10.6743 30.7486 10.6881 30.7813 10.7183C30.8139 10.7485 30.8311 10.7918 30.8281 10.8362L30.7861 32.2562C30.7875 32.3556 30.7162 32.4412 30.6181 32.4578L10.7773 35.2256C10.7337 35.2323 10.6894 35.2184 10.6573 35.188C10.6253 35.1576 10.6091 35.1141 10.6135 35.0702L10.6513 13.6712C10.6544 13.5725 10.7232 13.4881 10.8193 13.4654L30.6601 10.6808ZM30.4585 32.1008L30.5005 11.0546L10.9873 13.8056L10.9453 34.8602L30.4459 32.1176L30.4585 32.1008Z" stroke="#231F20" stroke-width="0.75" stroke-linejoin="round"/>
<path d="M30.7901 10.7521L20.6345 5.22487M30.6599 10.6807L20.4917 5.15767C20.5354 5.15095 20.5797 5.16481 20.6117 5.19521C20.6437 5.22561 20.6599 5.26912 20.6555 5.31307L30.8153 10.8361C30.8178 10.7941 30.8022 10.7532 30.7725 10.7235C30.7428 10.6938 30.7018 10.6782 30.6599 10.6807Z" stroke="#231F20" stroke-width="0.75" stroke-linejoin="round"/>
<path fill-rule="evenodd" clip-rule="evenodd" d="M30.7357 10.6975C30.7858 10.7254 30.8165 10.7787 30.8155 10.8361L20.6557 5.31309C20.6582 5.25531 20.6293 5.20067 20.5801 5.17029L30.7357 10.6975Z" stroke="#231F20" stroke-width="0.75" stroke-linejoin="round"/>
<path fill-rule="evenodd" clip-rule="evenodd" d="M30.7357 10.6975C30.7858 10.7254 30.8165 10.7787 30.8155 10.8361L20.6557 5.31309C20.6582 5.25531 20.6293 5.20067 20.5801 5.17029L30.7357 10.6975Z" stroke="#231F20" stroke-width="0.75" stroke-linejoin="round"/>
<path d="M30.7313 10.6933L20.5757 5.17027M30.6599 10.6807L20.4917 5.15767C20.5354 5.15095 20.5797 5.16481 20.6117 5.19521C20.6437 5.22561 20.6599 5.26912 20.6555 5.31307L30.8153 10.8361C30.8178 10.7941 30.8022 10.7532 30.7725 10.7235C30.7428 10.6938 30.7018 10.6782 30.6599 10.6807Z" stroke="#231F20" stroke-width="0.75" stroke-linejoin="round"/>
<path fill-rule="evenodd" clip-rule="evenodd" d="M20.5799 5.17029L30.7355 10.6975C30.7071 10.6869 30.6757 10.6869 30.6473 10.6975L20.4917 5.15769C20.5217 5.151 20.553 5.15548 20.5799 5.17029Z" stroke="#231F20" stroke-width="0.75" stroke-linejoin="round"/>
<path fill-rule="evenodd" clip-rule="evenodd" d="M20.5799 5.17029L30.7355 10.6975C30.7071 10.6869 30.6757 10.6869 30.6473 10.6975L20.4917 5.15769C20.5217 5.151 20.553 5.15548 20.5799 5.17029Z" stroke="#231F20" stroke-width="0.75" stroke-linejoin="round"/>
<path fill-rule="evenodd" clip-rule="evenodd" d="M30.8116 10.8361L30.7738 32.2393L20.6182 26.7121L20.656 5.31311L30.8116 10.8361Z" stroke="#231F20" stroke-width="0.75" stroke-linejoin="round"/>
<path fill-rule="evenodd" clip-rule="evenodd" d="M30.8116 10.8361L30.7738 32.2393L20.6182 26.7121L20.656 5.31311L30.8116 10.8361Z" stroke="#231F20" stroke-width="0.75" stroke-linejoin="round"/>
<path d="M30.6935 32.4032L20.5379 26.8802M30.7733 32.2394L20.6177 26.7122C20.6209 26.8122 20.5487 26.8989 20.4497 26.9138L30.6053 32.441C30.7034 32.4244 30.7747 32.3388 30.7733 32.2394ZM30.7523 32.3318L20.5967 26.8088L30.7523 32.3318Z" stroke="#231F20" stroke-width="0.75" stroke-linejoin="round"/>
<path fill-rule="evenodd" clip-rule="evenodd" d="M30.7733 32.2394C30.7747 32.3388 30.7034 32.4244 30.6053 32.441L20.4497 26.9138C20.5487 26.8989 20.6209 26.8122 20.6177 26.7122L30.7733 32.2394Z" stroke="#231F20" stroke-width="0.75" stroke-linejoin="round"/>
<path fill-rule="evenodd" clip-rule="evenodd" d="M30.7733 32.2394C30.7747 32.3388 30.7034 32.4244 30.6053 32.441L20.4497 26.9138C20.5487 26.8989 20.6209 26.8122 20.6177 26.7122L30.7733 32.2394Z" stroke="#231F20" stroke-width="0.75" stroke-linejoin="round"/>
<path fill-rule="evenodd" clip-rule="evenodd" d="M30.6054 32.441L10.7772 35.2256L0.621582 29.7026L20.4498 26.918L30.6054 32.441Z" stroke="#231F20" stroke-width="0.75" stroke-linejoin="round"/>
<path fill-rule="evenodd" clip-rule="evenodd" d="M30.6054 32.441L10.7772 35.2256L0.621582 29.7026L20.4498 26.918L30.6054 32.441Z" stroke="#231F20" stroke-width="0.75" stroke-linejoin="round"/>
<path d="M10.6344 35.1583L0.478821 29.6353M10.7772 35.2255L0.621621 29.7025C0.578309 29.7076 0.534981 29.6932 0.503346 29.6632C0.47171 29.6331 0.455033 29.5906 0.457821 29.5471L10.6134 35.0701C10.609 35.1141 10.6252 35.1576 10.6572 35.188C10.6893 35.2184 10.7336 35.2322 10.7772 35.2255Z" stroke="#231F20" stroke-width="0.75" stroke-linejoin="round"/>
<path fill-rule="evenodd" clip-rule="evenodd" d="M10.6894 35.2129L0.533797 29.6857C0.484563 29.6574 0.455361 29.6039 0.458197 29.5471L10.6138 35.0701C10.6103 35.1281 10.6395 35.1832 10.6894 35.2129Z" stroke="#231F20" stroke-width="0.75" stroke-linejoin="round"/>
<path fill-rule="evenodd" clip-rule="evenodd" d="M10.6894 35.2129L0.533797 29.6857C0.484563 29.6574 0.455361 29.6039 0.458197 29.5471L10.6138 35.0701C10.6103 35.1281 10.6395 35.1832 10.6894 35.2129Z" stroke="#231F20" stroke-width="0.75" stroke-linejoin="round"/>
<path d="M10.6974 35.2171L0.541821 29.6899M10.7772 35.2255L0.621621 29.7025C0.578309 29.7076 0.534981 29.6932 0.503346 29.6632C0.47171 29.6331 0.455033 29.5906 0.457821 29.5471L10.6134 35.0701C10.609 35.1141 10.6252 35.1576 10.6572 35.188C10.6893 35.2184 10.7336 35.2322 10.7772 35.2255Z" stroke="#231F20" stroke-width="0.75" stroke-linejoin="round"/>
<path fill-rule="evenodd" clip-rule="evenodd" d="M0.533691 29.6858C0.562196 29.6961 0.593387 29.6961 0.621891 29.6858L10.7775 35.2256C10.7487 35.2341 10.7181 35.2341 10.6893 35.2256L0.533691 29.6858Z" stroke="#231F20" stroke-width="0.75" stroke-linejoin="round"/>
<path fill-rule="evenodd" clip-rule="evenodd" d="M0.533691 29.6858C0.562196 29.6961 0.593387 29.6961 0.621891 29.6858L10.7775 35.2256C10.7487 35.2341 10.7181 35.2341 10.6893 35.2256L0.533691 29.6858Z" stroke="#231F20" stroke-width="0.75" stroke-linejoin="round"/>
<path fill-rule="evenodd" clip-rule="evenodd" d="M10.6136 35.0701L0.458008 29.5471L0.495808 8.14392L10.6514 13.6711L10.6136 35.0701Z" stroke="#231F20" stroke-width="0.75" stroke-linejoin="round"/>
<path fill-rule="evenodd" clip-rule="evenodd" d="M10.6136 35.0701L0.458008 29.5471L0.495808 8.14392L10.6514 13.6711L10.6136 35.0701Z" stroke="#231F20" stroke-width="0.75" stroke-linejoin="round"/>
<path d="M10.7352 13.5031L0.579605 7.98006M10.6512 13.6711L0.495605 8.14386C0.497554 8.04564 0.567343 7.96189 0.663605 7.94226L10.8192 13.4653C10.7231 13.488 10.6542 13.5724 10.6512 13.6711ZM10.6764 13.5787L0.520805 8.05146L10.6764 13.5787Z" stroke="#231F20" stroke-width="0.75" stroke-linejoin="round"/>
<path fill-rule="evenodd" clip-rule="evenodd" d="M10.6512 13.6711L0.495605 8.14386C0.497554 8.04564 0.567343 7.96189 0.663605 7.94226L10.8192 13.4653C10.7231 13.488 10.6542 13.5724 10.6512 13.6711Z" stroke="#231F20" stroke-width="0.75" stroke-linejoin="round"/>
<path fill-rule="evenodd" clip-rule="evenodd" d="M10.6512 13.6711L0.495605 8.14386C0.497554 8.04564 0.567343 7.96189 0.663605 7.94226L10.8192 13.4653C10.7231 13.488 10.6542 13.5724 10.6512 13.6711Z" stroke="#231F20" stroke-width="0.75" stroke-linejoin="round"/>
<path fill-rule="evenodd" clip-rule="evenodd" d="M10.8192 13.4695L0.663574 7.94231L20.4918 5.15771L30.6474 10.6807L10.8192 13.4695Z" stroke="#231F20" stroke-width="0.75" stroke-linejoin="round"/>
<path fill-rule="evenodd" clip-rule="evenodd" d="M10.8192 13.4695L0.663574 7.94231L20.4918 5.15771L30.6474 10.6807L10.8192 13.4695Z" stroke="#231F20" stroke-width="0.75" stroke-linejoin="round"/>
<path fill-rule="evenodd" clip-rule="evenodd" d="M30.4456 32.1091L20.29 26.5861L20.3278 5.53992L30.4834 11.0629L30.4456 32.1091Z" stroke="#231F20" stroke-width="0.75" stroke-linejoin="round"/>
<path fill-rule="evenodd" clip-rule="evenodd" d="M30.4456 32.1091L20.29 26.5861L20.3278 5.53992L30.4834 11.0629L30.4456 32.1091Z" stroke="#231F20" stroke-width="0.75" stroke-linejoin="round"/>
<path fill-rule="evenodd" clip-rule="evenodd" d="M30.4835 11.0629L10.9871 13.8013L0.831543 8.27832L20.3279 5.53992L30.4835 11.0629Z" stroke="#231F20" stroke-width="0.75" stroke-linejoin="round"/>
<path fill-rule="evenodd" clip-rule="evenodd" d="M30.4835 11.0629L10.9871 13.8013L0.831543 8.27832L20.3279 5.53992L30.4835 11.0629Z" stroke="#231F20" stroke-width="0.75" stroke-linejoin="round"/>
<path fill-rule="evenodd" clip-rule="evenodd" d="M10.9872 13.8012L10.9452 34.8516L0.789551 29.3244L0.831551 8.2782L10.9872 13.8012Z" stroke="#231F20" stroke-width="0.75" stroke-linejoin="round"/>
<path fill-rule="evenodd" clip-rule="evenodd" d="M10.9872 13.8012L10.9452 34.8516L0.789551 29.3244L0.831551 8.2782L10.9872 13.8012Z" stroke="#231F20" stroke-width="0.75" stroke-linejoin="round"/>
<path fill-rule="evenodd" clip-rule="evenodd" d="M10.9452 34.8517L0.789551 29.3245L20.2902 26.5861L30.4458 32.1091L10.9452 34.8517Z" stroke="#231F20" stroke-width="0.75" stroke-linejoin="round"/>
<path fill-rule="evenodd" clip-rule="evenodd" d="M10.9452 34.8517L0.789551 29.3245L20.2902 26.5861L30.4458 32.1091L10.9452 34.8517Z" stroke="#231F20" stroke-width="0.75" stroke-linejoin="round"/>
<path d="M35.8091 2.23022V3.01562H39.1103V3.63302H35.8091V4.50662H37.2287V4.59482H35.8091V5.46002H37.7999V5.67422H35.8091V6.54782H37.2287V6.64022H35.8091V7.51382H38.4341V7.93382H35.8091V8.82002H37.2287V8.91242H35.8091V9.78602H37.7999V10.0002H35.8091V10.878H37.2287V10.9662H35.8091V11.8398H39.1103V12.4572H35.8091V13.314H37.2287V13.4064H35.8091V14.28H37.7999V14.4942H35.8091V15.372H37.2287V15.4602H35.8091V16.3338H38.4341V16.7538H35.8091V17.6274H37.2287V17.7198H35.8091V18.5934H37.7999V18.8076H35.8091V19.6854H37.2287V19.74H35.8091V20.6178H39.1103V21.231H35.8091V22.1046H37.2287V22.197H35.8091V23.1H37.7999V23.3184H35.8091V24.192H37.2287V24.2802H35.8091V26.4348H37.2287V26.523H35.8091V27.4008H37.7999V27.615H35.8091V28.476H37.2287V28.56H35.8091V29.442H39.1103V30.0552H35.8091V30.933H37.2287V31.0212H35.8091V31.92H37.7999V32.1342H35.8091V33.0078H37.2287V33.1002H35.8091V33.9738H38.4341V34.3938H35.8091V35.2674H37.2287V35.3556H35.8091V36.2334H37.7999V36.4476H35.8091V37.3212H37.2287V37.38H35.8091V38.2536H39.0599V38.871H35.8091V39.648H41.6051V2.23022H35.8091ZM38.4341 25.5444H35.8427V25.1244H38.4341V25.5444Z" fill="black"/>
</svg>
