<svg width="42" height="42" viewBox="0 0 42 42" fill="none" xmlns="http://www.w3.org/2000/svg">
<g clip-path="url(#clip0)">
<path d="M31.9199 29.568C31.8666 29.6331 31.7855 29.669 31.7015 29.6646C31.6281 29.6674 31.5568 29.6401 31.5041 29.589C31.4527 29.5431 31.4237 29.4773 31.4243 29.4084C31.4323 29.3226 31.455 29.2388 31.4915 29.1606C31.4912 29.1266 31.4739 29.095 31.4453 29.0766C31.4176 29.0551 31.3837 29.0433 31.3487 29.043C31.1681 29.043 31.0169 29.2362 30.8993 29.6226C30.7948 29.9907 30.7148 30.3653 30.6599 30.744H31.4579L31.4075 30.9834H30.5843L29.8955 33.3228C29.7876 33.8516 29.5917 34.3584 29.3159 34.8222C29.1302 35.1683 28.7719 35.3868 28.3793 35.3934C28.2273 35.3984 28.0785 35.3493 27.9593 35.2548C27.8603 35.181 27.7989 35.0673 27.7913 34.944C27.7925 34.8708 27.8176 34.8001 27.8627 34.7424C27.9124 34.6779 27.9915 34.6431 28.0727 34.65C28.1491 34.6484 28.2231 34.6771 28.2785 34.7298C28.3329 34.7827 28.3633 34.8556 28.3625 34.9314C28.3612 34.9773 28.3482 35.0222 28.3247 35.0616C28.3057 35.0879 28.2928 35.118 28.2869 35.1498C28.2881 35.1737 28.3027 35.1949 28.3247 35.2044C28.3585 35.2211 28.3963 35.2284 28.4339 35.2254C28.6355 35.2254 28.8077 35.0658 28.9505 34.7466C29.0381 34.5235 29.1056 34.293 29.1521 34.0578L29.9921 30.9834H29.3327L29.3999 30.744H30.0929C30.1702 30.3137 30.3118 29.8975 30.5129 29.5092C30.6715 29.1518 31.017 28.9134 31.4075 28.8918C31.56 28.8833 31.71 28.9329 31.8275 29.0304C31.9255 29.1078 31.984 29.2248 31.9871 29.3496C31.9909 29.428 31.9671 29.5053 31.9199 29.568ZM33.5999 29.0724C33.4 29.2761 33.22 29.4983 33.0623 29.736C32.8052 30.1247 32.6071 30.5493 32.4743 30.996C32.3481 31.3927 32.2526 31.7985 32.1887 32.2098C32.1341 32.5306 32.1018 32.8548 32.0921 33.18C32.0861 33.5103 32.1086 33.8406 32.1593 34.167C32.2244 34.5104 32.3185 34.8476 32.4407 35.175L32.3147 35.217C32.0691 34.8065 31.8812 34.3642 31.7561 33.9024C31.6431 33.4705 31.5853 33.0259 31.5839 32.5794C31.5738 32.0498 31.6724 31.5238 31.8737 31.0338C32.2581 30.2405 32.8098 29.5399 33.4907 28.98L33.5999 29.0724ZM32.8691 33.4236C32.921 33.3874 32.9822 33.367 33.0455 33.3648C33.0733 33.3608 33.1016 33.3608 33.1295 33.3648C33.1621 33.3743 33.1933 33.3885 33.2219 33.4068L33.3479 33.474H33.4487C33.499 33.4761 33.5483 33.4597 33.5873 33.4278C33.6755 33.3288 33.7582 33.2251 33.8351 33.117C33.9233 32.9994 34.1249 32.697 34.4357 32.277C34.4357 32.277 34.4105 32.13 34.3559 31.8906C34.3013 31.6512 34.2509 31.4706 34.2047 31.2816C34.1795 31.1646 34.1385 31.0516 34.0829 30.9456C34.0346 30.8852 33.9579 30.8548 33.8813 30.8658C33.8144 30.872 33.7483 30.8847 33.6839 30.9036L33.4865 30.954L33.4529 30.8406L33.8519 30.7062C33.944 30.6716 34.0379 30.6421 34.1333 30.618C34.2075 30.5995 34.2836 30.5896 34.3601 30.5886C34.4439 30.5822 34.526 30.6147 34.5827 30.6768C34.6894 30.8486 34.7555 31.0426 34.7759 31.2438L34.8515 31.6638C35.0022 31.4194 35.1706 31.1863 35.3555 30.9666C35.4418 30.8619 35.5438 30.7712 35.6579 30.6978C35.7377 30.6407 35.8327 30.6085 35.9309 30.6054C35.9972 30.6093 36.0617 30.628 36.1199 30.66C36.2112 30.7051 36.2648 30.8023 36.2543 30.9036C36.2585 30.9731 36.2342 31.0414 36.1871 31.0926C36.14 31.1382 36.0762 31.1625 36.0107 31.1598H35.9351L35.8595 31.1346L35.7671 31.0926L35.6999 31.0464H35.6495C35.5403 31.0464 35.3933 31.185 35.2001 31.4664C35.0864 31.6052 34.9905 31.7576 34.9145 31.92C34.9284 32.0377 34.9508 32.1542 34.9817 32.2686C35.0237 32.466 35.0741 32.6886 35.1245 32.8944C35.1562 33.0369 35.1969 33.1771 35.2463 33.3144C35.3009 33.4446 35.3639 33.5076 35.4311 33.5076C35.5089 33.5024 35.5807 33.4642 35.6285 33.4026C35.7362 33.2794 35.8371 33.1504 35.9309 33.0162L36.0317 33.075C35.9367 33.2502 35.8256 33.4161 35.6999 33.5706C35.5654 33.7765 35.3474 33.9131 35.1035 33.9444C34.9853 33.9428 34.8774 33.8768 34.8221 33.7722C34.7675 33.6692 34.7279 33.5589 34.7045 33.4446L34.4819 32.5584L33.7469 33.5202C33.6481 33.6446 33.537 33.7586 33.4151 33.8604C33.3312 33.9181 33.2312 33.9475 33.1295 33.9444C33.0073 33.959 32.8872 33.9038 32.8187 33.8016C32.7854 33.7475 32.7693 33.6845 32.7725 33.621C32.7659 33.5425 32.803 33.4666 32.8691 33.4236ZM35.8805 35.0742C36.0873 34.8569 36.2769 34.6238 36.4475 34.377C36.688 34.0057 36.8759 33.6029 37.0061 33.18C37.1274 32.7968 37.22 32.4052 37.2833 32.0082C37.3443 31.6417 37.3766 31.271 37.3799 30.8994C37.3855 30.5243 37.3503 30.1497 37.2749 29.7822C37.2198 29.5093 37.1353 29.2432 37.0229 28.9884L37.1615 28.9464C37.397 29.3396 37.5766 29.7637 37.6949 30.2064C37.8234 30.6601 37.8885 31.1293 37.8881 31.6008C37.8967 32.0848 37.8156 32.5661 37.6487 33.0204C37.2801 33.8775 36.7025 34.6284 35.9687 35.2044L35.8805 35.0742ZM28.6817 37.7706V38.3082L26.2037 39.06L28.6817 39.8286V40.3662L25.5695 39.3162V38.8122L28.6817 37.7706ZM28.6817 40.9374H25.5695V40.4586H28.6817V40.9374ZM31.0085 37.7706L34.1207 38.8206V39.3246L31.0085 40.3746V39.837L33.4865 39.06L31.0085 38.2998V37.7706ZM34.1207 40.4586V40.9374H31.0085V40.4586H34.1207Z" fill="#231F20"/>
<path d="M39.5511 38.4636V38.9634H38.4339L38.0853 39.7404H39.5511V40.2486H37.8711L37.5519 40.9668H37.0185L37.3377 40.2486H36.4473V39.7404H37.5645L37.9131 38.9634H36.4473V38.4636H38.1273L38.4507 37.7412H38.9715L38.6397 38.4636H39.5511Z" fill="#231F20"/>
<path fill-rule="evenodd" clip-rule="evenodd" d="M22.2768 21.5V42H21.2768V21.5H0.33998V20.5H21.2768V0H22.2768V20.5H42.361V21.5H22.2768Z" fill="#231F20"/>
<path fill-rule="evenodd" clip-rule="evenodd" d="M33.8261 1.85725C34.2177 2.24674 34.2193 2.87991 33.8298 3.27146L16.2286 20.9654L25.8965 30.581C26.2881 30.9704 26.2898 31.6036 25.9003 31.9952C25.5108 32.3868 24.8777 32.3885 24.4861 31.999L14.8181 22.3834L9.90665 27.3207C9.51715 27.7122 8.88399 27.7139 8.49244 27.3244C8.10089 26.9349 8.09923 26.3017 8.48873 25.9102L13.4 20.973L0.436905 8.08003C0.0453221 7.69057 0.0436036 7.05741 0.433066 6.66582C0.822529 6.27424 1.45569 6.27252 1.84727 6.66198L14.8105 19.5551L32.4119 1.86096C32.8014 1.46941 33.4346 1.46775 33.8261 1.85725Z" fill="#231F20"/>
<path d="M21.8818 15.6492C22.7842 15.6492 23.5156 14.9177 23.5156 14.0154C23.5156 13.1131 22.7842 12.3816 21.8818 12.3816C20.9795 12.3816 20.248 13.1131 20.248 14.0154C20.248 14.9177 20.9795 15.6492 21.8818 15.6492Z" fill="#231F20"/>
<path d="M14.8006 22.6002C15.7029 22.6002 16.4344 21.8687 16.4344 20.9664C16.4344 20.0641 15.7029 19.3326 14.8006 19.3326C13.8982 19.3326 13.1668 20.0641 13.1668 20.9664C13.1668 21.8687 13.8982 22.6002 14.8006 22.6002Z" fill="#231F20"/>
<path d="M11.9068 39.48C11.9045 39.8641 11.5937 40.1749 11.2096 40.1772H3.55298C3.17052 40.1726 2.86224 39.8625 2.85998 39.48V31.1052C2.86227 30.7234 3.1712 30.4145 3.55298 30.4122H11.2096C11.5921 30.4144 11.9022 30.7227 11.9068 31.1052V39.48ZM11.2096 31.4538C11.2096 31.2613 11.0535 31.1052 10.861 31.1052H3.90158C3.71 31.1074 3.55525 31.2622 3.55298 31.4538V32.8482C3.55528 33.0391 3.71068 33.1926 3.90158 33.1926H10.861C11.0519 33.1926 11.2073 33.0391 11.2096 32.8482V31.4538ZM4.25018 33.8898C3.86513 33.8898 3.55298 34.2019 3.55298 34.587C3.55298 34.972 3.86513 35.2842 4.25018 35.2842C4.63523 35.2842 4.94738 34.972 4.94738 34.587C4.94738 34.2019 4.63523 33.8898 4.25018 33.8898ZM4.25018 35.9898C3.86513 35.9898 3.55298 36.3019 3.55298 36.687C3.55298 37.072 3.86513 37.3842 4.25018 37.3842C4.63523 37.3842 4.94738 37.072 4.94738 36.687C4.95076 36.4999 4.8788 36.3193 4.74768 36.1858C4.61657 36.0523 4.43729 35.9772 4.25018 35.9772V35.9898ZM4.25018 38.0898C3.86513 38.0898 3.55298 38.4019 3.55298 38.787C3.55298 39.172 3.86513 39.4842 4.25018 39.4842C4.63523 39.4842 4.94738 39.172 4.94738 38.787C4.95423 38.5977 4.8838 38.4139 4.7523 38.2776C4.6208 38.1414 4.43954 38.0645 4.25018 38.0646V38.0898ZM6.35018 33.915C5.96513 33.915 5.65298 34.2271 5.65298 34.6122C5.65298 34.9972 5.96513 35.3094 6.35018 35.3094C6.73523 35.3094 7.04738 34.9972 7.04738 34.6122C7.05434 34.4207 6.98222 34.2349 6.84795 34.0982C6.71369 33.9616 6.52912 33.8862 6.33758 33.8898L6.35018 33.915ZM6.35018 36.015C5.96513 36.015 5.65298 36.3271 5.65298 36.7122C5.65298 37.0972 5.96513 37.4094 6.35018 37.4094C6.73523 37.4094 7.04738 37.0972 7.04738 36.7122C7.05793 36.5186 6.9874 36.3294 6.85273 36.1899C6.71806 36.0505 6.53141 35.9734 6.33758 35.9772L6.35018 36.015ZM6.35018 38.115C5.96513 38.115 5.65298 38.4271 5.65298 38.8122C5.65298 39.1972 5.96513 39.5094 6.35018 39.5094C6.73523 39.5094 7.04738 39.1972 7.04738 38.8122C7.06161 38.6165 6.99272 38.4239 6.85763 38.2816C6.72254 38.1393 6.53374 38.0605 6.33758 38.0646L6.35018 38.115ZM8.45018 33.9402C8.06513 33.9402 7.75298 34.2523 7.75298 34.6374C7.75298 35.0224 8.06513 35.3346 8.45018 35.3346C8.83524 35.3346 9.14738 35.0224 9.14738 34.6374C9.16326 34.4391 9.09317 34.2436 8.95495 34.1005C8.81672 33.9575 8.62369 33.8807 8.42498 33.8898L8.45018 33.9402ZM8.45018 36.0402C8.06513 36.0402 7.75298 36.3523 7.75298 36.7374C7.75298 37.1224 8.06513 37.4346 8.45018 37.4346C8.83524 37.4346 9.14738 37.1224 9.14738 36.7374C9.16713 36.537 9.09877 36.338 8.96008 36.192C8.82139 36.0461 8.62609 35.9677 8.42498 35.9772L8.45018 36.0402ZM8.45018 38.1402C8.16819 38.1402 7.91397 38.3101 7.80605 38.5706C7.69814 38.8311 7.75779 39.131 7.95719 39.3304C8.15659 39.5298 8.45646 39.5894 8.71699 39.4815C8.97752 39.3736 9.14738 39.1194 9.14738 38.8374C9.1711 38.635 9.10451 38.4324 8.96535 38.2835C8.82618 38.1346 8.62853 38.0546 8.42498 38.0646L8.45018 38.1402ZM10.5502 33.9654C10.1651 33.9654 9.85298 34.2775 9.85298 34.6626C9.85298 35.0476 10.1651 35.3598 10.5502 35.3598C10.9352 35.3598 11.2474 35.0476 11.2474 34.6626C11.2722 34.4555 11.2024 34.2483 11.0574 34.0984C10.9124 33.9485 10.7076 33.8719 10.4998 33.8898L10.5502 33.9654ZM11.2474 36.75C11.2677 36.4888 11.1398 36.2382 10.9164 36.1013C10.6929 35.9645 10.4116 35.9645 10.1882 36.1013C9.96472 36.2382 9.83686 36.4888 9.85718 36.75V38.85C9.83686 39.1112 9.96472 39.3618 10.1882 39.4986C10.4116 39.6355 10.6929 39.6355 10.9164 39.4986C11.1398 39.3618 11.2677 39.1112 11.2474 38.85V36.75Z" fill="#231F20"/>
</g>
<defs>
<clipPath id="clip0">
<rect width="42" height="42" fill="white"/>
</clipPath>
</defs>
</svg>
