<svg width="42" height="42" viewBox="0 0 42 42" fill="none" xmlns="http://www.w3.org/2000/svg">
<g clip-path="url(#clip0)">
<g style="mix-blend-mode:multiply">
<path fill-rule="evenodd" clip-rule="evenodd" d="M15.8009 39.0756C15.3605 37.2164 13.5019 36.0613 11.6398 36.4897C11.6214 36.4939 11.6026 36.496 11.5837 36.496C11.5743 36.496 11.5641 36.4958 11.5538 36.4952C11.5447 36.4947 11.5293 36.4936 11.5116 36.4902C11.5028 36.4885 11.4879 36.4852 11.4705 36.4789C11.4615 36.4756 11.4495 36.4706 11.4359 36.4633C11.4227 36.4561 11.4041 36.4445 11.3849 36.4267C11.3654 36.4087 11.3416 36.381 11.3247 36.3417C11.3069 36.3003 11.3003 36.2545 11.3064 36.209C11.3122 36.1656 11.3283 36.1316 11.343 36.1083C11.3575 36.0853 11.3732 36.0688 11.3845 36.0583C11.4063 36.038 11.4269 36.0261 11.4369 36.0207C11.4484 36.0144 11.4585 36.01 11.4653 36.0073C11.4787 36.0019 11.4904 35.9984 11.4978 35.9963C11.5132 35.992 11.5282 35.989 11.5402 35.987C11.5522 35.9849 11.5674 35.9828 11.5835 35.9818C11.5912 35.9813 11.6037 35.9807 11.6185 35.9814L11.6229 35.9817C13.7201 35.552 15.7901 36.8646 16.287 38.9587C16.3531 39.2217 16.3933 39.4904 16.4072 39.7612L15.9079 39.7868C15.8956 39.548 15.8601 39.311 15.8017 39.0791L15.8009 39.0756ZM11.6607 36.4674C11.6571 36.469 11.6541 36.4703 11.6518 36.4712C11.6456 36.4737 11.6404 36.4755 11.6368 36.4766C11.6346 36.4773 11.632 36.478 11.632 36.478L11.6259 36.4795L11.6241 36.4799L11.6223 36.4802L11.6157 36.4807C11.6131 36.4809 11.6051 36.4814 11.5939 36.4808C11.5914 36.4807 11.5879 36.4805 11.5837 36.4801C11.5788 36.4796 11.5729 36.4789 11.5663 36.4778C11.56 36.4767 11.5516 36.475 11.5418 36.4722C11.5324 36.4696 11.5191 36.4652 11.5039 36.4581C11.4891 36.4511 11.4678 36.4393 11.4457 36.4199C11.4231 36.4 11.3971 36.3697 11.3797 36.3271C11.3617 36.283 11.3576 36.2372 11.364 36.1953C11.3701 36.1557 11.3845 36.1251 11.3966 36.1049C11.4088 36.0846 11.4216 36.0699 11.4308 36.0604C11.4403 36.0506 11.4489 36.0432 11.4554 36.0382C11.4678 36.0284 11.4784 36.0221 11.4839 36.019C11.4921 36.0143 11.4987 36.0113 11.5017 36.01L11.6607 36.4674Z" fill="#231F20"/>
<path fill-rule="evenodd" clip-rule="evenodd" d="M42.1698 0.651855C42.3292 0.828045 42.3957 1.06935 42.349 1.30232L38.7916 19.0641C38.7103 19.4703 38.3151 19.7336 37.9089 19.6522C37.5028 19.5709 37.2395 19.1757 37.3208 18.7695L40.6795 2.00022L5.36101 5.46305C4.94877 5.50347 4.58182 5.20205 4.5414 4.78982C4.50098 4.37758 4.8024 4.01063 5.21464 3.97021L41.5404 0.408614C41.7769 0.385429 42.0104 0.475664 42.1698 0.651855Z" fill="#231F20"/>
<path fill-rule="evenodd" clip-rule="evenodd" d="M36.2609 2.55784C36.262 2.29211 36.2885 2.02709 36.3401 1.7664L35.8496 1.66931C35.7918 1.96165 35.762 2.25886 35.7609 2.55688V2.55885C35.7707 5.02348 37.7714 7.01627 40.2361 7.01625H40.5763V6.51625H40.2361C38.0471 6.51627 36.2701 4.74666 36.2609 2.55784Z" fill="#231F20"/>
<path fill-rule="evenodd" clip-rule="evenodd" d="M36.4409 17.9478L37.0205 18.1956L36.824 18.6554L36.2444 18.4076L36.4409 17.9478Z" fill="#231F20"/>
<path fill-rule="evenodd" clip-rule="evenodd" d="M9.26894 6.71511L7.91003 6.12627L8.10883 5.66749L9.46774 6.25633L9.26894 6.71511ZM14.7046 9.07047L11.9868 7.89279L12.1856 7.43401L14.9034 8.61169L14.7046 9.07047ZM20.1402 11.4258L17.4224 10.2482L17.6212 9.78937L20.339 10.9671L20.1402 11.4258ZM25.5759 13.7812L22.858 12.6035L23.0568 12.1447L25.7747 13.3224L25.5759 13.7812ZM31.0115 16.1366L28.2937 14.9589L28.4925 14.5001L31.2103 15.6778L31.0115 16.1366ZM35.0882 17.9031L33.7293 17.3142L33.9281 16.8555L35.287 17.4443L35.0882 17.9031Z" fill="#231F20"/>
<path fill-rule="evenodd" clip-rule="evenodd" d="M6.95473 5.16385L7.53013 5.41585L7.32954 5.87386L6.75414 5.62185L6.95473 5.16385Z" fill="#231F20"/>
<path fill-rule="evenodd" clip-rule="evenodd" d="M0.710072 14.2203C1.12114 14.1694 1.49568 14.4613 1.54663 14.8724L2.71953 24.3356L22.8535 16.085C23.2368 15.928 23.6749 16.1114 23.8319 16.4946C23.989 16.8779 23.8056 17.316 23.4223 17.473L2.38031 26.0956C2.16409 26.1842 1.91893 26.167 1.71724 26.049C1.51554 25.931 1.38036 25.7258 1.35162 25.4939L0.0580193 15.0569C0.00707003 14.6458 0.299004 14.2713 0.710072 14.2203Z" fill="#231F20"/>
<path fill-rule="evenodd" clip-rule="evenodd" d="M1.91069 22.2856L1.72634 22.3553L1.54964 21.8875L1.74769 21.8127C2.42718 21.5857 3.16912 21.6383 3.80991 21.9587C4.45 22.2787 4.93673 22.8399 5.16309 23.5187C5.22454 23.6932 5.26652 23.8739 5.28826 24.0576L4.79172 24.1164C4.77424 23.9687 4.74042 23.8233 4.69087 23.6831L4.68932 23.6787C4.50516 23.1248 4.10836 22.6669 3.5863 22.4059C3.06565 22.1456 2.46306 22.1024 1.91069 22.2856Z" fill="#231F20"/>
<path fill-rule="evenodd" clip-rule="evenodd" d="M2.13061 15.3272L1.50061 15.2768L1.54048 14.7784L2.17048 14.8288L2.13061 15.3272Z" fill="#231F20"/>
<path fill-rule="evenodd" clip-rule="evenodd" d="M4.82649 15.5432L3.39884 15.428L3.43903 14.9296L4.86668 15.0448L4.82649 15.5432ZM10.5371 16.0038L7.68179 15.7735L7.72198 15.2751L10.5773 15.5054L10.5371 16.0038ZM16.2477 16.4644L13.3924 16.2341L13.4326 15.7357L16.2879 15.966L16.2477 16.4644ZM20.5306 16.8098L19.103 16.6947L19.1432 16.1963L20.5708 16.3114L20.5306 16.8098Z" fill="#231F20"/>
<path fill-rule="evenodd" clip-rule="evenodd" d="M21.7951 16.9106L21.1651 16.8602L21.205 16.3618L21.835 16.4122L21.7951 16.9106Z" fill="#231F20"/>
<path fill-rule="evenodd" clip-rule="evenodd" d="M16.6406 25.3449C17.0176 25.5166 17.184 25.9614 17.0123 26.3383L10.599 40.4193L41.1744 32.5294C41.5755 32.4259 41.9845 32.6672 42.088 33.0683C42.1915 33.4693 41.9503 33.8784 41.5492 33.9819L9.45278 42.2643C9.17294 42.3365 8.87651 42.2415 8.69077 42.0201C8.50504 41.7986 8.46305 41.4902 8.58284 41.2272L15.6472 25.7166C15.8189 25.3396 16.2637 25.1732 16.6406 25.3449Z" fill="#231F20"/>
<path fill-rule="evenodd" clip-rule="evenodd" d="M17.9942 26.7672L17.3894 26.5908L17.5294 26.1108L18.1342 26.2872L17.9942 26.7672Z" fill="#231F20"/>
<path fill-rule="evenodd" clip-rule="evenodd" d="M20.8393 27.5871L19.2381 27.1244L19.3769 26.6441L20.9781 27.1068L20.8393 27.5871ZM27.2443 29.4379L24.0418 28.5125L24.1806 28.0322L27.3831 28.9576L27.2443 29.4379ZM33.6493 31.2887L30.4468 30.3633L30.5856 29.883L33.7881 30.8084L33.6493 31.2887ZM38.4531 32.6768L36.8518 32.2141L36.9906 31.7338L38.5919 32.1965L38.4531 32.6768Z" fill="#231F20"/>
<path fill-rule="evenodd" clip-rule="evenodd" d="M39.6804 33.0299L39.0756 32.8577L39.2126 32.3768L39.8174 32.549L39.6804 33.0299Z" fill="#231F20"/>
</g>
</g>
<defs>
<clipPath id="clip0">
<rect width="42" height="42" fill="white"/>
</clipPath>
</defs>
</svg>
