<svg width="42" height="42" viewBox="0 0 42 42" fill="none" xmlns="http://www.w3.org/2000/svg">
<path d="M12.8771 4.98541C12.2546 5.01953 11.7072 5.40845 11.4701 5.98501L0.839861 36.393C0.756566 36.5836 0.77065 36.8027 0.877661 36.981C1.01069 37.1405 1.21225 37.2265 1.41946 37.212H25.3595C25.9822 37.1752 26.529 36.7851 26.7665 36.2082L29.1669 29.3444L29.9343 28.8482L27.2999 36.393C26.9846 37.1984 26.2198 37.7386 25.3553 37.7664H1.41526C1.02711 37.7884 0.653626 37.6151 0.419861 37.3044C0.206099 36.9792 0.163803 36.5703 0.306461 36.2082L10.9451 5.80021C11.259 4.99982 12.0179 4.46198 12.8771 4.43101H36.8171C37.2033 4.41268 37.5739 4.58541 37.8083 4.89301C38.0206 5.21742 38.0613 5.62499 37.9175 5.98501L32.0391 22.8202L31.2762 23.313L37.4009 5.80021C37.4914 5.61424 37.4836 5.3954 37.3799 5.21641C37.2517 5.0553 37.0517 4.96866 36.8465 4.98541H12.8771Z" fill="#231F20"/>
<path fill-rule="evenodd" clip-rule="evenodd" d="M22.3018 30.9844H19.0921C19.0545 29.9232 17.9858 29.0682 16.6739 29.0682C15.3621 29.0682 14.2934 29.9271 14.2557 30.9844H5.55236V31.2344H14.2661C14.3852 32.2287 15.4182 33.012 16.6739 33.012C17.9259 33.012 18.9625 32.232 19.0817 31.2344H22.3018V30.9844ZM18.5414 30.9844C18.5012 30.2296 17.6774 29.6184 16.6739 29.6184C15.6662 29.6184 14.8422 30.2257 14.8022 30.9844H18.5414ZM14.8177 31.2344C14.9415 31.9285 15.7265 32.4618 16.6739 32.4618C17.6209 32.4618 18.4021 31.9255 18.5258 31.2344H14.8177Z" fill="#231F20"/>
<path d="M12.978 9.86681H33.1632V10.1168H12.978V9.86681Z" fill="#231F20"/>
<path fill-rule="evenodd" clip-rule="evenodd" d="M22.3036 12.8824H28.501L28.7991 12.6588L28.0053 11.7138L28.417 11.3904L29.2191 12.3396L30.4791 11.3904L30.7479 11.7138L29.4879 12.6588L29.6768 12.8824H32.1006V13.1324H29.8879L30.2859 13.6038L29.8659 13.923L29.1989 13.1324H28.871L27.8121 13.923L27.5391 13.6038L28.1677 13.1324H22.2443C21.9724 13.9775 21.0272 14.6076 19.9037 14.6076C18.7796 14.6076 17.8339 13.9798 17.5627 13.1324H11.9196V12.8824H17.5036C17.491 12.8009 17.4845 12.7179 17.4845 12.6336C17.4845 11.5458 18.5681 10.6638 19.9037 10.6638C21.2393 10.6638 22.3229 11.55 22.3229 12.6336C22.3229 12.7178 22.3163 12.8009 22.3036 12.8824ZM21.7442 12.8824C21.7629 12.8016 21.7727 12.7185 21.7727 12.6336C21.7727 11.8482 20.9327 11.214 19.9037 11.214C18.8705 11.214 18.0305 11.8524 18.0305 12.6336C18.0305 12.7184 18.0404 12.8015 18.0593 12.8824H21.7442ZM18.1498 13.1324C18.4168 13.6706 19.1021 14.0574 19.9037 14.0574C20.7061 14.0574 21.3895 13.6723 21.6547 13.1324H18.1498Z" fill="#231F20"/>
<path d="M10.857 15.9022H31.038V16.1522H10.857V15.9022Z" fill="#231F20"/>
<path fill-rule="evenodd" clip-rule="evenodd" d="M16.434 18.9178H29.9796V19.1678H16.3775C16.0493 20.1966 14.5969 20.9538 12.8015 20.9538C10.7603 20.9538 9.16009 19.9752 9.16009 18.7236C9.16009 17.472 10.7603 16.4934 12.8015 16.4934C14.8427 16.4934 16.4471 17.4762 16.4471 18.7236C16.4471 18.7891 16.4427 18.8539 16.434 18.9178ZM15.8753 18.9178C15.8895 18.854 15.8969 18.7892 15.8969 18.7236C15.8969 17.8122 14.4815 17.0436 12.8015 17.0436C11.1215 17.0436 9.71029 17.8122 9.71029 18.7236C9.71029 18.8544 9.73945 18.9823 9.79436 19.1054V18.9178H15.8753ZM9.82462 19.1678C10.1931 19.8715 11.4072 20.4036 12.8015 20.4036C14.1958 20.4036 15.4128 19.8715 15.7823 19.1678H9.82462Z" fill="#231F20"/>
<path d="M23.8288 21.9334H28.917V22.1834H24.0409L24.4942 22.7178L24.0742 23.0412L23.3498 22.1834H23.1599L22.0162 23.0412L21.739 22.7178L22.4547 22.1834H8.73596V21.9334H22.7895L22.999 21.777L22.201 20.832L22.6252 20.5086L23.4274 21.4578L24.6874 20.5086L24.9562 20.832L23.6962 21.777L23.8288 21.9334Z" fill="#231F20"/>
<path d="M7.67336 24.9532H27.8586V25.2032H7.67336V24.9532Z" fill="#231F20"/>
<path d="M6.61496 27.9688H22.9908V28.2188H6.61496V27.9688Z" fill="#231F20"/>
<path d="M4.36476 34.125C4.36476 34.056 4.42072 34 4.48976 34H24.675C24.744 34 24.8 34.056 24.8 34.125C24.8 34.194 24.744 34.25 24.675 34.25H4.48976C4.42072 34.25 4.36476 34.194 4.36476 34.125Z" fill="#231F20"/>
<path d="M37.1994 24.1542L24.4104 32.4198L20.16 32.8314L22.302 29.1102L35.091 20.8446L37.1994 24.1542ZM25.9266 30.4206L24.738 28.56L23.3394 29.463L22.785 30.4206L24.0954 30.2946L23.436 31.4328L24.528 31.3236L25.9266 30.4206ZM34.5408 22.3314C34.4659 22.3427 34.3943 22.3699 34.3308 22.4112L26.0022 27.7956C25.937 27.8353 25.8823 27.89 25.8426 27.9552C25.7754 28.0728 25.8216 28.1442 25.9518 28.1316C26.0271 28.1217 26.099 28.0944 26.1618 28.0518L34.4946 22.68C34.5607 22.6415 34.6157 22.5865 34.6542 22.5204C34.7214 22.3902 34.6752 22.3188 34.5408 22.3314ZM40.74 21.8694L38.1822 23.52L36.0822 20.2146L38.64 18.5682C38.9734 18.3438 39.3545 18.2 39.753 18.1482C40.025 18.0873 40.3084 18.1828 40.488 18.396L41.685 20.2566C41.7861 20.5136 41.7463 20.8047 41.58 21.0252C41.3681 21.367 41.0808 21.6558 40.74 21.8694Z" fill="#231F20"/>
</svg>
