<svg width="42" height="42" viewBox="0 0 42 42" fill="none" xmlns="http://www.w3.org/2000/svg">
<path d="M25.5541 37.9577H1.60405C1.17691 37.9577 0.824534 37.7923 0.612434 37.4941C0.402854 37.198 0.362954 36.8002 0.501974 36.4004L11.1435 5.99195C11.4132 5.22335 12.2611 4.61981 13.0751 4.61981H37.0264C37.4536 4.61981 37.806 4.78403 38.0176 5.08307C38.2297 5.38295 38.2688 5.77103 38.1277 6.17633L32.2368 23.0109L31.4735 23.504L37.6014 5.99195C37.6821 5.76263 37.669 5.55389 37.5636 5.40563C37.459 5.25821 37.2679 5.17631 37.0264 5.17631H13.0751C12.5026 5.17631 11.8592 5.63411 11.6698 6.17633L1.02781 36.5848C0.947174 36.8141 0.960194 37.0228 1.06561 37.1719C1.17103 37.3198 1.36255 37.4012 1.60405 37.4012H25.5541C26.1266 37.4012 26.7713 36.9426 26.9607 36.4004L29.3623 29.5374L30.1257 29.044L27.487 36.5848C27.2169 37.3542 26.3681 37.9577 25.5541 37.9577Z" fill="#231F20"/>
<path d="M22.501 31.4263H5.75062V31.1763H22.501V31.4263Z" fill="#231F20"/>
<path d="M13.1773 10.0578H33.36V10.3078H13.1773V10.0578Z" fill="#231F20"/>
<path d="M12.1166 13.0749H28.6941L28.9913 12.8499L28.1942 11.9049L28.6163 11.5824L29.4176 12.5316L30.6701 11.5824L30.9389 11.9049L29.6927 12.8499L29.8829 13.0749H32.2993V13.3249H30.0941L30.4899 13.7932L30.0619 14.1158L29.3945 13.3249H29.0628L28.019 14.1158L27.7452 13.7932L28.3638 13.3249H12.1166V13.0749Z" fill="#231F20"/>
<path d="M11.0556 16.0916H31.2382V16.3416H11.0556V16.0916Z" fill="#231F20"/>
<path d="M27.0013 19.1087H30.1776V19.3587H27.2127L27.7311 19.9719L27.3022 20.2953L26.5127 19.3587H26.4943L25.2594 20.2953L24.9855 19.9719L25.7949 19.3587H9.99489V19.1087H26.125L26.2308 19.0285L25.4341 18.0844L25.8574 17.7606L26.658 18.7102L27.9112 17.7606L28.1792 18.0844L26.9335 19.0285L27.0013 19.1087Z" fill="#231F20"/>
<path d="M8.93342 22.1254H29.1165V22.3754H8.93342V22.1254Z" fill="#231F20"/>
<path d="M7.87276 25.1425H28.0559V25.3925H7.87276V25.1425Z" fill="#231F20"/>
<path d="M6.81167 28.1592H23.1912V28.4092H6.81167V28.1592Z" fill="#231F20"/>
<path fill-rule="evenodd" clip-rule="evenodd" d="M4.56495 34.318C4.56495 34.249 4.62092 34.193 4.68995 34.193H5.45764C5.53716 33.1645 6.59012 32.3471 7.87286 32.3471C9.15601 32.3471 10.209 33.1645 10.2885 34.193H24.8726C24.9417 34.193 24.9976 34.249 24.9976 34.318C24.9976 34.3871 24.9417 34.443 24.8726 34.443H10.2885C10.2091 35.4716 9.15609 36.2888 7.87286 36.2888C6.59004 36.2888 5.53702 35.4716 5.45763 34.443H4.68995C4.62092 34.443 4.56495 34.3871 4.56495 34.318ZM6.00933 34.443C6.0928 35.1689 6.8967 35.7398 7.87286 35.7398C8.84902 35.7398 9.6533 35.1689 9.73681 34.443H6.00933ZM9.73678 34.193C9.6531 33.4677 8.84891 32.8969 7.87286 32.8969C6.89682 32.8969 6.093 33.4677 6.00936 34.193H9.73678Z" fill="#231F20"/>
<path fill-rule="evenodd" clip-rule="evenodd" d="M40.9335 22.0597L38.3816 23.7086L36.2732 20.4003L38.8201 18.7602C39.1787 18.5225 39.5882 18.3645 39.9356 18.3314C40.2829 18.2973 40.5484 18.3902 40.6702 18.5804L41.8663 20.441C41.9772 20.633 41.9507 20.9135 41.7756 21.2176C41.6005 21.5217 41.2872 21.8308 40.9335 22.0597ZM34.7414 22.5242C34.6793 22.5301 34.6083 22.554 34.5306 22.604L26.2003 27.9872C26.1235 28.0367 26.0718 28.093 26.0411 28.1463C25.9735 28.2631 26.0197 28.3341 26.152 28.3215C26.2138 28.3156 26.2852 28.2917 26.362 28.2421L34.6936 22.8581C34.7709 22.8086 34.8213 22.7527 34.8523 22.6989C34.9199 22.5826 34.8737 22.5112 34.7414 22.5242ZM26.1256 30.6126L24.9353 28.7432L23.5363 29.647L22.9848 30.6042L24.2927 30.4778L23.6337 31.6227L24.727 31.5164L26.1256 30.6126ZM37.3984 24.3441L24.6089 32.6088L20.3577 33.0209L22.501 29.3001L35.2895 21.0357L37.3984 24.3441ZM18.7076 8.64965C15.8495 8.64965 13.5248 10.0886 13.5248 11.8572C13.5248 13.6254 15.8495 15.0639 18.7076 15.0639C21.5653 15.0639 23.8899 13.6254 23.8899 11.8572C23.8899 10.0886 21.5653 8.64965 18.7076 8.64965ZM18.7076 15.4801C15.6201 15.4801 13.109 13.8551 13.109 11.8572C13.109 9.85925 15.6201 8.23385 18.7076 8.23385C21.7946 8.23385 24.3057 9.85925 24.3057 11.8572C24.3057 13.8551 21.7946 15.4801 18.7076 15.4801ZM15.0043 22.4309C10.4699 22.4309 6.63912 23.8996 6.63912 25.6389C6.63912 27.3768 10.4699 28.8451 15.0043 28.8451C19.5386 28.8451 23.3694 27.3768 23.3694 25.6389C23.3694 23.8996 19.5386 22.4309 15.0043 22.4309ZM15.0043 29.2614C10.0802 29.2614 6.22332 27.67 6.22332 25.6389C6.22332 23.6069 10.0802 22.0151 15.0043 22.0151C19.9283 22.0151 23.7852 23.6069 23.7852 25.6389C23.7852 27.67 19.9283 29.2614 15.0043 29.2614ZM12.6594 15.0378L13.1424 15.4796L13.4981 13.8677L11.924 14.3654L12.4137 14.8131C11.1953 16.5053 10.9424 18.6834 11.7539 20.4865L11.1923 20.8397L12.6527 21.6091L12.5893 19.9598L12.0365 20.3084C11.3011 18.6317 11.5388 16.6166 12.6594 15.0378Z" fill="#231F20"/>
</svg>
