<svg width="42" height="42" viewBox="0 0 42 42" fill="none" xmlns="http://www.w3.org/2000/svg">
<path d="M12.7429 39.291C12.7383 39.6735 12.4282 39.9817 12.0457 39.984H4.38909C4.00662 39.9817 3.69647 39.6735 3.69189 39.291V30.9372C3.69643 30.554 4.00594 30.2445 4.38909 30.24H12.0457C12.4289 30.2445 12.7384 30.554 12.7429 30.9372V39.291ZM12.0457 31.2858C12.0434 31.0942 11.8887 30.9395 11.6971 30.9372H4.73769C4.54612 30.9395 4.39136 31.0942 4.38909 31.2858V32.676C4.38909 32.8685 4.54517 33.0246 4.73769 33.0246H11.6971C11.8896 33.0246 12.0457 32.8685 12.0457 32.676V31.2858ZM5.08629 33.7218C4.70401 33.722 4.39317 34.03 4.38944 34.4122C4.38572 34.7945 4.69051 35.1084 5.07272 35.1161C5.45492 35.1237 5.77198 34.8221 5.78349 34.44C5.78918 34.2515 5.71824 34.0687 5.58687 33.9334C5.45549 33.7981 5.2749 33.7217 5.08629 33.7218ZM5.08629 35.8218C4.8043 35.8218 4.55008 35.9917 4.44217 36.2522C4.33425 36.5127 4.3939 36.8126 4.5933 37.012C4.7927 37.2114 5.09258 37.271 5.3531 37.1631C5.61363 37.0552 5.78349 36.801 5.78349 36.519C5.78688 36.3319 5.71492 36.1513 5.5838 36.0178C5.45268 35.8844 5.27341 35.8092 5.08629 35.8092V35.8218ZM5.08629 37.9218C4.70124 37.9218 4.38909 38.2339 4.38909 38.619C4.38909 39.0041 4.70124 39.3162 5.08629 39.3162C5.47135 39.3162 5.78349 39.0041 5.78349 38.619C5.79034 38.4298 5.71992 38.2459 5.58842 38.1096C5.45692 37.9734 5.27565 37.8965 5.08629 37.8966V37.9218ZM7.1863 33.747C6.90283 33.7419 6.6445 33.9089 6.53285 34.1695C6.4212 34.4301 6.47847 34.7324 6.67771 34.9341C6.87696 35.1358 7.1785 35.1967 7.44044 35.0883C7.70238 34.9798 7.87256 34.7235 7.87089 34.44C7.87658 34.2515 7.80564 34.0687 7.67427 33.9334C7.54289 33.7981 7.3623 33.7217 7.17369 33.7218L7.1863 33.747ZM7.1863 35.847C6.9043 35.847 6.65008 36.0169 6.54217 36.2774C6.43425 36.5379 6.4939 36.8378 6.6933 37.0372C6.8927 37.2366 7.19258 37.2962 7.4531 37.1883C7.71363 37.0804 7.88349 36.8262 7.88349 36.5442C7.89404 36.3506 7.82352 36.1614 7.68884 36.0219C7.55417 35.8825 7.36752 35.8054 7.17369 35.8092L7.1863 35.847ZM7.1863 37.947C6.80124 37.947 6.48909 38.2592 6.48909 38.6442C6.48909 39.0293 6.80124 39.3414 7.1863 39.3414C7.57135 39.3414 7.88349 39.0293 7.88349 38.6442C7.89772 38.4485 7.82883 38.2559 7.69374 38.1136C7.55865 37.9713 7.36986 37.8925 7.17369 37.8966L7.1863 37.947ZM9.28629 33.7722C8.9996 33.7621 8.73597 33.9286 8.62194 34.1918C8.50791 34.4551 8.56676 34.7613 8.77025 34.9635C8.97373 35.1657 9.28031 35.2227 9.54283 35.107C9.80535 34.9913 9.97021 34.7266 9.95829 34.44C9.96398 34.2515 9.89304 34.0687 9.76167 33.9334C9.63029 33.7981 9.4497 33.7217 9.26109 33.7218L9.28629 33.7722ZM9.28629 35.8722C8.90124 35.8722 8.5891 36.1844 8.5891 36.5694C8.5891 36.9545 8.90124 37.2666 9.28629 37.2666C9.67135 37.2666 9.98349 36.9545 9.98349 36.5694C10.0018 36.3694 9.93296 36.1712 9.7946 36.0256C9.65623 35.88 9.46179 35.8011 9.26109 35.8092L9.28629 35.8722ZM9.28629 37.9722C8.90124 37.9722 8.5891 38.2844 8.5891 38.6694C8.5891 39.0545 8.90124 39.3666 9.28629 39.3666C9.67135 39.3666 9.98349 39.0545 9.98349 38.6694C10.0057 38.4673 9.93863 38.2656 9.7998 38.1171C9.66096 37.9686 9.46422 37.888 9.26109 37.8966L9.28629 37.9722ZM11.3863 33.7974C11.0965 33.7825 10.8278 33.9487 10.7117 34.2146C10.5955 34.4805 10.6562 34.7905 10.864 34.993C11.0718 35.1955 11.3833 35.2481 11.6461 35.1252C11.9089 35.0022 12.068 34.7293 12.0457 34.44C12.0527 34.2497 11.981 34.0649 11.8475 33.929C11.714 33.7932 11.5305 33.7182 11.3401 33.7218L11.3863 33.7974ZM12.0835 36.582C12.1038 36.3208 11.976 36.0702 11.7525 35.9334C11.529 35.7965 11.2477 35.7965 11.0243 35.9334C10.8008 36.0702 10.673 36.3208 10.6933 36.582V38.682C10.673 38.9432 10.8008 39.1938 11.0243 39.3306C11.2477 39.4675 11.529 39.4675 11.7525 39.3306C11.976 39.1938 12.1038 38.9432 12.0835 38.682V36.582ZM31.4497 30.408C31.396 30.4726 31.3152 30.5083 31.2313 30.5046C31.1568 30.5067 31.0845 30.4795 31.0297 30.429C30.979 30.3794 30.9516 30.3108 30.9541 30.24C30.9621 30.1542 30.9849 30.0703 31.0213 29.9922C31.021 29.9582 31.0037 29.9266 30.9751 29.9082C30.9463 29.8858 30.9107 29.874 30.8743 29.8746C30.6979 29.8746 30.5467 30.0678 30.4249 30.4542C30.3272 30.8232 30.2515 31.1977 30.1981 31.5756H30.9961L30.9457 31.815H30.1309L29.4463 34.1544C29.3391 34.684 29.1416 35.1912 28.8625 35.6538C28.6783 35.9992 28.3215 36.2178 27.9301 36.225C27.7781 36.23 27.6293 36.1808 27.5101 36.0864C27.4111 36.0125 27.3497 35.8989 27.3421 35.7756C27.3418 35.7029 27.3654 35.632 27.4093 35.574C27.46 35.5107 27.5384 35.4762 27.6193 35.4816C27.696 35.4786 27.7705 35.5075 27.8251 35.5614C27.8813 35.613 27.912 35.6867 27.9091 35.763C27.9078 35.8089 27.8948 35.8537 27.8713 35.8932C27.8523 35.9194 27.8394 35.9496 27.8335 35.9814C27.8364 36.0059 27.8525 36.0269 27.8755 36.036C27.908 36.0521 27.9443 36.0594 27.9805 36.057C28.1877 36.057 28.3599 35.8974 28.4971 35.5782C28.5883 35.356 28.6573 35.1253 28.7029 34.8894L29.5429 31.815H28.8835L28.9339 31.5756H29.6269C29.7042 31.1453 29.8458 30.729 30.0469 30.3408C30.2056 29.9834 30.551 29.745 30.9415 29.7234C31.0941 29.7141 31.2444 29.7637 31.3615 29.862C31.4611 29.9386 31.5212 30.0557 31.5253 30.1812C31.5288 30.2635 31.5018 30.3442 31.4497 30.408ZM33.1339 29.9124C32.934 30.1172 32.7527 30.3392 32.5921 30.576C32.3364 30.9649 32.1397 31.3895 32.0083 31.836C31.8801 32.2321 31.7846 32.6381 31.7227 33.0498C31.6738 33.371 31.6471 33.6952 31.6429 34.02C31.638 34.3501 31.6591 34.6802 31.7059 35.007C31.775 35.3494 31.8691 35.6863 31.9873 36.015L31.8655 36.057C31.6199 35.6465 31.432 35.2041 31.3069 34.7424C31.1919 34.3108 31.134 33.866 31.1347 33.4194C31.1246 32.8898 31.2232 32.3638 31.4245 31.8738C31.8076 31.0797 32.3594 30.3787 33.0415 29.82L33.1339 29.9124ZM32.4199 34.2636C32.4712 34.2262 32.5328 34.2057 32.5963 34.2048H32.6803C32.713 34.2143 32.7441 34.2284 32.7727 34.2468L32.8987 34.314H32.9491H32.9995C33.0498 34.3161 33.0991 34.2996 33.1381 34.2678C33.1675 34.2384 33.2515 34.1334 33.3859 33.957C33.5203 33.7806 33.6757 33.537 33.9865 33.117C33.9865 33.117 33.9613 32.97 33.9067 32.7306C33.8521 32.4912 33.8017 32.3106 33.7555 32.1216C33.7284 32.0052 33.6875 31.8924 33.6337 31.7856C33.5844 31.7265 33.5085 31.6965 33.4321 31.7058C33.3652 31.712 33.2991 31.7246 33.2347 31.7436L33.0331 31.794L33.0037 31.6806L33.3985 31.5462C33.4928 31.5257 33.5881 31.5103 33.6841 31.5C33.7569 31.4817 33.8316 31.4719 33.9067 31.4706C33.9918 31.4641 34.0752 31.4965 34.1335 31.5588C34.2385 31.7315 34.3044 31.925 34.3267 32.1258L34.4023 32.5458C34.5533 32.3026 34.7203 32.0697 34.9021 31.8486C34.9908 31.7447 35.0941 31.6541 35.2087 31.5798C35.2885 31.5226 35.3836 31.4905 35.4817 31.4874C35.5544 31.4734 35.6295 31.4777 35.7001 31.5C35.7914 31.5451 35.845 31.6423 35.8345 31.7436C35.8387 31.8131 35.8145 31.8814 35.7673 31.9326C35.7202 31.9782 35.6564 32.0025 35.5909 31.9998H35.5153L35.4397 31.9746L35.3473 31.9326L35.2717 31.9032H35.2171C35.1121 31.9032 34.9609 32.0418 34.7719 32.3232C34.6505 32.4543 34.5473 32.6013 34.4653 32.76C34.479 32.8774 34.5001 32.9938 34.5283 33.1086C34.5745 33.306 34.6207 33.5286 34.6753 33.7344C34.705 33.8773 34.7457 34.0177 34.7971 34.1544C34.8517 34.2846 34.9147 34.3476 34.9819 34.3476C35.0597 34.3424 35.1315 34.3042 35.1793 34.2426C35.287 34.1193 35.3879 33.9904 35.4817 33.8562L35.5825 33.915C35.4969 34.089 35.3957 34.2549 35.2801 34.4106C35.1456 34.6165 34.9276 34.7531 34.6837 34.7844C34.5652 34.7837 34.4569 34.7174 34.4023 34.6122C34.3477 34.5092 34.3081 34.3989 34.2847 34.2846L34.0621 33.3984L33.3271 34.3602C33.2284 34.4846 33.1172 34.5986 32.9953 34.7004C32.9114 34.758 32.8114 34.7875 32.7097 34.7844C32.5862 34.7996 32.4646 34.7445 32.3947 34.6416C32.3632 34.5867 32.3472 34.5243 32.3485 34.461C32.337 34.3873 32.364 34.3129 32.4199 34.2636ZM35.4313 35.9142C35.6381 35.6969 35.8277 35.4638 35.9983 35.217C36.2346 34.8456 36.417 34.4426 36.5401 34.02C36.6647 33.6374 36.7587 33.2456 36.8215 32.8482C36.8786 32.4884 36.9081 32.1247 36.9097 31.7604C36.9153 31.3853 36.8801 31.0107 36.8047 30.6432C36.7496 30.3703 36.6651 30.1041 36.5527 29.8494L36.6871 29.8074C36.924 30.2004 37.1049 30.6245 37.2247 31.0674C37.3533 31.521 37.4183 31.9903 37.4179 32.4618C37.4265 32.9457 37.3454 33.4271 37.1785 33.8814C36.8084 34.7375 36.2311 35.4881 35.4985 36.0654L35.4313 35.9142ZM29.0725 37.7706V38.3082L26.5945 39.06L29.0725 39.8286V40.3662L25.9561 39.3162V38.8122L29.0725 37.7706ZM29.0725 40.9374H25.9561V40.4586H29.0725V40.9374ZM31.3951 37.7706L34.5115 38.8206V39.3246L31.3951 40.3746V39.837L33.8773 39.06L31.3951 38.2998V37.7706ZM34.5115 40.4586V40.9374H31.3951V40.4586H34.5115Z" fill="#231F20"/>
<path d="M39.938 38.4636V38.9634H38.825L38.4764 39.7404H39.938V40.2486H38.258L37.9388 40.9668H37.4096L37.7288 40.2486H36.8384V39.7404H37.9556L38.3042 38.9634H36.8384V38.4636H38.5184L38.8376 37.7412H39.3584L39.0602 38.4636H39.938Z" fill="#231F20"/>
<path d="M0.0756836 21H41.9287M20.6977 0V42V0Z" stroke="#231F20"/>
<path d="M8.56384 22.4111C9.34554 22.4111 9.97924 21.7793 9.97924 20.9999C9.97924 20.2206 9.34554 19.5887 8.56384 19.5887C7.78213 19.5887 7.14844 20.2206 7.14844 20.9999C7.14844 21.7793 7.78213 22.4111 8.56384 22.4111Z" fill="#231F20"/>
<path d="M30.2401 22.4111C31.0218 22.4111 31.6555 21.7793 31.6555 20.9999C31.6555 20.2206 31.0218 19.5887 30.2401 19.5887C29.4584 19.5887 28.8247 20.2206 28.8247 20.9999C28.8247 21.7793 29.4584 22.4111 30.2401 22.4111Z" fill="#231F20"/>
<path d="M30.3662 27.5772C30.1203 27.5772 29.921 27.3779 29.921 27.132C29.921 15.5694 28.7954 10.857 26.561 10.1556C24.3266 9.45423 20.9666 14.28 17.9468 18.5388C14.927 22.7976 12.281 26.5188 10.2734 25.8804C8.73616 25.3932 8.04736 22.575 8.04736 16.7328V8.49243C8.06971 8.26212 8.26327 8.08643 8.49466 8.08643C8.72605 8.08643 8.91962 8.26212 8.94196 8.49243V16.7328C8.94196 23.5158 9.94576 24.8472 10.5422 25.0362C11.9282 25.4562 14.7422 21.5166 17.2202 18.0264C20.5802 13.3056 24.0452 8.42103 26.8466 9.31143C28.5266 9.84903 30.8114 10.9284 30.8114 27.132C30.8114 27.3779 30.612 27.5772 30.3662 27.5772Z" fill="#231F20"/>
</svg>
