<svg width="42" height="42" viewBox="0 0 42 42" fill="none" xmlns="http://www.w3.org/2000/svg">
<g clip-path="url(#clip0)">
<path d="M4.64065 28.56C4.25845 28.56 3.86365 28.56 3.45205 28.56V28.4214C7.65205 28.5474 9.98305 28.0434 11.7219 26.6238C13.5573 25.1286 14.7879 22.4658 16.3419 18.8748C16.9618 17.2959 17.7638 15.7948 18.7316 14.4018C19.5002 13.3854 20.2269 12.8898 20.9577 12.8898C21.6675 12.8898 22.3689 13.3518 23.1039 14.3052C24.0237 15.6006 24.7838 17.0024 25.3677 18.48C25.5903 18.9882 25.7877 19.4754 25.9935 19.9458C27.2997 23.0034 28.2195 25.2 29.8953 26.5986C31.5711 27.9972 34.1246 28.5474 38.2952 28.3584V28.497C34.0952 28.6902 31.5753 28.1568 29.8407 26.7162C28.1061 25.2756 27.2031 23.0874 25.9011 19.9962C25.7037 19.5258 25.4811 19.0386 25.2795 18.5304C23.6541 14.7504 22.2765 12.9822 20.9535 12.9822C20.2563 12.9822 19.5549 13.461 18.8073 14.448C17.8431 15.8344 17.0439 17.3285 16.4259 18.9C14.8803 22.512 13.6455 25.2 11.8059 26.6994C10.1973 27.9972 8.13925 28.56 4.64065 28.56Z" fill="#231F20"/>
<path fill-rule="evenodd" clip-rule="evenodd" d="M19.6164 15.0359C18.702 16.3537 17.9436 17.7733 17.3565 19.266L17.351 19.2798L17.3452 19.2934C16.5742 21.0953 15.8602 22.7163 15.0993 24.0794C14.3378 25.4433 13.4958 26.6121 12.4376 27.4745L12.4338 27.4777C10.5673 28.9836 8.23761 29.56 4.64065 29.56H2.45205V27.391L3.48204 27.4219C7.62707 27.5462 9.64305 27.03 11.0894 25.8492L11.0903 25.8485C11.8707 25.2127 12.564 24.2939 13.2656 23.0454C13.9659 21.7991 14.6412 20.2865 15.4174 18.4932C16.0648 16.8478 16.9015 15.2833 17.9104 13.8312L17.9219 13.8147L17.934 13.7986C18.7538 12.7146 19.7398 11.8898 20.9577 11.8898C22.1402 11.8898 23.1 12.6623 23.8958 13.6947L23.9078 13.7102L23.9192 13.7262C24.8821 15.0823 25.6784 16.5492 26.2909 18.0955C26.4027 18.351 26.5079 18.6003 26.6083 18.8387L26.6158 18.8563C26.7166 19.0954 26.8123 19.3226 26.9096 19.545L26.9131 19.5529C28.2549 22.6939 29.0858 24.6205 30.536 25.8309C31.911 26.9784 34.1365 27.5458 38.25 27.3594L39.2952 27.3121V29.4521L38.3412 29.496C34.0819 29.6919 31.2361 29.175 29.2018 27.4855C27.3038 25.9092 26.3148 23.5583 25.105 20.6827C25.0634 20.5839 25.0216 20.4844 24.9795 20.3844L24.979 20.3832C24.9151 20.231 24.8424 20.0634 24.7661 19.8873C24.6311 19.5759 24.4847 19.238 24.3553 18.9126C23.5561 17.0558 22.8472 15.7654 22.2144 14.9536C21.5579 14.1115 21.141 13.9822 20.9535 13.9822C20.7467 13.9822 20.3088 14.1269 19.6164 15.0359Z" fill="#231F20"/>
<path fill-rule="evenodd" clip-rule="evenodd" d="M3.26968 21.124H1.85188V20.624H3.26968V21.124ZM8.94088 21.124H6.10528V20.624H8.94088V21.124ZM14.6121 21.124H11.7765V20.624H14.6121V21.124ZM20.2833 21.124H17.4477V20.624H20.2833V21.124ZM25.9545 21.124H23.1189V20.624H25.9545V21.124ZM31.6257 21.124H28.7901V20.624H31.6257V21.124ZM37.2969 21.124H34.4613V20.624H37.2969V21.124ZM41.5503 21.124H40.1325V20.624H41.5503V21.124Z" fill="#231F20"/>
<path fill-rule="evenodd" clip-rule="evenodd" d="M0.583496 0.0144043C0.99771 0.0144043 1.3335 0.350191 1.3335 0.764404V40.5738H41.6427C42.0569 40.5738 42.3927 40.9096 42.3927 41.3238C42.3927 41.738 42.0569 42.0738 41.6427 42.0738H0.583496C0.169283 42.0738 -0.166504 41.738 -0.166504 41.3238V0.764404C-0.166504 0.350191 0.169283 0.0144043 0.583496 0.0144043Z" fill="#231F20"/>
</g>
<defs>
<clipPath id="clip0">
<rect width="42" height="42" fill="white"/>
</clipPath>
</defs>
</svg>
