<svg width="42" height="42" viewBox="0 0 42 42" fill="none" xmlns="http://www.w3.org/2000/svg">
<path d="M16.0229 22.5246H13.9229V21.9198H16.0229V22.5246Z" fill="#231F20"/>
<path d="M20.0085 22.0038C20.1189 22.1053 20.2075 22.2282 20.2689 22.365C20.3467 22.542 20.3826 22.7346 20.3739 22.9278C20.3754 23.1424 20.334 23.3552 20.2521 23.5536C20.17 23.739 20.0515 23.9061 19.9035 24.045C19.7346 24.2038 19.5322 24.3229 19.3113 24.3936C19.0711 24.4698 18.82 24.5067 18.5679 24.5028C18.2934 24.5043 18.0197 24.4719 17.7531 24.4062C17.5278 24.3531 17.3073 24.2814 17.0938 24.192V23.4906H17.1441C17.3508 23.6255 17.5756 23.7302 17.8119 23.8014C18.0515 23.8826 18.3024 23.9251 18.5553 23.9274C18.7078 23.9249 18.8591 23.9009 19.0047 23.856C19.1459 23.8168 19.2766 23.7465 19.3869 23.6502C19.4863 23.5586 19.565 23.4469 19.6179 23.3226C19.6729 23.1808 19.6986 23.0293 19.6935 22.8774C19.6991 22.7241 19.6689 22.5717 19.6053 22.4322C19.5542 22.3209 19.4727 22.2262 19.3701 22.1592C19.2617 22.0857 19.1384 22.0369 19.0089 22.0164C18.8563 21.9904 18.7018 21.9778 18.5469 21.9786H18.2445V21.42H18.4797C18.7652 21.4355 19.0484 21.3621 19.2903 21.21C19.4941 21.067 19.6086 20.8283 19.5928 20.58C19.5952 20.4702 19.5692 20.3617 19.5171 20.265C19.4638 20.1753 19.3905 20.0992 19.3029 20.0424C19.2066 19.9853 19.1016 19.9442 18.9921 19.9206C18.8703 19.8976 18.7465 19.8864 18.6225 19.887C18.3927 19.8901 18.1647 19.9283 17.9463 20.0004C17.7074 20.0772 17.4799 20.1859 17.2701 20.3238H17.2197V19.6308C17.424 19.5396 17.6363 19.4679 17.8539 19.4166C18.1106 19.351 18.3745 19.3186 18.6393 19.32C18.8555 19.3163 19.0713 19.3388 19.2819 19.3872C19.4606 19.4262 19.6303 19.4989 19.7817 19.6014C19.9332 19.6985 20.0586 19.8311 20.1471 19.9878C20.2325 20.1508 20.2745 20.333 20.2689 20.517C20.2718 20.7879 20.1676 21.049 19.9791 21.2436C19.7947 21.4431 19.5523 21.5797 19.2861 21.6342V21.6804C19.413 21.7032 19.5369 21.7398 19.6557 21.7896C19.7839 21.8419 19.903 21.9142 20.0085 22.0038Z" fill="#231F20"/>
<path d="M22.5329 24.402H21.7349V23.4486H22.5329V24.402Z" fill="#231F20"/>
<path d="M27.2997 21.9114C27.3499 22.5932 27.2042 23.2752 26.8797 23.877C26.5608 24.2713 26.0807 24.5005 25.5735 24.5005C25.0663 24.5005 24.5863 24.2713 24.2673 23.877C23.9497 23.2773 23.8043 22.6013 23.8473 21.924C23.7993 21.2436 23.945 20.5636 24.2673 19.9626C24.5799 19.558 25.0623 19.3211 25.5735 19.3211C26.0848 19.3211 26.5672 19.558 26.8797 19.9626C27.1968 20.561 27.3422 21.2355 27.2997 21.9114ZM26.4219 23.4276C26.5051 23.2237 26.5575 23.0085 26.5773 22.7892C26.6084 22.4977 26.6224 22.2046 26.6193 21.9114C26.6222 21.6154 26.6082 21.3195 26.5773 21.0252C26.5587 20.8066 26.5048 20.5924 26.4177 20.391C26.3505 20.2343 26.2397 20.1002 26.0985 20.0046C25.9413 19.9115 25.7603 19.8663 25.5777 19.8744C25.3952 19.8668 25.2144 19.912 25.0569 20.0046C24.9134 20.1024 24.8011 20.2394 24.7335 20.3994C24.6464 20.6035 24.5939 20.8206 24.5781 21.042C24.5483 21.3322 24.5343 21.6238 24.5361 21.9156C24.5361 22.2642 24.5361 22.554 24.5697 22.7892C24.5909 23.006 24.6447 23.2184 24.7293 23.4192C24.7902 23.5794 24.8987 23.7172 25.0401 23.814C25.2012 23.9135 25.3886 23.9618 25.5777 23.9526C25.7602 23.9602 25.9411 23.915 26.0985 23.8224C26.2384 23.7249 26.3454 23.5873 26.4051 23.4276H26.4219Z" fill="#231F20"/>
<path d="M31.6552 20.16L29.3998 24.402H28.6858L31.0798 20.0088H28.249V19.4208H31.6552V20.16Z" fill="#231F20"/>
<path d="M35.9563 22.8186C35.9567 23.0471 35.914 23.2737 35.8303 23.4864C35.7518 23.6862 35.6332 23.8677 35.4817 24.0198C35.3184 24.1786 35.1239 24.3016 34.9105 24.381C34.6623 24.4679 34.4005 24.5091 34.1377 24.5028C33.8735 24.5051 33.61 24.4769 33.3523 24.4188C33.1326 24.3736 32.9186 24.3046 32.7139 24.213V23.52H32.7601C32.9619 23.6441 33.1776 23.7442 33.4027 23.8182C33.6355 23.8967 33.8793 23.9378 34.1251 23.94C34.2814 23.9389 34.4369 23.9163 34.5871 23.8728C34.7355 23.8268 34.8708 23.7462 34.9819 23.6376C35.0801 23.5402 35.156 23.4227 35.2045 23.2932C35.2589 23.1396 35.2846 22.9773 35.2801 22.8144C35.2824 22.6695 35.2523 22.526 35.1919 22.3944C35.1353 22.2794 35.0499 22.181 34.9441 22.1088C34.8186 22.0201 34.6752 21.9599 34.5241 21.9324C34.3419 21.8934 34.1559 21.8751 33.9697 21.8778C33.7798 21.8765 33.5902 21.8906 33.4027 21.9198C33.2221 21.945 33.0625 21.9744 32.9323 21.9996V19.4208H35.9269V20.0088H33.5749V21.3318H33.8689H34.1293C34.3676 21.3282 34.6056 21.3507 34.8391 21.399C35.039 21.444 35.2286 21.5267 35.3977 21.6426C35.5771 21.7609 35.722 21.9247 35.8177 22.1172C35.9173 22.3372 35.9647 22.5772 35.9563 22.8186Z" fill="#231F20"/>
<path d="M11.2895 39.48L10.3739 40.5006L6.77867 36.4644L3.17927 40.5006L2.26367 39.48L5.87987 35.4816L2.26367 31.5L3.17927 30.4836L6.77867 34.5198L10.3739 30.4836L11.2895 31.5L7.66067 35.5026L11.2895 39.48Z" fill="#231F20"/>
<path d="M39.5133 5.07778H31.9533V4.06138H39.5133V5.07778ZM39.5133 7.74898H31.9533V6.71999H39.5133V7.74898ZM37.7703 39.3162V39.7362C37.3616 39.908 36.9404 40.0484 36.5103 40.1562C36.0744 40.2724 35.6328 40.3663 35.1873 40.4376H34.7043V31.9956H31.0797V35.5908C31.0797 36.0108 31.0797 36.4308 31.0335 36.8508C30.9873 37.2708 30.9495 37.6908 30.8823 38.1108C30.8151 38.5308 30.7311 38.9088 30.6345 39.2826C30.5527 39.6194 30.4488 39.9505 30.3237 40.2738C30.1706 40.3474 30.0022 40.3834 29.8323 40.3788C29.6181 40.3788 29.4123 40.3788 29.2107 40.3788C29.036 40.3715 28.8619 40.3518 28.6899 40.32C28.5387 40.2948 28.4631 40.278 28.4631 40.2612L28.3707 40.11C28.6885 39.5953 28.9424 39.0439 29.1267 38.4678C29.3622 37.7677 29.5544 37.0537 29.7021 36.33C29.8617 35.5698 29.9793 34.8138 30.0633 34.0494C30.1392 33.3673 30.1798 32.6818 30.1851 31.9956H29.8659C29.506 31.9972 29.1528 32.0927 28.8411 32.2728C28.4786 32.4861 28.164 32.7721 27.9171 33.1128L27.6693 32.9616C27.7294 32.659 27.8122 32.3613 27.9171 32.0712C28.0129 31.8004 28.1646 31.5528 28.3623 31.3446C28.5782 31.123 28.8428 30.9547 29.1351 30.8532C29.5348 30.7242 29.9548 30.6701 30.3741 30.6936C30.5127 30.6936 30.7689 30.6936 31.1427 30.6936L32.4447 30.7314L34.0449 30.7692C34.6119 30.7692 35.1537 30.7692 35.6703 30.7692H36.6825C36.9156 30.7768 37.1489 30.7641 37.3797 30.7314C37.541 30.7013 37.6977 30.6505 37.8459 30.5802C37.9832 30.5093 38.1104 30.4203 38.2239 30.3156L38.4885 30.4836C38.4422 30.8799 38.2699 31.2508 37.9971 31.542C37.6715 31.8635 37.2229 32.0288 36.7665 31.9956H36.5397V39.165L37.7703 39.3162ZM5.84193 11.0838C5.90217 11.2483 5.95128 11.4167 5.98893 11.5878C6.01413 11.7222 6.04353 11.8902 6.06873 12.096C6.11493 11.8986 6.15693 11.718 6.19473 11.5416C6.23253 11.3652 6.27873 11.2098 6.32073 11.0586L9.26073 1.85638H12.3687V2.54938H9.73533L6.06873 13.7802H5.71173L3.35973 7.67339C3.04764 7.61634 2.74955 7.49938 2.48193 7.32898V6.98458H4.39713L5.84193 11.0838Z" fill="#231F20"/>
<path d="M9.9668 12.432L11.2604 11.2224C12.9404 9.68939 13.835 8.72339 13.835 7.67759C13.835 6.90059 13.3478 6.24539 12.2852 6.24539C11.6595 6.28038 11.0585 6.5012 10.559 6.87959L10.139 5.95979C10.8524 5.40413 11.7338 5.10788 12.638 5.11979C14.5658 5.11979 15.3638 6.32519 15.3638 7.42979C15.3638 8.96699 14.1962 10.0926 12.638 11.466L12.0038 12.0414V12.0792H15.4982V13.188H9.9668V12.432Z" fill="#231F20"/>
</svg>
