<svg width="42" height="42" viewBox="0 0 42 42" fill="none" xmlns="http://www.w3.org/2000/svg">
<path d="M7.25774 11.256H2.90234V10.353L3.81374 9.57601C4.11614 9.31562 4.40174 9.05941 4.65374 8.80322C5.07541 8.42467 5.45555 8.00229 5.78774 7.54321C5.98909 7.24104 6.09584 6.88572 6.09434 6.52261C6.11002 6.22466 5.9895 5.93571 5.76674 5.73721C5.50428 5.53874 5.17961 5.44045 4.85114 5.46001C4.56595 5.46574 4.28306 5.51242 4.01114 5.59861C3.69533 5.69414 3.39531 5.83566 3.12074 6.01861H3.06194V5.09461C3.33141 4.9729 3.61297 4.87999 3.90194 4.81741C4.22609 4.73576 4.55888 4.69346 4.89314 4.69141C5.45064 4.65843 6.00121 4.82852 6.44294 5.17021C6.82181 5.4902 7.02989 5.96849 7.00574 6.46381C7.00041 6.69347 6.96222 6.92118 6.89234 7.14001C6.83012 7.35209 6.73821 7.55429 6.61934 7.74061C6.50211 7.92729 6.37009 8.10426 6.22454 8.26981C6.07334 8.44201 5.88854 8.63101 5.67434 8.84101C5.36354 9.14341 5.04434 9.43741 4.71674 9.72301C4.38914 10.0128 4.08254 10.2774 3.78014 10.5H7.24094L7.25774 11.256Z" fill="#231F20"/>
<path d="M13.2513 11.256H12.2265L10.8573 9.40384L9.47967 11.256H8.53467L10.4163 8.84944L8.55147 6.43024H9.57627L10.9203 8.25724L12.2853 6.43024H13.2345L11.3403 8.82004L13.2513 11.256Z" fill="#231F20"/>
<path d="M20.1347 7.87922H15.0107V7.18622H20.1347V7.87922ZM20.1347 9.69362H15.0107V9.00062H20.1347V9.69362ZM26.7287 9.46262C26.7388 10.0009 26.5002 10.5138 26.0819 10.8528C25.101 11.5781 23.7616 11.5781 22.7807 10.8528C22.3762 10.5092 22.1479 10.0017 22.1591 9.47102C22.157 9.12281 22.2658 8.78297 22.4699 8.50082C22.6951 8.19627 22.9984 7.95827 23.3477 7.81202V7.78262C23.052 7.64083 22.791 7.4358 22.5833 7.18202C22.4063 6.93882 22.3174 6.64253 22.3313 6.34202C22.3287 5.86743 22.5496 5.41929 22.9277 5.13242C23.3606 4.79824 23.8975 4.62723 24.4439 4.64942C24.9943 4.62124 25.5375 4.78449 25.9811 5.11142C26.3545 5.39075 26.569 5.83392 26.5565 6.30002C26.5494 6.60066 26.4545 6.89265 26.2835 7.14002C26.0883 7.43365 25.8107 7.66306 25.4855 7.79942V7.82462C25.8394 7.96185 26.156 8.18057 26.4095 8.46302C26.6378 8.74425 26.7518 9.10114 26.7287 9.46262ZM25.8383 9.54662C25.8509 9.32086 25.7905 9.09705 25.6661 8.90822C25.4786 8.69719 25.2441 8.53319 24.9815 8.42942C24.8471 8.36642 24.6959 8.30762 24.5363 8.24882C24.3767 8.19002 24.1583 8.11862 23.8937 8.02202C23.6392 8.157 23.4237 8.35514 23.2679 8.59742C23.1071 8.8475 23.0251 9.14017 23.0327 9.43742C23.025 9.8053 23.1784 10.1582 23.4527 10.4034C23.7279 10.6594 24.0936 10.7954 24.4691 10.7814C24.8346 10.8 25.1943 10.6851 25.4813 10.458C25.7352 10.226 25.8671 9.88935 25.8383 9.54662ZM25.7081 6.32522C25.7174 6.0364 25.5838 5.76153 25.3511 5.59022C24.8038 5.23242 24.0966 5.23242 23.5493 5.59022C23.3258 5.75138 23.1955 6.01191 23.2007 6.28742C23.1967 6.48276 23.2588 6.67372 23.3771 6.82922C23.5196 7.00735 23.7005 7.15093 23.9063 7.24922L24.3641 7.45082C24.5558 7.53115 24.7522 7.59988 24.9521 7.65662C25.1952 7.51097 25.3987 7.30755 25.5443 7.06442C25.6631 6.83676 25.7196 6.58175 25.7081 6.32522ZM9.47092 37.2036H8.70232V36.7164L8.42512 36.9138C8.31723 36.9887 8.20346 37.0547 8.08492 37.1112C7.94398 37.1788 7.79611 37.2309 7.64392 37.2666C7.45175 37.3149 7.25403 37.3375 7.05592 37.3338C6.66391 37.3394 6.28591 37.1882 6.00592 36.9138C5.72411 36.6404 5.57147 36.2604 5.58592 35.868C5.57258 35.5713 5.65184 35.2777 5.81272 35.028C5.97461 34.803 6.19554 34.6271 6.45112 34.5198C6.77118 34.3867 7.10967 34.3031 7.45492 34.272C7.84552 34.2258 8.26552 34.1964 8.71492 34.1712V34.0536C8.71823 33.9082 8.68653 33.7642 8.62252 33.6336C8.56034 33.5217 8.46888 33.4288 8.35792 33.3648C8.23582 33.2974 8.10169 33.2546 7.96312 33.2388C7.80126 33.2054 7.63688 33.1858 7.47172 33.18C7.2441 33.1822 7.01739 33.209 6.79552 33.2598C6.53246 33.3172 6.27412 33.3944 6.02272 33.4908H5.98072V32.718C6.13192 32.6802 6.35032 32.634 6.63172 32.5836C6.90937 32.5375 7.19026 32.5136 7.47172 32.5122C7.75379 32.5081 8.03547 32.5349 8.31172 32.592C8.53499 32.6368 8.74574 32.73 8.92912 32.865C9.10328 32.9877 9.23995 33.1564 9.32392 33.3522C9.4237 33.587 9.471 33.8407 9.46252 34.0956L9.47092 37.2036ZM8.70232 36.078V34.818L7.86232 34.8768C7.60711 34.8941 7.35404 34.9349 7.10632 34.9986C6.90485 35.0489 6.71971 35.1501 6.56872 35.2926C6.28182 35.6229 6.29644 36.1181 6.60232 36.4308C6.81306 36.5818 7.0705 36.6533 7.32892 36.6324C7.58411 36.6348 7.83663 36.5803 8.06812 36.4728C8.29354 36.3652 8.50625 36.2328 8.70232 36.078Z" fill="#231F20"/>
<path d="M16.6324 34.86H14.3938V37.0986H13.7134V34.86H11.479V34.2006H13.7134V31.9662H14.3938V34.2006H16.6324V34.86Z" fill="#231F20"/>
<path d="M22.7053 34.86C22.7099 35.2123 22.656 35.5629 22.5457 35.8974C22.4553 36.1778 22.3128 36.4385 22.1257 36.666C21.947 36.8706 21.7283 37.0364 21.4831 37.1532C21.2424 37.2645 20.9798 37.3205 20.7145 37.317C20.4845 37.3193 20.2553 37.2881 20.0341 37.2246C19.8366 37.1596 19.6454 37.0767 19.4629 36.9768L19.4125 37.1868H18.6733V30.8196H19.4461V33.1002C19.6573 32.932 19.8887 32.7909 20.1349 32.6802C20.3987 32.5615 20.6858 32.5041 20.9749 32.5122C21.4716 32.4999 21.9426 32.7322 22.2349 33.1338C22.572 33.6443 22.7369 34.2492 22.7053 34.86ZM21.9115 34.86C21.9413 34.4227 21.8466 33.9859 21.6385 33.6C21.4455 33.3114 21.1109 33.1505 20.7649 33.18C20.5309 33.1817 20.2995 33.2302 20.0845 33.3228C19.855 33.4181 19.6401 33.5454 19.4461 33.7008V36.3258C19.6273 36.4109 19.8156 36.4798 20.0089 36.5316C20.184 36.5707 20.363 36.589 20.5423 36.5862C20.9233 36.6054 21.2924 36.4509 21.5461 36.1662C21.8102 35.798 21.9392 35.3501 21.9115 34.8978V34.86Z" fill="#231F20"/>
<path d="M25.532 24.0828H24.3602L22.781 21.945L21.1892 24.0828H20.0972L22.2602 21.3066L20.1056 18.5178H21.2858L22.8566 20.6178L24.4316 18.5178H25.5278L23.3396 21.2562L25.532 24.0828Z" fill="#231F20"/>
<path d="M32.2813 20.9076L27.4639 23.0496V22.2978L31.2439 20.6472L27.4639 19.0008V18.249L32.2813 20.391V20.9076Z" fill="#231F20"/>
<path d="M39.5053 18.5178L36.2545 26.1366H35.2549L36.2923 23.814L34.0747 18.5178H35.0911L36.8005 22.6422L38.5225 18.5178H39.5053Z" fill="#231F20"/>
</svg>
