<svg width="42" height="42" viewBox="0 0 42 42" fill="none" xmlns="http://www.w3.org/2000/svg">
<g clip-path="url(#clip0)">
<path fill-rule="evenodd" clip-rule="evenodd" d="M41.2755 3.76614C40.7244 3.2151 40.0621 2.93958 39.2885 2.93958H11.1539C10.3799 2.93958 9.71751 3.2151 9.16689 3.76614C8.61543 4.31718 8.34033 4.97952 8.34033 5.75316V6.14292C8.40443 6.13248 8.46821 6.12129 8.53196 6.1101L8.53201 6.11009C8.71971 6.07716 8.90722 6.04426 9.10221 6.03078C9.60033 5.99718 10.0985 6.02574 10.5911 6.08664V5.75316C10.5911 5.60112 10.6466 5.46924 10.7583 5.35794C10.8692 5.24622 11.0015 5.19078 11.1539 5.19078H39.2885C39.4409 5.19078 39.5724 5.24622 39.6841 5.35794C39.7954 5.46924 39.8508 5.60112 39.8508 5.75316V22.6342C39.8508 22.7863 39.7954 22.9186 39.6841 23.0294C39.5724 23.1412 39.4409 23.197 39.2885 23.197H19.6039C19.9004 23.675 20.1083 24.2147 20.1764 24.8107L20.1701 24.8115C20.1839 24.9299 20.2041 25.1248 20.2347 25.4474H24.0958V27.6982H20.4397L20.64 29.9494H32.5361C32.7003 29.9494 32.8352 29.8964 32.9406 29.7906C33.046 29.6852 33.0989 29.5504 33.0989 29.3861V28.261C33.0989 28.0967 33.046 27.9619 32.9406 27.8565C32.8352 27.7511 32.7003 27.6982 32.5361 27.6982H26.3466V25.4474H39.2885C40.0621 25.4474 40.7244 25.1723 41.2755 24.6208C41.8265 24.0702 42.102 23.4079 42.102 22.6342V5.75316C42.102 4.97952 41.8265 4.31718 41.2755 3.76614ZM10.219 20.4479C8.15552 20.5777 6.07442 19.7209 4.7363 18.1862C3.78878 17.1035 3.28142 15.8762 3.1823 14.4335C3.04076 12.3596 3.88748 10.3091 5.44652 8.94832C6.5318 8.00332 7.75778 7.49764 9.19502 7.39852C9.34244 7.38928 9.48944 7.38382 9.63812 7.38382C11.5529 7.38382 13.4404 8.23894 14.6857 9.66988C15.6282 10.751 16.133 11.9753 16.2304 13.4129C16.3724 15.4881 15.5253 17.5398 13.965 18.8994C12.8822 19.8427 11.6562 20.3488 10.219 20.4479ZM25.1723 32.0913C25.3688 32.0317 25.5671 32.0036 25.7628 32.0036C26.6465 32.0036 27.4646 32.5815 27.7309 33.4723C28.056 34.5605 27.4377 35.7059 26.3495 36.0314L18.3431 39.2431C18.1767 39.2927 18.01 39.3086 17.8441 39.3153L17.8164 39.3401C17.8164 39.3401 2.76694 39.3914 1.2982 39.3914C-0.17054 39.3914 0.00669988 38.9264 0.00669988 38.9264L0.34648 25.226C0.3973 24.4398 0.79294 23.6548 1.59178 23.1794C2.1277 22.8602 2.73334 22.7014 3.40786 22.7014C3.47674 22.7014 3.54646 22.7027 3.61702 22.706C4.06306 22.7274 4.45912 22.8316 4.82956 22.9794H8.37268H10.7234H14.4702C14.7689 22.8585 15.0864 22.7657 15.4354 22.7195C15.6223 22.6947 15.805 22.6825 15.9827 22.6825C16.5224 22.6825 17.0201 22.7963 17.4753 23.024C17.9302 23.2512 18.2536 23.5897 18.4775 23.9753C18.4853 23.9885 18.4916 24.0024 18.4979 24.0163L18.4979 24.0164C18.5034 24.0285 18.5088 24.0406 18.5153 24.0521C18.5833 24.1798 18.6497 24.3071 18.695 24.4431C18.7534 24.6132 18.7946 24.7888 18.8151 24.9677C18.8156 24.9694 18.8311 25.1399 18.8567 25.4222C18.8574 25.4277 18.8577 25.4314 18.858 25.4354L18.8592 25.4482L19.0613 27.699C19.0688 27.7855 19.0776 27.8838 19.086 27.9728C19.2574 29.8868 19.4779 32.3585 19.6505 34.306L25.1723 32.0913ZM37.422 8.96823H19.1406V9.71823H37.422V8.96823ZM37.422 11.4074H19.1406V12.1574H37.422V11.4074ZM37.422 13.8462H19.1406V14.5962H37.422V13.8462ZM37.422 16.2854H19.1406V17.0354H37.422V16.2854ZM19.1406 18.7242C18.9335 18.7242 18.7656 18.8921 18.7656 19.0992C18.7656 19.3063 18.9335 19.4742 19.1406 19.4742H37.422C37.6291 19.4742 37.797 19.3063 37.797 19.0992C37.797 18.8921 37.6291 18.7242 37.422 18.7242H19.1406Z" fill="#231F20"/>
</g>
<defs>
<clipPath id="clip0">
<rect width="42" height="42" fill="white"/>
</clipPath>
</defs>
</svg>
