<svg width="42" height="42" viewBox="0 0 42 42" fill="none" xmlns="http://www.w3.org/2000/svg">
<g clip-path="url(#clip0)">
<path d="M33.3481 33.5706C33.2833 33.6549 33.1812 33.702 33.0751 33.6966C32.9828 33.6994 32.8933 33.6645 32.8273 33.6C32.764 33.5414 32.7276 33.4594 32.7265 33.3732C32.7386 33.266 32.767 33.1612 32.8105 33.0624C32.8108 33.0205 32.7904 32.9811 32.7559 32.9574C32.7203 32.9286 32.6756 32.9137 32.6299 32.9154C32.4073 32.9154 32.2099 33.159 32.0713 33.6378C31.9461 34.0988 31.8507 34.5674 31.7857 35.0406H32.7811L32.7181 35.343H31.7017L30.8617 38.283C30.7251 38.9434 30.4796 39.5765 30.1351 40.1562C29.9032 40.5894 29.4546 40.8627 28.9633 40.8702C28.7707 40.8777 28.5817 40.8167 28.4299 40.698C28.3042 40.6064 28.227 40.4627 28.2199 40.3074C28.2211 40.216 28.252 40.1276 28.3081 40.0554C28.3711 39.9773 28.4683 39.9349 28.5685 39.942C28.664 39.9395 28.7564 39.9759 28.8247 40.0428C28.8945 40.1059 28.9329 40.1966 28.9297 40.2906C28.9303 40.3485 28.9142 40.4054 28.8835 40.4544C28.861 40.4889 28.8453 40.5274 28.8373 40.5678C28.84 40.5979 28.8595 40.624 28.8877 40.635C28.93 40.6534 28.9759 40.662 29.0221 40.6602C29.2741 40.6602 29.4883 40.4628 29.6647 40.0596C29.7803 39.7897 29.8662 39.5081 29.9209 39.2196L30.9835 35.3808H30.1435L30.2065 35.0784H31.0801C31.1836 34.5401 31.3677 34.0205 31.6261 33.537C31.8183 33.0731 32.2588 32.7599 32.7601 32.7306C32.9449 32.7235 33.1258 32.7848 33.2683 32.9028C33.3984 33.0028 33.4732 33.1587 33.4699 33.3228C33.4583 33.4168 33.4154 33.5041 33.3481 33.5706ZM35.4523 32.9532C35.2038 33.2128 34.979 33.4939 34.7803 33.7932C34.4609 34.2772 34.2133 34.8048 34.0453 35.3598C33.885 35.8557 33.767 36.3644 33.6925 36.8802C33.6335 37.2737 33.6027 37.6709 33.6001 38.0688C33.5943 38.4806 33.6224 38.8922 33.6841 39.2994C33.7689 39.7274 33.8854 40.1486 34.0327 40.5594L33.8773 40.614C33.2839 39.6164 32.9691 38.4778 32.9659 37.317C32.9539 36.6538 33.0768 35.9951 33.3271 35.3808C33.8086 34.3892 34.4992 33.5138 35.3515 32.8146L35.4523 32.9532ZM34.5619 38.3922C34.6248 38.3446 34.7013 38.3181 34.7803 38.3166C34.815 38.3106 34.8505 38.3106 34.8853 38.3166C34.9269 38.3269 34.9667 38.3439 35.0029 38.367L35.1583 38.451L35.2213 38.4762H35.2843C35.3466 38.4817 35.4086 38.462 35.4565 38.4216C35.5679 38.2964 35.6717 38.1645 35.7673 38.0268C35.8807 37.884 36.1285 37.527 36.5191 36.96C36.5191 36.96 36.4855 36.7794 36.4183 36.477C36.3511 36.1746 36.2839 35.9226 36.2293 35.7168C36.1978 35.5707 36.1469 35.4295 36.0781 35.2968C36.0164 35.2229 35.9217 35.185 35.8261 35.196C35.7436 35.204 35.6621 35.2195 35.5825 35.2422L35.3305 35.3052L35.2885 35.1666L35.7883 34.9944C35.9143 34.9482 36.0319 34.9146 36.1411 34.8852C36.2331 34.862 36.3275 34.8494 36.4225 34.8474C36.5279 34.8398 36.6311 34.8799 36.7039 34.9566C36.8457 35.1812 36.9334 35.4357 36.9601 35.7L37.0567 36.2082C37.244 35.905 37.4531 35.6158 37.6825 35.343C37.7908 35.2098 37.9198 35.095 38.0647 35.0028C38.1647 34.9328 38.2829 34.8935 38.4049 34.8894C38.4885 34.8868 38.5716 34.9026 38.6485 34.9356C38.7639 34.99 38.8328 35.111 38.8207 35.238C38.8253 35.3265 38.7934 35.4131 38.7325 35.4774C38.6739 35.5336 38.5952 35.5638 38.5141 35.5614C38.4834 35.5658 38.4523 35.5658 38.4217 35.5614C38.3885 35.5533 38.3561 35.5421 38.3251 35.5278L38.2117 35.4774L38.1151 35.4396H38.0479C37.9135 35.4396 37.7287 35.6118 37.4893 35.9604C37.3372 36.1345 37.2113 36.3297 37.1155 36.54C37.1332 36.6819 37.1613 36.8222 37.1995 36.96C37.2541 37.2078 37.3129 37.464 37.3801 37.7412C37.4167 37.924 37.4673 38.1037 37.5313 38.2788C37.5985 38.4384 37.6783 38.5182 37.7623 38.5182C37.8606 38.5119 37.9512 38.4628 38.0101 38.3838C38.146 38.2308 38.2722 38.0695 38.3881 37.9008L38.5099 37.9764C38.398 38.1876 38.2658 38.3873 38.1151 38.5728C37.9534 38.8352 37.6847 39.0133 37.3801 39.06C37.2313 39.0616 37.0945 38.9786 37.0273 38.8458C36.957 38.7138 36.906 38.5723 36.8761 38.4258L36.5989 37.3212L35.6749 38.514C35.5493 38.6677 35.4086 38.8084 35.2549 38.934C35.151 39.0085 35.0256 39.0469 34.8979 39.0432C34.7444 39.0593 34.5944 38.99 34.5073 38.8626C34.4644 38.7962 34.4411 38.7191 34.4401 38.64C34.4346 38.5418 34.4807 38.4478 34.5619 38.3922ZM38.3251 40.4502C38.5826 40.1797 38.8199 39.8905 39.0349 39.585C39.3359 39.1101 39.5691 38.5956 39.7279 38.0562C39.8808 37.5785 39.9973 37.0899 40.0765 36.5946C40.15 36.1447 40.188 35.6897 40.1899 35.2338C40.1951 34.7655 40.15 34.2981 40.0555 33.8394C39.9876 33.4983 39.8819 33.1659 39.7405 32.8482L39.9127 32.7936C40.5063 33.7911 40.821 34.9298 40.8241 36.0906C40.8337 36.6947 40.7326 37.2954 40.5259 37.863C40.0621 38.9313 39.3406 39.8679 38.4259 40.5888L38.3251 40.4502ZM5.70785 1.3902V2.1L2.40245 3.1206L5.70785 4.1454V4.8594L1.55405 3.4608V2.7888L5.70785 1.3902ZM5.70785 5.6154H1.55405V4.9728H5.70785V5.6154ZM8.82005 1.3902L12.9781 2.7888V3.4608L8.82005 4.8594V4.1454L12.1297 3.1206L8.82005 2.1V1.3902ZM12.9781 4.9728V5.6154H8.82005V4.9728H12.9781Z" fill="#231F20"/>
<path d="M20.2022 2.31422V2.97782H18.7154L18.2492 4.01522H20.2022V4.69562H17.9468L17.5268 5.64902H16.8254L17.2454 4.69562H16.0652V4.01522H17.5562L18.0182 2.97782H16.0652V2.31422H18.3164L18.7364 1.35242H19.4294L19.0094 2.31422H20.2022Z" fill="#231F20"/>
<path fill-rule="evenodd" clip-rule="evenodd" d="M22.2771 21.5V42H21.2771V21.5H0.340332V20.5H21.2771V0H22.2771V20.5H42.3613V21.5H22.2771Z" fill="#231F20"/>
<path fill-rule="evenodd" clip-rule="evenodd" d="M33.8267 1.85725C34.2182 2.24674 34.2199 2.87991 33.8304 3.27146L9.90718 27.3207C9.51769 27.7122 8.88453 27.7139 8.49298 27.3244C8.10143 26.9349 8.09976 26.3017 8.48926 25.9102L32.4125 1.86096C32.802 1.46941 33.4351 1.46775 33.8267 1.85725Z" fill="#231F20"/>
<path d="M29.3456 7.9926C30.2479 7.9926 30.9794 7.26112 30.9794 6.3588C30.9794 5.45648 30.2479 4.725 29.3456 4.725C28.4433 4.725 27.7118 5.45648 27.7118 6.3588C27.7118 7.26112 28.4433 7.9926 29.3456 7.9926Z" fill="#231F20"/>
<path d="M14.8009 22.6002C15.7032 22.6002 16.4347 21.8687 16.4347 20.9664C16.4347 20.0641 15.7032 19.3326 14.8009 19.3326C13.8986 19.3326 13.1671 20.0641 13.1671 20.9664C13.1671 21.8687 13.8986 22.6002 14.8009 22.6002Z" fill="#231F20"/>
<path d="M11.9071 39.48C11.9048 39.8641 11.594 40.1749 11.2099 40.1772H3.55333C3.17087 40.1726 2.8626 39.8625 2.86033 39.48V31.1052C2.86263 30.7234 3.17155 30.4145 3.55333 30.4122H11.2099C11.5924 30.4144 11.9026 30.7227 11.9071 31.1052V39.48ZM11.2099 31.4538C11.2099 31.2613 11.0539 31.1052 10.8613 31.1052H3.90193C3.71035 31.1074 3.5556 31.2622 3.55333 31.4538V32.8482C3.55563 33.0391 3.71103 33.1926 3.90193 33.1926H10.8613C11.0522 33.1926 11.2076 33.0391 11.2099 32.8482V31.4538ZM4.25053 33.8898C3.86548 33.8898 3.55333 34.2019 3.55333 34.587C3.55333 34.972 3.86548 35.2842 4.25053 35.2842C4.63559 35.2842 4.94773 34.972 4.94773 34.587C4.94773 34.2019 4.63559 33.8898 4.25053 33.8898ZM4.25053 35.9898C3.86548 35.9898 3.55333 36.3019 3.55333 36.687C3.55333 37.072 3.86548 37.3842 4.25053 37.3842C4.63559 37.3842 4.94773 37.072 4.94773 36.687C4.95111 36.4999 4.87915 36.3193 4.74804 36.1858C4.61692 36.0523 4.43764 35.9772 4.25053 35.9772V35.9898ZM4.25053 38.0898C3.86548 38.0898 3.55333 38.4019 3.55333 38.787C3.55333 39.172 3.86548 39.4842 4.25053 39.4842C4.63559 39.4842 4.94773 39.172 4.94773 38.787C4.95458 38.5977 4.88416 38.4139 4.75266 38.2776C4.62116 38.1414 4.43989 38.0645 4.25053 38.0646V38.0898ZM6.35053 33.915C5.96548 33.915 5.65333 34.2271 5.65333 34.6122C5.65333 34.9972 5.96548 35.3094 6.35053 35.3094C6.73559 35.3094 7.04773 34.9972 7.04773 34.6122C7.05469 34.4207 6.98257 34.2349 6.84831 34.0982C6.71404 33.9616 6.52947 33.8862 6.33793 33.8898L6.35053 33.915ZM6.35053 36.015C5.96548 36.015 5.65333 36.3271 5.65333 36.7122C5.65333 37.0972 5.96548 37.4094 6.35053 37.4094C6.73559 37.4094 7.04773 37.0972 7.04773 36.7122C7.05828 36.5186 6.98775 36.3294 6.85308 36.1899C6.71841 36.0505 6.53176 35.9734 6.33793 35.9772L6.35053 36.015ZM6.35053 38.115C5.96548 38.115 5.65333 38.4271 5.65333 38.8122C5.65333 39.1972 5.96548 39.5094 6.35053 39.5094C6.73559 39.5094 7.04773 39.1972 7.04773 38.8122C7.06196 38.6165 6.99307 38.4239 6.85798 38.2816C6.72289 38.1393 6.53409 38.0605 6.33793 38.0646L6.35053 38.115ZM8.45053 33.9402C8.06548 33.9402 7.75333 34.2523 7.75333 34.6374C7.75333 35.0224 8.06548 35.3346 8.45053 35.3346C8.83559 35.3346 9.14773 35.0224 9.14773 34.6374C9.16361 34.4391 9.09352 34.2436 8.9553 34.1005C8.81707 33.9575 8.62404 33.8807 8.42533 33.8898L8.45053 33.9402ZM8.45053 36.0402C8.06548 36.0402 7.75333 36.3523 7.75333 36.7374C7.75333 37.1224 8.06548 37.4346 8.45053 37.4346C8.83559 37.4346 9.14773 37.1224 9.14773 36.7374C9.16748 36.537 9.09912 36.338 8.96043 36.192C8.82174 36.0461 8.62644 35.9677 8.42533 35.9772L8.45053 36.0402ZM8.45053 38.1402C8.16854 38.1402 7.91432 38.3101 7.80641 38.5706C7.69849 38.8311 7.75814 39.131 7.95754 39.3304C8.15694 39.5298 8.45681 39.5894 8.71734 39.4815C8.97787 39.3736 9.14773 39.1194 9.14773 38.8374C9.17145 38.635 9.10487 38.4324 8.9657 38.2835C8.82653 38.1346 8.62888 38.0546 8.42533 38.0646L8.45053 38.1402ZM10.5505 33.9654C10.1655 33.9654 9.85333 34.2775 9.85333 34.6626C9.85333 35.0476 10.1655 35.3598 10.5505 35.3598C10.9356 35.3598 11.2477 35.0476 11.2477 34.6626C11.2725 34.4555 11.2027 34.2483 11.0577 34.0984C10.9127 33.9485 10.7079 33.8719 10.5001 33.8898L10.5505 33.9654ZM11.2477 36.75C11.2681 36.4888 11.1402 36.2382 10.9167 36.1013C10.6933 35.9645 10.412 35.9645 10.1885 36.1013C9.96508 36.2382 9.83721 36.4888 9.85753 36.75V38.85C9.83721 39.1112 9.96508 39.3618 10.1885 39.4986C10.412 39.6355 10.6933 39.6355 10.9167 39.4986C11.1402 39.3618 11.2681 39.1112 11.2477 38.85V36.75Z" fill="#231F20"/>
</g>
<defs>
<clipPath id="clip0">
<rect width="42" height="42" fill="white"/>
</clipPath>
</defs>
</svg>
