<svg width="42" height="42" viewBox="0 0 42 42" fill="none" xmlns="http://www.w3.org/2000/svg">
<g style="mix-blend-mode:multiply">
<path d="M38.535 8.91663L37.8588 9.66003L35.2044 6.67803L32.5458 9.66003L31.8696 8.90823L34.5492 5.96823L31.8696 3.02823L32.5458 2.27643L35.2044 5.25843L37.8588 2.27643L38.535 3.02823L35.8554 5.96823L38.535 8.91663Z" fill="#231F20"/>
<path d="M40.7904 38.4762H21.693V38.8962H40.7904V38.4762Z" fill="#231F20"/>
<path d="M22.1046 37.3338H21.6846V39.6438H22.1046V37.3338Z" fill="#231F20"/>
<path d="M31.5798 37.3338H31.1598V39.6438H31.5798V37.3338Z" fill="#231F20"/>
<path d="M36.3551 37.3338H35.9351V39.6438H36.3551V37.3338Z" fill="#231F20"/>
<path d="M26.8085 37.3338H26.3885V39.6438H26.8085V37.3338Z" fill="#231F20"/>
<path d="M41.0003 37.3338H40.5803V39.6438H41.0003V37.3338Z" fill="#231F20"/>
<path d="M12.6461 40.2738H1.34814V31.7982H2.05374V39.5682H12.6461V40.2738ZM4.87614 38.8584H3.46494V36.036H4.87614V38.8584ZM6.99714 38.8584H5.58174V33.2094H6.99714V38.8584ZM9.09714 38.8584H7.70274V34.6248H9.11395L9.09714 38.8584ZM11.2181 38.8584H9.81954V32.5038H11.2349L11.2181 38.8584ZM31.2605 30.0972L26.8799 25.725L27.0101 25.536C29.1943 22.3456 28.9078 18.0742 26.3171 15.204C24.0054 12.6273 20.3429 11.7453 17.1116 12.9871C13.8803 14.2289 11.7511 17.3367 11.7599 20.7984C11.7597 21.0959 11.7766 21.3932 11.8103 21.6888C11.9173 22.6248 12.1844 23.5355 12.5999 24.381C13.648 26.5919 15.6135 28.2315 17.9764 28.8661C20.3394 29.5007 22.8619 29.0664 24.8765 27.678L25.0655 27.5478L29.4251 31.92C29.6642 32.1662 29.9934 32.3043 30.3365 32.3022C30.8582 32.303 31.3292 31.9903 31.5311 31.5094C31.733 31.0284 31.6264 30.4733 31.2605 30.1014V30.0972ZM15.6407 24.381C15.0152 23.603 14.604 22.6749 14.4479 21.6888C14.3951 21.3948 14.3656 21.0971 14.3597 20.7984C14.3453 18.0884 16.2238 15.7356 18.8698 15.1498C21.5157 14.5639 24.2119 15.9038 25.3427 18.3666C25.7017 19.1213 25.8896 19.9459 25.8929 20.7816C25.9045 23.2326 24.3599 25.421 22.0468 26.2312C19.7336 27.0415 17.1611 26.2951 15.6407 24.3726V24.381ZM2.30574 9.69362C2.22371 9.6941 2.14441 9.66417 2.08314 9.60962C1.99844 9.54178 1.95283 9.4364 1.96134 9.32822L2.38134 2.80982C2.39481 2.6188 2.55983 2.47441 2.75094 2.48642C2.93964 2.49988 3.08216 2.66302 3.07014 2.85182L2.67534 8.90402L15.0233 5.96402C15.1466 5.92394 15.2819 5.95645 15.3735 6.04816C15.4651 6.13986 15.4975 6.27523 15.4572 6.39844C15.417 6.52165 15.311 6.61184 15.1829 6.63182L2.38554 9.68522L2.30574 9.69362Z" fill="#231F20"/>
<path d="M4.36365 8.88723H4.13265C4.14309 8.79231 4.14309 8.69654 4.13265 8.60163C4.08715 8.2231 3.88953 7.87939 3.58529 7.64963C3.28105 7.41986 2.89639 7.32383 2.51985 7.38363L2.41065 7.40463L2.36025 7.18203L2.51985 7.14003C2.95039 7.08149 3.38654 7.19641 3.73233 7.45949C4.07813 7.72258 4.30523 8.11228 4.36365 8.54283C4.37747 8.65721 4.37747 8.77284 4.36365 8.88723Z" fill="#231F20"/>
<path d="M3.7125 2.79531L3.59927 3.19976L4.26257 3.38546L4.3758 2.98101L3.7125 2.79531Z" fill="#231F20"/>
<path d="M11.5626 5.4306L10.3446 5.0904L10.4076 4.8678L11.6256 5.2122L11.5626 5.4306ZM9.12664 4.7502L7.91284 4.41L7.98004 4.2L9.19384 4.5402L9.12664 4.7502ZM6.69484 4.0656L5.48104 3.7254L5.53984 3.5028L6.75784 3.8472L6.69484 4.0656Z" fill="#231F20"/>
<path d="M12.8912 5.37074L12.7779 5.77519L13.4412 5.96089L13.5545 5.55644L12.8912 5.37074Z" fill="#231F20"/>
</g>
</svg>
