<svg width="42" height="42" viewBox="0 0 42 42" fill="none" xmlns="http://www.w3.org/2000/svg">
<path d="M37.9972 4.38482H25.3216V2.67542H37.9972V4.38482ZM37.9972 8.87461H25.3216V7.16522H37.9972V8.87461ZM18.1354 35.3472C18.3311 35.5258 18.4895 35.7413 18.6016 35.9814C18.7318 36.2907 18.7934 36.6246 18.7822 36.96C18.7873 37.3381 18.7129 37.713 18.5638 38.0604C18.4232 38.3916 18.2142 38.6893 17.9506 38.934C17.6536 39.2106 17.2994 39.4185 16.9132 39.543C16.4896 39.6777 16.0473 39.7444 15.6028 39.7404C15.1175 39.7399 14.6339 39.6821 14.1622 39.5682C13.7712 39.4789 13.3889 39.3553 13.0198 39.1986V37.968H13.108C13.4728 38.2019 13.8668 38.3869 14.2798 38.5182C14.7015 38.6565 15.1421 38.7287 15.586 38.7324C15.8551 38.7313 16.1226 38.6902 16.3798 38.6106C16.63 38.5417 16.8612 38.4168 17.056 38.2452C17.2338 38.0858 17.3768 37.8913 17.476 37.674C17.5726 37.4223 17.6183 37.1539 17.6104 36.8844C17.6081 36.6193 17.5464 36.3581 17.4298 36.12C17.3361 35.9228 17.191 35.7545 17.0098 35.6328C16.8208 35.5012 16.6061 35.411 16.3798 35.3682C16.1122 35.3211 15.8408 35.2987 15.5692 35.301H15.0316V34.3224H15.4516C15.9546 34.3471 16.4531 34.2166 16.8796 33.9486C17.2328 33.7001 17.4341 33.288 17.413 32.8566C17.4169 32.662 17.3706 32.4696 17.2786 32.298C17.1865 32.1388 17.0567 32.0046 16.9006 31.9074C16.733 31.8068 16.5499 31.7344 16.3588 31.6932C16.1428 31.6526 15.9233 31.6329 15.7036 31.6344C15.2993 31.6396 14.8983 31.7076 14.515 31.836C14.0937 31.9707 13.6925 32.1614 13.3222 32.403H13.2634V31.1724C13.6217 31.0072 13.9961 30.8791 14.3806 30.7902C14.8225 30.677 15.2768 30.6191 15.733 30.618C16.1129 30.612 16.4922 30.6515 16.8628 30.7356C17.1779 30.807 17.4779 30.9335 17.749 31.1094C18.0147 31.2831 18.235 31.5178 18.3916 31.794C18.5408 32.0833 18.6158 32.4051 18.61 32.7306C18.6092 33.202 18.4238 33.6544 18.0934 33.9906C17.7695 34.3413 17.3433 34.5809 16.8754 34.6752V34.7592C17.0981 34.799 17.3152 34.8653 17.5222 34.9566C17.7473 35.051 17.9547 35.1831 18.1354 35.3472Z" fill="#231F20"/>
<path d="M30.601 36.1998H27.3922V39.4128H26.4136V36.1998H23.2048V35.28H26.4136V32.046H27.3922V35.28H30.601V36.1998Z" fill="#231F20"/>
<path d="M40.3197 39.5724H39.2193V38.871L38.8203 39.1482C38.6683 39.2601 38.505 39.3558 38.3331 39.4338C38.1308 39.5328 37.9181 39.6088 37.6989 39.6606C37.4239 39.7266 37.1417 39.7577 36.8589 39.753C36.2979 39.7663 35.755 39.5546 35.3511 39.165C34.9408 38.7745 34.7162 38.2276 34.7337 37.6614C34.7129 37.2349 34.8243 36.8125 35.0529 36.4518C35.2863 36.1291 35.6048 35.8776 35.9727 35.7252C36.4318 35.5325 36.9176 35.4107 37.4133 35.364C37.9761 35.301 38.5767 35.2548 39.2235 35.2212V35.0532C39.2276 34.8406 39.18 34.6302 39.0849 34.44C38.9986 34.2776 38.8674 34.1434 38.7069 34.0536C38.5311 33.9572 38.3388 33.8945 38.1399 33.8688C37.9116 33.8381 37.6815 33.8227 37.4511 33.8226C37.1247 33.8268 36.7995 33.8648 36.4809 33.936C36.1035 34.0185 35.7328 34.1294 35.3721 34.2678H35.3133V33.1338C35.5275 33.075 35.8425 33.0078 36.2499 32.9364C36.6479 32.8666 37.0512 32.8315 37.4553 32.8314C37.8628 32.8258 38.2697 32.8638 38.6691 32.9448C38.9896 33.0148 39.2925 33.1491 39.5595 33.3396C39.8075 33.5189 40.0032 33.761 40.1265 34.041C40.2658 34.3774 40.3317 34.7397 40.3197 35.1036V39.5724ZM39.2193 37.9512V36.12C38.8791 36.12 38.4843 36.1662 38.0265 36.2082C37.6598 36.233 37.2958 36.2892 36.9387 36.3762C36.6501 36.4496 36.3845 36.5939 36.1659 36.7962C35.9613 37.0047 35.8545 37.29 35.8719 37.5816C35.853 37.8986 35.978 38.2071 36.2121 38.4216C36.5175 38.6343 36.8868 38.7352 37.2579 38.7072C37.6259 38.7114 37.9902 38.6339 38.3247 38.4804C38.6402 38.335 38.9399 38.1577 39.2193 37.9512ZM8.00072 22.2096H6.82892V24.4356H5.80832V22.2096H2.02832V21L5.85872 16.5354H6.83732V21.3612H8.00912L8.00072 22.2096ZM5.80832 21.3696V17.787L2.74232 21.3612L5.80832 21.3696Z" fill="#231F20"/>
<path d="M17.9 23.289L17.3078 23.877L14.9936 21.5418L12.6752 23.877L12.0872 23.289L14.4224 20.9706L12.0872 18.6564L12.6752 18.06L14.9936 20.3994L17.3078 18.06L17.9 18.6522L15.5606 20.9664L17.9 23.289Z" fill="#231F20"/>
<path d="M27.7198 22.2306C27.7336 22.8925 27.4405 23.5235 26.926 23.94C26.3612 24.4053 25.6455 24.6474 24.9142 24.6204C24.1718 24.6538 23.4433 24.4114 22.8688 23.94C22.3754 23.5226 22.0949 22.9062 22.1044 22.26C22.1001 21.8316 22.2342 21.4133 22.4866 21.0672C22.766 20.6969 23.1384 20.4071 23.566 20.2272V20.1978C23.2022 20.0193 22.8801 19.766 22.621 19.4544C22.4117 19.1594 22.3055 18.8037 22.3186 18.4422C22.314 17.8591 22.5848 17.3079 23.0494 16.9554C23.5825 16.5453 24.2421 16.3344 24.9142 16.359C25.5926 16.3249 26.2619 16.5267 26.8084 16.9302C27.2605 17.2717 27.5227 17.8084 27.514 18.375C27.5074 18.7517 27.3906 19.1182 27.178 19.4292C26.936 19.7891 26.5945 20.0707 26.1952 20.2398V20.2692C26.6309 20.4402 27.0206 20.7106 27.3334 21.0588C27.5974 21.3911 27.7344 21.8065 27.7198 22.2306ZM26.6278 22.3314C26.6416 22.0535 26.5666 21.7784 26.4136 21.546C26.1811 21.2886 25.8942 21.0862 25.5736 20.9538C25.3954 20.8731 25.2131 20.8016 25.0276 20.7396L24.2338 20.454C23.9233 20.6226 23.6604 20.8667 23.4694 21.1638C23.2757 21.4639 23.1749 21.8146 23.1796 22.1718C23.1664 22.6187 23.3453 23.0499 23.671 23.3562C24.0128 23.6721 24.4659 23.8398 24.931 23.8224C25.3782 23.8456 25.8186 23.7053 26.17 23.4276C26.483 23.1517 26.6531 22.7481 26.632 22.3314H26.6278ZM26.4598 18.3666C26.476 18.015 26.3192 17.6777 26.0398 17.4636C25.717 17.2263 25.3229 17.1063 24.9226 17.1234C24.5323 17.1085 24.1477 17.2205 23.8264 17.4426C23.5582 17.6377 23.4016 17.951 23.4064 18.2826C23.4011 18.5216 23.4766 18.7554 23.6206 18.9462C23.7986 19.1572 24.0209 19.3264 24.2716 19.4418C24.4018 19.5048 24.5908 19.5888 24.8386 19.6896C25.0727 19.789 25.3126 19.8746 25.5568 19.9458C25.8559 19.7667 26.1068 19.5173 26.2876 19.2192C26.413 18.9531 26.472 18.6605 26.4598 18.3666Z" fill="#231F20"/>
</svg>
