<svg width="42" height="42" viewBox="0 0 42 42" fill="none" xmlns="http://www.w3.org/2000/svg">
<path d="M12.2976 41.8068V41.7942L11.7894 41.5338L12.2976 41.8068Z" fill="#231F20"/>
<path d="M12.8646 35.7924H29.8578C30.5903 35.7919 31.2898 35.4878 31.7898 34.9524C31.2866 35.4751 30.5917 35.7695 29.8662 35.7672L12.8646 35.7924Z" fill="#231F20"/>
<path d="M7.94636 41.8068L8.44616 41.5338L7.94636 41.7942V41.8068Z" fill="#231F20"/>
<path d="M7.94636 34.839V41.7942L8.44616 41.5338L10.122 40.677L11.7894 41.5338L12.2976 41.7942L12.2976 34.839H7.94636Z" fill="#231F20"/>
<path d="M22.7388 10.2228H21.2352C21.0888 10.2261 20.9646 10.3311 20.937 10.4748L20.7018 11.7348C20.6872 11.7964 20.7024 11.8613 20.7429 11.91C20.7833 11.9588 20.8443 11.9856 20.9076 11.9826H22.4112C22.5551 11.9767 22.6773 11.8752 22.7094 11.7348L22.9446 10.4748C22.9607 10.4126 22.9463 10.3464 22.9056 10.2966C22.8649 10.2468 22.803 10.2194 22.7388 10.2228ZM22.4238 17.2536H21.672L22.428 13.2342C22.4426 13.1726 22.4273 13.1077 22.3869 13.059C22.3464 13.0103 22.2854 12.9834 22.2222 12.9864H19.7022C19.5571 12.9893 19.4334 13.0921 19.404 13.2342L19.1688 14.4942C19.1529 14.5557 19.1669 14.6211 19.2065 14.6706C19.2462 14.7202 19.3069 14.7482 19.3704 14.7462H20.16L19.6896 17.2662H18.9C18.7542 17.2711 18.6309 17.3753 18.6018 17.5182L18.3666 18.7782C18.3504 18.8404 18.3649 18.9066 18.4056 18.9564C18.4462 19.0062 18.5082 19.0336 18.5724 19.0302H22.0836C22.2299 19.0269 22.3541 18.9219 22.3818 18.7782L22.617 17.5182C22.6373 17.4565 22.6266 17.3888 22.5883 17.3363C22.55 17.2838 22.4887 17.2531 22.4238 17.2536ZM41.1894 9.4626C40.807 8.97939 40.2981 8.61158 39.7194 8.4C39.7194 8.5176 39.7194 8.6394 39.7194 8.7612C39.7269 9.11898 39.6801 9.47582 39.5808 9.8196L32.1258 34.3854C32.0577 34.6047 31.9431 34.8067 31.7898 34.9776C31.2898 35.513 30.5903 35.8171 29.8578 35.8176H12.8646V39.0054H29.82C32.0995 38.9048 34.0761 37.3972 34.776 35.2254L41.622 12.6714C41.977 11.592 41.8175 10.4095 41.1894 9.4626Z" fill="#231F20"/>
<path d="M3.29276 34.062C3.09536 33.516 3.12056 33.2892 3.31796 32.991C3.55827 32.7271 3.90712 32.5891 4.26296 32.6172H25.9014C29.064 32.6172 29.7108 31.7772 30.8784 27.9384L37.7034 5.38021C38.067 4.28981 37.9008 3.09216 37.254 2.14201C36.5891 1.24494 35.5311 0.725311 34.4148 0.747607H15.4686C15.0416 0.774976 14.619 0.849632 14.2086 0.970207L14.2338 0.898807C11.0712 7.07805e-06 10.8738 3.41881 9.82376 4.95601C9.42476 5.53141 8.82836 6.02701 8.73176 6.50161C8.63516 6.97621 8.90396 7.37101 8.85356 7.79521C8.55515 9.39196 7.96423 10.9198 7.11056 12.3018C6.73676 12.8016 6.19076 13.0494 6.01436 13.6206C5.86736 14.0406 6.11516 14.5908 6.06476 15.1158C5.93876 16.2834 5.06936 18.501 4.38476 19.6476C4.13696 20.0928 3.66236 20.4456 3.54476 20.9076C3.42716 21.3696 3.67076 21.8778 3.54476 22.3524C3.13837 23.9535 2.51073 25.4901 1.67996 26.9178C1.25996 27.5898 0.755958 28.014 0.655158 28.6104C0.604758 28.9086 0.827358 29.232 0.802158 29.631C0.781158 30.24 0.680358 30.7272 0.629958 31.2228C0.274124 32.2501 0.291971 33.37 0.680358 34.3854C1.60016 36.9768 4.31336 39.0054 6.85436 39.0054H7.37516V35.805H6.87956C5.51036 35.805 3.77996 35.5068 3.29276 34.062ZM15.0738 14.994C15.6954 11.6676 18.9 8.96701 22.2138 8.96701C25.5276 8.96701 27.72 11.6676 27.1152 14.994C26.5104 18.3204 23.289 21 19.9626 21C16.6362 21 14.448 18.3204 15.0738 14.994Z" fill="#231F20"/>
</svg>
