<svg width="42" height="42" viewBox="0 0 42 42" fill="none" xmlns="http://www.w3.org/2000/svg">
<g clip-path="url(#clip0)">
<path d="M26.5982 11.0921H26.0396L25.3046 10.0799L24.5612 11.0795H24.0488L25.0652 9.78171L24.0572 8.47131H24.6116L25.3466 9.45831L26.0858 8.47131H26.5982L25.5734 9.75651L26.5982 11.0921Z" fill="#231F20"/>
<path d="M29.8195 9.26515H27.0391V8.89555H29.8195V9.26515ZM29.8195 10.248H27.0391V9.87415H29.8195V10.248ZM32.7595 11.0922H30.3949V10.605L30.8863 10.185C31.0501 10.0464 31.2055 9.90355 31.3483 9.76495C31.5773 9.55856 31.783 9.32756 31.9615 9.07615C32.0691 8.91292 32.1261 8.72149 32.1253 8.52595C32.1328 8.36651 32.068 8.21218 31.9489 8.10595C31.807 7.99458 31.6291 7.93927 31.4491 7.95055C31.2922 7.95303 31.1365 7.9785 30.9871 8.02615C30.8159 8.07968 30.6532 8.15747 30.5041 8.25715V7.76155C30.6386 7.6971 30.7793 7.64644 30.9241 7.61035C31.1008 7.57375 31.2812 7.55685 31.4617 7.55995C31.7638 7.54305 32.062 7.63548 32.3017 7.82035C32.5094 7.9904 32.6233 8.24951 32.6083 8.51755C32.6109 8.76469 32.5408 9.00715 32.4067 9.21475C32.3436 9.31484 32.2734 9.41029 32.1967 9.50035C32.1127 9.59275 32.0119 9.69355 31.8985 9.81115C31.7851 9.92875 31.5583 10.1304 31.3819 10.2858L30.8821 10.7058H32.7595V11.0922Z" fill="#231F20"/>
<path d="M34.2257 10.4286L33.5663 11.9574H33.2261L33.6461 10.4286H34.2257Z" fill="#231F20"/>
<path d="M36.2499 9.78182H34.7925V9.36182H36.2499V9.78182Z" fill="#231F20"/>
<path d="M38.4338 9.42059C38.5173 9.48621 38.5872 9.56754 38.6396 9.65999C38.6909 9.78363 38.7152 9.9168 38.711 10.0506C38.7098 10.1946 38.6813 10.3372 38.627 10.4706C38.571 10.6013 38.488 10.7187 38.3834 10.815C38.2621 10.9248 38.119 11.0078 37.9634 11.0586C37.7947 11.1105 37.619 11.136 37.4426 11.1342C37.2502 11.1349 37.0584 11.1123 36.8714 11.067C36.7145 11.0306 36.5613 10.98 36.4136 10.9158V10.458H36.4472C36.5925 10.5506 36.7492 10.624 36.9134 10.6764C37.0819 10.7299 37.2574 10.7582 37.4342 10.7604C37.5393 10.7585 37.6438 10.743 37.745 10.7142C37.8445 10.686 37.9364 10.6358 38.0138 10.5672C38.083 10.5042 38.1374 10.4268 38.1734 10.3404C38.2118 10.2414 38.2303 10.1358 38.228 10.0296C38.2318 9.92248 38.2102 9.81599 38.165 9.71879C38.1294 9.64039 38.0727 9.57348 38.0012 9.52559C37.9249 9.47603 37.839 9.44312 37.7492 9.42899C37.6427 9.40822 37.5343 9.39837 37.4258 9.39959H37.2158V9.01319H37.3796C37.579 9.02217 37.7766 8.97095 37.9466 8.86619C38.0815 8.76935 38.1601 8.61224 38.1566 8.44619C38.1586 8.36978 38.1397 8.29427 38.102 8.22779C38.0672 8.16418 38.0166 8.11064 37.955 8.07239C37.8878 8.03152 37.8138 8.00306 37.7366 7.98839C37.6524 7.97064 37.5664 7.96219 37.4804 7.96319C37.3192 7.96688 37.1593 7.99376 37.0058 8.04299C36.8398 8.09797 36.6817 8.1742 36.5354 8.26979V7.76159C36.6701 7.69877 36.8108 7.64952 36.9554 7.61459C37.1276 7.5754 37.3038 7.55707 37.4804 7.55999C37.63 7.55857 37.7794 7.57407 37.9256 7.6062C38.0505 7.6375 38.1696 7.68854 38.2784 7.75739C38.5059 7.89073 38.6439 8.13631 38.6396 8.39999C38.6421 8.58894 38.5679 8.77083 38.4338 8.90399C38.3054 9.04343 38.1364 9.13893 37.9508 9.17699V9.21059C38.0399 9.22687 38.1272 9.2522 38.2112 9.28619C38.2909 9.32111 38.3658 9.36629 38.4338 9.42059Z" fill="#231F20"/>
<path d="M0.163574 21.3276H41.7814M20.9704 0.10498V41.6598V0.10498Z" stroke="#231F20" stroke-linecap="square"/>
<path d="M27.3501 14.5908V23.331C27.3501 28.4046 23.7255 32.571 19.2903 32.571C14.8593 32.571 11.2305 28.4172 11.2305 23.331V14.5908" stroke="#231F20" stroke-width="2" stroke-linecap="round" stroke-linejoin="round"/>
<path d="M12.2344 20.3238C10.7728 19.1982 9.10116 20.8698 10.2268 22.3314C11.6884 23.457 13.36 21.7854 12.2344 20.3238ZM28.354 20.3238C26.8924 19.1982 25.2208 20.8698 26.3464 22.3314C27.808 23.457 29.4796 21.7854 28.354 20.3238Z" fill="#231F20"/>
</g>
<defs>
<clipPath id="clip0">
<rect width="42" height="42" fill="white"/>
</clipPath>
</defs>
</svg>
