<svg width="42" height="42" viewBox="0 0 42 42" fill="none" xmlns="http://www.w3.org/2000/svg">
<g clip-path="url(#clip0)">
<path fill-rule="evenodd" clip-rule="evenodd" d="M0.290039 -0.258606C0.704253 -0.258606 1.04004 0.0771805 1.04004 0.491394V40.9812H41.6012C42.0155 40.9812 42.3512 41.317 42.3512 41.7312C42.3512 42.1454 42.0155 42.4812 41.6012 42.4812H0.290039C-0.124175 42.4812 -0.459961 42.1454 -0.459961 41.7312V0.491394C-0.459961 0.0771805 -0.124175 -0.258606 0.290039 -0.258606Z" fill="#231F20"/>
<path fill-rule="evenodd" clip-rule="evenodd" d="M40.2111 15.4632C40.453 15.9596 40.2467 16.5582 39.7502 16.8001L2.27358 35.0617C1.7771 35.3037 1.17851 35.0973 0.936583 34.6008C0.694659 34.1044 0.901016 33.5058 1.39749 33.2638L38.8741 15.0022C39.3706 14.7603 39.9692 14.9667 40.2111 15.4632Z" fill="#231F20"/>
<path d="M5.46033 29.2152C5.80131 29.2152 6.07773 28.9388 6.07773 28.5978C6.07773 28.2568 5.80131 27.9804 5.46033 27.9804C5.11935 27.9804 4.84293 28.2568 4.84293 28.5978C4.84293 28.9388 5.11935 29.2152 5.46033 29.2152Z" fill="#231F20"/>
<path d="M13.1797 32.319C13.5207 32.319 13.7971 32.0426 13.7971 31.7016C13.7971 31.3606 13.5207 31.0842 13.1797 31.0842C12.8387 31.0842 12.5623 31.3606 12.5623 31.7016C12.5623 32.0426 12.8387 32.319 13.1797 32.319Z" fill="#231F20"/>
<path d="M23.0919 32.5374C23.4329 32.5374 23.7093 32.261 23.7093 31.92C23.7093 31.579 23.4329 31.3026 23.0919 31.3026C22.751 31.3026 22.4745 31.579 22.4745 31.92C22.4745 32.261 22.751 32.5374 23.0919 32.5374Z" fill="#231F20"/>
<path d="M18.5602 29.6898C18.9011 29.6898 19.1776 29.4134 19.1776 29.0724C19.1776 28.7314 18.9011 28.455 18.5602 28.455C18.2192 28.455 17.9428 28.7314 17.9428 29.0724C17.9428 29.4134 18.2192 29.6898 18.5602 29.6898Z" fill="#231F20"/>
<path d="M20.6391 18.648C20.98 18.648 21.2565 18.3716 21.2565 18.0306C21.2565 17.6896 20.98 17.4132 20.6391 17.4132C20.2981 17.4132 20.0217 17.6896 20.0217 18.0306C20.0217 18.3716 20.2981 18.648 20.6391 18.648Z" fill="#231F20"/>
<path d="M31.6681 16.1028C32.0091 16.1028 32.2855 15.8264 32.2855 15.4854C32.2855 15.1444 32.0091 14.868 31.6681 14.868C31.3271 14.868 31.0507 15.1444 31.0507 15.4854C31.0507 15.8264 31.3271 16.1028 31.6681 16.1028Z" fill="#231F20"/>
<path d="M16.2878 10.0128C16.6288 10.0128 16.9052 9.73639 16.9052 9.3954C16.9052 9.05442 16.6288 8.778 16.2878 8.778C15.9468 8.778 15.6704 9.05442 15.6704 9.3954C15.6704 9.73639 15.9468 10.0128 16.2878 10.0128Z" fill="#231F20"/>
<path d="M25.6539 19.047C25.9949 19.047 26.2713 18.7706 26.2713 18.4296C26.2713 18.0886 25.9949 17.8122 25.6539 17.8122C25.3129 17.8122 25.0365 18.0886 25.0365 18.4296C25.0365 18.7706 25.3129 19.047 25.6539 19.047Z" fill="#231F20"/>
<path d="M31.7985 22.4364C32.1395 22.4364 32.4159 22.16 32.4159 21.819C32.4159 21.478 32.1395 21.2016 31.7985 21.2016C31.4576 21.2016 31.1812 21.478 31.1812 21.819C31.1812 22.16 31.4576 22.4364 31.7985 22.4364Z" fill="#231F20"/>
<path d="M34.0623 11.277C34.4032 11.277 34.6797 11.0006 34.6797 10.6596C34.6797 10.3186 34.4032 10.0422 34.0623 10.0422C33.7213 10.0422 33.4449 10.3186 33.4449 10.6596C33.4449 11.0006 33.7213 11.277 34.0623 11.277Z" fill="#231F20"/>
<path d="M20.2402 24.2844C20.5811 24.2844 20.8576 24.008 20.8576 23.667C20.8576 23.326 20.5811 23.0496 20.2402 23.0496C19.8992 23.0496 19.6228 23.326 19.6228 23.667C19.6228 24.008 19.8992 24.2844 20.2402 24.2844Z" fill="#231F20"/>
<path d="M34.8812 36.1788C35.2221 36.1788 35.4986 35.9024 35.4986 35.5614C35.4986 35.2204 35.2221 34.944 34.8812 34.944C34.5402 34.944 34.2638 35.2204 34.2638 35.5614C34.2638 35.9024 34.5402 36.1788 34.8812 36.1788Z" fill="#231F20"/>
<path d="M26.2712 23.0538C26.6121 23.0538 26.8886 22.7774 26.8886 22.4364C26.8886 22.0954 26.6121 21.819 26.2712 21.819C25.9302 21.819 25.6538 22.0954 25.6538 22.4364C25.6538 22.7774 25.9302 23.0538 26.2712 23.0538Z" fill="#231F20"/>
<path d="M26.2712 27.6108C26.6121 27.6108 26.8886 27.3344 26.8886 26.9934C26.8886 26.6524 26.6121 26.376 26.2712 26.376C25.9302 26.376 25.6538 26.6524 25.6538 26.9934C25.6538 27.3344 25.9302 27.6108 26.2712 27.6108Z" fill="#231F20"/>
<path d="M15.4981 21.9786C15.8391 21.9786 16.1155 21.7022 16.1155 21.3612C16.1155 21.0202 15.8391 20.7438 15.4981 20.7438C15.1571 20.7438 14.8807 21.0202 14.8807 21.3612C14.8807 21.7022 15.1571 21.9786 15.4981 21.9786Z" fill="#231F20"/>
<path d="M10.8868 35.1162C11.2278 35.1162 11.5042 34.8398 11.5042 34.4988C11.5042 34.1578 11.2278 33.8814 10.8868 33.8814C10.5458 33.8814 10.2694 34.1578 10.2694 34.4988C10.2694 34.8398 10.5458 35.1162 10.8868 35.1162Z" fill="#231F20"/>
<path d="M38.7494 20.2608C39.0904 20.2608 39.3668 19.9844 39.3668 19.6434C39.3668 19.3024 39.0904 19.026 38.7494 19.026C38.4084 19.026 38.132 19.3024 38.132 19.6434C38.132 19.9844 38.4084 20.2608 38.7494 20.2608Z" fill="#231F20"/>
<path d="M6.83372 36.1788C7.1747 36.1788 7.45112 35.9024 7.45112 35.5614C7.45112 35.2204 7.1747 34.944 6.83372 34.944C6.49274 34.944 6.21632 35.2204 6.21632 35.5614C6.21632 35.9024 6.49274 36.1788 6.83372 36.1788Z" fill="#231F20"/>
<path d="M34.6795 25.9812C35.0205 25.9812 35.2969 25.7048 35.2969 25.3638C35.2969 25.0228 35.0205 24.7464 34.6795 24.7464C34.3386 24.7464 34.0621 25.0228 34.0621 25.3638C34.0621 25.7048 34.3386 25.9812 34.6795 25.9812Z" fill="#231F20"/>
<path d="M10.8868 24.8472C11.2278 24.8472 11.5042 24.5708 11.5042 24.2298C11.5042 23.8888 11.2278 23.6124 10.8868 23.6124C10.5458 23.6124 10.2694 23.8888 10.2694 24.2298C10.2694 24.5708 10.5458 24.8472 10.8868 24.8472Z" fill="#231F20"/>
<path d="M29.9337 28.5516C30.2747 28.5516 30.5511 28.2752 30.5511 27.9342C30.5511 27.5932 30.2747 27.3168 29.9337 27.3168C29.5927 27.3168 29.3163 27.5932 29.3163 27.9342C29.3163 28.2752 29.5927 28.5516 29.9337 28.5516Z" fill="#231F20"/>
</g>
<defs>
<clipPath id="clip0">
<rect width="42" height="42" fill="white"/>
</clipPath>
</defs>
</svg>
