<svg width="42" height="42" viewBox="0 0 42 42" fill="none" xmlns="http://www.w3.org/2000/svg">
<path fill-rule="evenodd" clip-rule="evenodd" d="M34.0518 24.9945H18.6979C18.8457 25.3414 18.936 25.7123 18.9629 26.1067C18.9856 26.441 18.9549 26.7724 18.8856 27.0945H24.0806C24.16 26.95 24.2473 26.8102 24.349 26.6795C25.0844 25.7333 26.0378 25.2532 27.1819 25.2532C27.3536 25.2532 27.5317 25.265 27.7106 25.2868C28.2781 25.3565 28.8152 25.5787 29.2651 25.929C29.6989 26.2667 30.0307 26.6598 30.2676 27.0945H34.2164C34.0766 26.7568 33.993 26.396 33.967 26.0138C33.9434 25.6686 33.9771 25.3263 34.0518 24.9945ZM18.3342 26.1499C18.2914 25.5224 18.0642 24.9722 17.653 24.4993C17.1003 23.8647 16.2779 23.4968 15.4383 23.4968C15.3737 23.4968 15.309 23.4989 15.2443 23.5031C14.6156 23.5463 14.0649 23.774 13.592 24.186C12.9091 24.7816 12.5357 25.6892 12.5979 26.5934C12.6403 27.2226 12.8688 27.7741 13.2825 28.2474C13.8352 28.8803 14.6559 29.2466 15.4934 29.2466C15.5585 29.2466 15.6231 29.2441 15.6878 29.2399C16.3157 29.197 16.8663 28.9698 17.3393 28.5574C18.0226 27.9618 18.396 27.0542 18.3342 26.1499ZM18.5573 29.9931C18.3763 29.9024 18.1785 29.857 17.9635 29.857C17.8929 29.857 17.8202 29.8621 17.7455 29.8717C17.6069 29.8902 17.4809 29.9272 17.3616 29.975H13.5253C13.3779 29.9162 13.22 29.8751 13.0427 29.8663C13.015 29.865 12.9869 29.8642 12.9596 29.8642C12.6908 29.8642 12.4501 29.928 12.2368 30.0544C11.9188 30.2443 11.7613 30.5563 11.7412 30.8692L11.6009 37.1894L12.1792 37.228V37.8702L18.7526 37.9294V37.2074L19.6502 37.1062C19.6502 37.1075 19.6506 37.1083 19.6506 37.1083C19.6556 37.1083 19.092 30.7722 19.0907 30.7663C19.055 30.4551 18.8828 30.1556 18.5573 29.9931ZM40.3178 25.5281C40.2749 24.9027 40.0486 24.3538 39.6386 23.8821C39.0868 23.2484 38.2661 22.8817 37.4294 22.8817C37.3648 22.8817 37.3001 22.8838 37.2354 22.8884C36.6088 22.9308 36.059 23.1581 35.5873 23.5697C34.9061 24.164 34.534 25.0691 34.5957 25.9708C34.6385 26.5983 34.8662 27.1485 35.2786 27.6206C35.8297 28.2518 36.6491 28.6172 37.484 28.6172C37.5487 28.6172 37.6134 28.6151 37.6781 28.6109C38.3043 28.5677 38.8537 28.3409 39.3253 27.9301C40.007 27.3362 40.3791 26.4303 40.3178 25.5281ZM41.6307 36.4596C41.6361 36.4596 41.0742 30.1395 41.0725 30.1332C41.0368 29.8228 40.865 29.5242 40.5403 29.362C40.3597 29.2717 40.1623 29.226 39.9477 29.226C39.8772 29.226 39.8049 29.231 39.731 29.2411C39.592 29.2591 39.4664 29.2957 39.3475 29.3444H35.5209C35.3739 29.2856 35.2164 29.244 35.0396 29.2356C35.0115 29.2344 34.9837 29.2339 34.9564 29.2339C34.6885 29.2339 34.4478 29.2969 34.2357 29.4234C33.9186 29.6124 33.7615 29.9236 33.7414 30.2361L33.6015 36.5398L34.1782 36.5785V37.2194L40.7352 37.2782V36.5579L41.6302 36.4571C41.6302 36.4588 41.6307 36.4596 41.6307 36.4596Z" fill="#231F20"/>
<path fill-rule="evenodd" clip-rule="evenodd" d="M29.5163 30.4537C29.7947 30.0954 29.9737 29.6611 30.0291 29.2109C30.1706 28.0622 29.7863 27.134 28.8775 26.4259C28.5192 26.1466 28.0845 25.9676 27.6343 25.9122C27.4789 25.8933 27.3285 25.8832 27.1815 25.8832C26.2373 25.8832 25.4591 26.278 24.8463 27.0664C24.5683 27.4242 24.3898 27.8581 24.3343 28.3083C24.1928 29.4583 24.5783 30.3886 25.4906 31.0958C25.8484 31.3735 26.2819 31.5515 26.7313 31.607C26.8854 31.6259 27.0358 31.6351 27.1815 31.6351C28.1248 31.6351 28.9031 31.2416 29.5163 30.4537Z" fill="#231F20"/>
<path fill-rule="evenodd" clip-rule="evenodd" d="M24.7775 32.3208L21.9833 29.5265C21.7191 29.2623 21.3667 29.0771 20.9963 29.0771C20.9681 29.0771 20.94 29.0784 20.9118 29.0805C20.6157 29.1036 20.3604 29.222 20.1466 29.4358C19.932 29.6504 19.814 29.9054 19.7909 30.2019C19.7602 30.6021 19.953 30.9885 20.2365 31.2725L23.8531 34.8887C23.88 34.916 23.8951 34.9525 23.8951 34.9903V40.2575L30.4685 40.3172V39.6347C30.5802 39.885 30.7852 40.0967 31.091 40.1815C31.2019 40.2122 31.3153 40.2277 31.4316 40.2277C31.587 40.2277 31.7466 40.2004 31.9104 40.145C32.1977 40.0488 32.4253 39.8925 32.5933 39.6775C32.8214 39.3856 32.8546 39.0374 32.7601 38.7384L31.8465 36.228C31.3867 34.6329 30.9037 32.9604 30.902 32.9579C30.8071 32.6593 30.5811 32.3985 30.2304 32.3006C30.1195 32.27 30.0057 32.2544 29.8898 32.2544C29.7348 32.2544 29.5752 32.2817 29.4106 32.3372C29.3908 32.3439 29.3765 32.3561 29.3572 32.3632H24.8792C24.841 32.3632 24.8044 32.3477 24.7775 32.3208Z" fill="#231F20"/>
<path fill-rule="evenodd" clip-rule="evenodd" d="M5.17732 12.6724C5.60362 13.0029 6.11938 13.215 6.65488 13.2805C8.02282 13.4485 9.12783 12.9907 9.97077 11.9076C10.3026 11.4813 10.5155 10.9638 10.5815 10.4275C10.7503 9.05953 10.2925 7.95409 9.21058 7.11115C8.78386 6.77851 8.26599 6.56557 7.72965 6.49921C6.35961 6.33079 5.25334 6.78901 4.4104 7.87345C4.07902 8.29975 3.8665 8.81677 3.80056 9.35269C3.63214 10.7223 4.09078 11.8294 5.17732 12.6724ZM39.3909 2.10001H15.1838C13.7978 2.10001 12.6638 3.23401 12.6638 4.62001V13.7138L14.7638 13.5828V4.62001C14.7638 4.39237 14.9561 4.20001 15.1838 4.20001H39.3909C39.6185 4.20001 39.8109 4.39237 39.8109 4.62001V23.1655C39.9176 23.2609 40.0196 23.3608 40.1137 23.4688C40.6144 24.0442 40.8945 24.7225 40.9466 25.4856C40.9735 25.8762 40.9306 26.2647 40.8319 26.6368C41.4821 26.1799 41.9109 25.4251 41.9109 24.5746V4.62001C41.9109 3.23401 40.7769 2.10001 39.3909 2.10001ZM12.6639 24.2734C12.8143 24.0702 12.9848 23.8799 13.178 23.7115C13.6417 23.307 14.1759 23.0529 14.7639 22.9387V16.9633L12.6639 17.1418V24.2734Z" fill="#231F20"/>
<path fill-rule="evenodd" clip-rule="evenodd" d="M12.5329 14.3533C11.2872 14.3751 10.3157 14.3919 10.2674 14.3932C10.1746 14.397 10.0729 14.4226 9.9587 14.4705L9.83732 14.4948L4.253 14.481C4.09928 14.4335 3.9527 14.41 3.81116 14.41C3.70406 14.41 3.59906 14.4234 3.4949 14.4503C3.47894 14.4604 3.45878 14.4696 3.43652 14.4772L3.4235 14.4818L3.4067 14.4894C3.15386 14.5856 2.9657 14.775 2.8775 15.0224L1.5335 19.3563C0.973222 20.8091 0.491902 22.0553 0.473422 22.1036C0.415042 22.2678 0.350782 22.595 0.592282 22.9116C0.748522 23.1183 0.962722 23.2649 1.2458 23.3606C1.41296 23.4173 1.57214 23.4455 1.7267 23.4455C1.83674 23.4455 1.94384 23.4312 2.0501 23.403C2.34074 23.3262 2.56586 23.1179 2.66876 22.831L3.59066 19.8536V23.2707L10.7911 23.3354V16.6683L14.8147 16.3265C15.2095 16.3281 15.5913 16.3286 15.9424 16.3286C16.3045 16.3286 16.6338 16.3281 16.9114 16.3281C17.4456 16.3281 17.7879 16.3298 17.8014 16.3399C17.974 16.3365 18.3028 16.2803 18.5137 15.9422C18.6502 15.7229 18.7119 15.4705 18.7002 15.171C18.6888 14.8707 18.6086 14.6204 18.4545 14.4054C18.2886 14.174 18.0265 14.0291 17.748 14.0291C17.7316 14.0291 17.7153 14.0295 17.6989 14.0303L12.5329 14.3533Z" fill="#231F20"/>
<path d="M23.9771 16.1914H20.6531L19.7651 18.3874H18.5891L22.0451 9.86736H22.6691L26.1371 18.3874H24.8891L23.9771 16.1914ZM21.0131 15.1834H23.6291L22.6571 12.7954L22.3331 11.5114H22.3091L21.9851 12.8194L21.0131 15.1834Z" fill="#231F20"/>
<path d="M27.2115 12.4834C27.9315 12.1394 28.8235 11.9674 29.8875 11.9674C30.3675 11.9674 30.7515 12.0314 31.0395 12.1594C31.3355 12.2794 31.5635 12.4354 31.7235 12.6274C31.8835 12.8194 31.9875 13.0354 32.0355 13.2754C32.0915 13.5074 32.1195 13.7394 32.1195 13.9714C32.1195 14.4114 32.1035 14.8554 32.0715 15.3034C32.0395 15.7434 32.0235 16.2234 32.0235 16.7434C32.0235 17.0474 32.0355 17.3434 32.0595 17.6314C32.0915 17.9114 32.1395 18.1714 32.2035 18.4114H31.3995L31.0995 17.4514H30.9795C30.8915 17.5714 30.7835 17.6954 30.6555 17.8234C30.5275 17.9434 30.3755 18.0514 30.1995 18.1474C30.0235 18.2434 29.8195 18.3234 29.5875 18.3874C29.3635 18.4514 29.1035 18.4834 28.8075 18.4834C28.5115 18.4834 28.2395 18.4434 27.9915 18.3634C27.7435 18.2754 27.5275 18.1554 27.3435 18.0034C27.1675 17.8514 27.0275 17.6674 26.9235 17.4514C26.8195 17.2274 26.7675 16.9794 26.7675 16.7074C26.7675 16.3474 26.8435 16.0354 26.9955 15.7714C27.1555 15.5074 27.3595 15.2914 27.6075 15.1234C27.8555 14.9554 28.1355 14.8314 28.4475 14.7514C28.7675 14.6714 29.0835 14.6314 29.3955 14.6314C29.6435 14.6314 29.8515 14.6354 30.0195 14.6434C30.1955 14.6514 30.3395 14.6634 30.4515 14.6794C30.5715 14.6874 30.6715 14.6994 30.7515 14.7154C30.8315 14.7234 30.9035 14.7314 30.9675 14.7394C30.9835 14.6194 30.9955 14.5154 31.0035 14.4274C31.0115 14.3394 31.0155 14.2274 31.0155 14.0914C31.0155 13.8674 30.9915 13.6794 30.9435 13.5274C30.8955 13.3754 30.8155 13.2554 30.7035 13.1674C30.5995 13.0714 30.4555 13.0034 30.2715 12.9634C30.0875 12.9234 29.8635 12.9034 29.5995 12.9034C29.4475 12.9034 29.2795 12.9154 29.0955 12.9394C28.9115 12.9634 28.7275 12.9994 28.5435 13.0474C28.3595 13.0874 28.1755 13.1394 27.9915 13.2034C27.8155 13.2674 27.6555 13.3354 27.5115 13.4074L27.2115 12.4834ZM30.9675 15.5314C30.9035 15.5234 30.8355 15.5114 30.7635 15.4954C30.6915 15.4794 30.5995 15.4674 30.4875 15.4594C30.3835 15.4514 30.2555 15.4434 30.1035 15.4354C29.9595 15.4274 29.7795 15.4234 29.5635 15.4234C29.0675 15.4234 28.6715 15.5114 28.3755 15.6874C28.0875 15.8634 27.9435 16.1634 27.9435 16.5874C27.9435 16.9074 28.0555 17.1474 28.2795 17.3074C28.5115 17.4674 28.8075 17.5474 29.1675 17.5474C29.4315 17.5474 29.6635 17.5154 29.8635 17.4514C30.0715 17.3794 30.2475 17.2954 30.3915 17.1994C30.5435 17.0954 30.6635 16.9834 30.7515 16.8634C30.8475 16.7354 30.9195 16.6114 30.9675 16.4914V15.5314Z" fill="#231F20"/>
</svg>
