<svg width="42" height="42" viewBox="0 0 42 42" fill="none" xmlns="http://www.w3.org/2000/svg">
<path d="M1.46135 37.7664H25.4014C26.2612 37.7337 27.0199 37.1943 27.3334 36.393L29.9816 28.8176L29.2139 29.314L26.8 36.2082C26.5625 36.7851 26.0157 37.1752 25.393 37.212H1.45295C1.24574 37.2265 1.04418 37.1405 0.911154 36.981C0.804143 36.8027 0.790059 36.5836 0.873354 36.393L11.5162 6.00601C11.7532 5.42945 12.3007 5.04053 12.9232 5.00641L36.8758 4.98541C37.0811 4.9679 37.2815 5.05468 37.4091 5.21641C37.5183 5.39255 37.5324 5.61147 37.447 5.80021L31.3264 23.2805L32.0896 22.7875L37.9636 5.98501C38.1074 5.62499 38.0667 5.21742 37.8544 4.89301C37.62 4.58541 37.2494 4.41268 36.8631 4.43101H12.9232C12.064 4.46198 11.3051 4.99982 10.9912 5.80021L0.356754 36.2082C0.214096 36.5703 0.256391 36.9792 0.470154 37.3044C0.703073 37.6138 1.07465 37.787 1.46135 37.7664Z" fill="#231F20"/>
<path d="M33.2092 9.86681H13.024V10.1168H33.2092V9.86681Z" fill="#231F20"/>
<path d="M32.1466 12.8824H11.9656V13.1324H32.1466V12.8824Z" fill="#231F20"/>
<path d="M31.084 15.9022H10.903V16.1522H31.084V15.9022Z" fill="#231F20"/>
<path d="M9.84038 18.9178C9.77135 18.9178 9.71538 18.9738 9.71538 19.0428C9.71538 19.1118 9.77135 19.1678 9.84038 19.1678H30.0256C30.0946 19.1678 30.1506 19.1118 30.1506 19.0428C30.1506 18.9738 30.0946 18.9178 30.0256 18.9178H9.84038Z" fill="#231F20"/>
<path d="M37.1994 24.1542L24.4104 32.4198L20.16 32.8314L22.3062 29.1102L35.091 20.8446L37.1994 24.1542ZM25.9266 30.4206L24.7338 28.56L23.3352 29.463L22.785 30.4206L24.0912 30.2946L23.4318 31.4412L24.528 31.332L25.9266 30.4206ZM34.5408 22.3314C34.4655 22.3413 34.3936 22.3686 34.3308 22.4112L25.998 27.7956C25.934 27.8353 25.8806 27.8901 25.8426 27.9552C25.7712 28.0728 25.8174 28.1442 25.9518 28.1316C26.0271 28.1217 26.099 28.0944 26.1618 28.0518L34.4946 22.68C34.5588 22.6391 34.6133 22.5846 34.6542 22.5204C34.7172 22.3902 34.6752 22.3188 34.5408 22.3314ZM40.74 21.8694L38.1822 23.52L36.0822 20.2146L38.64 18.5682C38.9752 18.3443 39.3575 18.2006 39.7572 18.1482C40.0292 18.0883 40.312 18.1836 40.4922 18.396L41.685 20.2566C41.7887 20.5133 41.7487 20.8057 41.58 21.0252C41.3677 21.3667 41.0804 21.6554 40.74 21.8694Z" fill="#231F20"/>
</svg>
