<svg width="42" height="42" viewBox="0 0 42 42" fill="none" xmlns="http://www.w3.org/2000/svg">
<path d="M32.9407 24.4062C33.2473 24.4986 33.3607 24.9984 33.2053 25.5234C33.0499 26.0484 32.6719 26.397 32.3653 26.3046L32.9407 24.4062ZM32.7139 26.7036C33.0205 26.796 33.1339 27.2958 32.9785 27.8166C32.8231 28.3374 32.4451 28.6944 32.1385 28.602L32.7139 26.7036ZM32.2561 28.98C32.5627 29.0724 32.6761 29.5722 32.5249 30.0972C32.3737 30.6222 31.9915 30.9708 31.6849 30.8784L32.2561 28.98ZM32.0293 31.2942C32.3359 31.3866 32.4493 31.8864 32.2981 32.4072C32.1469 32.928 31.7605 33.285 31.4581 33.1926L32.0293 31.2942ZM35.2801 16.3422C35.5867 16.4346 35.7001 16.9344 35.5489 17.4594C35.3977 17.9844 35.0113 18.333 34.7089 18.2406L35.2801 16.3422ZM35.0659 18.6396C35.3725 18.732 35.4859 19.2318 35.3305 19.7568C35.1751 20.2818 34.7971 20.6304 34.4905 20.538L35.0659 18.6396ZM34.6123 20.9328C34.9147 21.0252 35.0323 21.525 34.8769 22.05C34.7215 22.575 34.3435 22.9236 34.0369 22.8312L34.6123 20.9328ZM34.3855 23.2302C34.6879 23.3226 34.8055 23.8224 34.6501 24.3474C34.4947 24.8724 34.1167 25.221 33.8101 25.1286L34.3855 23.2302ZM37.6909 8.50081C37.9975 8.59321 38.1109 9.09301 37.9597 9.61801C37.8085 10.143 37.4221 10.4916 37.1197 10.3992L37.6909 8.50081ZM37.4641 10.794C37.7706 10.8864 37.8841 11.3862 37.7329 11.9112C37.5817 12.4362 37.1953 12.7848 36.8929 12.6924L37.4641 10.794ZM37.0105 13.0914C37.3171 13.1838 37.4305 13.6836 37.2751 14.2086C37.1197 14.7336 36.7417 15.0822 36.4351 14.9898L37.0105 13.0914ZM36.7837 15.3846C37.0861 15.477 37.2037 15.9768 37.0483 16.5018C36.8929 17.0268 36.5149 17.3754 36.2083 17.283L36.7837 15.3846Z" fill="#231F20"/>
<path d="M11.1003 16.149C11.024 16.1589 10.9465 16.1457 10.8777 16.1112C10.8483 16.086 10.8525 16.0356 10.8861 15.96L11.9781 13.5492C12.003 13.4843 12.0488 13.4296 12.1083 13.3938C12.1838 13.3675 12.2637 13.3561 12.3435 13.3602C12.6806 13.3219 13.017 13.4376 13.2591 13.6752C13.4607 13.9314 13.4481 14.2842 13.2255 14.7714C13.0176 15.2783 12.6304 15.6909 12.1377 15.9306C11.8125 16.0798 11.4581 16.1544 11.1003 16.149Z" fill="#231F20"/>
<path d="M20.5671 15.141C20.6806 14.8483 20.8778 14.5956 21.1341 14.4144H21.1215C21.2338 14.3363 21.367 14.2939 21.5037 14.2926C21.6022 14.2813 21.7006 14.314 21.7727 14.3821C21.8448 14.4501 21.8831 14.5465 21.8775 14.6454C21.8862 14.9066 21.8314 15.166 21.7179 15.4014C21.6187 15.6347 21.4762 15.847 21.2979 16.0272C21.1634 16.1705 20.9778 16.255 20.7813 16.2624C20.6824 16.2724 20.5841 16.2386 20.5123 16.1699C20.4404 16.1013 20.4021 16.0047 20.4075 15.9054C20.395 15.6412 20.4499 15.3781 20.5671 15.141Z" fill="#231F20"/>
<path d="M25.7541 15.2376C25.9269 15.1565 26.1069 15.0918 26.2917 15.0444L25.9599 15.7752C25.9078 15.875 25.8213 15.9526 25.7163 15.9936C25.6108 16.0471 25.4945 16.0759 25.3761 16.0776C25.3112 16.0814 25.2475 16.0587 25.1997 16.0146C25.1367 15.9474 25.1367 15.8424 25.1997 15.7038C25.3264 15.4901 25.5219 15.3257 25.7541 15.2376Z" fill="#231F20"/>
<path fill-rule="evenodd" clip-rule="evenodd" d="M41.5463 13.9986L34.6961 36.54C33.9962 38.7118 32.0196 40.2194 29.7401 40.32H6.75768C4.23768 40.32 1.50348 38.304 0.583678 35.7C0.195291 34.6846 0.177444 33.5647 0.533278 32.5374C0.551049 32.3612 0.575087 32.1855 0.599684 32.0057C0.644842 31.6756 0.691883 31.3317 0.705478 30.9456C0.720367 30.7435 0.669548 30.5609 0.622301 30.391C0.576255 30.2255 0.533602 30.0722 0.558478 29.925C0.62362 29.5369 0.864168 29.2242 1.13389 28.8735C1.28154 28.6816 1.43793 28.4783 1.57908 28.245C2.40966 26.8197 3.03865 25.2861 3.44808 23.688C3.5092 23.4498 3.47725 23.1927 3.44617 22.9424C3.41531 22.694 3.3853 22.4524 3.44808 22.2432C3.52405 21.99 3.72522 21.7367 3.92639 21.4835C4.05887 21.3167 4.19135 21.15 4.28808 20.9832C4.96008 19.8324 5.83368 17.6232 5.96808 16.4472C5.98829 16.2194 5.95224 15.9811 5.91759 15.7521C5.87303 15.4576 5.83078 15.1783 5.91348 14.9562C6.02605 14.589 6.28916 14.3484 6.56306 14.0979C6.71835 13.9558 6.87711 13.8106 7.01388 13.6374C7.86857 12.2548 8.45823 10.7251 8.75268 9.1266C8.77658 8.92745 8.73343 8.72829 8.6895 8.52556C8.64079 8.30074 8.59113 8.07152 8.63088 7.833C8.681 7.53228 8.96926 7.20017 9.27414 6.84891C9.42913 6.67035 9.58841 6.48685 9.72288 6.3C9.98861 5.90834 10.2006 5.39575 10.4207 4.8637C11.0668 3.30184 11.7822 1.57238 14.1287 2.2428L14.1035 2.3184C14.5135 2.19516 14.9362 2.11907 15.3635 2.0916H34.3223C35.4386 2.06931 36.4967 2.58893 37.1615 3.486C37.8088 4.43438 37.9751 5.63105 37.6109 6.72L30.7859 29.2656C29.6183 33.1002 28.9799 33.9444 25.8089 33.9444H4.17048C3.8135 33.9169 3.46363 34.0547 3.22128 34.3182C3.02388 34.6164 2.99868 34.8432 3.19608 35.3892C3.69588 36.834 5.41368 37.1322 6.78288 37.1322H29.7653C30.5151 37.1322 31.3589 36.7893 31.7986 36.1797C31.9032 36.0369 31.9851 35.8795 32.0376 35.7084L39.5052 11.277C39.6176 10.8775 39.6643 10.4627 39.6439 10.0489C39.6428 9.93887 39.6372 9.82872 39.6269 9.7188C40.2074 9.93131 40.7167 10.3024 41.0969 10.7898C41.7319 11.7335 41.8976 12.9168 41.5463 13.9986ZM10.2267 16.1448C10.1047 16.1991 9.97372 16.2304 9.84034 16.2372L9.79834 16.3254H11.1339C11.465 16.3291 11.7947 16.2838 12.1125 16.191C12.2812 16.1366 12.4444 16.0663 12.5997 15.981C12.8651 15.8451 13.1052 15.6647 13.3095 15.4476C13.4973 15.2506 13.6506 15.0234 13.7631 14.7756C14.0613 14.1204 13.9773 13.6626 13.5573 13.4106C13.2403 13.251 12.887 13.1771 12.5325 13.1964H11.2221L11.1801 13.2846C11.3565 13.2972 11.4573 13.3266 11.4867 13.377C11.5161 13.4274 11.4951 13.5366 11.4153 13.7088L10.4577 15.8088C10.4136 15.9402 10.3336 16.0565 10.2267 16.1448ZM13.7169 16.1742C13.6061 16.2297 13.4839 16.2585 13.3599 16.2582L13.3305 16.338H14.4981L14.5275 16.2708C14.3805 16.2582 14.2965 16.233 14.2713 16.1868C14.2461 16.1406 14.2755 16.0314 14.3553 15.855L15.1071 14.175V14.1414L15.0063 14.1708C14.8761 14.217 14.6535 14.28 14.3385 14.3682L14.2209 14.4018L14.1873 14.4732L14.3469 14.4354H14.4015C14.4771 14.4354 14.5107 14.469 14.5107 14.532C14.4946 14.6036 14.4692 14.6728 14.4351 14.7378L13.9353 15.8424C13.8912 15.9694 13.8161 16.0834 13.7169 16.1742ZM15.3465 13.0914C15.2723 13.094 15.2006 13.1189 15.1407 13.1628C15.0754 13.2051 15.023 13.2647 14.9895 13.335C14.9626 13.3878 14.9626 13.4502 14.9895 13.503C15.0197 13.552 15.075 13.5797 15.1323 13.5744C15.2067 13.5724 15.2785 13.5474 15.3381 13.503C15.4043 13.4635 15.457 13.405 15.4893 13.335C15.5185 13.2813 15.5185 13.2165 15.4893 13.1628C15.4592 13.1138 15.4039 13.0861 15.3465 13.0914ZM17.2869 14.6034C17.3445 14.4934 17.3164 14.358 17.2197 14.28C17.1033 14.1805 16.9525 14.1307 16.7997 14.1414C16.4522 14.1353 16.1125 14.2446 15.8337 14.4522C15.536 14.6675 15.2999 14.9571 15.1491 15.2922C15.008 15.5254 14.9831 15.8109 15.0819 16.065C15.1861 16.2567 15.3937 16.3688 15.6111 16.3506C15.9063 16.3362 16.189 16.2272 16.4175 16.0398C16.5905 15.9142 16.7521 15.7737 16.9005 15.6198L16.8501 15.582C16.7326 15.6874 16.6077 15.7843 16.4763 15.8718C16.3228 15.969 16.1457 16.0228 15.9639 16.0272C15.7751 16.0493 15.5978 15.9323 15.5439 15.75C15.4938 15.5373 15.5221 15.3135 15.6237 15.12C15.7209 14.8771 15.875 14.661 16.0731 14.49C16.2302 14.3538 16.4283 14.2739 16.6359 14.2632C16.7011 14.2563 16.7665 14.2727 16.8207 14.3094C16.8611 14.3572 16.8723 14.4231 16.8501 14.4816V14.595C16.8291 14.6461 16.8291 14.7035 16.8501 14.7546C16.8772 14.7947 16.9237 14.8172 16.9719 14.8134C17.0434 14.8137 17.1129 14.7901 17.1693 14.7462C17.22 14.7093 17.2605 14.6602 17.2869 14.6034ZM18.8745 14.3556L18.9501 14.1918H18.4797L18.7485 13.6584C18.7516 13.6474 18.7516 13.6358 18.7485 13.6248H18.7107C18.4293 13.8474 18.2487 13.9902 18.1731 14.0448C18.0668 14.1227 17.956 14.1942 17.8413 14.259L17.7489 14.3178C17.736 14.3276 17.7258 14.3406 17.7195 14.3556H17.9799L17.3457 15.7584C17.2865 15.8725 17.2481 15.9962 17.2323 16.1238C17.2281 16.2876 17.3163 16.3674 17.5011 16.3674C17.604 16.3646 17.7053 16.3418 17.7993 16.3002C17.9323 16.2442 18.0556 16.1677 18.1647 16.0734L18.2487 16.002L18.2109 15.9516C18.148 16 18.0804 16.0422 18.0093 16.0776C17.9568 16.1026 17.8995 16.1155 17.8413 16.1154C17.7321 16.1154 17.6943 16.0608 17.6943 15.9558C17.7088 15.8633 17.7386 15.7739 17.7825 15.6912L18.3915 14.3556H18.8745ZM18.5805 16.1742C18.4697 16.2297 18.3475 16.2585 18.2235 16.2582L18.1941 16.338H19.3827L19.4121 16.2708C19.2651 16.2582 19.1811 16.233 19.1559 16.1868C19.1307 16.1406 19.1601 16.0314 19.2399 15.855L19.9917 14.175V14.1414L19.8909 14.1708C19.7607 14.217 19.5381 14.28 19.2231 14.3682L19.1055 14.4018L19.0719 14.4732L19.2315 14.4354H19.2861C19.3617 14.4354 19.3953 14.469 19.3953 14.532C19.3792 14.6036 19.3538 14.6728 19.3197 14.7378L18.7989 15.8424C18.7548 15.9694 18.6797 16.0834 18.5805 16.1742ZM20.2101 13.0914C20.1359 13.094 20.0642 13.1189 20.0043 13.1628C19.939 13.2051 19.8866 13.2647 19.8531 13.335C19.8262 13.3878 19.8262 13.4502 19.8531 13.503C19.8833 13.552 19.9386 13.5797 19.9959 13.5744C20.0702 13.5718 20.1419 13.5469 20.2017 13.503C20.2679 13.4635 20.3206 13.405 20.3529 13.335C20.3821 13.2813 20.3821 13.2165 20.3529 13.1628C20.3228 13.1138 20.2674 13.0861 20.2101 13.0914ZM21.6339 14.154C21.3011 14.1594 20.9788 14.2713 20.7141 14.4732C20.4293 14.668 20.2028 14.9366 20.0589 15.2502C19.9163 15.5005 19.8962 15.8022 20.0043 16.0692C20.128 16.2944 20.3746 16.4235 20.6301 16.3968C20.9686 16.3887 21.2948 16.2691 21.5583 16.0566C21.8443 15.8501 22.0727 15.574 22.2219 15.2544C22.3687 15.0131 22.389 14.7155 22.2765 14.4564C22.1361 14.2429 21.8879 14.1262 21.6339 14.154ZM22.2765 16.1784C22.1914 16.2258 22.0966 16.2531 21.9993 16.2582L21.9699 16.3128H23.0115L23.0409 16.2456C22.9646 16.2552 22.8875 16.2341 22.8267 16.1868C22.7931 16.1476 22.8015 16.072 22.8519 15.96L23.4399 14.6958C23.5329 14.6313 23.6297 14.5724 23.7297 14.5194C23.8288 14.4636 23.9396 14.4319 24.0531 14.427C24.1875 14.427 24.2715 14.469 24.2715 14.5572C24.2781 14.6722 24.2534 14.7869 24.2001 14.889L23.7507 15.876C23.7067 15.9938 23.6346 16.099 23.5407 16.1826C23.4561 16.2364 23.3594 16.2682 23.2593 16.275L23.2299 16.3422H24.2421L24.2715 16.275C24.1665 16.275 24.0993 16.2498 24.0783 16.1994C24.0607 16.1172 24.0757 16.0313 24.1203 15.96L24.5823 14.8806C24.7209 14.5824 24.7293 14.3724 24.6117 14.2548C24.5425 14.1935 24.452 14.1619 24.3597 14.1666C24.2132 14.1739 24.07 14.2126 23.9397 14.28C23.7806 14.3463 23.6262 14.4235 23.4777 14.511L23.6331 14.1708C23.6318 14.1596 23.6318 14.1484 23.6331 14.1372L23.3769 14.2086C23.2921 14.233 23.2167 14.2559 23.1509 14.2758C23.0016 14.3211 22.9015 14.3514 22.8519 14.3514L22.8141 14.4354H22.9191C23.0115 14.4354 23.0661 14.4648 23.0661 14.5194C23.0571 14.593 23.0343 14.6642 22.9989 14.7294L22.4655 15.9054C22.4269 16.011 22.3618 16.105 22.2765 16.1784ZM26.3463 14.9268C25.99 15.0303 25.6407 15.1566 25.3005 15.3048C25.027 15.4127 24.8027 15.6175 24.6705 15.8802C24.61 15.9915 24.61 16.1259 24.6705 16.2372C24.7352 16.3322 24.8458 16.3851 24.9603 16.3758C25.1242 16.3671 25.2844 16.3242 25.4307 16.2498C25.575 16.1823 25.7152 16.1066 25.8507 16.023C25.8155 16.099 25.8038 16.1839 25.8171 16.2666C25.8381 16.3338 25.8969 16.3674 26.0061 16.3674C26.1153 16.3631 26.2218 16.3328 26.3169 16.2792C26.3985 16.2378 26.4759 16.1886 26.5479 16.1322L26.6025 16.0146C26.5509 16.043 26.4976 16.0683 26.4429 16.0902C26.4111 16.0969 26.3782 16.0969 26.3463 16.0902C26.2875 16.0902 26.2581 16.0608 26.2581 16.002C26.2718 15.9362 26.2944 15.8726 26.3253 15.813L26.7453 14.889C26.8235 14.7459 26.8653 14.5858 26.8671 14.4228C26.8461 14.2254 26.6823 14.1288 26.3757 14.1288C26.1356 14.1227 25.8984 14.1838 25.6911 14.3052C25.5427 14.3831 25.4191 14.5009 25.3341 14.6454C25.3136 14.6937 25.3136 14.7483 25.3341 14.7966C25.3509 14.8428 25.3971 14.868 25.4685 14.868C25.514 14.8673 25.5586 14.8558 25.5987 14.8344C25.6751 14.799 25.7351 14.736 25.7667 14.658C25.7792 14.6296 25.789 14.6 25.7961 14.5698C25.8041 14.5385 25.814 14.5076 25.8255 14.4774C25.8657 14.3991 25.9329 14.338 26.0145 14.3052C26.0952 14.2687 26.1823 14.2487 26.2707 14.2464C26.4387 14.2464 26.5353 14.2968 26.5353 14.4018C26.5246 14.5168 26.4903 14.6283 26.4345 14.7294L26.3463 14.9268ZM26.8545 16.1742C26.7532 16.2216 26.643 16.2473 26.5311 16.2498L26.4975 16.2918H27.6567L27.6903 16.2162C27.5433 16.2162 27.4509 16.191 27.4089 16.1406C27.3669 16.0902 27.3795 15.9978 27.4383 15.8634L27.9129 14.8218C27.9692 14.7113 28.0531 14.6173 28.1565 14.5488C28.2307 14.4845 28.3205 14.441 28.4169 14.4228C28.4547 14.4228 28.4883 14.448 28.5261 14.5026C28.5561 14.5528 28.6105 14.5832 28.6689 14.5824C28.7329 14.5806 28.7947 14.5585 28.8453 14.5194C28.9013 14.4778 28.9461 14.423 28.9755 14.3598C29.007 14.3037 29.007 14.2353 28.9755 14.1792C28.9369 14.129 28.8744 14.1034 28.8117 14.112C28.6876 14.1184 28.5673 14.1576 28.4631 14.2254C28.3154 14.3227 28.175 14.4308 28.0431 14.5488L28.2153 14.1666C28.2181 14.1513 28.2181 14.1357 28.2153 14.1204L27.9255 14.2212L27.6987 14.2884L27.3795 14.385L27.3459 14.4606H27.4971C27.5769 14.4606 27.6147 14.4942 27.6147 14.5572C27.6009 14.6734 27.5653 14.786 27.5097 14.889L27.0351 15.9306C27.0011 16.0283 26.9381 16.1133 26.8545 16.1742ZM30.1305 14.196H29.1267L29.1183 14.259C29.1756 14.2593 29.2297 14.2856 29.2653 14.3304C29.298 14.3998 29.3111 14.4767 29.3031 14.553L29.3367 16.1322C29.3386 16.149 29.3386 16.1659 29.3367 16.1826V16.233C29.2415 16.3856 29.1287 16.5266 29.0007 16.653C28.8075 16.863 28.6647 16.968 28.5807 16.968C28.5261 16.9646 28.473 16.9488 28.4253 16.9218C28.3754 16.8974 28.3212 16.8831 28.2657 16.8798C28.1944 16.8804 28.1246 16.9008 28.0641 16.9386C28.0026 16.9724 27.9538 17.0255 27.9255 17.0898C27.8625 17.1864 27.8709 17.2536 27.9255 17.2956C27.9908 17.3408 28.0687 17.3644 28.1481 17.3628C28.3524 17.3539 28.5471 17.2737 28.6983 17.136C28.9555 16.9191 29.1905 16.6771 29.3997 16.4136L31.0377 14.4858C31.0815 14.4292 31.1323 14.3784 31.1889 14.3346C31.2407 14.297 31.3016 14.2738 31.3653 14.2674L31.3989 14.2002H30.7437L30.7143 14.2674H30.7857C30.8197 14.2665 30.8527 14.2785 30.8781 14.301V14.3892C30.8611 14.4215 30.8414 14.4524 30.8193 14.4816L30.7605 14.5656L29.7777 15.7332L29.7525 14.574C29.7498 14.5405 29.7498 14.5068 29.7525 14.4732C29.7483 14.451 29.7483 14.4282 29.7525 14.406C29.783 14.3403 29.8447 14.2945 29.9163 14.2842C29.9767 14.2687 30.0389 14.2617 30.1011 14.2632L30.1305 14.196Z" fill="#231F20"/>
</svg>
