<svg width="42" height="42" viewBox="0 0 42 42" fill="none" xmlns="http://www.w3.org/2000/svg">
<path d="M25.431 37.7664H1.49104C1.10434 37.787 0.73276 37.6138 0.499841 37.3044C0.285384 36.9792 0.244554 36.5693 0.390641 36.2082L11.0208 5.80019C11.3356 5.0005 12.094 4.46305 12.9528 4.43099H36.8928C37.2793 4.41192 37.6502 4.58481 37.884 4.89299C38.0985 5.21665 38.1393 5.62528 37.9932 5.98499L27.363 36.393C27.0496 37.1943 26.2909 37.7336 25.431 37.7664ZM12.9528 5.00639C12.3369 5.03835 11.7927 5.41794 11.55 5.98499L0.907241 36.393C0.823946 36.5836 0.838031 36.8027 0.945041 36.981C1.07633 37.1404 1.27663 37.2265 1.48264 37.212H25.4226C26.0458 37.1761 26.593 36.7857 26.8296 36.2082L37.4808 5.80019C37.5648 5.61119 37.5507 5.39299 37.443 5.21639C37.3131 5.0552 37.1118 4.96872 36.9054 4.98539L12.9528 5.00639Z" fill="#231F20"/>
<path d="M4.56982 34.125H24.7508M13.058 9.99179H33.239H13.058ZM11.9954 13.0074H32.1764H11.9954ZM10.9328 16.0272H31.118H10.9328ZM9.87442 19.0428H30.0554H9.87442ZM8.81182 22.0584H28.997H8.81182ZM7.75342 25.0782H27.9344H7.75342ZM6.69082 28.0938H26.8718H6.69082ZM5.62822 31.1094H25.8134H5.62822Z" stroke="#231F20" stroke-width="0.25" stroke-linecap="round"/>
<path d="M21.1049 17.6148C17.0267 17.6148 13.7087 15.4686 13.7087 12.8268C13.7087 10.185 17.0267 8.043 21.1049 8.043C25.1831 8.043 28.5011 10.1892 28.5011 12.8268C28.5011 15.4644 25.1999 17.6148 21.1049 17.6148ZM21.1049 8.5932C17.3249 8.5932 14.2589 10.4916 14.2589 12.8268C14.2589 15.162 17.3291 17.0646 21.1049 17.0646C24.8807 17.0646 27.9509 15.1662 27.9509 12.8268C27.9509 10.4874 24.8807 8.5932 21.1049 8.5932ZM16.2119 35.8176C9.71032 35.8176 4.61572 33.7176 4.61572 31.0338C4.61572 28.35 9.71032 26.2458 16.2119 26.2458C22.7135 26.2458 27.8123 28.3458 27.8123 31.0338C27.8123 33.7218 22.7177 35.8176 16.2119 35.8176ZM16.2119 26.796C10.2227 26.796 5.16172 28.7364 5.16172 31.0338C5.16172 33.3312 10.2227 35.28 16.2119 35.28C22.2011 35.28 27.2621 33.3438 27.2621 31.0464C27.2621 28.749 22.2011 26.796 16.2119 26.796Z" fill="#231F20"/>
<path d="M11.6636 15.6198L12.4658 16.3506L13.0538 13.6752L10.4414 14.5152L11.2562 15.246C9.24391 17.9656 8.82657 21.549 10.16 24.6582L9.24023 25.2462L11.6636 26.5062L11.5586 23.7678L10.6304 24.36C9.42223 21.4665 9.81405 18.1519 11.6636 15.6198Z" fill="#231F20"/>
<path d="M37.7539 19.1478L22.3315 29.1102V31.3152L24.4399 32.4198L38.2118 23.5158L37.7539 19.1478Z" fill="white"/>
<path d="M37.2289 24.1542L24.4399 32.4198L20.1895 32.8398L22.3315 29.1186L35.1205 20.8446L37.2289 24.1542ZM25.9561 30.4206L24.7801 28.56L23.3815 29.463L22.8271 30.4206L24.1375 30.2946L23.4781 31.4412L24.5701 31.332L25.9561 30.4206ZM34.5703 22.3314C34.4953 22.3426 34.4237 22.3699 34.3603 22.4112L26.0401 27.7956C25.9749 27.8353 25.9202 27.89 25.8805 27.9552C25.8133 28.0728 25.8595 28.1442 25.9897 28.1316C26.0649 28.1217 26.1368 28.0944 26.1997 28.0518L34.5241 22.68C34.5892 22.6403 34.6439 22.5855 34.6837 22.5204C34.7509 22.3902 34.7047 22.3188 34.5703 22.3314ZM40.7653 21.8694L38.2201 23.52L36.1201 20.2146L38.6401 18.5682C38.9735 18.3438 39.3545 18.2 39.7531 18.1482C40.0251 18.0873 40.3084 18.1828 40.4881 18.396L41.6851 20.2566C41.7929 20.5138 41.7578 20.8088 41.5927 21.0336C41.3834 21.371 41.1005 21.6567 40.7653 21.8694Z" fill="#231F20"/>
</svg>
