<svg width="42" height="42" viewBox="0 0 42 42" fill="none" xmlns="http://www.w3.org/2000/svg">
<g clip-path="url(#clip0)">
<path d="M16.7031 40.887H41.5293V23.3142" stroke="#231F20" stroke-width="1.5" stroke-linecap="round" stroke-linejoin="round"/>
<g style="mix-blend-mode:multiply">
<g style="mix-blend-mode:multiply">
<path d="M40.0466 24.0954L39.5342 24.4566" stroke="#231F20" stroke-width="0.5" stroke-linejoin="round"/>
</g>
<g style="mix-blend-mode:multiply">
<path d="M38.5345 25.1622L19.0591 38.8584" stroke="#231F20" stroke-width="0.5" stroke-linejoin="round" stroke-dasharray="2.91 2.91"/>
</g>
<g style="mix-blend-mode:multiply">
<path d="M18.5635 39.2112L18.0469 39.5724" stroke="#231F20" stroke-width="0.5" stroke-linejoin="round"/>
</g>
</g>
<path d="M41.529 36.4602C39.0997 36.4764 37.1429 38.4577 37.1568 40.887" stroke="#231F20" stroke-width="0.5" stroke-linejoin="round"/>
<path d="M32.2348 1.20123L22.894 5.31303L36.3004 20.895" stroke="#231F20" stroke-width="1.5" stroke-linecap="round" stroke-linejoin="round"/>
<path d="M25.8168 3.97327L25.9344 4.12447C26.6916 5.19963 26.434 6.68505 25.359 7.44247C25.2265 7.53369 25.0859 7.61242 24.939 7.67767" stroke="#231F20" stroke-width="0.5" stroke-linejoin="round"/>
<g style="mix-blend-mode:multiply">
<g style="mix-blend-mode:multiply">
<path d="M32.6294 3.13324L32.768 3.74644" stroke="#231F20" stroke-width="0.5" stroke-linejoin="round"/>
</g>
<g style="mix-blend-mode:multiply">
<path d="M33.0537 5.03583L35.7837 17.283" stroke="#231F20" stroke-width="0.5" stroke-linejoin="round" stroke-dasharray="3.14 3.14"/>
</g>
<g style="mix-blend-mode:multiply">
<path d="M35.9263 17.9299L36.0607 18.5431" stroke="#231F20" stroke-width="0.5" stroke-linejoin="round"/>
</g>
</g>
<path d="M27.4173 27.6108C27.419 27.5857 27.419 27.5604 27.4173 27.5352C27.4153 27.4998 27.4053 27.4653 27.3879 27.4344L13.6665 7.59783C13.6665 7.57683 13.6287 7.57263 13.6077 7.55583C13.5867 7.53903 13.5699 7.50543 13.5405 7.49283C13.5111 7.48023 13.5405 7.49283 13.5195 7.49283C13.4888 7.48852 13.4577 7.48852 13.4271 7.49283C13.394 7.48465 13.3594 7.48465 13.3263 7.49283H13.3011C13.2801 7.49283 13.2717 7.52643 13.2549 7.53903C13.2322 7.55202 13.2111 7.56752 13.1919 7.58523L0.612874 25.1538C0.612874 25.1538 0.612874 25.1832 0.612874 25.1958C0.595557 25.2206 0.581445 25.2474 0.570874 25.2756C0.56687 25.3007 0.56687 25.3262 0.570874 25.3512C0.570874 25.3512 0.570874 25.3764 0.570874 25.389C0.570874 25.4016 0.570874 25.389 0.570874 25.389C0.588215 25.4609 0.63358 25.5229 0.696874 25.5612L9.72267 30.4836C9.76575 30.5051 9.81313 30.5166 9.86127 30.5172H9.90747L27.1737 27.867C27.2378 27.8542 27.2965 27.8219 27.3417 27.7746C27.344 27.7551 27.344 27.7354 27.3417 27.7158C27.3627 27.6897 27.3784 27.6598 27.3879 27.6276L27.4173 27.6108ZM1.75107 25.4814L10.5333 24.1332L9.65967 29.7738L8.39967 29.1018L1.75107 25.4814ZM11.1381 24.0408L18.0597 22.9782L26.2329 27.4218L10.2141 29.8788L11.1381 24.0408ZM11.2347 23.436L13.5237 9.03423L17.7237 22.4406L11.2347 23.436ZM26.1951 26.7372L24.6705 25.8972L18.3705 22.4616L14.2797 9.51723L26.1951 26.7372ZM10.6299 23.52L1.49067 24.9312L12.9483 8.93763L10.6299 23.52Z" fill="#231F20"/>
</g>
<defs>
<clipPath id="clip0">
<rect width="42" height="42" fill="white"/>
</clipPath>
</defs>
</svg>
