<svg width="42" height="42" viewBox="0 0 42 42" fill="none" xmlns="http://www.w3.org/2000/svg">
<path fill-rule="evenodd" clip-rule="evenodd" d="M20.9928 26.7288C20.9982 27.0157 20.79 27.2628 20.5055 27.3055L20.5017 27.306L0.665257 30.075C0.511456 30.093 0.357587 30.0417 0.245249 29.9351C0.136598 29.832 0.077636 29.6874 0.0828367 29.5382L0.120634 8.11957C0.126063 7.84595 0.320535 7.61266 0.588696 7.55797C0.596347 7.55641 0.604045 7.55509 0.611778 7.55401L20.4382 4.78646C20.5954 4.76334 20.7546 4.81367 20.8699 4.92311C20.9802 5.02778 21.0387 5.17534 21.0306 5.3264L20.9928 26.7288ZM19.9522 5.96308L1.21424 8.60417L1.16566 28.8929L19.9158 26.2599L19.9522 5.96308Z" fill="black"/>
<path fill-rule="evenodd" clip-rule="evenodd" d="M20.9928 26.7288C20.9982 27.0157 20.79 27.2628 20.5055 27.3055L20.5017 27.306L0.665257 30.075C0.511456 30.093 0.357587 30.0417 0.245249 29.9351C0.136598 29.832 0.077636 29.6874 0.0828367 29.5382L0.120634 8.11957C0.126063 7.84595 0.320535 7.61266 0.588696 7.55797C0.596347 7.55641 0.604045 7.55509 0.611778 7.55401L20.4382 4.78646C20.5954 4.76334 20.7546 4.81367 20.8699 4.92311C20.9802 5.02778 21.0387 5.17534 21.0306 5.3264L20.9928 26.7288ZM19.9522 5.96308L1.21424 8.60417L1.16566 28.8929L19.9158 26.2599L19.9522 5.96308Z" fill="black"/>
<path fill-rule="evenodd" clip-rule="evenodd" d="M30.1245 11.4862L11.3615 14.1314L11.321 34.4285L30.0839 31.7897L30.1245 11.4862ZM31.1609 32.2546L31.2029 10.8454C31.2085 10.6935 31.1476 10.5464 31.0357 10.4429C30.9202 10.3361 30.7627 10.287 30.607 10.3094C30.6065 10.3095 30.606 10.3096 30.6055 10.3096L10.767 13.0939C10.7555 13.0955 10.7441 13.0977 10.7328 13.1004C10.4717 13.1621 10.2846 13.3914 10.2763 13.6595L10.2383 35.0567C10.2303 35.2078 10.2887 35.3553 10.399 35.46C10.5144 35.5694 10.6735 35.6197 10.8306 35.5966L30.6697 32.8291L30.6804 32.8274C30.9596 32.7803 31.163 32.5374 31.1609 32.2546Z" fill="black"/>
<path fill-rule="evenodd" clip-rule="evenodd" d="M30.1245 11.4862L11.3615 14.1314L11.321 34.4285L30.0839 31.7897L30.1245 11.4862ZM31.1609 32.2546L31.2029 10.8454C31.2085 10.6935 31.1476 10.5464 31.0357 10.4429C30.9202 10.3361 30.7627 10.287 30.607 10.3094C30.6065 10.3095 30.606 10.3096 30.6055 10.3096L10.767 13.0939C10.7555 13.0955 10.7441 13.0977 10.7328 13.1004C10.4717 13.1621 10.2846 13.3914 10.2763 13.6595L10.2383 35.0567C10.2303 35.2078 10.2887 35.3553 10.399 35.46C10.5144 35.5694 10.6735 35.6197 10.8306 35.5966L30.6697 32.8291L30.6804 32.8274C30.9596 32.7803 31.163 32.5374 31.1609 32.2546Z" fill="black"/>
<path fill-rule="evenodd" clip-rule="evenodd" d="M20.328 5.49534L20.3129 5.48714C20.1714 5.41032 20.0948 5.25182 20.1224 5.09326C20.15 4.9347 20.2757 4.81145 20.4348 4.78697C20.5931 4.76262 20.7537 4.81288 20.8699 4.92311C20.8722 4.92524 20.8744 4.9274 20.8766 4.92957L30.775 10.3163C30.8736 10.3368 30.9652 10.3856 31.0378 10.4582C31.1433 10.5637 31.1986 10.7092 31.1898 10.8581C31.1822 10.9862 31.1097 11.1015 30.9975 11.1638C30.8853 11.2261 30.7491 11.2268 30.6363 11.1655L20.4765 5.64248C20.4127 5.60776 20.3618 5.55622 20.328 5.49534Z" fill="black"/>
<path fill-rule="evenodd" clip-rule="evenodd" d="M20.2557 4.98202C20.3577 4.80634 20.5809 4.74375 20.7593 4.84085L30.918 10.3697C31.0892 10.465 31.1939 10.6469 31.1904 10.8427C31.1881 10.9737 31.1175 11.094 31.0043 11.16C30.891 11.226 30.7515 11.2281 30.6363 11.1655L20.4765 5.64248C20.3858 5.59313 20.321 5.50959 20.2943 5.41315C20.1941 5.2953 20.174 5.12285 20.2557 4.98202Z" fill="black"/>
<path fill-rule="evenodd" clip-rule="evenodd" d="M20.2557 4.98202C20.3577 4.80634 20.5809 4.74375 20.7593 4.84085L30.918 10.3697C31.0892 10.465 31.1939 10.6469 31.1904 10.8427C31.1881 10.9737 31.1175 11.094 31.0043 11.16C30.891 11.226 30.7515 11.2281 30.6363 11.1655L20.4765 5.64248C20.3858 5.59313 20.321 5.50959 20.2943 5.41315C20.1941 5.2953 20.174 5.12285 20.2557 4.98202Z" fill="black"/>
<path fill-rule="evenodd" clip-rule="evenodd" d="M20.328 5.49534L20.3129 5.48714C20.1714 5.41032 20.0948 5.25182 20.1224 5.09326C20.15 4.9347 20.2757 4.81145 20.4348 4.78697C20.5519 4.76896 20.6702 4.79176 20.7709 4.84944L30.9106 10.3638C30.9572 10.3881 30.9999 10.4203 31.0378 10.4582C31.1433 10.5637 31.1986 10.7092 31.1898 10.8581C31.1822 10.9862 31.1097 11.1015 30.9975 11.1638C30.8853 11.2261 30.7491 11.2268 30.6363 11.1655L20.4765 5.64248C20.4127 5.60776 20.3618 5.55622 20.328 5.49534Z" fill="black"/>
<path fill-rule="evenodd" clip-rule="evenodd" d="M20.7609 4.84174L30.9149 10.3681C31.0878 10.4622 31.1585 10.674 31.0768 10.8531C31.0078 11.0044 30.8498 11.0889 30.6913 11.0699C30.6148 11.0789 30.5367 11.0642 30.4679 11.0267L20.3129 5.48714C20.1757 5.41233 20.0987 5.26003 20.1205 5.10533C20.1423 4.95063 20.2577 4.82565 20.4102 4.79164C20.5289 4.76516 20.6527 4.78246 20.7593 4.84085C20.7597 4.84104 20.7605 4.84154 20.7609 4.84174Z" fill="black"/>
<path fill-rule="evenodd" clip-rule="evenodd" d="M20.7609 4.84174L30.9149 10.3681C31.0878 10.4622 31.1585 10.674 31.0768 10.8531C31.0078 11.0044 30.8498 11.0889 30.6913 11.0699C30.6148 11.0789 30.5367 11.0642 30.4679 11.0267L20.3129 5.48714C20.1757 5.41233 20.0987 5.26003 20.1205 5.10533C20.1423 4.95063 20.2577 4.82565 20.4102 4.79164C20.5289 4.76516 20.6527 4.78246 20.7593 4.84085C20.7597 4.84104 20.7605 4.84154 20.7609 4.84174Z" fill="black"/>
<path fill-rule="evenodd" clip-rule="evenodd" d="M20.4644 4.99053C20.5781 4.9231 20.7188 4.92047 20.8349 4.98361L30.9905 10.5066C31.1114 10.5724 31.1866 10.6991 31.1864 10.8367L31.1486 32.2399C31.1483 32.3721 31.0785 32.4944 30.9648 32.5618C30.8512 32.6292 30.7104 32.6318 30.5943 32.5686L20.4387 27.0414C20.3178 26.9756 20.2427 26.849 20.243 26.7114L20.2808 5.31238C20.281 5.18023 20.3508 5.05796 20.4644 4.99053ZM21.0296 5.94325L20.9933 26.4894L30.3997 31.6088L30.436 11.0588L21.0296 5.94325Z" fill="black"/>
<path fill-rule="evenodd" clip-rule="evenodd" d="M20.4644 4.99053C20.5781 4.9231 20.7188 4.92047 20.8349 4.98361L30.9905 10.5066C31.1114 10.5724 31.1866 10.6991 31.1864 10.8367L31.1486 32.2399C31.1483 32.3721 31.0785 32.4944 30.9648 32.5618C30.8512 32.6292 30.7104 32.6318 30.5943 32.5686L20.4387 27.0414C20.3178 26.9756 20.2427 26.849 20.243 26.7114L20.2808 5.31238C20.281 5.18023 20.3508 5.05796 20.4644 4.99053ZM21.0296 5.94325L20.9933 26.4894L30.3997 31.6088L30.436 11.0588L21.0296 5.94325Z" fill="black"/>
<path fill-rule="evenodd" clip-rule="evenodd" d="M20.4211 26.3928C20.5356 26.3223 20.6791 26.3184 20.7972 26.3827L30.9528 31.9099C31.0718 31.9747 31.1466 32.0986 31.1485 32.234C31.1524 32.5184 30.9484 32.7633 30.668 32.8106C30.5851 32.8246 30.5 32.8104 30.4262 32.7702L20.2706 27.243C20.1291 27.166 20.0526 27.0072 20.0806 26.8485C20.1004 26.7364 20.1692 26.6421 20.264 26.5879C20.2921 26.5081 20.3468 26.4387 20.4211 26.3928Z" fill="black"/>
<path fill-rule="evenodd" clip-rule="evenodd" d="M20.4211 26.3928C20.5356 26.3223 20.6791 26.3184 20.7972 26.3827L30.9528 31.9099C31.0718 31.9747 31.1466 32.0986 31.1485 32.234C31.1524 32.5184 30.9484 32.7633 30.668 32.8106C30.5851 32.8246 30.5 32.8104 30.4262 32.7702L20.2706 27.243C20.1291 27.166 20.0526 27.0072 20.0806 26.8485C20.1004 26.7364 20.1692 26.6421 20.264 26.5879C20.2921 26.5081 20.3468 26.4387 20.4211 26.3928Z" fill="black"/>
<path fill-rule="evenodd" clip-rule="evenodd" d="M20.4211 26.3928C20.5356 26.3223 20.6791 26.3184 20.7972 26.3827L30.9528 31.9099C31.0718 31.9747 31.1466 32.0986 31.1485 32.234C31.1524 32.5184 30.9484 32.7633 30.668 32.8106C30.5851 32.8246 30.5 32.8104 30.4262 32.7702L20.2706 27.243C20.1291 27.166 20.0526 27.0072 20.0806 26.8485C20.1004 26.7364 20.1692 26.6421 20.264 26.5879C20.2921 26.5081 20.3468 26.4387 20.4211 26.3928Z" fill="black"/>
<path fill-rule="evenodd" clip-rule="evenodd" d="M20.3977 26.5465C20.4773 26.5353 20.5584 26.55 20.629 26.5884L30.7846 32.1114C30.9268 32.1888 31.0033 32.3485 30.9745 32.5077C30.9456 32.667 30.8179 32.7897 30.6576 32.8122L10.8294 35.5968C10.7498 35.608 10.6687 35.5933 10.5981 35.5549L0.442516 30.0319C0.300361 29.9546 0.223829 29.7948 0.252686 29.6356C0.281543 29.4764 0.409279 29.3536 0.569523 29.3311L20.3977 26.5465ZM1.79891 29.9158L10.8477 34.8369L29.4282 32.2275L20.3795 27.3064L1.79891 29.9158Z" fill="black"/>
<path fill-rule="evenodd" clip-rule="evenodd" d="M20.3977 26.5465C20.4773 26.5353 20.5584 26.55 20.629 26.5884L30.7846 32.1114C30.9268 32.1888 31.0033 32.3485 30.9745 32.5077C30.9456 32.667 30.8179 32.7897 30.6576 32.8122L10.8294 35.5968C10.7498 35.608 10.6687 35.5933 10.5981 35.5549L0.442516 30.0319C0.300361 29.9546 0.223829 29.7948 0.252686 29.6356C0.281543 29.4764 0.409279 29.3536 0.569523 29.3311L20.3977 26.5465ZM1.79891 29.9158L10.8477 34.8369L29.4282 32.2275L20.3795 27.3064L1.79891 29.9158Z" fill="black"/>
<path fill-rule="evenodd" clip-rule="evenodd" d="M0.276604 29.2188C0.388665 29.1569 0.524535 29.1565 0.636981 29.2176L10.7926 34.7406C10.8564 34.7754 10.9072 34.8269 10.9411 34.8877L10.9564 34.896C11.0977 34.9729 11.1743 35.1314 11.1466 35.2899C11.119 35.4484 10.9933 35.5716 10.8342 35.5961C10.676 35.6205 10.5152 35.5702 10.399 35.46C10.3968 35.4579 10.3947 35.4557 10.3925 35.4536L0.482067 30.0639C0.394224 30.0427 0.312334 29.9987 0.245249 29.9351C0.13291 29.8285 0.073689 29.6776 0.0835889 29.5231C0.0917722 29.3954 0.164543 29.2806 0.276604 29.2188Z" fill="black"/>
<path fill-rule="evenodd" clip-rule="evenodd" d="M0.274459 29.22C0.386899 29.1569 0.523714 29.156 0.636981 29.2176L10.7926 34.7406C10.8834 34.79 10.9483 34.8736 10.975 34.9699C11.0744 35.0869 11.0951 35.2578 11.015 35.3985C10.9139 35.576 10.6893 35.6399 10.5099 35.5422L0.346491 30.0108C0.175147 29.9122 0.0735748 29.7258 0.0834438 29.5283C0.0898805 29.3996 0.16202 29.2831 0.274459 29.22Z" fill="black"/>
<path fill-rule="evenodd" clip-rule="evenodd" d="M0.274459 29.22C0.386899 29.1569 0.523714 29.156 0.636981 29.2176L10.7926 34.7406C10.8834 34.79 10.9483 34.8736 10.975 34.9699C11.0744 35.0869 11.0951 35.2578 11.015 35.3985C10.9139 35.576 10.6893 35.6399 10.5099 35.5422L0.346491 30.0108C0.175147 29.9122 0.0735748 29.7258 0.0834438 29.5283C0.0898805 29.3996 0.16202 29.2831 0.274459 29.22Z" fill="black"/>
<path fill-rule="evenodd" clip-rule="evenodd" d="M0.276604 29.2188C0.388665 29.1569 0.524535 29.1565 0.636981 29.2176L10.7926 34.7406C10.8564 34.7754 10.9072 34.8269 10.9411 34.8877L10.9564 34.896C11.0977 34.9729 11.1743 35.1314 11.1466 35.2899C11.119 35.4484 10.9933 35.5716 10.8342 35.5961C10.7252 35.6129 10.615 35.5942 10.519 35.5449L10.5182 35.5464L0.362558 30.0192C0.320159 29.9971 0.280689 29.9687 0.245249 29.9351C0.13291 29.8285 0.073689 29.6776 0.0835889 29.5231C0.0917722 29.3954 0.164543 29.2806 0.276604 29.2188Z" fill="black"/>
<path fill-rule="evenodd" clip-rule="evenodd" d="M0.577817 29.3133C0.418375 29.2942 0.259872 29.3797 0.191421 29.5319C0.111089 29.7106 0.18187 29.9211 0.353874 30.0149L10.5095 35.5547C10.5327 35.5674 10.5572 35.5776 10.5826 35.5851C10.6809 35.6142 10.7854 35.6142 10.8837 35.5851C11.029 35.5421 11.1341 35.4158 11.1502 35.2651C11.1662 35.1144 11.0894 34.9686 10.9564 34.896L0.801232 29.3565C0.732427 29.319 0.654284 29.3043 0.577817 29.3133Z" fill="black"/>
<path fill-rule="evenodd" clip-rule="evenodd" d="M0.577817 29.3133C0.418375 29.2942 0.259872 29.3797 0.191421 29.5319C0.111089 29.7106 0.18187 29.9211 0.353874 30.0149L10.5095 35.5547C10.5327 35.5674 10.5572 35.5776 10.5826 35.5851C10.6809 35.6142 10.7854 35.6142 10.8837 35.5851C11.029 35.5421 11.1341 35.4158 11.1502 35.2651C11.1662 35.1144 11.0894 34.9686 10.9564 34.896L0.801232 29.3565C0.732427 29.319 0.654284 29.3043 0.577817 29.3133Z" fill="black"/>
<path fill-rule="evenodd" clip-rule="evenodd" d="M0.304465 7.82131C0.418148 7.75389 0.558927 7.75129 0.675018 7.81447L10.8306 13.3417C10.9515 13.4074 11.0266 13.5341 11.0264 13.6717L10.9886 35.0707C10.9883 35.2029 10.9185 35.3251 10.8049 35.3926C10.6912 35.46 10.5505 35.4626 10.4344 35.3995L0.278795 29.8765C0.157885 29.8107 0.0827119 29.684 0.082955 29.5464L0.120755 8.14319C0.120988 8.01102 0.190783 7.88873 0.304465 7.82131ZM0.869642 8.77428L0.833348 29.3243L10.2397 34.4398L10.276 13.8937L0.869642 8.77428Z" fill="black"/>
<path fill-rule="evenodd" clip-rule="evenodd" d="M0.304465 7.82131C0.418148 7.75389 0.558927 7.75129 0.675018 7.81447L10.8306 13.3417C10.9515 13.4074 11.0266 13.5341 11.0264 13.6717L10.9886 35.0707C10.9883 35.2029 10.9185 35.3251 10.8049 35.3926C10.6912 35.46 10.5505 35.4626 10.4344 35.3995L0.278795 29.8765C0.157885 29.8107 0.0827119 29.684 0.082955 29.5464L0.120755 8.14319C0.120988 8.01102 0.190783 7.88873 0.304465 7.82131ZM0.869642 8.77428L0.833348 29.3243L10.2397 34.4398L10.276 13.8937L0.869642 8.77428Z" fill="black"/>
<path fill-rule="evenodd" clip-rule="evenodd" d="M0.588636 7.5748C0.675163 7.55716 0.765142 7.57061 0.842721 7.6128L10.9983 13.1358C11.1349 13.2101 11.2114 13.3609 11.1909 13.5149C11.1752 13.6321 11.1058 13.7327 11.0068 13.7899C10.9781 13.876 10.9186 13.95 10.8377 13.9963C10.7248 14.0611 10.5863 14.0627 10.4719 14.0004L0.316298 8.47322C0.193309 8.40628 0.117858 8.2764 0.120636 8.1364C0.126064 7.86277 0.320475 7.62948 0.588636 7.5748Z" fill="black"/>
<path fill-rule="evenodd" clip-rule="evenodd" d="M0.588636 7.5748C0.675163 7.55716 0.765142 7.57061 0.842721 7.6128L10.9983 13.1358C11.1349 13.2101 11.2114 13.3609 11.1909 13.5149C11.1752 13.6321 11.1058 13.7327 11.0068 13.7899C10.9781 13.876 10.9186 13.95 10.8377 13.9963C10.7248 14.0611 10.5863 14.0627 10.4719 14.0004L0.316298 8.47322C0.193309 8.40628 0.117858 8.2764 0.120636 8.1364C0.126064 7.86277 0.320475 7.62948 0.588636 7.5748Z" fill="black"/>
<path fill-rule="evenodd" clip-rule="evenodd" d="M0.588636 7.5748C0.675163 7.55716 0.765142 7.57061 0.842721 7.6128L10.9983 13.1358C11.1349 13.2101 11.2114 13.3609 11.1909 13.5149C11.1752 13.6321 11.1058 13.7327 11.0068 13.7899C10.9781 13.876 10.9186 13.95 10.8377 13.9963C10.7248 14.0611 10.5863 14.0627 10.4719 14.0004L0.316298 8.47322C0.193309 8.40628 0.117858 8.2764 0.120636 8.1364C0.126064 7.86277 0.320475 7.62948 0.588636 7.5748Z" fill="black"/>
<path fill-rule="evenodd" clip-rule="evenodd" d="M20.4397 4.78629C20.5193 4.77511 20.6004 4.7898 20.671 4.82821L30.8266 10.3512C30.9687 10.4285 31.0453 10.5883 31.0164 10.7475C30.9876 10.9067 30.8599 11.0295 30.6996 11.052L10.8714 13.8408C10.7918 13.852 10.7106 13.8373 10.64 13.7988L0.484354 8.27162C0.342243 8.19427 0.265762 8.03451 0.29464 7.87531C0.323518 7.71611 0.451244 7.59339 0.611467 7.57089L20.4397 4.78629ZM1.84025 8.15568L10.8897 13.0808L29.4705 10.4675L20.4214 5.54621L1.84025 8.15568Z" fill="black"/>
<path fill-rule="evenodd" clip-rule="evenodd" d="M20.4397 4.78629C20.5193 4.77511 20.6004 4.7898 20.671 4.82821L30.8266 10.3512C30.9687 10.4285 31.0453 10.5883 31.0164 10.7475C30.9876 10.9067 30.8599 11.0295 30.6996 11.052L10.8714 13.8408C10.7918 13.852 10.7106 13.8373 10.64 13.7988L0.484354 8.27162C0.342243 8.19427 0.265762 8.03451 0.29464 7.87531C0.323518 7.71611 0.451244 7.59339 0.611467 7.57089L20.4397 4.78629ZM1.84025 8.15568L10.8897 13.0808L29.4705 10.4675L20.4214 5.54621L1.84025 8.15568Z" fill="black"/>
<path fill-rule="evenodd" clip-rule="evenodd" d="M20.1367 5.21731C20.2503 5.14988 20.3911 5.14725 20.5072 5.21039L30.6628 10.7334C30.7837 10.7991 30.8589 10.9259 30.8586 11.0635L30.8208 32.1097C30.8206 32.2418 30.7508 32.3641 30.6372 32.4315C30.5235 32.499 30.3828 32.5016 30.2667 32.4385L20.1111 26.9155C19.9902 26.8497 19.915 26.723 19.9152 26.5853L19.953 5.53915C19.9533 5.407 20.023 5.28473 20.1367 5.21731ZM20.7019 6.17001L20.6656 26.3633L30.072 31.4788L30.1082 11.2855L20.7019 6.17001Z" fill="black"/>
<path fill-rule="evenodd" clip-rule="evenodd" d="M20.1367 5.21731C20.2503 5.14988 20.3911 5.14725 20.5072 5.21039L30.6628 10.7334C30.7837 10.7991 30.8589 10.9259 30.8586 11.0635L30.8208 32.1097C30.8206 32.2418 30.7508 32.3641 30.6372 32.4315C30.5235 32.499 30.3828 32.5016 30.2667 32.4385L20.1111 26.9155C19.9902 26.8497 19.915 26.723 19.9152 26.5853L19.953 5.53915C19.9533 5.407 20.023 5.28473 20.1367 5.21731ZM20.7019 6.17001L20.6656 26.3633L30.072 31.4788L30.1082 11.2855L20.7019 6.17001Z" fill="black"/>
<path fill-rule="evenodd" clip-rule="evenodd" d="M20.2759 5.16847C20.3555 5.15729 20.4366 5.17198 20.5072 5.21039L30.6628 10.7334C30.8049 10.8107 30.8815 10.9705 30.8527 11.1297C30.8238 11.2889 30.6961 11.4117 30.5358 11.4342L11.0394 14.1726C10.9598 14.1838 10.8787 14.1691 10.8081 14.1307L0.652516 8.60766C0.510362 8.53035 0.433831 8.37057 0.462685 8.21135C0.49154 8.05213 0.619273 7.92937 0.779516 7.90687L20.2759 5.16847ZM2.00887 8.49156L11.0577 13.4126L29.3065 10.8495L20.2577 5.92839L2.00887 8.49156Z" fill="black"/>
<path fill-rule="evenodd" clip-rule="evenodd" d="M20.2759 5.16847C20.3555 5.15729 20.4366 5.17198 20.5072 5.21039L30.6628 10.7334C30.8049 10.8107 30.8815 10.9705 30.8527 11.1297C30.8238 11.2889 30.6961 11.4117 30.5358 11.4342L11.0394 14.1726C10.9598 14.1838 10.8787 14.1691 10.8081 14.1307L0.652516 8.60766C0.510362 8.53035 0.433831 8.37057 0.462685 8.21135C0.49154 8.05213 0.619273 7.92937 0.779516 7.90687L20.2759 5.16847ZM2.00887 8.49156L11.0577 13.4126L29.3065 10.8495L20.2577 5.92839L2.00887 8.49156Z" fill="black"/>
<path fill-rule="evenodd" clip-rule="evenodd" d="M0.640428 7.95568C0.754076 7.88827 0.894812 7.88565 1.01089 7.94878L11.1665 13.4718C11.2874 13.5375 11.3626 13.6643 11.3623 13.802L11.3203 34.8524C11.3201 34.9845 11.2503 35.1068 11.1366 35.1742C11.0229 35.2416 10.8821 35.2442 10.7661 35.181L0.610468 29.6538C0.489589 29.588 0.414458 29.4613 0.414733 29.3237L0.456733 8.27746C0.456996 8.14533 0.526781 8.02309 0.640428 7.95568ZM1.20548 8.90833L1.16518 29.1018L10.5716 34.2213L10.6119 14.0239L1.20548 8.90833Z" fill="black"/>
<path fill-rule="evenodd" clip-rule="evenodd" d="M0.640428 7.95568C0.754076 7.88827 0.894812 7.88565 1.01089 7.94878L11.1665 13.4718C11.2874 13.5375 11.3626 13.6643 11.3623 13.802L11.3203 34.8524C11.3201 34.9845 11.2503 35.1068 11.1366 35.1742C11.0229 35.2416 10.8821 35.2442 10.7661 35.181L0.610468 29.6538C0.489589 29.588 0.414458 29.4613 0.414733 29.3237L0.456733 8.27746C0.456996 8.14533 0.526781 8.02309 0.640428 7.95568ZM1.20548 8.90833L1.16518 29.1018L10.5716 34.2213L10.6119 14.0239L1.20548 8.90833Z" fill="black"/>
<path fill-rule="evenodd" clip-rule="evenodd" d="M20.2382 26.2147C20.3178 26.2035 20.3989 26.2182 20.4695 26.2566L30.6251 31.7796C30.7672 31.8569 30.8438 32.0167 30.8149 32.1759C30.7861 32.3351 30.6584 32.4578 30.4982 32.4804L10.9976 35.223C10.9179 35.2342 10.8367 35.2194 10.7661 35.181L0.610468 29.6538C0.468356 29.5764 0.391875 29.4167 0.420754 29.2575C0.449633 29.0983 0.57736 28.9756 0.737584 28.9531L20.2382 26.2147ZM1.96637 29.5379L11.0158 34.463L29.269 31.8959L20.2199 26.9746L1.96637 29.5379Z" fill="black"/>
<path fill-rule="evenodd" clip-rule="evenodd" d="M20.2382 26.2147C20.3178 26.2035 20.3989 26.2182 20.4695 26.2566L30.6251 31.7796C30.7672 31.8569 30.8438 32.0167 30.8149 32.1759C30.7861 32.3351 30.6584 32.4578 30.4982 32.4804L10.9976 35.223C10.9179 35.2342 10.8367 35.2194 10.7661 35.181L0.610468 29.6538C0.468356 29.5764 0.391875 29.4167 0.420754 29.2575C0.449633 29.0983 0.57736 28.9756 0.737584 28.9531L20.2382 26.2147ZM1.96637 29.5379L11.0158 34.463L29.269 31.8959L20.2199 26.9746L1.96637 29.5379Z" fill="black"/>
<path d="M35.8091 2.23022V3.01562H39.1103V3.63302H35.8091V4.50662H37.2287V4.59482H35.8091V5.46002H37.7999V5.67422H35.8091V6.54782H37.2287V6.64022H35.8091V7.51382H38.4341V7.93382H35.8091V8.82002H37.2287V8.91242H35.8091V9.78602H37.7999V10.0002H35.8091V10.878H37.2287V10.9662H35.8091V11.8398H39.1103V12.4572H35.8091V13.314H37.2287V13.4064H35.8091V14.28H37.7999V14.4942H35.8091V15.372H37.2287V15.4602H35.8091V16.3338H38.4341V16.7538H35.8091V17.6274H37.2287V17.7198H35.8091V18.5934H37.7999V18.8076H35.8091V19.6854H37.2287V19.74H35.8091V20.6178H39.1103V21.231H35.8091V22.1046H37.2287V22.197H35.8091V23.1H37.7999V23.3184H35.8091V24.192H37.2287V24.2802H35.8091V26.4348H37.2287V26.523H35.8091V27.4008H37.7999V27.615H35.8091V28.476H37.2287V28.56H35.8091V29.442H39.1103V30.0552H35.8091V30.933H37.2287V31.0212H35.8091V31.92H37.7999V32.1342H35.8091V33.0078H37.2287V33.1002H35.8091V33.9738H38.4341V34.3938H35.8091V35.2674H37.2287V35.3556H35.8091V36.2334H37.7999V36.4476H35.8091V37.3212H37.2287V37.38H35.8091V38.2536H39.0599V38.871H35.8091V39.648H41.6051V2.23022H35.8091ZM38.4341 25.5444H35.8427V25.1244H38.4341V25.5444Z" fill="black"/>
</svg>
