<svg width="42" height="42" viewBox="0 0 42 42" fill="none" xmlns="http://www.w3.org/2000/svg">
<path d="M12.2978 41.8068V41.7942L11.7896 41.5338L12.2978 41.8068Z" fill="#A7A9AC"/>
<path d="M12.8647 35.7924H29.8579C30.5905 35.7919 31.29 35.4877 31.7899 34.9524C31.2868 35.4751 30.5919 35.7694 29.8663 35.7672L12.8647 35.7924Z" fill="#A7A9AC"/>
<path d="M7.94629 41.8068L8.44609 41.5338L7.94629 41.7942V41.8068Z" fill="#A7A9AC"/>
<path d="M7.94629 34.839V35.7924V35.805V38.9928V41.7942L8.44609 41.5338L10.1219 40.677L11.7893 41.5338L12.2975 41.7942V38.9928V35.805V35.7924V34.839H7.94629Z" fill="#231F20"/>
<path d="M22.7389 10.2228H21.2353C21.089 10.2261 20.9648 10.3311 20.9371 10.4748L20.7019 11.7348C20.6874 11.7964 20.7026 11.8613 20.743 11.91C20.7835 11.9587 20.8445 11.9856 20.9077 11.9826H22.4113C22.5553 11.9767 22.6774 11.8752 22.7095 11.7348L22.9447 10.4748C22.9609 10.4126 22.9464 10.3464 22.9058 10.2966C22.8651 10.2468 22.8031 10.2194 22.7389 10.2228ZM22.4239 17.2536H21.6721L22.4281 13.2342C22.4427 13.1726 22.4275 13.1077 22.3871 13.059C22.3466 13.0102 22.2856 12.9834 22.2223 12.9864H19.7023C19.5573 12.9893 19.4335 13.0921 19.4041 13.2342L19.1689 14.4942C19.153 14.5557 19.167 14.621 19.2067 14.6706C19.2464 14.7202 19.3071 14.7482 19.3705 14.7462H20.1601L19.6897 17.2662H18.9001C18.7544 17.271 18.631 17.3753 18.6019 17.5182L18.3667 18.7782C18.3506 18.8404 18.3651 18.9066 18.4057 18.9564C18.4464 19.0062 18.5084 19.0336 18.5725 19.0302H22.0837C22.2301 19.0269 22.3543 18.9219 22.3819 18.7782L22.6171 17.5182C22.6374 17.4565 22.6268 17.3888 22.5885 17.3363C22.5502 17.2838 22.4889 17.253 22.4239 17.2536ZM41.1895 9.46259C40.8071 8.97938 40.2983 8.61157 39.7195 8.39999C39.7195 8.51759 39.7195 8.63939 39.7195 8.76119C39.727 9.11897 39.6803 9.47581 39.5809 9.81959L32.1259 34.3854C32.0578 34.6047 31.9432 34.8067 31.7899 34.9776C31.29 35.5129 30.5905 35.8171 29.8579 35.8176H12.8647V39.0054H29.8201C32.0997 38.9048 34.0763 37.3972 34.7761 35.2254L41.6221 12.6714C41.9771 11.592 41.8177 10.4094 41.1895 9.46259Z" fill="#231F20"/>
<path d="M3.29276 34.062C3.09536 33.516 3.12056 33.2892 3.31796 32.991C3.55827 32.7271 3.90712 32.5891 4.26296 32.6172H25.9014C29.064 32.6172 29.7108 31.7772 30.8784 27.9384L37.7034 5.38021C38.067 4.28981 37.9008 3.09216 37.254 2.14201C36.5891 1.24494 35.5311 0.725311 34.4148 0.747607H15.4686C15.0416 0.774976 14.619 0.849632 14.2086 0.970207L14.2338 0.898807C11.0712 7.09295e-06 10.8738 3.41881 9.82376 4.95601C9.42476 5.53141 8.82836 6.02701 8.73176 6.50161C8.63516 6.97621 8.90396 7.37101 8.85356 7.79521C8.55515 9.39196 7.96423 10.9198 7.11056 12.3018C6.73676 12.8016 6.19076 13.0494 6.01436 13.6206C5.86736 14.0406 6.11516 14.5908 6.06476 15.1158C5.93876 16.2834 5.06936 18.501 4.38476 19.6476C4.13696 20.0928 3.66236 20.4456 3.54476 20.9076C3.42716 21.3696 3.67076 21.8778 3.54476 22.3524C3.13837 23.9535 2.51073 25.4901 1.67996 26.9178C1.25996 27.5898 0.755958 28.014 0.655158 28.6104C0.604758 28.9086 0.827358 29.232 0.802158 29.631C0.781158 30.24 0.680358 30.7272 0.629958 31.2228C0.274124 32.2501 0.291971 33.37 0.680358 34.3854C1.60016 36.9768 4.31336 39.0054 6.85436 39.0054H7.37516V35.805H6.87956C5.51036 35.805 3.77996 35.5068 3.29276 34.062ZM15.0738 14.994C15.6954 11.6676 18.9 8.96701 22.2138 8.96701C25.5276 8.96701 27.72 11.6676 27.1152 14.994C26.5104 18.3204 23.289 21 19.9626 21C16.6362 21 14.448 18.3204 15.0738 14.994Z" fill="#231F20"/>
</svg>
