<svg width="42" height="42" viewBox="0 0 42 42" fill="none" xmlns="http://www.w3.org/2000/svg">
<path d="M24.3602 13.482H21.7142V16.128H20.9078V13.482H18.2618V12.705H20.9078V10.0548H21.7142V12.705H24.3602V13.482Z" fill="#231F20"/>
<path d="M12.2055 9.90359H8.29113V9.16439H9.79473V4.31759H8.29113V3.65819C8.51054 3.65533 8.72948 3.63709 8.94633 3.60359C9.12945 3.58315 9.30811 3.53352 9.47553 3.45659C9.61467 3.38219 9.73526 3.2774 9.82833 3.14999C9.92099 2.99792 9.97171 2.82402 9.97533 2.64599H10.7271V9.16439H12.2055V9.90359ZM12.6969 21.3528H7.79973V20.3364L8.82033 19.4628C9.16473 19.1688 9.47973 18.879 9.77793 18.5934C10.2446 18.1576 10.6667 17.6765 11.0379 17.157C11.2637 16.8157 11.3835 16.4154 11.3823 16.0062C11.3983 15.6706 11.2608 15.3461 11.0085 15.1242C10.7123 14.8966 10.3441 14.7832 9.97113 14.805C9.64754 14.811 9.32648 14.8633 9.01773 14.9604C8.66071 15.0714 8.32131 15.2326 8.00973 15.4392H7.98033V14.4186C8.27624 14.282 8.58603 14.1778 8.90433 14.1078C9.26802 14.0144 9.64186 13.9665 10.0173 13.965C10.6439 13.9301 11.2623 14.1208 11.7603 14.5026C12.183 14.8658 12.4153 15.4032 12.3903 15.96C12.3929 16.2199 12.3575 16.4789 12.2853 16.7286C12.2171 16.9679 12.1138 17.1958 11.9787 17.4048C11.845 17.6142 11.6962 17.8135 11.5335 18.0012C11.3613 18.1944 11.1555 18.4212 10.9119 18.6438C10.5675 18.984 10.2105 19.3158 9.84093 19.635L8.82033 20.5212H12.7137L12.6969 21.3528Z" fill="#231F20"/>
<path fill-rule="evenodd" clip-rule="evenodd" d="M13.8602 12.45H6.63201V11.7H13.8602V12.45Z" fill="#231F20"/>
<path d="M34.2261 6.42179C34.3871 6.56968 34.5171 6.74815 34.6083 6.94679C34.7183 7.2039 34.7699 7.48216 34.7595 7.76159C34.7643 8.07337 34.7027 8.3826 34.5789 8.66879C34.4639 8.94251 34.2921 9.18873 34.0749 9.39119C33.8349 9.6173 33.5482 9.78792 33.2349 9.89099C32.8863 10.0033 32.5218 10.0587 32.1555 10.0548C31.755 10.0557 31.3559 10.0078 30.9669 9.91199C30.6392 9.83494 30.3188 9.72954 30.0093 9.59699V8.58479H30.0849C30.3858 8.77911 30.7124 8.93038 31.0551 9.03419C31.4031 9.15126 31.7674 9.21222 32.1345 9.21479C32.3467 9.20968 32.5573 9.17577 32.7603 9.11399C32.9702 9.06297 33.1647 8.96213 33.3273 8.81999C33.469 8.68757 33.5819 8.52746 33.6591 8.34959C33.7395 8.14228 33.7766 7.92076 33.7683 7.69859C33.775 7.47671 33.7335 7.25603 33.6465 7.05179C33.5695 6.89037 33.4506 6.75258 33.3021 6.65279C33.1392 6.54299 32.9543 6.46991 32.7603 6.43859C32.5384 6.40027 32.3135 6.382 32.0883 6.38399H31.6683V5.57339H32.0085C32.4213 5.59372 32.8304 5.48669 33.1803 5.26679C33.4664 5.0581 33.625 4.717 33.6003 4.36379C33.6038 4.20384 33.5646 4.04585 33.4869 3.90599C33.4118 3.77409 33.3049 3.66295 33.1761 3.58259C33.0483 3.50201 32.9077 3.44378 32.7603 3.41039C32.5807 3.37417 32.3976 3.35727 32.2143 3.35999C31.8803 3.36449 31.5489 3.41972 31.2315 3.52379C30.8818 3.63419 30.5484 3.79099 30.2403 3.98999H30.1899V2.97779C30.4851 2.84201 30.7933 2.73647 31.1097 2.66279C31.4789 2.56835 31.8585 2.52038 32.2395 2.51999C32.5559 2.51371 32.8718 2.54615 33.1803 2.61659C33.4371 2.68058 33.6804 2.79012 33.8985 2.93999C34.1209 3.07694 34.3068 3.26573 34.4403 3.49019C34.562 3.72928 34.6226 3.99478 34.6167 4.26299C34.6225 4.65627 34.4714 5.03565 34.1967 5.31719C33.9274 5.60942 33.5709 5.80682 33.1803 5.87999V5.95139C33.3646 5.98555 33.5448 6.03904 33.7179 6.11099C33.9035 6.18546 34.0753 6.29052 34.2261 6.42179ZM35.1123 19.908H34.0203V21.945H33.1047V19.908H29.6397V18.7908L33.1467 14.7H34.0203V19.131H35.1123V19.908ZM33.1047 19.131V15.8676L30.3033 19.131H33.1047Z" fill="#231F20"/>
<path fill-rule="evenodd" clip-rule="evenodd" d="M35.9901 12.45H28.7618V11.7H35.9901V12.45Z" fill="#231F20"/>
<path d="M4.99411 37.0398C5.04869 37.7828 4.88986 38.526 4.53631 39.1818C4.21721 39.6447 3.67761 39.9049 3.11671 39.8664C2.54804 39.911 1.99933 39.6462 1.68031 39.1734C1.34666 38.5159 1.2013 37.7789 1.26031 37.044C1.19634 36.3061 1.34192 35.5651 1.68031 34.9062C1.99726 34.4404 2.53787 34.1781 3.09991 34.2174C3.66787 34.175 4.21427 34.4434 4.52791 34.9188C4.8758 35.5693 5.03714 36.3033 4.99411 37.0398ZM4.03651 38.6904C4.12488 38.4687 4.18007 38.2352 4.20031 37.9974C4.23312 37.6793 4.24854 37.3596 4.24651 37.0398C4.24819 36.7172 4.23277 36.3947 4.20031 36.0738C4.17867 35.8349 4.11912 35.601 4.02391 35.3808C3.95177 35.2094 3.83046 35.0633 3.67531 34.9608C3.50447 34.8584 3.30724 34.8088 3.10831 34.818C2.9095 34.81 2.71262 34.8596 2.54131 34.9608C2.38511 35.0632 2.26243 35.2092 2.18851 35.3808C2.0928 35.6049 2.03462 35.8433 2.01631 36.0864C1.9849 36.4018 1.96948 36.7186 1.97011 37.0356C1.97011 37.4136 1.97011 37.7328 2.01211 37.989C2.0335 38.2248 2.0916 38.4557 2.18431 38.6736C2.25503 38.8433 2.37314 38.9892 2.52451 39.0936C2.69923 39.2021 2.90287 39.2549 3.10831 39.2448C3.30697 39.2514 3.50347 39.2019 3.67531 39.102C3.83403 39.0038 3.95981 38.8605 4.03651 38.6904ZM41.3829 39.753H38.4429V39.1986H39.5727V35.5614H38.4471V35.0658C38.6116 35.0648 38.7758 35.0521 38.9385 35.028C39.0842 35.0161 39.2266 34.9776 39.3585 34.9146C39.4639 34.8598 39.5546 34.7806 39.6231 34.6836C39.6926 34.5712 39.7304 34.442 39.7323 34.3098H40.2783V39.1986H41.3829V39.753Z" fill="#231F20"/>
<path d="M40.0474 30.2736H2.73457V30.8952H40.0474V30.2736Z" fill="#231F20"/>
<path d="M3.13779 28.0392H2.71779V32.5542H3.13779V28.0392Z" fill="#231F20"/>
<path d="M21.6513 28.0392H21.2313V32.5542H21.6513V28.0392Z" fill="#231F20"/>
<path d="M30.9796 28.0392H30.5596V32.5542H30.9796V28.0392Z" fill="#231F20"/>
<path d="M12.3231 28.0392H11.9031V32.5542H12.3231V28.0392Z" fill="#231F20"/>
<path d="M40.0515 28.0392H39.6315V32.5542H40.0515V28.0392Z" fill="#231F20"/>
</svg>
