<svg width="42" height="42" viewBox="0 0 42 42" fill="none" xmlns="http://www.w3.org/2000/svg">
<path d="M12.8771 4.98541C12.2546 5.01953 11.7072 5.40845 11.4701 5.98501L0.839861 36.393C0.756566 36.5836 0.77065 36.8027 0.877661 36.981C1.01069 37.1405 1.21225 37.2265 1.41946 37.212H25.3595C25.9822 37.1752 26.529 36.7851 26.7665 36.2082L37.4009 5.80021C37.4914 5.61424 37.4836 5.3954 37.3799 5.21641C37.2517 5.0553 37.0517 4.96866 36.8465 4.98541H12.8771ZM25.3553 37.7664H1.41526C1.02711 37.7884 0.653626 37.6151 0.419861 37.3044C0.206099 36.9792 0.163803 36.5703 0.306461 36.2082L10.9451 5.80021C11.259 4.99982 12.0179 4.46198 12.8771 4.43101H36.8171C37.2033 4.41268 37.5739 4.58541 37.8083 4.89301C38.0206 5.21742 38.0613 5.62499 37.9175 5.98501L27.2999 36.393C26.9846 37.1984 26.2198 37.7386 25.3553 37.7664Z" fill="#231F20"/>
<path d="M4.48975 34.125H24.6749M12.9779 9.99182H33.1631H12.9779ZM11.9195 13.0074H32.1005H11.9195ZM10.8569 16.0272H31.0379H10.8569ZM9.79435 19.0428H29.9795H9.79435ZM8.73595 22.0584H28.9169H8.73595ZM7.67335 25.0782H27.8585H7.67335ZM6.61495 28.0938H22.9907H6.61495ZM5.55235 31.1094H25.7333H5.55235Z" stroke="#231F20" stroke-width="0.25" stroke-linecap="round"/>
<path d="M12.8016 20.9538C10.7604 20.9538 9.16016 19.9752 9.16016 18.7236C9.16016 17.472 10.7604 16.4934 12.8016 16.4934C14.8428 16.4934 16.4472 17.4762 16.4472 18.7236C16.4472 19.971 14.847 20.9538 12.8016 20.9538ZM12.8016 17.0436C11.1216 17.0436 9.71036 17.8122 9.71036 18.7236C9.71036 19.635 11.1258 20.4036 12.8016 20.4036C14.4774 20.4036 15.897 19.635 15.897 18.7236C15.897 17.8122 14.4816 17.0436 12.8016 17.0436ZM16.674 33.012C15.3384 33.012 14.2548 32.1258 14.2548 31.0422C14.2548 29.9586 15.3384 29.0682 16.674 29.0682C18.0096 29.0682 19.0932 29.9544 19.0932 31.0422C19.0932 32.13 18.0054 33.012 16.674 33.012ZM16.674 29.6184C15.6408 29.6184 14.8008 30.2568 14.8008 31.0422C14.8008 31.8276 15.6408 32.4618 16.674 32.4618C17.7072 32.4618 18.543 31.8234 18.543 31.0422C18.543 30.261 17.703 29.6184 16.674 29.6184ZM19.9038 14.6076C18.5682 14.6076 17.4846 13.7214 17.4846 12.6336C17.4846 11.5458 18.5682 10.6638 19.9038 10.6638C21.2394 10.6638 22.323 11.55 22.323 12.6336C22.323 13.7172 21.2394 14.6076 19.9038 14.6076ZM19.9038 11.214C18.8706 11.214 18.0306 11.8524 18.0306 12.6336C18.0306 13.4148 18.8706 14.0574 19.9038 14.0574C20.937 14.0574 21.7728 13.419 21.7728 12.6336C21.7728 11.8482 20.9328 11.214 19.9038 11.214Z" fill="#231F20"/>
<path d="M28.4169 11.3904L29.2191 12.3396L30.4791 11.3904L30.7479 11.7138L29.4879 12.6588L30.2859 13.6038L29.8659 13.923L29.0721 12.9822L27.8121 13.923L27.5391 13.6038L28.7991 12.6588L28.0053 11.7138L28.4169 11.3904Z" fill="#231F20"/>
<path d="M22.625 20.5086L23.4272 21.4578L24.6872 20.5086L24.956 20.832L23.696 21.777L24.494 22.7178L24.074 23.0412L23.276 22.0962L22.016 23.0412L21.7388 22.7178L22.9988 21.777L22.2008 20.832L22.625 20.5086Z" fill="#231F20"/>
<path d="M37.7242 19.1478L22.3018 29.1102V31.3152L24.4102 32.4198L38.182 23.5158L37.7242 19.1478Z" fill="white"/>
<path d="M37.1996 24.1542L24.4106 32.4198L20.1602 32.8314L22.3022 29.1102L35.0912 20.8446L37.1996 24.1542ZM25.9268 30.4206L24.7382 28.56L23.3396 29.463L22.7852 30.4206L24.0956 30.2946L23.4362 31.4328L24.5282 31.3236L25.9268 30.4206ZM34.541 22.3314C34.466 22.3427 34.3944 22.3699 34.331 22.4112L26.0024 27.7956C25.9372 27.8353 25.8825 27.89 25.8428 27.9552C25.7756 28.0728 25.8218 28.1442 25.952 28.1316C26.0272 28.1217 26.0991 28.0944 26.162 28.0518L34.4948 22.68C34.5609 22.6416 34.6159 22.5865 34.6544 22.5204C34.7216 22.3902 34.6754 22.3188 34.541 22.3314ZM40.7402 21.8694L38.1824 23.52L36.0824 20.2146L38.6402 18.5682C38.9736 18.3438 39.3546 18.2 39.7532 18.1482C40.0252 18.0873 40.3085 18.1828 40.4882 18.396L41.6852 20.2566C41.7862 20.5136 41.7465 20.8047 41.5802 21.0252C41.3683 21.3671 41.0809 21.6558 40.7402 21.8694Z" fill="#231F20"/>
</svg>
