<svg width="42" height="42" viewBox="0 0 42 42" fill="none" xmlns="http://www.w3.org/2000/svg">
<path fill-rule="evenodd" clip-rule="evenodd" d="M0.600176 1.7724C0.600176 1.22012 1.04789 0.7724 1.60018 0.7724H39.9126C40.4649 0.7724 40.9126 1.22012 40.9126 1.7724V17.5392C40.9126 18.0915 40.4649 18.5392 39.9126 18.5392H1.60018C1.04789 18.5392 0.600176 18.0915 0.600176 17.5392V1.7724ZM2.60018 2.7724V16.5392H38.9126V2.7724H2.60018Z" fill="#231F20"/>
<path fill-rule="evenodd" clip-rule="evenodd" d="M30.2947 20.4032C30.6519 20.4033 30.982 20.5939 31.1606 20.9033L41.8623 39.4464C42.0408 39.7558 42.0407 40.137 41.8621 40.4463C41.6834 40.7557 41.3533 40.9462 40.9961 40.9462H19.5887C19.2315 40.9462 18.9014 40.7557 18.7228 40.4463C18.5441 40.137 18.544 39.7558 18.7226 39.4464L29.4286 20.903C29.6073 20.5937 29.9375 20.4031 30.2947 20.4032ZM21.3202 38.9462H39.2646L30.2942 23.4029L21.3202 38.9462Z" fill="#231F20"/>
<path fill-rule="evenodd" clip-rule="evenodd" d="M10.8108 21.454C6.04423 21.454 2.18018 25.3181 2.18018 30.0846C2.18018 34.8512 6.04423 38.7152 10.8108 38.7152C15.5773 38.7152 19.4414 34.8512 19.4414 30.0846C19.4414 25.3181 15.5773 21.454 10.8108 21.454ZM0.180176 30.0846C0.180176 24.2135 4.93966 19.454 10.8108 19.454C16.6819 19.454 21.4414 24.2135 21.4414 30.0846C21.4414 35.9557 16.6819 40.7152 10.8108 40.7152C4.93966 40.7152 0.180176 35.9557 0.180176 30.0846Z" fill="#231F20"/>
</svg>
