<svg width="42" height="42" viewBox="0 0 42 42" fill="none" xmlns="http://www.w3.org/2000/svg">
<path d="M7.25774 11.256H2.90234V10.353L3.81374 9.57602C4.11614 9.31562 4.40174 9.05942 4.65374 8.80322C5.07541 8.42467 5.45555 8.00229 5.78774 7.54322C5.98909 7.24104 6.09584 6.88573 6.09434 6.52262C6.11002 6.22466 5.9895 5.93571 5.76674 5.73722C5.50428 5.53875 5.17961 5.44045 4.85114 5.46002C4.56595 5.46574 4.28306 5.51242 4.01114 5.59862C3.69533 5.69414 3.39531 5.83566 3.12074 6.01862H3.06194V5.09462C3.33141 4.97291 3.61297 4.87999 3.90194 4.81742C4.22609 4.73577 4.55888 4.69346 4.89314 4.69142C5.45064 4.65843 6.00121 4.82852 6.44294 5.17022C6.82181 5.49021 7.02989 5.96849 7.00574 6.46382C7.00041 6.69347 6.96222 6.92118 6.89234 7.14002C6.83012 7.35209 6.73821 7.55429 6.61934 7.74062C6.50211 7.92729 6.37009 8.10426 6.22454 8.26982C6.07334 8.44202 5.88854 8.63102 5.67434 8.84102C5.36354 9.14342 5.04434 9.43742 4.71674 9.72302C4.38914 10.0128 4.08254 10.2774 3.78014 10.5H7.24094L7.25774 11.256Z" fill="#231F20"/>
<path d="M13.2511 11.256H12.2263L10.8571 9.40382L9.47945 11.256H8.53445L10.4161 8.84942L8.55125 6.43022H9.57605L10.9201 8.25722L12.2851 6.43022H13.2343L11.3401 8.82002L13.2511 11.256Z" fill="#231F20"/>
<path d="M20.1348 7.87922H15.0109V7.18622H20.1348V7.87922ZM20.1348 9.69362H15.0109V9.00062H20.1348V9.69362ZM26.7289 9.46262C26.739 10.0009 26.5003 10.5138 26.0821 10.8528C25.1012 11.5781 23.7617 11.5781 22.7809 10.8528C22.3763 10.5092 22.148 10.0017 22.1593 9.47102C22.1571 9.12281 22.266 8.78297 22.4701 8.50082C22.6952 8.19627 22.9985 7.95827 23.3479 7.81202V7.78262C23.0521 7.64083 22.7912 7.4358 22.5835 7.18202C22.4064 6.93882 22.3175 6.64253 22.3314 6.34202C22.3288 5.86743 22.5498 5.41929 22.9279 5.13242C23.3608 4.79824 23.8976 4.62723 24.4441 4.64942C24.9944 4.62124 25.5376 4.78449 25.9813 5.11142C26.3546 5.39075 26.5691 5.83392 26.5567 6.30002C26.5495 6.60066 26.4546 6.89265 26.2837 7.14002C26.0884 7.43365 25.8108 7.66306 25.4857 7.79942V7.82462C25.8395 7.96185 26.1561 8.18057 26.4097 8.46302C26.6379 8.74425 26.7519 9.10114 26.7289 9.46262ZM25.8385 9.54662C25.851 9.32086 25.7906 9.09705 25.6663 8.90822C25.4787 8.69719 25.2442 8.53319 24.9817 8.42942C24.8472 8.36642 24.6961 8.30762 24.5364 8.24882C24.3769 8.19002 24.1585 8.11862 23.8939 8.02202C23.6394 8.157 23.4239 8.35514 23.2681 8.59742C23.1072 8.8475 23.0252 9.14017 23.0329 9.43742C23.0251 9.8053 23.1785 10.1582 23.4529 10.4034C23.728 10.6594 24.0937 10.7954 24.4692 10.7814C24.8347 10.8 25.1945 10.6851 25.4815 10.458C25.7354 10.226 25.8672 9.88935 25.8385 9.54662ZM25.7083 6.32522C25.7175 6.0364 25.584 5.76153 25.3513 5.59022C24.8039 5.23242 24.0968 5.23242 23.5495 5.59022C23.3259 5.75138 23.1957 6.01191 23.2009 6.28742C23.1968 6.48276 23.259 6.67372 23.3773 6.82922C23.5197 7.00735 23.7006 7.15093 23.9065 7.24922L24.3643 7.45082C24.5559 7.53115 24.7523 7.59988 24.9523 7.65662C25.1954 7.51097 25.3988 7.30755 25.5445 7.06442C25.6632 6.83676 25.7197 6.58175 25.7083 6.32522ZM9.47105 37.2036H8.70245V36.7164L8.42525 36.9138C8.31737 36.9887 8.2036 37.0547 8.08505 37.1112C7.94411 37.1788 7.79624 37.2309 7.64405 37.2666C7.45188 37.3149 7.25416 37.3375 7.05605 37.3338C6.66405 37.3394 6.28604 37.1882 6.00605 36.9138C5.72425 36.6404 5.57161 36.2604 5.58605 35.868C5.57271 35.5713 5.65197 35.2777 5.81285 35.028C5.97474 34.803 6.19568 34.6271 6.45125 34.5198C6.77131 34.3867 7.1098 34.3031 7.45505 34.272C7.84565 34.2258 8.26565 34.1964 8.71505 34.1712V34.0536C8.71836 33.9082 8.68667 33.7642 8.62265 33.6336C8.56048 33.5217 8.46901 33.4288 8.35805 33.3648C8.23595 33.2974 8.10182 33.2546 7.96325 33.2388C7.80139 33.2054 7.63701 33.1858 7.47185 33.18C7.24424 33.1822 7.01753 33.209 6.79565 33.2598C6.53259 33.3172 6.27426 33.3944 6.02285 33.4908H5.98085V32.718C6.13205 32.6802 6.35045 32.634 6.63185 32.5836C6.9095 32.5375 7.1904 32.5136 7.47185 32.5122C7.75392 32.5081 8.0356 32.5349 8.31185 32.592C8.53513 32.6368 8.74587 32.73 8.92925 32.865C9.10341 32.9877 9.24009 33.1564 9.32405 33.3522C9.42383 33.587 9.47114 33.8407 9.46265 34.0956L9.47105 37.2036ZM8.70245 36.078V34.818L7.86245 34.8768C7.60725 34.8941 7.35418 34.9349 7.10645 34.9986C6.90499 35.0489 6.71985 35.1501 6.56885 35.2926C6.28195 35.6229 6.29657 36.1181 6.60245 36.4308C6.81319 36.5818 7.07063 36.6533 7.32905 36.6324C7.58425 36.6348 7.83677 36.5803 8.06825 36.4728C8.29367 36.3652 8.50638 36.2328 8.70245 36.078Z" fill="#231F20"/>
<path d="M16.6322 34.86H14.3936V37.0986H13.7132V34.86H11.4788V34.2006H13.7132V31.9662H14.3936V34.2006H16.6322V34.86Z" fill="#231F20"/>
<path d="M22.7055 34.86C22.71 35.2123 22.6561 35.5628 22.5459 35.8974C22.4554 36.1777 22.3129 36.4385 22.1259 36.666C21.9471 36.8706 21.7285 37.0364 21.4833 37.1532C21.2425 37.2645 20.9799 37.3205 20.7147 37.317C20.4846 37.3192 20.2554 37.2881 20.0343 37.2246C19.8367 37.1596 19.6455 37.0767 19.4631 36.9768L19.4127 37.1868H18.6735V30.8196H19.4463V33.1002C19.6574 32.932 19.8888 32.7909 20.1351 32.6802C20.3988 32.5615 20.686 32.5041 20.9751 32.5122C21.4717 32.4999 21.9427 32.7322 22.2351 33.1338C22.5721 33.6442 22.737 34.2492 22.7055 34.86ZM21.9117 34.86C21.9414 34.4227 21.8467 33.9858 21.6387 33.6C21.4457 33.3114 21.111 33.1505 20.7651 33.18C20.531 33.1817 20.2996 33.2302 20.0847 33.3228C19.8551 33.4181 19.6402 33.5454 19.4463 33.7008V36.3258C19.6274 36.4109 19.8158 36.4797 20.0091 36.5316C20.1841 36.5707 20.3631 36.589 20.5425 36.5862C20.9234 36.6054 21.2925 36.4509 21.5463 36.1662C21.8103 35.798 21.9394 35.3501 21.9117 34.8978V34.86Z" fill="#231F20"/>
<path d="M25.532 24.0828H24.3602L22.781 21.945L21.1892 24.0828H20.0972L22.2602 21.3066L20.1056 18.5178H21.2858L22.8566 20.6178L24.4316 18.5178H25.5278L23.3396 21.2562L25.532 24.0828Z" fill="#231F20"/>
<path d="M32.2814 20.9076L27.464 23.0496V22.2978L31.244 20.6472L27.464 19.0008V18.249L32.2814 20.391V20.9076Z" fill="#231F20"/>
<path d="M39.5052 18.5178L36.2544 26.1366H35.2548L36.2922 23.814L34.0746 18.5178H35.091L36.8004 22.6422L38.5224 18.5178H39.5052Z" fill="#231F20"/>
</svg>
