<svg width="42" height="42" viewBox="0 0 42 42" fill="none" xmlns="http://www.w3.org/2000/svg">
<g clip-path="url(#clip0)">
<path fill-rule="evenodd" clip-rule="evenodd" d="M11.8038 20.6743C6.82006 24.0259 4.06576 29.3584 4.06576 36.8382C4.06576 37.3905 3.61805 37.8382 3.06576 37.8382C2.51348 37.8382 2.06576 37.3905 2.06576 36.8382C2.06576 28.8033 5.06546 22.7957 10.6877 19.0147C16.2511 15.2733 24.2375 13.8105 34.0495 14.4751C34.6006 14.5124 35.017 14.9894 34.9797 15.5404C34.9424 16.0914 34.4654 16.5079 33.9144 16.4706C24.3182 15.8206 16.8465 17.2831 11.8038 20.6743Z" fill="#231F20"/>
<path d="M32.8565 16.8715L38.4299 15.9013L33.1169 13.9567L32.8565 16.8715Z" fill="#231F20"/>
<path d="M12.1379 30.0553C12.0653 30.153 11.9488 30.2081 11.8271 30.2023C11.7204 30.2051 11.6173 30.1641 11.5415 30.0889C11.4691 30.0234 11.4279 29.9303 11.4281 29.8327C11.4421 29.709 11.4761 29.5884 11.5289 29.4757C11.5257 29.4283 11.5009 29.3849 11.4617 29.3581C11.4206 29.3272 11.3704 29.3109 11.3189 29.3119C11.0669 29.3119 10.8527 29.5849 10.6805 30.1519C10.5401 30.6782 10.4321 31.2126 10.3571 31.7521H11.4953L11.4239 32.0965H10.2605L9.28614 35.4271C9.12869 36.1819 8.84469 36.9047 8.44614 37.5649C8.18291 38.0435 7.68599 38.3471 7.13994 38.3629C6.9197 38.3733 6.70321 38.3031 6.53094 38.1655C6.38723 38.0615 6.29902 37.8975 6.29154 37.7203C6.29242 37.6165 6.32789 37.516 6.39234 37.4347C6.46415 37.3447 6.57574 37.296 6.69054 37.3045C6.79955 37.3027 6.90497 37.3433 6.98454 37.4179C7.06197 37.4907 7.10473 37.593 7.10214 37.6993C7.10045 37.7654 7.08318 37.8301 7.05174 37.8883C7.0238 37.9269 7.00511 37.9715 6.99714 38.0185C6.99714 38.0479 7.01814 38.0731 7.05594 38.0941C7.10308 38.1164 7.15507 38.1265 7.20714 38.1235C7.49694 38.1235 7.74054 37.8967 7.94214 37.4389C8.07188 37.122 8.16898 36.7927 8.23194 36.4561L9.44574 32.0797H8.47974L8.55114 31.7353H9.54234C9.66235 31.1208 9.87326 30.5277 10.1681 29.9755C10.3936 29.4725 10.8782 29.1349 11.4281 29.0977C11.6393 29.0882 11.8463 29.1587 12.0077 29.2951C12.1502 29.4047 12.2352 29.5731 12.2387 29.7529C12.2417 29.8624 12.206 29.9694 12.1379 30.0553ZM14.5403 29.3539C14.2564 29.6464 13.9979 29.9625 13.7675 30.2989C13.404 30.8509 13.1211 31.4519 12.9275 32.0839C12.7424 32.6488 12.602 33.2274 12.5075 33.8143C12.4365 34.2674 12.3972 34.7249 12.3899 35.1835C12.3831 35.6543 12.4154 36.125 12.4865 36.5905C12.5817 37.079 12.7151 37.5593 12.8855 38.0269L12.7091 38.0899C12.0255 36.9477 11.6654 35.641 11.6675 34.3099C11.6546 33.5552 11.7976 32.806 12.0875 32.1091C12.6338 30.9734 13.4206 29.9702 14.3933 29.1691L14.5403 29.3539ZM13.5197 35.5573C13.6265 35.4766 13.7654 35.4516 13.8935 35.4901C13.9395 35.5033 13.9834 35.5231 14.0237 35.5489L14.2043 35.6455L14.2715 35.6749H14.3471C14.4185 35.6793 14.4889 35.6568 14.5445 35.6119C14.6714 35.471 14.7892 35.3223 14.8973 35.1667C15.0233 34.9987 15.3033 34.5913 15.7373 33.9445C15.7373 33.9445 15.6995 33.7387 15.6197 33.3985C15.5399 33.0583 15.4727 32.7643 15.4055 32.5291C15.3709 32.3622 15.3129 32.201 15.2333 32.0503C15.1638 31.9661 15.0561 31.9233 14.9477 31.9369C14.8526 31.9448 14.7584 31.9617 14.6663 31.9873C14.5781 31.9873 14.4815 32.0293 14.3807 32.0587L14.3513 31.9201L14.9183 31.7269C15.0653 31.6765 15.1997 31.6345 15.3383 31.6051C15.4426 31.5773 15.5497 31.5618 15.6575 31.5589C15.7776 31.55 15.8951 31.5964 15.9767 31.6849C16.1256 31.9308 16.2201 32.2058 16.2539 32.4913L16.3589 33.0751C16.5759 32.73 16.8143 32.3989 17.0729 32.0839C17.1943 31.9362 17.3357 31.8061 17.4929 31.6975C17.6071 31.6189 17.7409 31.5738 17.8793 31.5673C17.976 31.565 18.072 31.5836 18.1607 31.6219C18.292 31.6837 18.3696 31.822 18.3539 31.9663C18.3593 32.0665 18.3245 32.1647 18.2573 32.2393C18.1897 32.304 18.0989 32.3388 18.0053 32.3359C17.9705 32.3403 17.9352 32.3403 17.9003 32.3359L17.7911 32.2981L17.6609 32.2393L17.5517 32.1973C17.5267 32.193 17.5012 32.193 17.4761 32.1973C17.3207 32.1973 17.1107 32.3947 16.8377 32.7895C16.6645 32.9971 16.523 33.2292 16.4177 33.4783C16.4375 33.6453 16.4683 33.8109 16.5101 33.9739C16.5731 34.2553 16.6445 34.5493 16.7201 34.8643C16.761 35.073 16.8186 35.278 16.8923 35.4775C16.9721 35.6623 17.0561 35.7505 17.1569 35.7505C17.267 35.7391 17.3681 35.6848 17.4383 35.5993C17.5882 35.4236 17.7284 35.2399 17.8583 35.0491L18.0011 35.1331C17.8717 35.3736 17.7198 35.6014 17.5475 35.8135C17.3569 36.1027 17.0508 36.2956 16.7075 36.3427C16.5322 36.3495 16.3686 36.2547 16.2875 36.0991C16.21 35.9508 16.1535 35.7925 16.1195 35.6287L15.8045 34.3687L14.7923 35.7001C14.6519 35.8763 14.4927 36.0369 14.3177 36.1789C14.1958 36.2664 14.0476 36.3094 13.8977 36.3007C13.7318 36.3133 13.5717 36.2364 13.4777 36.0991C13.4306 36.0222 13.4072 35.933 13.4105 35.8429C13.3952 35.7352 13.4365 35.6272 13.5197 35.5573ZM17.8121 37.9051C18.1066 37.5953 18.3776 37.264 18.6227 36.9139C18.9666 36.3744 19.2325 35.789 19.4123 35.1751C19.5953 34.6267 19.7357 34.065 19.8323 33.4951C19.9142 32.9811 19.9563 32.4615 19.9583 31.9411C19.9639 31.4068 19.9146 30.8734 19.8113 30.3493C19.7326 29.962 19.6115 29.5845 19.4501 29.2237L19.6433 29.1607C19.9774 29.7126 20.2345 30.3075 20.4077 30.9289C20.5912 31.5751 20.6845 32.2437 20.6849 32.9155C20.6976 33.6059 20.5808 34.2925 20.3405 34.9399C19.819 36.1586 19.0019 37.2282 17.9633 38.0521L17.8121 37.9051Z" fill="#231F20"/>
<path fill-rule="evenodd" clip-rule="evenodd" d="M0.512207 0.237061C0.926421 0.237061 1.26221 0.572847 1.26221 0.987061V40.5739H41.3278C41.742 40.5739 42.0778 40.9096 42.0778 41.3239C42.0778 41.7381 41.742 42.0739 41.3278 42.0739H0.512207C0.0979935 42.0739 -0.237793 41.7381 -0.237793 41.3239V0.987061C-0.237793 0.572847 0.0979935 0.237061 0.512207 0.237061Z" fill="#231F20"/>
</g>
<defs>
<clipPath id="clip0">
<rect width="42" height="42" fill="white"/>
</clipPath>
</defs>
</svg>
