<svg width="42" height="42" viewBox="0 0 42 42" fill="none" xmlns="http://www.w3.org/2000/svg">
<g clip-path="url(#clip0)">
<path d="M26.5983 11.0922H26.0397L25.3047 10.08L24.5613 11.0796H24.0489L25.0653 9.78176L24.0573 8.47136H24.6117L25.3467 9.45836L26.0859 8.47136H26.5983L25.5735 9.75656L26.5983 11.0922Z" fill="#231F20"/>
<path d="M29.8196 9.26515H27.0392V8.89555H29.8196V9.26515ZM29.8196 10.248H27.0392V9.87416H29.8196V10.248ZM32.7596 11.0922H30.395V10.605L30.8864 10.185C31.0502 10.0464 31.2056 9.90355 31.3484 9.76495C31.5775 9.55856 31.7831 9.32757 31.9616 9.07615C32.0693 8.91293 32.1263 8.7215 32.1254 8.52595C32.133 8.36652 32.0682 8.21219 31.949 8.10595C31.8071 7.99458 31.6293 7.93927 31.4492 7.95055C31.2924 7.95303 31.1367 7.9785 30.9872 8.02615C30.816 8.07968 30.6534 8.15747 30.5042 8.25715V7.76155C30.6388 7.6971 30.7795 7.64645 30.9242 7.61035C31.101 7.57375 31.2813 7.55685 31.4618 7.55995C31.764 7.54305 32.0622 7.63549 32.3018 7.82035C32.5096 7.99041 32.6235 8.24951 32.6084 8.51756C32.6111 8.7647 32.541 9.00716 32.4068 9.21476C32.3437 9.31485 32.2736 9.41029 32.1968 9.50035C32.1128 9.59275 32.012 9.69356 31.8986 9.81116C31.7852 9.92875 31.5584 10.1304 31.382 10.2858L30.8822 10.7058H32.7596V11.0922Z" fill="#231F20"/>
<path d="M34.2255 10.4286L33.5661 11.9574H33.2259L33.6459 10.4286H34.2255Z" fill="#231F20"/>
<path d="M36.2499 9.78176H34.7925V9.36176H36.2499V9.78176Z" fill="#231F20"/>
<path d="M38.4339 9.42059C38.5175 9.48621 38.5874 9.56753 38.6397 9.65999C38.6911 9.78362 38.7154 9.91679 38.7111 10.0506C38.71 10.1946 38.6815 10.3372 38.6271 10.4706C38.5711 10.6013 38.4881 10.7187 38.3835 10.815C38.2622 10.9248 38.1191 11.0078 37.9635 11.0586C37.7949 11.1105 37.6192 11.136 37.4427 11.1342C37.2503 11.1349 37.0585 11.1123 36.8715 11.067C36.7147 11.0306 36.5614 10.98 36.4137 10.9158V10.458H36.4473C36.5927 10.5506 36.7494 10.624 36.9135 10.6764C37.0821 10.7298 37.2576 10.7581 37.4343 10.7604C37.5395 10.7585 37.644 10.743 37.7451 10.7142C37.8446 10.686 37.9365 10.6357 38.0139 10.5672C38.0831 10.5042 38.1376 10.4268 38.1735 10.3404C38.2119 10.2414 38.2305 10.1358 38.2281 10.0296C38.2319 9.92247 38.2103 9.81598 38.1651 9.71879C38.1296 9.64038 38.0729 9.57347 38.0013 9.52559C37.9251 9.47602 37.8392 9.44311 37.7493 9.42899C37.6428 9.40822 37.5345 9.39837 37.4259 9.39959H37.2159V9.01319H37.3797C37.5792 9.02216 37.7768 8.97094 37.9467 8.86619C38.0817 8.76934 38.1602 8.61224 38.1567 8.44619C38.1588 8.36977 38.1399 8.29426 38.1021 8.22779C38.0674 8.16417 38.0167 8.11063 37.9551 8.07239C37.888 8.03151 37.814 8.00305 37.7367 7.98839C37.6525 7.97064 37.5666 7.96219 37.4805 7.96319C37.3193 7.96687 37.1595 7.99375 37.0059 8.04299C36.84 8.09796 36.6819 8.17419 36.5355 8.26979V7.76159C36.6703 7.69876 36.811 7.64952 36.9555 7.61459C37.1277 7.57539 37.304 7.55706 37.4805 7.55999C37.6302 7.55857 37.7796 7.57407 37.9257 7.60619C38.0506 7.63749 38.1697 7.68853 38.2785 7.75739C38.5061 7.89072 38.6441 8.1363 38.6397 8.39999C38.6423 8.58893 38.568 8.77082 38.4339 8.90399C38.3056 9.04342 38.1366 9.13893 37.9509 9.17699V9.21059C38.0401 9.22686 38.1273 9.25219 38.2113 9.28619C38.2911 9.3211 38.3659 9.36628 38.4339 9.42059Z" fill="#231F20"/>
<path fill-rule="evenodd" clip-rule="evenodd" d="M21.4704 21.8276V41.6598H20.4704V21.8276H-0.336426V20.8276H20.4704V0.10498H21.4704V20.8276H42.2814V21.8276H21.4704Z" fill="#231F20"/>
<path fill-rule="evenodd" clip-rule="evenodd" d="M11.2305 13.5908C11.7828 13.5908 12.2305 14.0385 12.2305 14.5908V23.331C12.2305 27.9971 15.5352 31.571 19.2903 31.571C23.0485 31.571 26.3501 27.9858 26.3501 23.331V14.5908C26.3501 14.0385 26.7978 13.5908 27.3501 13.5908C27.9024 13.5908 28.3501 14.0385 28.3501 14.5908V23.331C28.3501 28.8233 24.4025 33.571 19.2903 33.571C14.1835 33.571 10.2305 28.8372 10.2305 23.331V14.5908C10.2305 14.0385 10.6782 13.5908 11.2305 13.5908Z" fill="#231F20"/>
<path d="M12.2344 20.3238C10.7728 19.1982 9.10121 20.8698 10.2268 22.3314C11.6884 23.457 13.36 21.7854 12.2344 20.3238ZM28.354 20.3238C26.8924 19.1982 25.2208 20.8698 26.3464 22.3314C27.808 23.457 29.4796 21.7854 28.354 20.3238Z" fill="#231F20"/>
</g>
<defs>
<clipPath id="clip0">
<rect width="42" height="42" fill="white"/>
</clipPath>
</defs>
</svg>
