<svg width="42" height="42" viewBox="0 0 42 42" fill="none" xmlns="http://www.w3.org/2000/svg">
<g clip-path="url(#clip0)">
<path d="M41.6012 41.7312H0.290039V0.491394" stroke="#231F20" stroke-width="1.5" stroke-linecap="round" stroke-linejoin="round"/>
<path d="M1.83545 34.1628L39.312 15.9012" stroke="#231F20" stroke-width="2" stroke-linecap="round" stroke-linejoin="round"/>
<path d="M5.46017 29.2152C5.80115 29.2152 6.07757 28.9388 6.07757 28.5978C6.07757 28.2568 5.80115 27.9804 5.46017 27.9804C5.11919 27.9804 4.84277 28.2568 4.84277 28.5978C4.84277 28.9388 5.11919 29.2152 5.46017 29.2152Z" fill="#231F20"/>
<path d="M13.1799 32.319C13.5209 32.319 13.7973 32.0425 13.7973 31.7016C13.7973 31.3606 13.5209 31.0842 13.1799 31.0842C12.8389 31.0842 12.5625 31.3606 12.5625 31.7016C12.5625 32.0425 12.8389 32.319 13.1799 32.319Z" fill="#231F20"/>
<path d="M23.092 32.5374C23.433 32.5374 23.7094 32.261 23.7094 31.92C23.7094 31.579 23.433 31.3026 23.092 31.3026C22.751 31.3026 22.4746 31.579 22.4746 31.92C22.4746 32.261 22.751 32.5374 23.092 32.5374Z" fill="#231F20"/>
<path d="M18.5603 29.6898C18.9012 29.6898 19.1777 29.4133 19.1777 29.0724C19.1777 28.7314 18.9012 28.455 18.5603 28.455C18.2193 28.455 17.9429 28.7314 17.9429 29.0724C17.9429 29.4133 18.2193 29.6898 18.5603 29.6898Z" fill="#231F20"/>
<path d="M20.6389 18.648C20.9799 18.648 21.2563 18.3716 21.2563 18.0306C21.2563 17.6896 20.9799 17.4132 20.6389 17.4132C20.2979 17.4132 20.0215 17.6896 20.0215 18.0306C20.0215 18.3716 20.2979 18.648 20.6389 18.648Z" fill="#231F20"/>
<path d="M31.6682 16.1028C32.0092 16.1028 32.2856 15.8264 32.2856 15.4854C32.2856 15.1444 32.0092 14.868 31.6682 14.868C31.3272 14.868 31.0508 15.1444 31.0508 15.4854C31.0508 15.8264 31.3272 16.1028 31.6682 16.1028Z" fill="#231F20"/>
<path d="M16.2878 10.0128C16.6288 10.0128 16.9052 9.7364 16.9052 9.39542C16.9052 9.05444 16.6288 8.77802 16.2878 8.77802C15.9468 8.77802 15.6704 9.05444 15.6704 9.39542C15.6704 9.7364 15.9468 10.0128 16.2878 10.0128Z" fill="#231F20"/>
<path d="M25.654 19.047C25.995 19.047 26.2714 18.7706 26.2714 18.4296C26.2714 18.0886 25.995 17.8122 25.654 17.8122C25.313 17.8122 25.0366 18.0886 25.0366 18.4296C25.0366 18.7706 25.313 19.047 25.654 19.047Z" fill="#231F20"/>
<path d="M31.7986 22.4364C32.1395 22.4364 32.4159 22.16 32.4159 21.819C32.4159 21.478 32.1395 21.2016 31.7986 21.2016C31.4576 21.2016 31.1812 21.478 31.1812 21.819C31.1812 22.16 31.4576 22.4364 31.7986 22.4364Z" fill="#231F20"/>
<path d="M34.0622 11.277C34.4032 11.277 34.6796 11.0006 34.6796 10.6596C34.6796 10.3186 34.4032 10.0422 34.0622 10.0422C33.7212 10.0422 33.4448 10.3186 33.4448 10.6596C33.4448 11.0006 33.7212 11.277 34.0622 11.277Z" fill="#231F20"/>
<path d="M20.24 24.2844C20.5809 24.2844 20.8574 24.0079 20.8574 23.667C20.8574 23.326 20.5809 23.0496 20.24 23.0496C19.899 23.0496 19.6226 23.326 19.6226 23.667C19.6226 24.0079 19.899 24.2844 20.24 24.2844Z" fill="#231F20"/>
<path d="M34.8811 36.1788C35.2221 36.1788 35.4985 35.9024 35.4985 35.5614C35.4985 35.2205 35.2221 34.944 34.8811 34.944C34.5401 34.944 34.2637 35.2205 34.2637 35.5614C34.2637 35.9024 34.5401 36.1788 34.8811 36.1788Z" fill="#231F20"/>
<path d="M26.2712 23.0538C26.6122 23.0538 26.8886 22.7773 26.8886 22.4364C26.8886 22.0954 26.6122 21.819 26.2712 21.819C25.9302 21.819 25.6538 22.0954 25.6538 22.4364C25.6538 22.7773 25.9302 23.0538 26.2712 23.0538Z" fill="#231F20"/>
<path d="M26.2712 27.6108C26.6122 27.6108 26.8886 27.3344 26.8886 26.9934C26.8886 26.6524 26.6122 26.376 26.2712 26.376C25.9302 26.376 25.6538 26.6524 25.6538 26.9934C25.6538 27.3344 25.9302 27.6108 26.2712 27.6108Z" fill="#231F20"/>
<path d="M15.4983 21.9786C15.8392 21.9786 16.1157 21.7022 16.1157 21.3612C16.1157 21.0202 15.8392 20.7438 15.4983 20.7438C15.1573 20.7438 14.8809 21.0202 14.8809 21.3612C14.8809 21.7022 15.1573 21.9786 15.4983 21.9786Z" fill="#231F20"/>
<path d="M10.8869 35.1162C11.2279 35.1162 11.5043 34.8398 11.5043 34.4988C11.5043 34.1578 11.2279 33.8814 10.8869 33.8814C10.546 33.8814 10.2695 34.1578 10.2695 34.4988C10.2695 34.8398 10.546 35.1162 10.8869 35.1162Z" fill="#231F20"/>
<path d="M38.7492 20.2608C39.0902 20.2608 39.3666 19.9844 39.3666 19.6434C39.3666 19.3024 39.0902 19.026 38.7492 19.026C38.4083 19.026 38.1318 19.3024 38.1318 19.6434C38.1318 19.9844 38.4083 20.2608 38.7492 20.2608Z" fill="#231F20"/>
<path d="M6.83371 36.1788C7.17469 36.1788 7.45111 35.9024 7.45111 35.5614C7.45111 35.2205 7.17469 34.944 6.83371 34.944C6.49273 34.944 6.21631 35.2205 6.21631 35.5614C6.21631 35.9024 6.49273 36.1788 6.83371 36.1788Z" fill="#231F20"/>
<path d="M34.6794 25.9812C35.0204 25.9812 35.2968 25.7048 35.2968 25.3638C35.2968 25.0228 35.0204 24.7464 34.6794 24.7464C34.3384 24.7464 34.062 25.0228 34.062 25.3638C34.062 25.7048 34.3384 25.9812 34.6794 25.9812Z" fill="#231F20"/>
<path d="M10.8869 24.8472C11.2279 24.8472 11.5043 24.5708 11.5043 24.2298C11.5043 23.8888 11.2279 23.6124 10.8869 23.6124C10.546 23.6124 10.2695 23.8888 10.2695 24.2298C10.2695 24.5708 10.546 24.8472 10.8869 24.8472Z" fill="#231F20"/>
<path d="M29.9338 28.5516C30.2748 28.5516 30.5512 28.2752 30.5512 27.9342C30.5512 27.5932 30.2748 27.3168 29.9338 27.3168C29.5928 27.3168 29.3164 27.5932 29.3164 27.9342C29.3164 28.2752 29.5928 28.5516 29.9338 28.5516Z" fill="#231F20"/>
</g>
<defs>
<clipPath id="clip0">
<rect width="42" height="42" fill="white"/>
</clipPath>
</defs>
</svg>
