<svg width="42" height="42" viewBox="0 0 42 42" fill="none" xmlns="http://www.w3.org/2000/svg">
<path d="M12.743 39.291C12.7384 39.6735 12.4282 39.9817 12.0458 39.984H4.38916C4.00668 39.9817 3.69654 39.6735 3.69196 39.291V30.9372C3.6965 30.554 4.006 30.2445 4.38916 30.24H12.0458C12.4289 30.2445 12.7384 30.554 12.743 30.9372V39.291ZM12.0458 31.2858C12.0435 31.0942 11.8887 30.9395 11.6972 30.9372H4.73776C4.54618 30.9395 4.39143 31.0942 4.38916 31.2858V32.676C4.38916 32.8685 4.54524 33.0246 4.73776 33.0246H11.6972C11.8897 33.0246 12.0458 32.8685 12.0458 32.676V31.2858ZM5.08636 33.7218C4.70408 33.722 4.39324 34.0299 4.38951 34.4122C4.38579 34.7945 4.69058 35.1084 5.07278 35.1161C5.45499 35.1237 5.77205 34.8221 5.78356 34.44C5.78924 34.2515 5.7183 34.0687 5.58693 33.9334C5.45556 33.798 5.27497 33.7217 5.08636 33.7218ZM5.08636 35.8218C4.80437 35.8218 4.55015 35.9917 4.44223 36.2522C4.33432 36.5127 4.39397 36.8126 4.59337 37.012C4.79277 37.2114 5.09264 37.271 5.35317 37.1631C5.6137 37.0552 5.78356 36.801 5.78356 36.519C5.78694 36.3319 5.71499 36.1513 5.58387 36.0178C5.45275 35.8844 5.27348 35.8092 5.08636 35.8092V35.8218ZM5.08636 37.9218C4.70131 37.9218 4.38916 38.2339 4.38916 38.619C4.38916 39.0041 4.70131 39.3162 5.08636 39.3162C5.47142 39.3162 5.78356 39.0041 5.78356 38.619C5.79041 38.4298 5.71999 38.2459 5.58849 38.1096C5.45699 37.9734 5.27572 37.8965 5.08636 37.8966V37.9218ZM7.18636 33.747C6.9029 33.7419 6.64456 33.9089 6.53292 34.1695C6.42127 34.4301 6.47854 34.7324 6.67778 34.9341C6.87703 35.1358 7.17856 35.1967 7.44051 35.0882C7.70245 34.9798 7.87262 34.7235 7.87096 34.44C7.87664 34.2515 7.80571 34.0687 7.67433 33.9334C7.54296 33.798 7.36237 33.7217 7.17376 33.7218L7.18636 33.747ZM7.18636 35.847C6.90437 35.847 6.65015 36.0169 6.54223 36.2774C6.43432 36.5379 6.49397 36.8378 6.69337 37.0372C6.89277 37.2366 7.19264 37.2962 7.45317 37.1883C7.7137 37.0804 7.88356 36.8262 7.88356 36.5442C7.89411 36.3506 7.82358 36.1614 7.68891 36.0219C7.55424 35.8825 7.36759 35.8054 7.17376 35.8092L7.18636 35.847ZM7.18636 37.947C6.80131 37.947 6.48916 38.2592 6.48916 38.6442C6.48916 39.0293 6.80131 39.3414 7.18636 39.3414C7.57142 39.3414 7.88356 39.0293 7.88356 38.6442C7.89779 38.4485 7.8289 38.2559 7.69381 38.1136C7.55872 37.9713 7.36992 37.8925 7.17376 37.8966L7.18636 37.947ZM9.28636 33.7722C8.99967 33.7621 8.73604 33.9286 8.62201 34.1918C8.50798 34.4551 8.56683 34.7613 8.77032 34.9635C8.9738 35.1657 9.28038 35.2226 9.5429 35.107C9.80542 34.9913 9.97028 34.7266 9.95836 34.44C9.96404 34.2515 9.8931 34.0687 9.76173 33.9334C9.63036 33.798 9.44977 33.7217 9.26116 33.7218L9.28636 33.7722ZM9.28636 35.8722C8.90131 35.8722 8.58916 36.1843 8.58916 36.5694C8.58916 36.9545 8.90131 37.2666 9.28636 37.2666C9.67142 37.2666 9.98356 36.9545 9.98356 36.5694C10.0019 36.3694 9.93303 36.1712 9.79467 36.0256C9.6563 35.88 9.46186 35.8011 9.26116 35.8092L9.28636 35.8722ZM9.28636 37.9722C8.90131 37.9722 8.58916 38.2843 8.58916 38.6694C8.58916 39.0545 8.90131 39.3666 9.28636 39.3666C9.67142 39.3666 9.98356 39.0545 9.98356 38.6694C10.0058 38.4673 9.9387 38.2656 9.79987 38.1171C9.66103 37.9686 9.46429 37.888 9.26116 37.8966L9.28636 37.9722ZM11.3864 33.7974C11.0966 33.7825 10.8279 33.9487 10.7117 34.2146C10.5956 34.4805 10.6562 34.7905 10.864 34.993C11.0718 35.1955 11.3833 35.2481 11.6461 35.1252C11.9089 35.0022 12.0681 34.7293 12.0458 34.44C12.0527 34.2497 11.981 34.0649 11.8476 33.929C11.7141 33.7931 11.5306 33.7182 11.3402 33.7218L11.3864 33.7974ZM12.0836 36.582C12.1039 36.3208 11.976 36.0702 11.7526 35.9334C11.5291 35.7965 11.2478 35.7965 11.0244 35.9334C10.8009 36.0702 10.673 36.3208 10.6934 36.582V38.682C10.673 38.9432 10.8009 39.1938 11.0244 39.3306C11.2478 39.4675 11.5291 39.4675 11.7526 39.3306C11.976 39.1938 12.1039 38.9432 12.0836 38.682V36.582ZM31.4498 30.408C31.396 30.4725 31.3153 30.5083 31.2314 30.5046C31.1569 30.5067 31.0845 30.4795 31.0298 30.429C30.9791 30.3794 30.9517 30.3108 30.9542 30.24C30.9622 30.1542 30.9849 30.0703 31.0214 29.9922C31.0211 29.9582 31.0037 29.9266 30.9752 29.9082C30.9464 29.8858 30.9108 29.874 30.8744 29.8746C30.698 29.8746 30.5468 30.0678 30.425 30.4542C30.3273 30.8232 30.2515 31.1976 30.1982 31.5756H30.9962L30.9458 31.815H30.131L29.4464 34.1544C29.3392 34.684 29.1417 35.1912 28.8626 35.6538C28.6783 35.9992 28.3215 36.2178 27.9302 36.225C27.7782 36.23 27.6294 36.1808 27.5102 36.0864C27.4112 36.0125 27.3497 35.8989 27.3422 35.7756C27.3419 35.7029 27.3655 35.632 27.4094 35.574C27.46 35.5107 27.5385 35.4762 27.6194 35.4816C27.6961 35.4786 27.7706 35.5075 27.8252 35.5614C27.8814 35.613 27.9121 35.6867 27.9092 35.763C27.9079 35.8089 27.8949 35.8537 27.8714 35.8932C27.8524 35.9194 27.8395 35.9496 27.8336 35.9814C27.8365 36.0059 27.8526 36.0269 27.8756 36.036C27.9081 36.0521 27.9443 36.0594 27.9806 36.057C28.1878 36.057 28.36 35.8974 28.4972 35.5782C28.5884 35.356 28.6573 35.1252 28.703 34.8894L29.543 31.815H28.8836L28.934 31.5756H29.627C29.7043 31.1453 29.8459 30.729 30.047 30.3408C30.2056 29.9834 30.5511 29.745 30.9416 29.7234C31.0942 29.7141 31.2445 29.7637 31.3616 29.862C31.4611 29.9386 31.5212 30.0557 31.5254 30.1812C31.5288 30.2635 31.5019 30.3442 31.4498 30.408ZM33.134 29.9124C32.9341 30.1172 32.7528 30.3392 32.5922 30.576C32.3365 30.9649 32.1398 31.3895 32.0084 31.836C31.8802 32.2321 31.7846 32.6381 31.7228 33.0498C31.6738 33.371 31.6472 33.6951 31.643 34.02C31.6381 34.3501 31.6591 34.6802 31.706 35.007C31.7751 35.3494 31.8691 35.6863 31.9874 36.015L31.8656 36.057C31.62 35.6465 31.4321 35.2041 31.307 34.7424C31.192 34.3108 31.1341 33.866 31.1348 33.4194C31.1246 32.8898 31.2233 32.3638 31.4246 31.8738C31.8076 31.0797 32.3595 30.3787 33.0416 29.82L33.134 29.9124ZM32.42 34.2636C32.4713 34.2262 32.5329 34.2057 32.5964 34.2048H32.6804C32.713 34.2143 32.7441 34.2284 32.7728 34.2468L32.8988 34.314H32.9996C33.0499 34.3161 33.0992 34.2996 33.1382 34.2678C33.1676 34.2384 33.2516 34.1334 33.386 33.957C33.5204 33.7806 33.6758 33.537 33.9866 33.117C33.9866 33.117 33.9614 32.97 33.9068 32.7306C33.8522 32.4912 33.8018 32.3106 33.7556 32.1216C33.7284 32.0052 33.6875 31.8924 33.6338 31.7856C33.5845 31.7265 33.5086 31.6965 33.4322 31.7058C33.3653 31.712 33.2992 31.7246 33.2348 31.7436L33.0332 31.794L33.0038 31.6806L33.3986 31.5462C33.4929 31.5257 33.5882 31.5102 33.6842 31.5C33.757 31.4817 33.8317 31.4719 33.9068 31.4706C33.9918 31.4641 34.0752 31.4965 34.1336 31.5588C34.2385 31.7315 34.3045 31.925 34.3268 32.1258L34.4024 32.5458C34.5534 32.3026 34.7204 32.0697 34.9022 31.8486C34.9909 31.7447 35.0941 31.6541 35.2088 31.5798C35.2886 31.5226 35.3836 31.4905 35.4818 31.4874C35.5545 31.4734 35.6295 31.4777 35.7002 31.5C35.7915 31.5451 35.8451 31.6423 35.8346 31.7436C35.8388 31.8131 35.8145 31.8814 35.7674 31.9326C35.7203 31.9782 35.6565 32.0025 35.591 31.9998H35.5154L35.4398 31.9746L35.3474 31.9326L35.2718 31.9032H35.2172C35.1122 31.9032 34.961 32.0418 34.772 32.3232C34.6505 32.4543 34.5474 32.6012 34.4654 32.76C34.4791 32.8774 34.5001 32.9938 34.5284 33.1086C34.5746 33.306 34.6208 33.5286 34.6754 33.7344C34.7051 33.8773 34.7458 34.0177 34.7972 34.1544C34.8518 34.2846 34.9148 34.3476 34.982 34.3476C35.0597 34.3424 35.1316 34.3042 35.1794 34.2426C35.287 34.1193 35.388 33.9904 35.4818 33.8562L35.5826 33.915C35.4969 34.089 35.3957 34.2549 35.2802 34.4106C35.1457 34.6165 34.9277 34.7531 34.6838 34.7844C34.5653 34.7837 34.4569 34.7174 34.4024 34.6122C34.3477 34.5092 34.3081 34.3988 34.2848 34.2846L34.0622 33.3984L33.3272 34.3602C33.2284 34.4846 33.1172 34.5986 32.9954 34.7004C32.9115 34.758 32.8115 34.7875 32.7098 34.7844C32.5863 34.7996 32.4647 34.7445 32.3948 34.6416C32.3633 34.5867 32.3473 34.5243 32.3486 34.461C32.3371 34.3873 32.364 34.3129 32.42 34.2636ZM35.4314 35.9142C35.6382 35.6969 35.8278 35.4638 35.9984 35.217C36.2347 34.8456 36.4171 34.4426 36.5402 34.02C36.6647 33.6374 36.7588 33.2456 36.8216 32.8482C36.8787 32.4884 36.9082 32.1247 36.9098 31.7604C36.9153 31.3853 36.8801 31.0107 36.8048 30.6432C36.7497 30.3703 36.6652 30.1041 36.5528 29.8494L36.6872 29.8074C36.9241 30.2004 37.105 30.6245 37.2248 31.0674C37.3533 31.521 37.4183 31.9903 37.418 32.4618C37.4266 32.9457 37.3454 33.4271 37.1786 33.8814C36.8085 34.7375 36.2311 35.4881 35.4986 36.0654L35.4314 35.9142ZM29.0726 37.7706V38.3082L26.5946 39.06L29.0726 39.8286V40.3662L25.9562 39.3162V38.8122L29.0726 37.7706ZM29.0726 40.9374H25.9562V40.4586H29.0726V40.9374ZM31.3952 37.7706L34.5116 38.8206V39.3246L31.3952 40.3746V39.837L33.8774 39.06L31.3952 38.2998V37.7706ZM34.5116 40.4586V40.9374H31.3952V40.4586H34.5116Z" fill="#231F20"/>
<path d="M39.938 38.4636V38.9634H38.825L38.4764 39.7404H39.938V40.2486H38.258L37.9388 40.9668H37.4096L37.7288 40.2486H36.8384V39.7404H37.9556L38.3042 38.9634H36.8384V38.4636H38.5184L38.8376 37.7412H39.3584L39.0602 38.4636H39.938Z" fill="#231F20"/>
<path fill-rule="evenodd" clip-rule="evenodd" d="M21.1977 21.5V42H20.1977V21.5H0.0756836V20.5H20.1977V0H21.1977V20.5H41.9287V21.5H21.1977Z" fill="#231F20"/>
<path d="M8.56397 22.4112C9.34568 22.4112 9.97937 21.7794 9.97937 21C9.97937 20.2206 9.34568 19.5888 8.56397 19.5888C7.78227 19.5888 7.14857 20.2206 7.14857 21C7.14857 21.7794 7.78227 22.4112 8.56397 22.4112Z" fill="#231F20"/>
<path d="M30.24 22.4112C31.0217 22.4112 31.6554 21.7794 31.6554 21C31.6554 20.2206 31.0217 19.5888 30.24 19.5888C29.4583 19.5888 28.8246 20.2206 28.8246 21C28.8246 21.7794 29.4583 22.4112 30.24 22.4112Z" fill="#231F20"/>
<path d="M30.3661 27.5772C30.1202 27.5772 29.9209 27.3779 29.9209 27.132C29.9209 15.5694 28.7953 10.857 26.5609 10.1556C24.3265 9.45421 20.9665 14.28 17.9467 18.5388C14.9269 22.7976 12.2809 26.5188 10.2733 25.8804C8.73609 25.3932 8.04729 22.575 8.04729 16.7328V8.49241C8.06964 8.26211 8.26321 8.08641 8.49459 8.08641C8.72598 8.08641 8.91955 8.26211 8.94189 8.49241V16.7328C8.94189 23.5158 9.94569 24.8472 10.5421 25.0362C11.9281 25.4562 14.7421 21.5166 17.2201 18.0264C20.5801 13.3056 24.0451 8.42101 26.8465 9.31141C28.5265 9.84901 30.8113 10.9284 30.8113 27.132C30.8113 27.3779 30.612 27.5772 30.3661 27.5772Z" fill="#231F20"/>
</svg>
