<svg width="42" height="42" viewBox="0 0 42 42" fill="none" xmlns="http://www.w3.org/2000/svg">
<g clip-path="url(#clip0)">
<path fill-rule="evenodd" clip-rule="evenodd" d="M34.052 24.9945H18.6981C18.8459 25.3414 18.9362 25.7123 18.9631 26.1067C18.9858 26.441 18.9551 26.7724 18.8858 27.0945H24.0808C24.1602 26.95 24.2475 26.8102 24.3492 26.6795C25.0846 25.7333 26.038 25.2532 27.1821 25.2532C27.3538 25.2532 27.5319 25.265 27.7108 25.2868C28.2783 25.3565 28.8154 25.5787 29.2653 25.929C29.6991 26.2667 30.0309 26.6598 30.2678 27.0945H34.2166C34.0768 26.7568 33.9932 26.396 33.9672 26.0138C33.9436 25.6686 33.9772 25.3263 34.052 24.9945ZM18.3344 26.1499C18.2916 25.5224 18.0644 24.9722 17.6532 24.4993C17.1005 23.8647 16.2781 23.4968 15.4385 23.4968C15.3739 23.4968 15.3092 23.4989 15.2445 23.5031C14.6157 23.5463 14.0651 23.774 13.5922 24.186C12.9093 24.7816 12.5359 25.6892 12.5981 26.5934C12.6405 27.2226 12.869 27.7741 13.2827 28.2474C13.8354 28.8803 14.6561 29.2466 15.4936 29.2466C15.5587 29.2466 15.6233 29.2441 15.688 29.2399C16.3159 29.197 16.8665 28.9698 17.3394 28.5574C18.0228 27.9618 18.3962 27.0542 18.3344 26.1499ZM18.5575 29.9931C18.3765 29.9024 18.1787 29.857 17.9637 29.857C17.8931 29.857 17.8204 29.862 17.7457 29.8717C17.6071 29.8902 17.4811 29.9271 17.3618 29.975H13.5255C13.3781 29.9162 13.2202 29.8751 13.0429 29.8662C13.0152 29.865 12.9871 29.8641 12.9598 29.8641C12.691 29.8641 12.4503 29.928 12.237 30.0544C11.919 30.2442 11.7615 30.5563 11.7414 30.8692L11.6011 37.1894L12.1794 37.228V37.8702L18.7528 37.9294V37.2074L19.6504 37.1062C19.6504 37.1075 19.6508 37.1083 19.6508 37.1083C19.6558 37.1083 19.0922 30.7722 19.0909 30.7663C19.0552 30.4551 18.883 30.1556 18.5575 29.9931ZM40.318 25.5281C40.2751 24.9027 40.0488 24.3538 39.6388 23.8821C39.087 23.2483 38.2663 22.8817 37.4296 22.8817C37.365 22.8817 37.3003 22.8838 37.2356 22.8884C36.609 22.9308 36.0592 23.158 35.5875 23.5696C34.9063 24.1639 34.5342 25.069 34.5959 25.9708C34.6387 26.5983 34.8664 27.1485 35.2788 27.6205C35.8299 28.2518 36.6493 28.6172 37.4842 28.6172C37.5489 28.6172 37.6136 28.6151 37.6783 28.6109C38.3045 28.5676 38.8539 28.3408 39.3255 27.9301C40.0072 27.3362 40.3793 26.4303 40.318 25.5281ZM41.6309 36.4596C41.6363 36.4596 41.0744 30.1395 41.0727 30.1332C41.037 29.8228 40.8652 29.5242 40.5405 29.362C40.3599 29.2717 40.1625 29.226 39.9479 29.226C39.8774 29.226 39.8051 29.231 39.7312 29.2411C39.5922 29.2591 39.4666 29.2957 39.3477 29.3444H35.5211C35.3741 29.2856 35.2166 29.244 35.0398 29.2356C35.0117 29.2344 34.9839 29.2339 34.9566 29.2339C34.6887 29.2339 34.448 29.2969 34.2359 29.4234C33.9188 29.6124 33.7617 29.9236 33.7416 30.2361L33.6017 36.5398L34.1784 36.5785V37.2194L40.7354 37.2782V36.5579L41.6304 36.4571C41.6304 36.4588 41.6309 36.4596 41.6309 36.4596Z" fill="#231F20"/>
<path fill-rule="evenodd" clip-rule="evenodd" d="M29.5166 30.4537C29.7951 30.0954 29.974 29.6611 30.0294 29.2109C30.171 28.0622 29.7867 27.134 28.8778 26.4258C28.5195 26.1465 28.0848 25.9676 27.6346 25.9122C27.4792 25.8933 27.3288 25.8832 27.1818 25.8832C26.2377 25.8832 25.4594 26.278 24.8466 27.0663C24.5686 27.4242 24.3901 27.8581 24.3347 28.3083C24.1931 29.4583 24.5787 30.3886 25.4909 31.0958C25.8488 31.3735 26.2822 31.5515 26.7316 31.607C26.8857 31.6259 27.0361 31.6351 27.1818 31.6351C28.1252 31.6351 28.9034 31.2416 29.5166 30.4537Z" fill="#231F20"/>
<mask id="mask0" mask-type="alpha" maskUnits="userSpaceOnUse" x="19" y="29" width="14" height="12">
<path d="M19.7881 29.077H32.8098V40.3171H19.7881V29.077Z" fill="white"/>
</mask>
<g mask="url(#mask0)">
<path fill-rule="evenodd" clip-rule="evenodd" d="M24.7779 32.3208L21.9837 29.5265C21.7195 29.2623 21.3671 29.0771 20.9967 29.0771C20.9685 29.0771 20.9404 29.0784 20.9123 29.0805C20.6162 29.1036 20.3608 29.222 20.147 29.4358C19.9324 29.6504 19.8144 29.9054 19.7913 30.2019C19.7606 30.6021 19.9534 30.9885 20.2369 31.2725L23.8535 34.8887C23.8804 34.916 23.8955 34.9525 23.8955 34.9903V40.2575L30.4689 40.3172V39.6347C30.5807 39.885 30.7856 40.0967 31.0914 40.1815C31.2023 40.2122 31.3157 40.2277 31.432 40.2277C31.5874 40.2277 31.747 40.2004 31.9108 40.145C32.1981 40.0488 32.4257 39.8925 32.5937 39.6775C32.8218 39.3856 32.855 39.0374 32.7605 38.7384L31.847 36.228C31.3871 34.6329 30.9041 32.9604 30.9024 32.9579C30.8075 32.6593 30.5815 32.3985 30.2308 32.3006C30.1199 32.27 30.0061 32.2544 29.8902 32.2544C29.7352 32.2544 29.5756 32.2817 29.411 32.3372C29.3912 32.3439 29.3769 32.3561 29.3576 32.3632H24.8796C24.8414 32.3632 24.8048 32.3477 24.7779 32.3208Z" fill="#231F20"/>
</g>
<path fill-rule="evenodd" clip-rule="evenodd" d="M5.17729 12.6724C5.60359 13.0029 6.11935 13.215 6.65485 13.2805C8.02279 13.4485 9.12781 12.9907 9.97075 11.9076C10.3025 11.4813 10.5155 10.9638 10.5814 10.4275C10.7503 9.05953 10.2925 7.95409 9.21055 7.11115C8.78383 6.77851 8.26596 6.56557 7.72963 6.49921C6.35959 6.33079 5.25331 6.78901 4.41037 7.87345C4.07899 8.29975 3.86647 8.81677 3.80053 9.35269C3.63211 10.7223 4.09075 11.8294 5.17729 12.6724ZM39.3909 2.10001H15.1837C13.7977 2.10001 12.6637 3.23401 12.6637 4.62001V13.7138L14.7637 13.5828V4.62001C14.7637 4.39237 14.9561 4.20001 15.1837 4.20001H39.3909C39.6185 4.20001 39.8109 4.39237 39.8109 4.62001V23.1655C39.9175 23.2609 40.0196 23.3608 40.1137 23.4688C40.6143 24.0442 40.8945 24.7225 40.9465 25.4856C40.9734 25.8762 40.9306 26.2647 40.8319 26.6368C41.482 26.1799 41.9109 25.4251 41.9109 24.5746V4.62001C41.9109 3.23401 40.7769 2.10001 39.3909 2.10001ZM12.6639 24.2734C12.8142 24.0702 12.9847 23.8799 13.1779 23.7115C13.6416 23.307 14.1759 23.0529 14.7639 22.9387V16.9633L12.6639 17.1418V24.2734Z" fill="#231F20"/>
<mask id="mask1" mask-type="alpha" maskUnits="userSpaceOnUse" x="0" y="14" width="19" height="10">
<path d="M0.419922 14.0293H18.7021V23.4457H0.419922V14.0293Z" fill="white"/>
</mask>
<g mask="url(#mask1)">
<path fill-rule="evenodd" clip-rule="evenodd" d="M12.5329 14.3533C11.2872 14.3751 10.3157 14.3919 10.2674 14.3932C10.1746 14.397 10.0729 14.4226 9.9587 14.4705L9.83732 14.4948L4.253 14.481C4.09928 14.4335 3.9527 14.41 3.81116 14.41C3.70406 14.41 3.59906 14.4234 3.4949 14.4503C3.47894 14.4604 3.45878 14.4696 3.43652 14.4772L3.4235 14.4818L3.4067 14.4894C3.15386 14.5856 2.9657 14.775 2.8775 15.0224L1.5335 19.3563C0.973222 20.8091 0.491902 22.0553 0.473422 22.1036C0.415042 22.2678 0.350782 22.595 0.592282 22.9116C0.748522 23.1183 0.962722 23.2649 1.2458 23.3606C1.41296 23.4173 1.57214 23.4455 1.7267 23.4455C1.83674 23.4455 1.94384 23.4312 2.0501 23.403C2.34074 23.3262 2.56586 23.1179 2.66876 22.831L3.59066 19.8536V23.2707L10.7911 23.3354V16.6683L14.8147 16.3265C15.2095 16.3281 15.5913 16.3286 15.9424 16.3286C16.3045 16.3286 16.6338 16.3281 16.9114 16.3281C17.4456 16.3281 17.7879 16.3298 17.8014 16.3399C17.974 16.3365 18.3028 16.2803 18.5137 15.9422C18.6502 15.7229 18.7119 15.4705 18.7002 15.171C18.6888 14.8707 18.6086 14.6204 18.4545 14.4054V14.405C18.2886 14.1735 18.0265 14.0291 17.748 14.0291C17.7316 14.0291 17.7153 14.0295 17.6989 14.0303L12.5329 14.3533Z" fill="#231F20"/>
</g>
<path d="M23.9772 16.1914H20.6532L19.7652 18.3874H18.5892L22.0452 9.86736H22.6692L26.1372 18.3874H24.8892L23.9772 16.1914ZM21.0132 15.1834H23.6292L22.6572 12.7954L22.3332 11.5114H22.3092L21.9852 12.8194L21.0132 15.1834ZM27.2115 12.4834C27.9315 12.1394 28.8235 11.9674 29.8875 11.9674C30.3675 11.9674 30.7515 12.0314 31.0395 12.1594C31.3355 12.2794 31.5635 12.4354 31.7235 12.6274C31.8835 12.8194 31.9875 13.0354 32.0355 13.2754C32.0915 13.5074 32.1195 13.7394 32.1195 13.9714C32.1195 14.4114 32.1035 14.8554 32.0715 15.3034C32.0395 15.7434 32.0235 16.2234 32.0235 16.7434C32.0235 17.0474 32.0355 17.3434 32.0595 17.6314C32.0915 17.9114 32.1395 18.1714 32.2035 18.4114H31.3995L31.0995 17.4514H30.9795C30.8915 17.5714 30.7835 17.6954 30.6555 17.8234C30.5275 17.9434 30.3755 18.0514 30.1995 18.1474C30.0235 18.2434 29.8195 18.3234 29.5875 18.3874C29.3635 18.4514 29.1035 18.4834 28.8075 18.4834C28.5115 18.4834 28.2395 18.4434 27.9915 18.3634C27.7435 18.2754 27.5275 18.1554 27.3435 18.0034C27.1675 17.8514 27.0275 17.6674 26.9235 17.4514C26.8195 17.2274 26.7675 16.9794 26.7675 16.7074C26.7675 16.3474 26.8435 16.0354 26.9955 15.7714C27.1555 15.5074 27.3595 15.2914 27.6075 15.1234C27.8555 14.9554 28.1355 14.8314 28.4475 14.7514C28.7675 14.6714 29.0835 14.6314 29.3955 14.6314C29.6435 14.6314 29.8515 14.6354 30.0195 14.6434C30.1955 14.6514 30.3395 14.6634 30.4515 14.6794C30.5715 14.6874 30.6715 14.6994 30.7515 14.7154C30.8315 14.7234 30.9035 14.7314 30.9675 14.7394C30.9835 14.6194 30.9955 14.5154 31.0035 14.4274C31.0115 14.3394 31.0155 14.2274 31.0155 14.0914C31.0155 13.8674 30.9915 13.6794 30.9435 13.5274C30.8955 13.3754 30.8155 13.2554 30.7035 13.1674C30.5995 13.0714 30.4555 13.0034 30.2715 12.9634C30.0875 12.9234 29.8635 12.9034 29.5995 12.9034C29.4475 12.9034 29.2795 12.9154 29.0955 12.9394C28.9115 12.9634 28.7275 12.9994 28.5435 13.0474C28.3595 13.0874 28.1755 13.1394 27.9915 13.2034C27.8155 13.2674 27.6555 13.3354 27.5115 13.4074L27.2115 12.4834ZM30.9675 15.5314C30.9035 15.5234 30.8355 15.5114 30.7635 15.4954C30.6915 15.4794 30.5995 15.4674 30.4875 15.4594C30.3835 15.4514 30.2555 15.4434 30.1035 15.4354C29.9595 15.4274 29.7795 15.4234 29.5635 15.4234C29.0675 15.4234 28.6715 15.5114 28.3755 15.6874C28.0875 15.8634 27.9435 16.1634 27.9435 16.5874C27.9435 16.9074 28.0555 17.1474 28.2795 17.3074C28.5115 17.4674 28.8075 17.5474 29.1675 17.5474C29.4315 17.5474 29.6635 17.5154 29.8635 17.4514C30.0715 17.3794 30.2475 17.2954 30.3915 17.1994C30.5435 17.0954 30.6635 16.9834 30.7515 16.8634C30.8475 16.7354 30.9195 16.6114 30.9675 16.4914V15.5314ZM25.2012 27.9314C25.2012 28.1394 25.1652 28.3474 25.0932 28.5554C25.0292 28.7554 24.9252 28.9474 24.7812 29.1314C24.6452 29.3074 24.4692 29.4634 24.2532 29.5994C24.0372 29.7354 23.7812 29.8354 23.4852 29.8994V29.9474C23.7412 29.9794 23.9892 30.0434 24.2292 30.1394C24.4692 30.2354 24.6812 30.3674 24.8652 30.5354C25.0492 30.7034 25.1972 30.9074 25.3092 31.1474C25.4212 31.3874 25.4772 31.6714 25.4772 31.9994C25.4772 32.4314 25.3772 32.8074 25.1772 33.1274C24.9772 33.4394 24.7132 33.6994 24.3852 33.9074C24.0572 34.1074 23.6852 34.2554 23.2692 34.3514C22.8612 34.4474 22.4492 34.4954 22.0332 34.4954C21.8892 34.4954 21.7132 34.4914 21.5052 34.4834C21.2972 34.4834 21.0772 34.4754 20.8452 34.4594C20.6212 34.4514 20.3932 34.4354 20.1612 34.4114C19.9372 34.3954 19.7372 34.3674 19.5612 34.3274V26.0594C19.8892 26.0034 20.2732 25.9594 20.7132 25.9274C21.1532 25.8954 21.6252 25.8794 22.1292 25.8794C22.4732 25.8794 22.8252 25.9114 23.1852 25.9754C23.5532 26.0314 23.8852 26.1354 24.1812 26.2874C24.4772 26.4394 24.7212 26.6474 24.9132 26.9114C25.1052 27.1754 25.2012 27.5154 25.2012 27.9314ZM20.7372 33.4034C20.7932 33.4194 20.8772 33.4314 20.9892 33.4394C21.1012 33.4474 21.2212 33.4554 21.3492 33.4634C21.4852 33.4714 21.6172 33.4794 21.7452 33.4874C21.8812 33.4874 22.0052 33.4874 22.1172 33.4874C22.3892 33.4874 22.6492 33.4594 22.8972 33.4034C23.1532 33.3474 23.3772 33.2594 23.5692 33.1394C23.7612 33.0194 23.9132 32.8674 24.0252 32.6834C24.1452 32.4994 24.2052 32.2794 24.2052 32.0234C24.2052 31.7034 24.1332 31.4514 23.9892 31.2674C23.8532 31.0754 23.6732 30.9314 23.4492 30.8354C23.2252 30.7314 22.9732 30.6674 22.6932 30.6434C22.4132 30.6114 22.1372 30.5954 21.8652 30.5954H20.7372V33.4034ZM21.3972 29.6594C21.5492 29.6594 21.7252 29.6554 21.9252 29.6474C22.1252 29.6314 22.2932 29.6154 22.4292 29.5994C22.6292 29.5434 22.8172 29.4754 22.9932 29.3954C23.1772 29.3074 23.3372 29.2074 23.4732 29.0954C23.6092 28.9754 23.7172 28.8394 23.7972 28.6874C23.8772 28.5274 23.9172 28.3474 23.9172 28.1474C23.9172 27.8754 23.8612 27.6594 23.7492 27.4994C23.6452 27.3314 23.5052 27.2034 23.3292 27.1154C23.1532 27.0274 22.9532 26.9674 22.7292 26.9354C22.5052 26.9034 22.2772 26.8874 22.0452 26.8874C21.7652 26.8874 21.5052 26.8954 21.2652 26.9114C21.0332 26.9194 20.8572 26.9314 20.7372 26.9474V29.6594H21.3972ZM27.2367 25.9874H28.3407V28.8674H28.4607C28.6447 28.5474 28.9087 28.3114 29.2527 28.1594C29.5967 27.9994 29.9607 27.9194 30.3447 27.9194C31.2167 27.9194 31.8767 28.1874 32.3247 28.7234C32.7807 29.2514 33.0087 30.0514 33.0087 31.1234C33.0087 32.2194 32.7127 33.0554 32.1207 33.6314C31.5287 34.2074 30.6967 34.4954 29.6247 34.4954C29.0967 34.4954 28.6167 34.4514 28.1847 34.3634C27.7607 34.2754 27.4447 34.1714 27.2367 34.0514V25.9874ZM30.1887 28.8554C29.9327 28.8554 29.7047 28.8954 29.5047 28.9754C29.3127 29.0554 29.1407 29.1674 28.9887 29.3114C28.8367 29.4474 28.7047 29.6074 28.5927 29.7914C28.4887 29.9674 28.4047 30.1514 28.3407 30.3434V33.3314C28.7327 33.4834 29.2087 33.5594 29.7687 33.5594C30.4007 33.5594 30.9007 33.3674 31.2687 32.9834C31.6447 32.5914 31.8327 31.9674 31.8327 31.1114C31.8327 30.7914 31.8007 30.4954 31.7367 30.2234C31.6727 29.9434 31.5727 29.7034 31.4367 29.5034C31.3007 29.3034 31.1287 29.1474 30.9207 29.0354C30.7207 28.9154 30.4767 28.8554 30.1887 28.8554ZM25.5012 50.0274C25.2372 50.2194 24.9012 50.3514 24.4932 50.4234C24.0852 50.5034 23.6532 50.5434 23.1972 50.5434C22.6612 50.5434 22.1492 50.4594 21.6612 50.2914C21.1812 50.1154 20.7572 49.8514 20.3892 49.4994C20.0212 49.1394 19.7292 48.6874 19.5132 48.1434C19.2972 47.5914 19.1892 46.9394 19.1892 46.1874C19.1892 45.4034 19.3092 44.7354 19.5492 44.1834C19.7892 43.6314 20.1012 43.1834 20.4852 42.8394C20.8692 42.4874 21.3012 42.2314 21.7812 42.0714C22.2612 41.9114 22.7372 41.8314 23.2092 41.8314C23.7372 41.8314 24.1692 41.8594 24.5052 41.9154C24.8412 41.9714 25.1252 42.0434 25.3572 42.1314L25.0932 43.1634C24.7012 42.9794 24.1052 42.8874 23.3052 42.8874C22.9452 42.8874 22.5932 42.9474 22.2492 43.0674C21.9132 43.1794 21.6092 43.3674 21.3372 43.6314C21.0732 43.8874 20.8612 44.2274 20.7012 44.6514C20.5412 45.0674 20.4612 45.5794 20.4612 46.1874C20.4612 46.7314 20.5372 47.2114 20.6892 47.6274C20.8412 48.0354 21.0492 48.3794 21.3132 48.6594C21.5852 48.9314 21.9012 49.1394 22.2612 49.2834C22.6292 49.4194 23.0292 49.4874 23.4612 49.4874C23.8532 49.4874 24.1932 49.4514 24.4812 49.3794C24.7692 49.3074 25.0132 49.2154 25.2132 49.1034L25.5012 50.0274ZM31.3676 49.9554C31.0876 50.1554 30.7596 50.3034 30.3836 50.3994C30.0076 50.5034 29.6116 50.5554 29.1956 50.5554C28.6676 50.5554 28.2156 50.4754 27.8396 50.3154C27.4716 50.1554 27.1716 49.9314 26.9396 49.6434C26.7076 49.3554 26.5396 49.0074 26.4356 48.5994C26.3316 48.1914 26.2796 47.7394 26.2796 47.2434C26.2796 46.1794 26.5356 45.3594 27.0476 44.7834C27.5676 44.1994 28.3116 43.9074 29.2796 43.9074C29.7036 43.9074 30.0716 43.9474 30.3836 44.0274C30.6956 44.0994 30.9756 44.1914 31.2236 44.3034L30.9356 45.2034C30.7196 45.0914 30.4836 45.0034 30.2276 44.9394C29.9796 44.8754 29.7076 44.8434 29.4116 44.8434C28.1076 44.8434 27.4556 45.6434 27.4556 47.2434C27.4556 47.5474 27.4916 47.8434 27.5636 48.1314C27.6356 48.4114 27.7516 48.6634 27.9116 48.8874C28.0716 49.1034 28.2796 49.2794 28.5356 49.4154C28.7996 49.5514 29.1196 49.6194 29.4956 49.6194C29.8316 49.6194 30.1236 49.5754 30.3716 49.4874C30.6276 49.3914 30.8396 49.2794 31.0076 49.1514L31.3676 49.9554Z" fill="#231F20"/>
</g>
<defs>
<clipPath id="clip0">
<rect width="42" height="42" fill="white"/>
</clipPath>
</defs>
</svg>
