<svg width="42" height="42" viewBox="0 0 42 42" fill="none" xmlns="http://www.w3.org/2000/svg">
<path d="M29.4213 41.0256H13.3983C13.1395 41.0372 12.8915 40.921 12.7347 40.7148C12.5908 40.497 12.5625 40.2224 12.6591 39.9798L19.7991 19.635C20.0104 19.1002 20.518 18.7409 21.0927 18.7194H37.0989C37.357 18.7069 37.6048 18.8214 37.7625 19.026C37.9051 19.2446 37.9317 19.5191 37.8339 19.761L30.6939 40.1058C30.4861 40.6349 29.9889 40.9943 29.4213 41.0256ZM21.0717 19.089C20.6548 19.1131 20.2888 19.3745 20.1309 19.761L13.0203 40.1058C12.9638 40.2322 12.9733 40.3783 13.0455 40.4964C13.1327 40.6049 13.268 40.6631 13.4067 40.6518H29.4213C29.8382 40.6278 30.2042 40.3664 30.3621 39.9798L37.4811 19.635C37.5473 19.5109 37.5382 19.3601 37.4575 19.2448C37.3768 19.1295 37.2382 19.0693 37.0989 19.089H21.0717Z" fill="#231F20"/>
<path d="M15.4604 38.5896H28.9676M21.1388 22.4406H34.646H21.1388ZM20.4332 24.4566H33.9362H20.4332ZM19.7192 26.4768H33.2264H19.7192ZM19.0136 28.497H32.5166H19.0136ZM18.2996 30.513H31.8068H18.2996ZM17.594 32.5332H31.097H17.594ZM16.88 34.5534H30.3872H16.88ZM16.1702 36.5694H29.6774H16.1702Z" stroke="#231F20" stroke-width="0.25" stroke-linecap="round"/>
<path d="M38.9512 27.7536L28.6528 34.4274V35.9058L30.0598 36.645L39.2578 30.681L38.9512 27.7536Z" fill="white"/>
<path d="M38.6027 31.1094L30.0599 36.645L27.2207 36.918L28.6529 34.44L37.1957 28.8918L38.6027 31.1094ZM31.0805 35.3052L30.2867 34.0452L29.3501 34.65L28.9805 35.301L29.8541 35.217L29.4341 35.9814L30.1649 35.91L31.0805 35.3052ZM36.8345 29.8872C36.7847 29.8945 36.7373 29.9132 36.6959 29.9418L31.1225 33.5496C31.0795 33.5756 31.0435 33.6117 31.0175 33.6546C30.9713 33.7344 31.0175 33.7806 31.0889 33.7722C31.1402 33.7659 31.1892 33.7471 31.2317 33.7176L36.7967 30.114C36.84 30.0866 36.876 30.0491 36.9017 30.0048C36.9605 29.9292 36.9143 29.8788 36.8261 29.8872H36.8345ZM40.9715 29.5764L39.2663 30.681L37.8593 28.4634L39.5393 27.3672C39.7616 27.2149 40.0159 27.1157 40.2827 27.0774C40.465 27.0373 40.6545 27.102 40.7741 27.2454L41.5721 28.5054C41.6468 28.6771 41.6243 28.8755 41.5133 29.0262C41.3723 29.2476 41.1845 29.4354 40.9631 29.5764H40.9715Z" fill="#231F20"/>
<path d="M1.70557 1.96141C1.81677 1.96241 1.92772 1.97224 2.03737 1.99081C1.92799 1.97023 1.81686 1.96038 1.70557 1.96141Z" fill="#D9D9D9"/>
<path d="M23.7261 8.35802L23.7513 8.26142C23.9494 7.64993 23.8566 6.98138 23.4993 6.44702C23.2818 6.17036 22.9907 5.96072 22.6593 5.84222C22.6593 5.90942 22.6593 5.97662 22.6593 6.04802C22.6761 6.27373 22.6562 6.50066 22.6005 6.72002L22.4199 7.31222L22.5291 7.37522C22.963 7.65783 23.3645 7.98742 23.7261 8.35802Z" fill="black"/>
<path d="M4.7085 21.3318V21.336V23.1378V24.7212L4.9941 24.5784L5.9391 24.0912L6.8841 24.5742L7.16969 24.7212V23.1378V21.336V21.3318V20.7942H4.7085V21.3318Z" fill="black"/>
<path d="M7.27881 23.3478V21.126H17.0942C17.4474 21.1287 17.7861 20.9859 18.0308 20.7312C18.0978 20.6559 18.148 20.5671 18.1778 20.4708L18.329 19.9752H18.665H18.7952C19.2443 19.9721 19.6918 19.9229 20.1308 19.8282L20.4752 19.761L20.0846 21.0504C19.6572 22.3612 18.4592 23.2676 17.0816 23.3226L7.27881 23.3478Z" fill="black"/>
<path d="M20.1602 20.0592L19.883 21C19.4855 22.2245 18.3679 23.0722 17.0816 23.1252H7.48885V21.336H17.0942C17.5071 21.3385 17.9025 21.1697 18.1862 20.8698C18.2751 20.7738 18.3412 20.6589 18.3794 20.5338L18.4844 20.1936H18.6062H18.791C19.2508 20.1955 19.7096 20.1505 20.1602 20.0592ZM20.765 19.509L20.0762 19.6476C19.6496 19.7388 19.2148 19.7866 18.7784 19.7904H18.5642H18.4886H18.1652L18.0686 20.1012L17.9636 20.4414C17.9426 20.5087 17.9067 20.5704 17.8586 20.622C17.6555 20.8326 17.3742 20.9496 17.0816 20.9454H7.06885V23.5872H17.0816C18.5532 23.5301 19.8329 22.5608 20.2862 21.1596L20.5802 20.181L20.786 19.509H20.765Z" fill="white"/>
<path d="M21.4622 10.4538L19.442 17.0604C19.9578 16.9741 20.4507 16.7841 20.891 16.5018C21.0566 16.3918 21.2138 16.2697 21.3614 16.1364L22.5374 12.264C22.4883 12.072 22.4251 11.8839 22.3484 11.7012C22.1374 11.2314 21.8363 10.8076 21.4622 10.4538ZM19.8956 9.53402C19.5374 9.4254 19.1652 9.3702 18.791 9.37022C16.8715 9.36612 15.2381 10.7673 14.95 12.665C14.6619 14.5627 15.806 16.3855 17.6402 16.9512V16.8924L19.8956 9.53402Z" fill="black"/>
<path d="M26.6242 22.3776C26.2768 22.3798 25.944 22.2384 25.7044 21.987L22.5376 18.8286C21.8782 19.2729 21.144 19.5944 20.3704 19.7778C19.8548 19.9038 19.3261 19.9687 18.7954 19.971H18.6778H18.6148C17.809 19.9528 17.0134 19.7877 16.267 19.4838C12.8554 18.1912 11.0983 14.4128 12.3083 10.971C13.5183 7.5293 17.2533 5.68162 20.7232 6.80823C21.8762 7.15864 22.9145 7.81121 23.7304 8.69823C25.8301 10.9846 26.0905 14.4116 24.3604 16.989L27.5482 20.16C27.9186 20.5322 28.0283 21.091 27.826 21.5756C27.6237 22.0602 27.1493 22.3751 26.6242 22.3734V22.3776ZM18.7954 9.12663C16.5198 9.12663 14.6752 10.9713 14.6752 13.2468C14.6752 15.5224 16.5198 17.367 18.7954 17.367C18.954 17.3668 19.1125 17.357 19.27 17.3376C19.8951 17.2652 20.4948 17.0481 21.0214 16.7034C22.7185 15.6139 23.3749 13.4543 22.5712 11.6046C21.9153 10.101 20.4316 9.12834 18.7912 9.12663H18.7954Z" fill="black"/>
<path d="M18.791 6.72002C22.3898 6.72927 25.3029 9.64804 25.3052 13.2468C25.3094 14.5657 24.9092 15.8542 24.1586 16.9386L24.104 17.0142L27.401 20.3112C27.7085 20.6248 27.7981 21.0921 27.6285 21.4972C27.459 21.9024 27.0632 22.1665 26.624 22.1676C26.3341 22.167 26.0567 22.0488 25.8554 21.84L22.5626 18.5556L22.4828 18.606C21.8285 19.0594 21.0947 19.3856 20.3198 19.5678C19.8196 19.6916 19.3064 19.7551 18.791 19.7568C18.7322 19.7568 18.6776 19.7568 18.6188 19.7568C15.0235 19.7093 12.1474 16.7561 12.1949 13.1607C12.2425 9.56534 15.1957 6.68927 18.791 6.73682V6.72002ZM18.791 17.5812C18.9596 17.5806 19.1279 17.5694 19.295 17.5476C19.9508 17.4723 20.5804 17.2467 21.1346 16.8882C22.92 15.7402 23.61 13.4674 22.7642 11.5206C22.4992 10.9234 22.1047 10.3926 21.6092 9.96662C21.1495 9.56945 20.6115 9.27326 20.03 9.09722C19.6276 8.97912 19.2105 8.91832 18.791 8.91662C16.3995 8.91662 14.4608 10.8553 14.4608 13.2468C14.4608 15.6383 16.3995 17.577 18.791 17.577V17.5812ZM18.791 6.31262C15.4775 6.31835 12.6311 8.66757 11.997 11.9198C11.3629 15.1721 13.1184 18.4186 16.187 19.6686C16.9571 19.9774 17.7768 20.1439 18.6062 20.16H18.665H18.791C19.3387 20.1586 19.8843 20.0923 20.4164 19.9626C21.161 19.7864 21.8708 19.4869 22.5164 19.0764L25.5698 22.1214C25.8493 22.4074 26.2326 22.568 26.6324 22.5666C27.2434 22.5688 27.7954 22.2021 28.03 21.6379C28.2647 21.0738 28.1357 20.4238 27.7034 19.992L24.6542 16.9428C26.3346 14.2943 26.0226 10.8466 23.894 8.54282C23.0512 7.62869 21.9798 6.95595 20.7902 6.59402C20.1443 6.40049 19.4737 6.30146 18.7994 6.30002L18.791 6.31262ZM18.791 17.157C18.4007 17.1573 18.0126 17.0978 17.6402 16.9806C15.8873 16.4408 14.7452 14.7552 14.8936 12.9271C15.042 11.099 16.4412 9.61974 18.2582 9.36984C20.0752 9.11994 21.8218 10.1666 22.4582 11.8867C23.0947 13.6069 22.45 15.5383 20.9078 16.5312C20.4024 16.8591 19.8269 17.0634 19.2278 17.1276C19.0774 17.1471 18.9259 17.1569 18.7742 17.157H18.791Z" fill="white"/>
<path d="M11.8274 13.2468C11.8413 9.40941 14.9536 6.30462 18.791 6.30002C19.4683 6.29908 20.142 6.39815 20.7902 6.59402L21.5294 4.15802C21.7378 3.54139 21.6428 2.86258 21.2732 2.32682C20.8992 1.81998 20.3029 1.52571 19.673 1.53722H8.96305C8.71973 1.5526 8.47887 1.59486 8.24485 1.66322V1.62122C6.46825 1.10042 6.35905 3.02822 5.76685 3.90182C5.54005 4.22522 5.20405 4.50662 5.14945 4.77122C5.09485 5.03582 5.24605 5.26682 5.21665 5.50622C5.04915 6.40806 4.71592 7.27104 4.23385 8.05142C4.01965 8.33282 3.71305 8.47142 3.61225 8.79902C3.52825 9.02162 3.67105 9.34922 3.64165 9.63902C3.4666 10.5377 3.14899 11.4026 2.70085 12.201C2.55805 12.453 2.28085 12.6504 2.21785 12.9192C2.15485 13.188 2.28925 13.4652 2.21785 13.734C1.99031 14.6379 1.63535 15.5047 1.16365 16.3086C0.941045 16.6908 0.642845 16.9302 0.588245 17.2662C0.558845 17.4342 0.684845 17.619 0.672245 17.8416C0.672245 18.1818 0.600845 18.4632 0.571445 18.7446C0.373465 19.3249 0.383861 19.9561 0.600845 20.5296C1.12165 21.9954 2.65885 23.1336 4.09105 23.1336H4.38925V21.336H4.10785C3.33085 21.336 2.36065 21.168 2.07925 20.3532C1.96585 20.0424 1.98265 19.9332 2.07925 19.7484C2.21667 19.5995 2.4149 19.5221 2.61685 19.5384H14.8598C15.141 19.541 15.4218 19.5213 15.6998 19.4796C13.3262 18.3104 11.8242 15.8928 11.8274 13.2468Z" fill="black"/>
</svg>
