<svg width="42" height="42" viewBox="0 0 42 42" fill="none" xmlns="http://www.w3.org/2000/svg">
<g clip-path="url(#clip0)">
<path d="M31.9202 29.568C31.8669 29.6331 31.7858 29.669 31.7018 29.6646C31.6285 29.6674 31.5571 29.6401 31.5044 29.589C31.4531 29.5431 31.424 29.4773 31.4246 29.4084C31.4327 29.3226 31.4554 29.2387 31.4918 29.1606C31.4916 29.1266 31.4742 29.095 31.4456 29.0766C31.418 29.0551 31.384 29.0433 31.349 29.043C31.1684 29.043 31.0172 29.2362 30.8996 29.6226C30.7951 29.9907 30.7151 30.3653 30.6602 30.744H31.4582L31.4078 30.9834H30.5846L29.8958 33.3228C29.788 33.8515 29.592 34.3584 29.3162 34.8222C29.1306 35.1683 28.7723 35.3868 28.3796 35.3934C28.2276 35.3984 28.0788 35.3492 27.9596 35.2548C27.8607 35.1809 27.7992 35.0673 27.7916 34.944C27.7928 34.8708 27.8179 34.8 27.863 34.7424C27.9127 34.6779 27.9919 34.6431 28.073 34.65C28.1495 34.6484 28.2234 34.6771 28.2788 34.7298C28.3332 34.7827 28.3636 34.8555 28.3628 34.9314C28.3616 34.9773 28.3485 35.0221 28.325 35.0616C28.306 35.0878 28.2931 35.118 28.2872 35.1498C28.2884 35.1737 28.3031 35.1949 28.325 35.2044C28.3589 35.2211 28.3966 35.2283 28.4342 35.2254C28.6358 35.2254 28.808 35.0658 28.9508 34.7466C29.0385 34.5235 29.1059 34.293 29.1524 34.0578L29.9924 30.9834H29.333L29.4002 30.744H30.0932C30.1706 30.3137 30.3122 29.8974 30.5132 29.5092C30.6719 29.1518 31.0174 28.9134 31.4078 28.8918C31.5603 28.8833 31.7103 28.9328 31.8278 29.0304C31.9258 29.1078 31.9843 29.2248 31.9874 29.3496C31.9912 29.428 31.9675 29.5053 31.9202 29.568ZM33.6002 29.0724C33.4004 29.276 33.2204 29.4982 33.0626 29.736C32.8056 30.1247 32.6074 30.5493 32.4746 30.996C32.3484 31.3927 32.2529 31.7985 32.189 32.2098C32.1345 32.5306 32.1022 32.8548 32.0924 33.18C32.0865 33.5103 32.109 33.8405 32.1596 34.167C32.2247 34.5104 32.3189 34.8476 32.441 35.175L32.315 35.217C32.0695 34.8065 31.8815 34.3641 31.7564 33.9024C31.6435 33.4704 31.5856 33.0259 31.5842 32.5794C31.5741 32.0498 31.6727 31.5238 31.874 31.0338C32.2585 30.2405 32.8101 29.5399 33.491 28.98L33.6002 29.0724ZM32.8694 33.4236C32.9213 33.3874 32.9826 33.367 33.0458 33.3648C33.0737 33.3607 33.102 33.3607 33.1298 33.3648C33.1625 33.3743 33.1936 33.3884 33.2222 33.4068L33.3482 33.474H33.3986H33.449C33.4993 33.4761 33.5486 33.4596 33.5876 33.4278C33.6758 33.3288 33.7585 33.225 33.8354 33.117C33.9236 32.9994 34.1252 32.697 34.436 32.277C34.436 32.277 34.4108 32.13 34.3562 31.8906C34.3016 31.6512 34.2512 31.4706 34.205 31.2816C34.1799 31.1646 34.1389 31.0516 34.0832 30.9456C34.0349 30.8852 33.9582 30.8548 33.8816 30.8658C33.8148 30.872 33.7486 30.8846 33.6842 30.9036L33.4868 30.954L33.4532 30.8406L33.8522 30.7062C33.9443 30.6716 34.0382 30.6421 34.1336 30.618C34.2078 30.5994 34.2839 30.5896 34.3604 30.5886C34.4442 30.5822 34.5264 30.6147 34.583 30.6768C34.6898 30.8486 34.7559 31.0426 34.7762 31.2438L34.8518 31.6638C35.0025 31.4194 35.1709 31.1863 35.3558 30.9666C35.4421 30.8619 35.5441 30.7712 35.6582 30.6978C35.7381 30.6406 35.8331 30.6085 35.9312 30.6054C35.9975 30.6093 36.0621 30.6279 36.1202 30.66C36.2115 30.7051 36.2652 30.8023 36.2546 30.9036C36.2588 30.9731 36.2346 31.0414 36.1874 31.0926C36.1403 31.1382 36.0765 31.1625 36.011 31.1598H35.9354L35.8598 31.1346L35.7674 31.0926L35.7002 31.0464H35.6498C35.5406 31.0464 35.3936 31.185 35.2004 31.4664C35.0868 31.6052 34.9908 31.7575 34.9148 31.92C34.9287 32.0377 34.9512 32.1542 34.982 32.2686C35.024 32.466 35.0744 32.6886 35.1248 32.8944C35.1565 33.0368 35.1972 33.1771 35.2466 33.3144C35.3012 33.4446 35.3642 33.5076 35.4314 33.5076C35.5092 33.5024 35.581 33.4642 35.6288 33.4026C35.7365 33.2793 35.8375 33.1504 35.9312 33.0162L36.032 33.075C35.9371 33.2501 35.826 33.4161 35.7002 33.5706C35.5657 33.7765 35.3478 33.9131 35.1038 33.9444C34.9856 33.9428 34.8777 33.8767 34.8224 33.7722C34.7678 33.6692 34.7282 33.5589 34.7048 33.4446L34.4822 32.5584L33.7472 33.5202C33.6485 33.6446 33.5373 33.7586 33.4154 33.8604C33.3316 33.918 33.2315 33.9475 33.1298 33.9444C33.0076 33.959 32.8876 33.9038 32.819 33.8016C32.7858 33.7474 32.7697 33.6845 32.7728 33.621C32.7662 33.5424 32.8034 33.4666 32.8694 33.4236ZM35.8808 35.0742C36.0877 34.8569 36.2772 34.6238 36.4478 34.377C36.6883 34.0057 36.8763 33.6028 37.0064 33.18C37.1277 32.7968 37.2204 32.4051 37.2836 32.0082C37.3446 31.6417 37.3769 31.271 37.3802 30.8994C37.3858 30.5243 37.3506 30.1497 37.2752 29.7822C37.2201 29.5093 37.1356 29.2431 37.0232 28.9884L37.1618 28.9464C37.3974 29.3395 37.5769 29.7636 37.6952 30.2064C37.8238 30.66 37.8888 31.1293 37.8884 31.6008C37.8971 32.0847 37.8159 32.5661 37.649 33.0204C37.2805 33.8774 36.7029 34.6284 35.969 35.2044L35.8808 35.0742ZM28.682 37.7706V38.3082L26.204 39.06L28.682 39.8286V40.3662L25.5698 39.3162V38.8122L28.682 37.7706ZM28.682 40.9374H25.5698V40.4586H28.682V40.9374ZM31.0088 37.7706L34.121 38.8206V39.3246L31.0088 40.3746V39.837L33.4868 39.06L31.0088 38.2998V37.7706ZM34.121 40.4586V40.9374H31.0088V40.4586H34.121Z" fill="#231F20"/>
<path d="M39.5516 38.4636V38.9634H38.4344L38.0858 39.7404H39.5516V40.2486H37.8716L37.5524 40.9668H37.019L37.3382 40.2486H36.4478V39.7404H37.565L37.9136 38.9634H36.4478V38.4636H38.1278L38.4512 37.7412H38.972L38.6402 38.4636H39.5516Z" fill="#231F20"/>
<path d="M0.340332 21H42.3613M21.7771 0V42V0Z" stroke="#231F20"/>
<path d="M9.19818 26.6154L33.1214 2.56616L9.19818 26.6154ZM25.1918 31.29L1.14258 7.37096L25.1918 31.29Z" fill="#231F20"/>
<path d="M25.1918 31.29L1.14258 7.37096M9.19818 26.6154L33.1214 2.56616L9.19818 26.6154Z" stroke="#231F20" stroke-width="2" stroke-linecap="round" stroke-linejoin="round"/>
<path d="M21.8823 15.6492C22.7847 15.6492 23.5161 14.9177 23.5161 14.0154C23.5161 13.1131 22.7847 12.3816 21.8823 12.3816C20.98 12.3816 20.2485 13.1131 20.2485 14.0154C20.2485 14.9177 20.98 15.6492 21.8823 15.6492Z" fill="#231F20"/>
<path d="M14.8008 22.6002C15.7031 22.6002 16.4346 21.8688 16.4346 20.9664C16.4346 20.0641 15.7031 19.3326 14.8008 19.3326C13.8985 19.3326 13.167 20.0641 13.167 20.9664C13.167 21.8688 13.8985 22.6002 14.8008 22.6002Z" fill="#231F20"/>
<path d="M11.9072 39.48C11.9049 39.8641 11.5941 40.1749 11.21 40.1772H3.55335C3.17089 40.1727 2.86261 39.8625 2.86035 39.48V31.1052C2.86264 30.7234 3.17157 30.4145 3.55335 30.4122H11.21C11.5924 30.4145 11.9026 30.7228 11.9072 31.1052V39.48ZM11.21 31.4538C11.21 31.2613 11.0539 31.1052 10.8614 31.1052H3.90195C3.71037 31.1075 3.55562 31.2623 3.55335 31.4538V32.8482C3.55565 33.0391 3.71105 33.1926 3.90195 33.1926H10.8614C11.0523 33.1926 11.2077 33.0391 11.21 32.8482V31.4538ZM4.25055 33.8898C3.8655 33.8898 3.55335 34.202 3.55335 34.587C3.55335 34.9721 3.8655 35.2842 4.25055 35.2842C4.6356 35.2842 4.94775 34.9721 4.94775 34.587C4.94775 34.202 4.6356 33.8898 4.25055 33.8898ZM4.25055 35.9898C3.8655 35.9898 3.55335 36.302 3.55335 36.687C3.55335 37.0721 3.8655 37.3842 4.25055 37.3842C4.6356 37.3842 4.94775 37.0721 4.94775 36.687C4.95113 36.4999 4.87917 36.3194 4.74806 36.1859C4.61694 36.0524 4.43766 35.9772 4.25055 35.9772V35.9898ZM4.25055 38.0898C3.8655 38.0898 3.55335 38.402 3.55335 38.787C3.55335 39.1721 3.8655 39.4842 4.25055 39.4842C4.6356 39.4842 4.94775 39.1721 4.94775 38.787C4.9546 38.5978 4.88417 38.4139 4.75267 38.2777C4.62118 38.1414 4.43991 38.0645 4.25055 38.0646V38.0898ZM6.35055 33.915C5.9655 33.915 5.65335 34.2272 5.65335 34.6122C5.65335 34.9973 5.9655 35.3094 6.35055 35.3094C6.73561 35.3094 7.04775 34.9973 7.04775 34.6122C7.05471 34.4208 6.98259 34.2349 6.84833 34.0983C6.71406 33.9616 6.52949 33.8862 6.33795 33.8898L6.35055 33.915ZM6.35055 36.015C5.9655 36.015 5.65335 36.3272 5.65335 36.7122C5.65335 37.0973 5.9655 37.4094 6.35055 37.4094C6.73561 37.4094 7.04775 37.0973 7.04775 36.7122C7.0583 36.5187 6.98777 36.3294 6.8531 36.19C6.71843 36.0505 6.53178 35.9734 6.33795 35.9772L6.35055 36.015ZM6.35055 38.115C5.9655 38.115 5.65335 38.4272 5.65335 38.8122C5.65335 39.1973 5.9655 39.5094 6.35055 39.5094C6.73561 39.5094 7.04775 39.1973 7.04775 38.8122C7.06198 38.6165 6.99309 38.4239 6.858 38.2816C6.72291 38.1393 6.53411 38.0606 6.33795 38.0646L6.35055 38.115ZM8.45055 33.9402C8.0655 33.9402 7.75335 34.2524 7.75335 34.6374C7.75335 35.0225 8.0655 35.3346 8.45055 35.3346C8.83561 35.3346 9.14775 35.0225 9.14775 34.6374C9.16363 34.4391 9.09354 34.2436 8.95532 34.1006C8.81709 33.9575 8.62406 33.8808 8.42535 33.8898L8.45055 33.9402ZM8.45055 36.0402C8.0655 36.0402 7.75335 36.3524 7.75335 36.7374C7.75335 37.1225 8.0655 37.4346 8.45055 37.4346C8.83561 37.4346 9.14775 37.1225 9.14775 36.7374C9.1675 36.5371 9.09914 36.338 8.96045 36.1921C8.82176 36.0461 8.62646 35.9677 8.42535 35.9772L8.45055 36.0402ZM8.45055 38.1402C8.16856 38.1402 7.91434 38.3101 7.80642 38.5706C7.69851 38.8312 7.75816 39.131 7.95756 39.3304C8.15696 39.5298 8.45683 39.5895 8.71736 39.4816C8.97789 39.3736 9.14775 39.1194 9.14775 38.8374C9.17147 38.635 9.10489 38.4324 8.96572 38.2836C8.82655 38.1347 8.6289 38.0546 8.42535 38.0646L8.45055 38.1402ZM10.5506 33.9654C10.1655 33.9654 9.85335 34.2776 9.85335 34.6626C9.85335 35.0477 10.1655 35.3598 10.5506 35.3598C10.9356 35.3598 11.2478 35.0477 11.2478 34.6626C11.2725 34.4556 11.2027 34.2483 11.0577 34.0984C10.9127 33.9485 10.7079 33.8719 10.5002 33.8898L10.5506 33.9654ZM11.2478 36.75C11.2681 36.4888 11.1402 36.2382 10.9168 36.1014C10.6933 35.9645 10.412 35.9645 10.1885 36.1014C9.96509 36.2382 9.83723 36.4888 9.85755 36.75V38.85C9.83723 39.1113 9.96509 39.3618 10.1885 39.4987C10.412 39.6355 10.6933 39.6355 10.9168 39.4987C11.1402 39.3618 11.2681 39.1113 11.2478 38.85V36.75Z" fill="#231F20"/>
</g>
<defs>
<clipPath id="clip0">
<rect width="42" height="42" fill="white"/>
</clipPath>
</defs>
</svg>
