<svg width="42" height="42" viewBox="0 0 42 42" fill="none" xmlns="http://www.w3.org/2000/svg">
<path d="M40.5719 34.335H39.7319V37.8H39.0977V34.335H38.1779V35.8344H38.0813V34.335H37.1573V36.435H36.9305V34.335H36.0107V35.8344H35.9141V34.335H34.9901V37.1028H34.5701V34.335H33.6461V35.8344H33.5495V34.335H32.6297V36.435H32.4029V34.335H31.4999V35.8344H31.4075V34.335H30.4835V37.8H29.8199V34.335H28.8959V35.8344H28.7993V34.335H27.8753V36.435H27.6485V34.335H26.7245V35.8344H26.6321V34.335H25.7081V37.1028H25.2881V34.335H24.3599V35.8344H24.2633V34.335H23.3393V36.435H23.0999V34.335H22.1969V35.8344H22.1003V34.335H21.1805V37.8H20.5295V34.335H19.6097V35.8344H19.5131V34.335H18.5891V36.435H18.3623V34.335H17.4425V35.8344H17.3459V34.335H15.0779V35.8344H14.9855V34.335H14.0615V36.435H13.8347V34.335H12.9149V35.8344H12.8183V34.335H11.8943V37.8H11.2475V34.335H10.3235V35.8344H10.2311V34.335H9.30709V36.435H9.08029V34.335H8.16049V35.8344H8.06389V34.335H7.13989V37.1028H6.71989V34.335H5.79589V35.8344H5.69929V34.335H4.77949V36.435H4.55269V34.335H3.62869V35.8344H3.53209V34.335H2.61229V37.7664H1.96549V34.335H1.12549V40.446H40.5719V34.335ZM16.0019 37.1028V34.3728H16.4219V37.1028H16.0019Z" fill="#231F20"/>
<path fill-rule="evenodd" clip-rule="evenodd" d="M5.76395 0.639972C5.97103 0.523435 6.22108 0.511923 6.43799 0.608941L18.9834 6.22014C19.3615 6.38926 19.5309 6.83288 19.3618 7.211C19.1927 7.58911 18.7491 7.75854 18.371 7.58942L6.74967 2.39155L3.42352 28.8551C3.37187 29.2661 2.99682 29.5574 2.58584 29.5057C2.17487 29.4541 1.88357 29.079 1.93523 28.668L5.38763 1.20005C5.41726 0.964285 5.55687 0.75651 5.76395 0.639972Z" fill="#231F20"/>
<path fill-rule="evenodd" clip-rule="evenodd" d="M9.84059 3.12263C9.85229 3.06944 9.85918 3.03816 9.85918 3.00298H10.3592C10.3592 3.0984 10.3353 3.20488 10.3205 3.27055C10.3172 3.28538 10.3143 3.29813 10.3123 3.3082L10.311 3.31459C9.88835 5.17492 8.0376 6.34044 6.17721 5.91797L6.1761 5.91771C5.94698 5.86458 5.72429 5.78679 5.51193 5.68571L5.72683 5.23424C5.90642 5.31973 6.09474 5.38554 6.2885 5.43051C7.87842 5.79124 9.45989 4.79595 9.82269 3.20684C9.82946 3.17317 9.83548 3.14582 9.84059 3.12263Z" fill="#231F20"/>
<path fill-rule="evenodd" clip-rule="evenodd" d="M16.9169 8.88715L17.2865 8.37895L17.6908 8.67304L17.3212 9.18124L16.9169 8.88715Z" fill="#231F20"/>
<path fill-rule="evenodd" clip-rule="evenodd" d="M16.6153 10.1436L15.7067 11.3854L15.3032 11.0902L16.2118 9.84837L16.6153 10.1436ZM13.8895 13.869L12.0723 16.3526L11.6688 16.0574L13.486 13.5738L13.8895 13.869ZM10.2551 18.8362L8.43788 21.3198L8.03436 21.0246L9.85156 18.541L10.2551 18.8362ZM6.62068 23.8034L5.71208 25.0452L5.30856 24.75L6.21716 23.5082L6.62068 23.8034Z" fill="#231F20"/>
<path fill-rule="evenodd" clip-rule="evenodd" d="M4.58232 25.7365L4.95612 25.2283L5.3589 25.5245L4.9851 26.0327L4.58232 25.7365Z" fill="#231F20"/>
<path d="M40.8029 30.3828H18.9839V14.0028H20.3489V29.022H40.8029V30.3828ZM25.8047 27.657H23.0747V22.197H25.8047V27.657ZM29.8955 27.657H27.1655V16.737H29.8955V27.657ZM33.9863 27.657H31.2563V19.4754H33.9863V27.657ZM38.0771 27.657H35.3513V15.3846H38.0771V27.657Z" fill="#231F20"/>
</svg>
