<svg width="42" height="42" viewBox="0 0 42 42" fill="none" xmlns="http://www.w3.org/2000/svg">
<path d="M29.9333 24.381C28.4591 26.0064 26.5145 28.2954 26.3423 30.5844C26.9618 30.9529 27.3428 31.6192 27.3461 32.34C27.3473 32.8473 27.1568 33.3364 26.8127 33.7092C27.1573 34.0801 27.3479 34.568 27.3461 35.0742C27.3445 35.7792 26.9814 36.434 26.3843 36.8088C26.559 37.1105 26.6544 37.4515 26.6615 37.8C26.6615 39.1902 25.5695 39.8538 24.3347 39.8538C23.789 41.1073 22.5519 41.918 21.1847 41.918C19.8176 41.918 18.5805 41.1073 18.0347 39.8538C16.7957 39.8538 15.7037 39.1902 15.7037 37.8C15.7104 37.4475 15.8057 37.1022 15.9809 36.7962C15.3857 36.4197 15.0232 35.7659 15.0191 35.0616C15.0173 34.5554 15.208 34.0675 15.5525 33.6966C15.216 33.3251 15.0303 32.8413 15.0317 32.34C15.0366 31.6196 15.4193 30.9547 16.0397 30.5886C15.8675 28.2996 13.9397 26.0106 12.4445 24.3852C10.9992 22.8311 10.2106 20.7785 10.2437 18.6564C10.2437 12.8436 15.7793 9.08042 21.1889 9.08042C26.5985 9.08042 32.1341 12.8604 32.1341 18.6564C32.1662 20.777 31.3777 22.828 29.9333 24.381ZM21.1889 11.8104C17.3207 11.8104 12.9821 14.3766 12.9821 18.6522C13.0059 20.0656 13.5195 21.4269 14.4353 22.5036C14.8553 22.974 15.3089 23.4234 15.7373 23.9106C17.2577 25.7292 18.5387 27.867 18.7529 30.282H23.6249C23.8391 27.867 25.1243 25.7292 26.6405 23.9106C27.0605 23.4234 27.5393 22.974 27.9467 22.5036C28.8611 21.426 29.3745 20.0652 29.3999 18.6522C29.3999 14.3766 25.0571 11.8104 21.1889 11.8104ZM25.2923 19.32C24.9196 19.309 24.6207 19.0082 24.6119 18.6354C24.6119 17.1612 22.3229 16.5816 21.1889 16.5816C20.9323 16.6018 20.6861 16.4763 20.5516 16.2568C20.4171 16.0373 20.4171 15.7609 20.5516 15.5415C20.6861 15.322 20.9323 15.1965 21.1889 15.2166C23.1797 15.2166 25.9769 16.2624 25.9769 18.6354C25.9681 19.0098 25.6667 19.3112 25.2923 19.32Z" fill="#231F20"/>
<path fill-rule="evenodd" clip-rule="evenodd" d="M21.6176 0.688812V6.32941H20.6176V0.688812H21.6176ZM7.53558 6.03466L11.5256 10.0247L10.8185 10.7318L6.82847 6.74177L7.53558 6.03466ZM30.7097 10.0247L34.6997 6.03466L35.4068 6.74177L31.4168 10.7318L30.7097 10.0247ZM7.08542 17.3756H1.44482V16.3756H7.08542V17.3756ZM40.7904 17.3756H35.1498V16.3756H40.7904V17.3756Z" fill="#231F20"/>
</svg>
