<svg width="42" height="42" viewBox="0 0 42 42" fill="none" xmlns="http://www.w3.org/2000/svg">
<path d="M8.45838 7.11057C7.71918 5.93457 7.02618 5.35077 6.35838 5.35077C5.39372 5.36 4.61723 6.14586 4.61958 7.11057C4.62189 8.08152 5.40843 8.86806 6.37938 8.87037C6.82702 8.85964 7.25186 8.67066 7.55958 8.34537C7.90101 7.96591 8.20222 7.5521 8.45838 7.11057ZM9.05898 6.14457C9.85418 4.91257 10.7446 4.29657 11.7302 4.29657V5.35077C11.0792 5.35077 10.3862 5.93457 9.65118 7.11057C9.90973 7.55372 10.2153 7.96771 10.5626 8.34537C10.8653 8.67032 11.2862 8.85957 11.7302 8.87037V9.9204C10.7418 9.92037 9.85138 9.30577 9.05898 8.07657C8.26378 9.30577 7.36918 9.92037 6.37518 9.92037C5.62856 9.92373 4.91149 9.62891 4.38316 9.10136C3.85482 8.57382 3.55893 7.85719 3.56118 7.11057C3.55346 6.35929 3.85762 5.63844 4.40118 5.11977C4.91867 4.5745 5.6403 4.27001 6.39198 4.27977C7.37758 4.29097 8.26658 4.91257 9.05898 6.14457Z" fill="#010101"/>
<path d="M32.7093 39.753H32.1129L31.3149 38.6736L30.5085 39.753H29.9541L31.0545 38.3502L29.9667 36.96H30.5631L31.3569 38.0226L32.1549 36.96H32.7093L31.6047 38.346L32.7093 39.753Z" fill="#231F20"/>
<path d="M36.1196 38.1486L33.6836 39.2322V38.85L35.6072 38.01L33.6836 37.17V36.7878L36.1196 37.884V38.1486Z" fill="#231F20"/>
<path d="M39.7822 36.96L38.1359 40.7946H37.6318L38.1568 39.6186L37.0312 36.96H37.5479L38.413 39.06L39.2866 36.96H39.7822Z" fill="#231F20"/>
<path d="M40.5382 10.5546C40.5424 10.5438 40.5424 10.5318 40.5382 10.521C40.5401 10.5042 40.5401 10.4873 40.5382 10.4706L34.1626 1.25999C34.1626 1.25999 34.1626 1.25999 34.1374 1.25999C34.1122 1.25999 34.1374 1.23479 34.1038 1.23059H33.9946C33.9946 1.23059 33.9694 1.23059 33.9652 1.23059L28.1104 9.41639C28.109 9.42895 28.109 9.44163 28.1104 9.45419C28.108 9.46526 28.108 9.47672 28.1104 9.48779C28.1104 9.48779 28.1104 9.48779 28.1104 9.50879C28.1104 9.52979 28.1104 9.50879 28.1104 9.50879C28.1201 9.54261 28.1428 9.57127 28.1734 9.58859L32.3398 11.886C32.3603 11.8922 32.3822 11.8922 32.4028 11.886L40.4122 10.6554C40.4413 10.6501 40.4679 10.6353 40.4878 10.6134C40.4878 10.6134 40.4878 10.6134 40.4878 10.5882C40.4878 10.563 40.4878 10.563 40.4878 10.5462C40.4878 10.5294 40.5382 10.5588 40.5382 10.5546ZM28.6354 9.56759L32.7094 8.94179L32.2894 11.5584L31.7182 11.2476L28.6354 9.56759ZM32.9908 8.89979L36.2038 8.39999L39.9838 10.458L32.5624 11.6046L32.9908 8.89979ZM33.037 8.61839L34.0954 1.94039L36.0526 8.15639L33.037 8.61839ZM39.9712 10.1472L39.2656 9.76499L36.3256 8.17319L34.4398 2.16299L39.9712 10.1472ZM32.7598 8.66039L28.5178 9.31139L33.8308 1.89419L32.7598 8.66039ZM31.2604 30.0972L26.8798 25.725L27.01 25.536C29.1941 22.3456 28.9076 18.0741 26.317 15.204C24.0053 12.6273 20.3428 11.7453 17.1115 12.9871C13.8801 14.2289 11.7509 17.3367 11.7598 20.7984C11.7596 21.0959 11.7764 21.3932 11.8102 21.6888C11.9172 22.6248 12.1842 23.5355 12.5998 24.381C13.6478 26.5919 15.6133 28.2315 17.9763 28.8661C20.3393 29.5007 22.8617 29.0664 24.8764 27.678L25.0654 27.5478L29.425 31.92C29.6641 32.1662 29.9932 32.3042 30.3364 32.3022C30.858 32.3029 31.329 31.9903 31.531 31.5094C31.7329 31.0284 31.6262 30.4732 31.2604 30.1014V30.0972ZM15.6406 24.381C15.015 23.6029 14.6038 22.6748 14.4478 21.6888C14.3949 21.3948 14.3655 21.0971 14.3596 20.7984C14.3451 18.0884 16.2236 15.7356 18.8696 15.1497C21.5156 14.5639 24.2117 15.9038 25.3426 18.3666C25.7016 19.1213 25.8895 19.9459 25.8928 20.7816C25.9043 23.2325 24.3598 25.421 22.0466 26.2312C19.7334 27.0414 17.1609 26.2951 15.6406 24.3726V24.381Z" fill="#231F20"/>
<path d="M2.97314 29.1102V40.2486" stroke="#231F20" stroke-width="1.25"/>
<path d="M1.92334 29.4168L2.97334 27.6024L4.01914 29.4168H1.92334Z" fill="#231F20"/>
<path d="M9.85694 33.1758L2.97314 40.0596" stroke="#231F20" stroke-width="1.25"/>
<path d="M8.89941 32.6507L10.9196 32.1089L10.3778 34.1333L8.89941 32.6507Z" fill="#231F20"/>
<path d="M16.4257 40.0596H2.97314" stroke="#231F20" stroke-width="1.25"/>
<path d="M16.1196 39.0096L17.934 40.0596L16.1196 41.1054V39.0096Z" fill="#231F20"/>
</svg>
