<svg width="42" height="42" viewBox="0 0 42 42" fill="none" xmlns="http://www.w3.org/2000/svg">
<g clip-path="url(#clip0)">
<path d="M33.3482 33.5706C33.2834 33.6549 33.1814 33.702 33.0752 33.6966C32.9829 33.6994 32.8935 33.6645 32.8274 33.6C32.7642 33.5414 32.7277 33.4594 32.7266 33.3732C32.7388 33.266 32.7671 33.1612 32.8106 33.0624C32.811 33.0205 32.7905 32.9811 32.756 32.9574C32.7205 32.9286 32.6757 32.9137 32.63 32.9154C32.4074 32.9154 32.21 33.159 32.0714 33.6378C31.9463 34.0988 31.8509 34.5674 31.7858 35.0406H32.7812L32.7182 35.343H31.7018L30.8618 38.283C30.7253 38.9434 30.4797 39.5765 30.1352 40.1562C29.9033 40.5894 29.4547 40.8627 28.9634 40.8702C28.7708 40.8777 28.5818 40.8167 28.43 40.698C28.3044 40.6064 28.2271 40.4627 28.22 40.3074C28.2212 40.216 28.2522 40.1276 28.3082 40.0554C28.3712 39.9773 28.4685 39.9349 28.5686 39.942C28.6641 39.9395 28.7566 39.9759 28.8248 40.0428C28.8946 40.1059 28.933 40.1966 28.9298 40.2906C28.9304 40.3485 28.9144 40.4053 28.8836 40.4544C28.8611 40.4889 28.8454 40.5274 28.8374 40.5678C28.8401 40.5979 28.8596 40.624 28.8878 40.635C28.9301 40.6534 28.9761 40.662 29.0222 40.6602C29.2742 40.6602 29.4884 40.4628 29.6648 40.0596C29.7804 39.7897 29.8663 39.5081 29.921 39.2196L30.9836 35.3808H30.1436L30.2066 35.0784H31.0802C31.1838 34.5401 31.3679 34.0205 31.6262 33.537C31.8185 33.0731 32.2589 32.7599 32.7602 32.7306C32.945 32.7235 33.1259 32.7848 33.2684 32.9028C33.3985 33.0028 33.4733 33.1587 33.47 33.3228C33.4585 33.4168 33.4156 33.5041 33.3482 33.5706ZM35.4524 32.9532C35.204 33.2128 34.9791 33.4939 34.7804 33.7932C34.461 34.2772 34.2134 34.8048 34.0454 35.3598C33.8851 35.8557 33.7671 36.3644 33.6926 36.8802C33.6337 37.2737 33.6028 37.6709 33.6002 38.0688C33.5945 38.4806 33.6226 38.8922 33.6842 39.2994C33.7691 39.7274 33.8856 40.1486 34.0328 40.5594L33.8774 40.614C33.284 39.6164 32.9692 38.4778 32.966 37.317C32.954 36.6538 33.0769 35.9951 33.3272 35.3808C33.8087 34.3892 34.4994 33.5138 35.3516 32.8146L35.4524 32.9532ZM34.562 38.3922C34.625 38.3446 34.7014 38.3181 34.7804 38.3166C34.8151 38.3106 34.8507 38.3106 34.8854 38.3166C34.9271 38.3269 34.9668 38.3439 35.003 38.367L35.1584 38.451L35.2214 38.4762H35.2844C35.3468 38.4816 35.4088 38.462 35.4566 38.4216C35.5681 38.2964 35.6718 38.1645 35.7674 38.0268C35.8808 37.884 36.1286 37.527 36.5192 36.96C36.5192 36.96 36.4856 36.7794 36.4184 36.477C36.3512 36.1746 36.284 35.9226 36.2294 35.7168C36.1979 35.5707 36.1471 35.4295 36.0782 35.2968C36.0166 35.2229 35.9218 35.185 35.8262 35.196C35.7438 35.204 35.6622 35.2195 35.5826 35.2422L35.3306 35.3052L35.2886 35.1666L35.7884 34.9944C35.9144 34.9482 36.032 34.9146 36.1412 34.8852C36.2333 34.862 36.3277 34.8494 36.4226 34.8474C36.528 34.8398 36.6313 34.8799 36.704 34.9566C36.8459 35.1812 36.9336 35.4357 36.9602 35.7L37.0568 36.2082C37.2441 35.905 37.4533 35.6158 37.6826 35.343C37.7909 35.2098 37.92 35.095 38.0648 35.0028C38.1648 34.9328 38.283 34.8934 38.405 34.8894C38.4886 34.8868 38.5718 34.9025 38.6486 34.9356C38.7641 34.99 38.833 35.111 38.8208 35.238C38.8255 35.3265 38.7936 35.4131 38.7326 35.4774C38.674 35.5336 38.5953 35.5638 38.5142 35.5614C38.4836 35.5658 38.4524 35.5658 38.4218 35.5614C38.3886 35.5533 38.3563 35.5421 38.3252 35.5278L38.2118 35.4774L38.1152 35.4396H38.048C37.9136 35.4396 37.7288 35.6118 37.4894 35.9604C37.3374 36.1345 37.2115 36.3297 37.1156 36.54C37.1334 36.6819 37.1614 36.8222 37.1996 36.96C37.2542 37.2078 37.313 37.464 37.3802 37.7412C37.4169 37.924 37.4674 38.1037 37.5314 38.2788C37.5986 38.4384 37.6784 38.5182 37.7624 38.5182C37.8607 38.5119 37.9513 38.4628 38.0102 38.3838C38.1461 38.2308 38.2724 38.0695 38.3882 37.9008L38.51 37.9764C38.3981 38.1876 38.2659 38.3873 38.1152 38.5728C37.9536 38.8352 37.6848 39.0133 37.3802 39.06C37.2314 39.0616 37.0946 38.9786 37.0274 38.8458C36.9571 38.7138 36.9062 38.5723 36.8762 38.4258L36.599 37.3212L35.675 38.514C35.5494 38.6677 35.4087 38.8084 35.255 38.934C35.1512 39.0085 35.0257 39.0469 34.898 39.0432C34.7445 39.0593 34.5945 38.99 34.5074 38.8626C34.4645 38.7962 34.4412 38.719 34.4402 38.64C34.4347 38.5418 34.4809 38.4478 34.562 38.3922ZM38.3252 40.4502C38.5828 40.1797 38.82 39.8905 39.035 39.585C39.336 39.1101 39.5693 38.5956 39.728 38.0562C39.881 37.5785 39.9975 37.0899 40.0766 36.5946C40.1502 36.1447 40.1881 35.6897 40.19 35.2338C40.1952 34.7655 40.1502 34.298 40.0556 33.8394C39.9877 33.4983 39.8821 33.1659 39.7406 32.8482L39.9128 32.7936C40.5064 33.7911 40.8212 34.9298 40.8242 36.0906C40.8338 36.6947 40.7328 37.2954 40.526 37.863C40.0623 38.9313 39.3407 39.8679 38.426 40.5888L38.3252 40.4502ZM5.708 1.3902V2.1L2.4026 3.1206L5.708 4.1454V4.8594L1.5542 3.4608V2.7888L5.708 1.3902ZM5.708 5.6154H1.5542V4.9728H5.708V5.6154ZM8.8202 1.3902L12.9782 2.7888V3.4608L8.8202 4.8594V4.1454L12.1298 3.1206L8.8202 2.1V1.3902ZM12.9782 4.9728V5.6154H8.8202V4.9728H12.9782Z" fill="#231F20"/>
<path d="M20.2019 2.31422V2.97782H18.7151L18.2489 4.01522H20.2019V4.69562H17.9465L17.5265 5.64902H16.8251L17.2451 4.69562H16.0649V4.01522H17.5559L18.0179 2.97782H16.0649V2.31422H18.3161L18.7361 1.35242H19.4291L19.0091 2.31422H20.2019Z" fill="#231F20"/>
<path d="M0.340332 21H42.3613M21.7771 0V42V0Z" stroke="#231F20"/>
<path d="M9.19824 26.6154L33.1214 2.56622L9.19824 26.6154Z" fill="#231F20"/>
<path d="M9.19824 26.6154L33.1214 2.56622" stroke="#231F20" stroke-width="2" stroke-linecap="round" stroke-linejoin="round"/>
<path d="M29.3457 7.99258C30.248 7.99258 30.9795 7.2611 30.9795 6.35878C30.9795 5.45645 30.248 4.72498 29.3457 4.72498C28.4434 4.72498 27.7119 5.45645 27.7119 6.35878C27.7119 7.2611 28.4434 7.99258 29.3457 7.99258Z" fill="#231F20"/>
<path d="M14.8008 22.6002C15.7031 22.6002 16.4346 21.8687 16.4346 20.9664C16.4346 20.0641 15.7031 19.3326 14.8008 19.3326C13.8985 19.3326 13.167 20.0641 13.167 20.9664C13.167 21.8687 13.8985 22.6002 14.8008 22.6002Z" fill="#231F20"/>
<path d="M11.9072 39.48C11.9049 39.8641 11.5941 40.1749 11.21 40.1772H3.55335C3.17089 40.1726 2.86261 39.8624 2.86035 39.48V31.1052C2.86264 30.7234 3.17157 30.4145 3.55335 30.4122H11.21C11.5924 30.4144 11.9026 30.7227 11.9072 31.1052V39.48ZM11.21 31.4538C11.21 31.2612 11.0539 31.1052 10.8614 31.1052H3.90195C3.71037 31.1074 3.55562 31.2622 3.55335 31.4538V32.8482C3.55565 33.0391 3.71105 33.1926 3.90195 33.1926H10.8614C11.0523 33.1926 11.2077 33.0391 11.21 32.8482V31.4538ZM4.25055 33.8898C3.8655 33.8898 3.55335 34.2019 3.55335 34.587C3.55335 34.972 3.8655 35.2842 4.25055 35.2842C4.6356 35.2842 4.94775 34.972 4.94775 34.587C4.94775 34.2019 4.6356 33.8898 4.25055 33.8898ZM4.25055 35.9898C3.8655 35.9898 3.55335 36.3019 3.55335 36.687C3.55335 37.072 3.8655 37.3842 4.25055 37.3842C4.6356 37.3842 4.94775 37.072 4.94775 36.687C4.95113 36.4999 4.87917 36.3193 4.74806 36.1858C4.61694 36.0523 4.43766 35.9771 4.25055 35.9772V35.9898ZM4.25055 38.0898C3.8655 38.0898 3.55335 38.4019 3.55335 38.787C3.55335 39.172 3.8655 39.4842 4.25055 39.4842C4.6356 39.4842 4.94775 39.172 4.94775 38.787C4.9546 38.5977 4.88417 38.4139 4.75267 38.2776C4.62118 38.1414 4.43991 38.0644 4.25055 38.0646V38.0898ZM6.35055 33.915C5.9655 33.915 5.65335 34.2271 5.65335 34.6122C5.65335 34.9972 5.9655 35.3094 6.35055 35.3094C6.73561 35.3094 7.04775 34.9972 7.04775 34.6122C7.05471 34.4207 6.98259 34.2349 6.84833 34.0982C6.71406 33.9616 6.52949 33.8862 6.33795 33.8898L6.35055 33.915ZM6.35055 36.015C5.9655 36.015 5.65335 36.3271 5.65335 36.7122C5.65335 37.0972 5.9655 37.4094 6.35055 37.4094C6.73561 37.4094 7.04775 37.0972 7.04775 36.7122C7.0583 36.5186 6.98777 36.3294 6.8531 36.1899C6.71843 36.0505 6.53178 35.9734 6.33795 35.9772L6.35055 36.015ZM6.35055 38.115C5.9655 38.115 5.65335 38.4271 5.65335 38.8122C5.65335 39.1972 5.9655 39.5094 6.35055 39.5094C6.73561 39.5094 7.04775 39.1972 7.04775 38.8122C7.06198 38.6165 6.99309 38.4239 6.858 38.2816C6.72291 38.1393 6.53411 38.0605 6.33795 38.0646L6.35055 38.115ZM8.45055 33.9402C8.0655 33.9402 7.75335 34.2523 7.75335 34.6374C7.75335 35.0224 8.0655 35.3346 8.45055 35.3346C8.83561 35.3346 9.14775 35.0224 9.14775 34.6374C9.16363 34.4391 9.09354 34.2435 8.95532 34.1005C8.81709 33.9574 8.62406 33.8807 8.42535 33.8898L8.45055 33.9402ZM8.45055 36.0402C8.0655 36.0402 7.75335 36.3523 7.75335 36.7374C7.75335 37.1224 8.0655 37.4346 8.45055 37.4346C8.83561 37.4346 9.14775 37.1224 9.14775 36.7374C9.1675 36.537 9.09914 36.338 8.96045 36.192C8.82176 36.0461 8.62646 35.9677 8.42535 35.9772L8.45055 36.0402ZM8.45055 38.1402C8.16856 38.1402 7.91434 38.31 7.80642 38.5706C7.69851 38.8311 7.75816 39.131 7.95756 39.3304C8.15696 39.5298 8.45683 39.5894 8.71736 39.4815C8.97789 39.3736 9.14775 39.1194 9.14775 38.8374C9.17147 38.635 9.10489 38.4324 8.96572 38.2835C8.82655 38.1346 8.6289 38.0545 8.42535 38.0646L8.45055 38.1402ZM10.5506 33.9654C10.1655 33.9654 9.85335 34.2775 9.85335 34.6626C9.85335 35.0476 10.1655 35.3598 10.5506 35.3598C10.9356 35.3598 11.2478 35.0476 11.2478 34.6626C11.2725 34.4555 11.2027 34.2483 11.0577 34.0984C10.9127 33.9485 10.7079 33.8719 10.5002 33.8898L10.5506 33.9654ZM11.2478 36.75C11.2681 36.4887 11.1402 36.2382 10.9168 36.1013C10.6933 35.9645 10.412 35.9645 10.1885 36.1013C9.96509 36.2382 9.83723 36.4887 9.85755 36.75V38.85C9.83723 39.1112 9.96509 39.3618 10.1885 39.4986C10.412 39.6355 10.6933 39.6355 10.9168 39.4986C11.1402 39.3618 11.2681 39.1112 11.2478 38.85V36.75Z" fill="#231F20"/>
</g>
<defs>
<clipPath id="clip0">
<rect width="42" height="42" fill="white"/>
</clipPath>
</defs>
</svg>
