<svg width="42" height="42" viewBox="0 0 42 42" fill="none" xmlns="http://www.w3.org/2000/svg">
<path d="M20.2178 19.5922C20.0743 19.6252 19.9298 19.6533 19.7846 19.6765L19.7991 19.635C20.0104 19.1001 20.518 18.7409 21.0927 18.7194H22.3134C22.1027 18.8556 21.8844 18.979 21.6597 19.089H21.0717C20.7189 19.1093 20.4025 19.2997 20.2178 19.5922Z" fill="black"/>
<path d="M25.8093 18.7194H22.7269L23.0974 19.089H26.1789L25.8093 18.7194Z" fill="black"/>
<path d="M26.8005 19.089L26.4309 18.7194H37.0989C37.357 18.7069 37.6048 18.8214 37.7625 19.026C37.9051 19.2446 37.9317 19.5191 37.8339 19.761L33.8744 31.0433L33.3762 31.3661L37.4811 19.635C37.5473 19.5108 37.5382 19.36 37.4575 19.2448C37.3768 19.1295 37.2382 19.0693 37.0989 19.089H26.8005Z" fill="black"/>
<path d="M22.5291 19.089L22.5164 19.0764C22.5098 19.0806 22.5032 19.0848 22.4965 19.089H22.5291Z" fill="black"/>
<path d="M25.8032 22.3156C26.0302 22.468 26.2966 22.5555 26.573 22.5656H21.1389V22.3156H25.8032Z" fill="black"/>
<path d="M26.6929 22.5656C26.9756 22.5553 27.2437 22.4662 27.4709 22.3156H34.6461V22.5656H26.6929Z" fill="black"/>
<path fill-rule="evenodd" clip-rule="evenodd" d="M29.4213 41.0256H13.3983C13.1395 41.0371 12.8915 40.921 12.7347 40.7148C12.5908 40.4969 12.5625 40.2224 12.6591 39.9798L18.5467 23.2036C18.7171 23.1163 18.8798 23.0153 19.0332 22.9018L13.0203 40.1058C12.9638 40.2322 12.9733 40.3783 13.0455 40.4964C13.1327 40.6048 13.268 40.663 13.4067 40.6518H29.4213C29.8382 40.6278 30.2042 40.3664 30.3621 39.9798L31.9599 35.4137L30.0597 36.645L29.6775 36.6817V36.6944H29.5459L27.2205 36.918L27.3497 36.6944H16.1703V36.4444H27.4942L28.5149 34.6784H16.8801V34.4284H28.6523V34.4405L37.1954 28.8918L38.6025 31.1094L32.4527 35.0944L30.6939 40.1058C30.4861 40.6349 29.9889 40.9943 29.4213 41.0256ZM31.0802 35.3052L30.2865 34.0452L29.3498 34.65L28.9803 35.301L29.8539 35.217L29.4339 35.9814L30.1646 35.91L31.0802 35.3052ZM36.8342 29.8872C36.7845 29.8945 36.737 29.9132 36.6957 29.9418L31.1222 33.5496C31.0793 33.5756 31.0433 33.6116 31.0173 33.6546C30.9711 33.7344 31.0173 33.7806 31.0886 33.7722C31.14 33.7658 31.189 33.7471 31.2315 33.7176L36.7964 30.114C36.8397 30.0866 36.8757 30.0491 36.9015 30.0048C36.9603 29.9292 36.9141 29.8788 36.8259 29.8872H36.8342Z" fill="black"/>
<path d="M19.6198 20.146L18.7849 22.5249C18.9978 22.3675 19.1904 22.1827 19.3572 21.9748L20.0171 20.0866C19.8852 20.1103 19.7527 20.1302 19.6198 20.146Z" fill="black"/>
<path d="M33.9363 24.3316H20.4333V24.5816H33.9363V24.3316Z" fill="black"/>
<path d="M19.7193 26.3518H33.2265V26.6018H19.7193V26.3518Z" fill="black"/>
<path d="M32.5167 28.372H19.0137V28.622H32.5167V28.372Z" fill="black"/>
<path d="M18.2997 30.388H31.8069V30.638H18.2997V30.388Z" fill="black"/>
<path d="M31.0971 32.4082H17.5941V32.6582H31.0971V32.4082Z" fill="black"/>
<path d="M15.3355 38.5896C15.3355 38.5206 15.3915 38.4646 15.4605 38.4646H28.9677C29.0368 38.4646 29.0927 38.5206 29.0927 38.5896C29.0927 38.6586 29.0368 38.7146 28.9677 38.7146H15.4605C15.3915 38.7146 15.3355 38.6586 15.3355 38.5896Z" fill="black"/>
<path d="M40.9713 29.5764L39.266 30.681L37.8591 28.4634L39.539 27.3672C39.7613 27.2148 40.0157 27.1157 40.2825 27.0774C40.4648 27.0372 40.6543 27.102 40.7738 27.2454L41.5718 28.5054C41.6465 28.6771 41.6241 28.8755 41.513 29.0262C41.372 29.2476 41.1842 29.4354 40.9628 29.5764H40.9713Z" fill="black"/>
<path d="M11.8274 13.2468C11.8413 9.40941 14.9536 6.30461 18.791 6.30002C18.7938 6.30001 18.7966 6.30001 18.7994 6.30001C18.8026 6.30002 18.8059 6.3 18.8091 6.30001C19.4767 6.30084 20.1406 6.39883 20.78 6.59092C20.7834 6.59194 20.7868 6.59296 20.7902 6.59399C20.7902 6.59399 20.7902 6.59399 20.7902 6.59399L21.5294 4.15802C21.7378 3.54139 21.6428 2.86258 21.2732 2.32682C20.8992 1.81998 20.3029 1.52571 19.673 1.53722H8.96305C8.71973 1.5526 8.47887 1.59486 8.24485 1.66322V1.62122C6.92163 1.23332 6.52337 2.20374 6.1616 3.08524C6.03765 3.38727 5.91797 3.67887 5.76685 3.90182C5.68691 4.0158 5.5934 4.12457 5.50344 4.22922C5.33815 4.42149 5.1848 4.59988 5.14945 4.77122C5.12001 4.91386 5.15039 5.04674 5.18003 5.17643C5.20538 5.28732 5.2302 5.39588 5.21665 5.50622C5.04915 6.40806 4.71592 7.27104 4.23385 8.05142C4.15331 8.15722 4.0597 8.24284 3.96889 8.32591C3.81818 8.46377 3.67514 8.59459 3.61225 8.79902C3.5653 8.92341 3.58919 9.08059 3.61427 9.24565C3.63407 9.37595 3.65462 9.51116 3.64165 9.63902C3.4666 10.5377 3.14899 11.4026 2.70085 12.201C2.64418 12.301 2.56636 12.3924 2.48916 12.4831C2.37179 12.6209 2.25585 12.7571 2.21785 12.9192C2.18701 13.0508 2.20347 13.1844 2.21994 13.318C2.23711 13.4574 2.25429 13.5968 2.21785 13.734C1.99031 14.6379 1.63535 15.5047 1.16365 16.3086C1.08188 16.449 0.989905 16.5701 0.903555 16.6839C0.754836 16.8797 0.622789 17.0536 0.588245 17.2662C0.573461 17.3507 0.597973 17.4394 0.624396 17.5351C0.650519 17.6296 0.678509 17.731 0.672245 17.8416C0.672245 18.0652 0.641399 18.2634 0.611907 18.4529C0.596531 18.5517 0.58152 18.6482 0.571445 18.7446C0.373465 19.3249 0.383861 19.9561 0.600845 20.5296C1.12165 21.9954 2.65884 23.1336 4.09105 23.1336H4.38925V21.336H4.10785C3.33084 21.336 2.36065 21.168 2.07925 20.3532C1.96585 20.0424 1.98265 19.9332 2.07925 19.7484C2.21667 19.5995 2.4149 19.5221 2.61685 19.5384H14.8598C15.141 19.541 15.4218 19.5213 15.6998 19.4796C13.3262 18.3104 11.8242 15.8928 11.8274 13.2468Z" fill="black"/>
<path d="M23.726 8.35801L23.7512 8.26141C23.9493 7.64992 23.8564 6.98137 23.4992 6.44701C23.2817 6.17035 22.9905 5.96071 22.6592 5.84221V6.04801C22.6759 6.27372 22.6561 6.50064 22.6004 6.72001L22.4198 7.31221L22.529 7.37521C22.9629 7.65781 23.3643 7.98741 23.726 8.35801Z" fill="black"/>
<path d="M4.70835 24.7212L4.99395 24.5784L5.93895 24.0912L6.88395 24.5742L7.16955 24.7212V23.5872H7.06885V20.9454H7.16955V20.7942H4.70835V24.7212Z" fill="black"/>
<path d="M20.1602 20.0592L19.883 21C19.4855 22.2245 18.3679 23.0722 17.0816 23.1252H7.48885V21.336H17.0942C17.5071 21.3385 17.9025 21.1697 18.1862 20.8698C18.2751 20.7738 18.3412 20.6589 18.3794 20.5338L18.4844 20.1936H18.791C19.2508 20.1955 19.7096 20.1505 20.1602 20.0592Z" fill="black"/>
<path d="M21.4623 10.4538L19.4421 17.0604C19.9579 16.9741 20.4508 16.7841 20.8911 16.5018C21.0567 16.3918 21.2139 16.2697 21.3615 16.1364L22.5375 12.264C22.4884 12.072 22.4252 11.8839 22.3485 11.7012C22.1375 11.2314 21.8364 10.8076 21.4623 10.4538Z" fill="black"/>
<path d="M19.8957 9.53402C19.5375 9.4254 19.1653 9.3702 18.7911 9.37022C16.8716 9.36613 15.2382 10.7673 14.9501 12.665C14.662 14.5627 15.8061 16.3855 17.6403 16.9512V16.8924L19.8957 9.53402Z" fill="black"/>
<path fill-rule="evenodd" clip-rule="evenodd" d="M25.3052 13.2468C25.3029 9.64801 22.3898 6.72924 18.791 6.71999V6.73679C15.1957 6.68924 12.2425 9.56531 12.1949 13.1607C12.1474 16.7561 15.0235 19.7092 18.6188 19.7568H18.791C19.3064 19.755 19.8196 19.6916 20.3198 19.5678C21.0947 19.3856 21.8285 19.0593 22.4828 18.606L22.5626 18.5556L25.8554 21.84C26.0567 22.0487 26.3341 22.1669 26.624 22.1676C27.0632 22.1664 27.459 21.9023 27.6285 21.4972C27.7981 21.0921 27.7085 20.6248 27.401 20.3112L24.104 17.0142L24.1586 16.9386C24.9092 15.8541 25.3094 14.5657 25.3052 13.2468ZM19.295 17.5476C19.1279 17.5694 18.9596 17.5806 18.791 17.5812V17.577C16.3995 17.577 14.4608 15.6383 14.4608 13.2468C14.4608 10.8553 16.3995 8.91659 18.791 8.91659C19.2105 8.91829 19.6276 8.97909 20.03 9.09719C20.6115 9.27322 21.1495 9.56942 21.6092 9.96659C22.1047 10.3925 22.4992 10.9234 22.7642 11.5206C23.61 13.4674 22.92 15.7402 21.1346 16.8882C20.5804 17.2466 19.9508 17.4723 19.295 17.5476Z" fill="black"/>
</svg>
