<svg width="42" height="42" viewBox="0 0 42 42" fill="none" xmlns="http://www.w3.org/2000/svg">
<g clip-path="url(#clip0)">
<path d="M3.06592 36.8383C3.06592 21.3235 14.5739 14.1583 33.9821 15.4729" stroke="#231F20" stroke-width="2" stroke-linecap="round" stroke-linejoin="round"/>
<path d="M32.8564 16.8715L38.4298 15.9013L33.1168 13.9567L32.8564 16.8715Z" fill="#231F20"/>
<path d="M12.1379 30.0552C12.0653 30.153 11.9487 30.2081 11.8271 30.2022C11.7204 30.2051 11.6172 30.1641 11.5415 30.0888C11.4691 30.0234 11.4279 29.9303 11.4281 29.8326C11.442 29.7089 11.4761 29.5884 11.5289 29.4756C11.5257 29.4282 11.5009 29.3849 11.4617 29.358C11.4206 29.3272 11.3703 29.3109 11.3189 29.3118C11.0669 29.3118 10.8527 29.5848 10.6805 30.1518C10.5401 30.6781 10.4321 31.2125 10.3571 31.752H11.4953L11.4239 32.0964H10.2605L9.2861 35.427C9.12865 36.1819 8.84465 36.9047 8.4461 37.5648C8.18287 38.0435 7.68595 38.3471 7.1399 38.3628C6.91966 38.3732 6.70317 38.3031 6.5309 38.1654C6.38719 38.0615 6.29898 37.8975 6.2915 37.7202C6.29238 37.6165 6.32786 37.516 6.3923 37.4346C6.46411 37.3447 6.5757 37.2959 6.6905 37.3044C6.79951 37.3027 6.90494 37.3433 6.9845 37.4178C7.06193 37.4907 7.10469 37.593 7.1021 37.6992C7.10041 37.7653 7.08314 37.8301 7.0517 37.8882C7.02376 37.9269 7.00507 37.9714 6.9971 38.0184C6.9971 38.0478 7.0181 38.073 7.0559 38.094C7.10304 38.1164 7.15504 38.1265 7.2071 38.1234C7.4969 38.1234 7.7405 37.8966 7.9421 37.4388C8.07184 37.1219 8.16894 36.7926 8.2319 36.456L9.4457 32.0796H8.4797L8.5511 31.7352H9.5423C9.66231 31.1208 9.87322 30.5277 10.1681 29.9754C10.3935 29.4724 10.8781 29.1348 11.4281 29.0976C11.6393 29.0882 11.8462 29.1587 12.0077 29.295C12.1502 29.4047 12.2352 29.5731 12.2387 29.7528C12.2417 29.8624 12.206 29.9694 12.1379 30.0552ZM14.5403 29.3538C14.2564 29.6464 13.9978 29.9625 13.7675 30.2988C13.404 30.8508 13.1211 31.4519 12.9275 32.0838C12.7424 32.6487 12.6019 33.2273 12.5075 33.8142C12.4364 34.2673 12.3971 34.7249 12.3899 35.1834C12.3831 35.6543 12.4154 36.1249 12.4865 36.5904C12.5816 37.079 12.715 37.5593 12.8855 38.0268L12.7091 38.0898C12.0254 36.9477 11.6654 35.641 11.6675 34.3098C11.6546 33.5552 11.7976 32.8059 12.0875 32.109C12.6337 30.9734 13.4205 29.9702 14.3933 29.169L14.5403 29.3538ZM13.5197 35.5572C13.6265 35.4766 13.7653 35.4516 13.8935 35.49C13.9395 35.5033 13.9833 35.5231 14.0237 35.5488L14.2043 35.6454L14.2715 35.6748H14.3471C14.4185 35.6793 14.4889 35.6568 14.5445 35.6118C14.6713 35.471 14.7892 35.3223 14.8973 35.1666C15.0233 34.9986 15.3033 34.5912 15.7373 33.9444C15.7373 33.9444 15.6995 33.7386 15.6197 33.3984C15.5399 33.0582 15.4727 32.7642 15.4055 32.529C15.3708 32.3622 15.3129 32.201 15.2333 32.0502C15.1638 31.9661 15.056 31.9233 14.9477 31.9368C14.8525 31.9448 14.7583 31.9616 14.6663 31.9872C14.5781 31.9872 14.4815 32.0292 14.3807 32.0586L14.3513 31.92L14.9183 31.7268C15.0653 31.6764 15.1997 31.6344 15.3383 31.605C15.4426 31.5773 15.5497 31.5618 15.6575 31.5588C15.7775 31.55 15.8951 31.5964 15.9767 31.6848C16.1255 31.9308 16.2201 32.2058 16.2539 32.4912L16.3589 33.075C16.5758 32.73 16.8143 32.3989 17.0729 32.0838C17.1943 31.9362 17.3356 31.8061 17.4929 31.6974C17.6071 31.6189 17.7409 31.5738 17.8793 31.5672C17.9759 31.565 18.0719 31.5836 18.1607 31.6218C18.292 31.6837 18.3695 31.822 18.3539 31.9662C18.3592 32.0665 18.3245 32.1647 18.2573 32.2392C18.1897 32.304 18.0989 32.3388 18.0053 32.3358C17.9704 32.3402 17.9352 32.3402 17.9003 32.3358L17.7911 32.298L17.6609 32.2392L17.5517 32.1972C17.5267 32.193 17.5011 32.193 17.4761 32.1972C17.3207 32.1972 17.1107 32.3946 16.8377 32.7894C16.6645 32.997 16.5229 33.2292 16.4177 33.4782C16.4374 33.6453 16.4683 33.8109 16.5101 33.9738C16.5731 34.2552 16.6445 34.5492 16.7201 34.8642C16.761 35.0729 16.8186 35.278 16.8923 35.4774C16.9721 35.6622 17.0561 35.7504 17.1569 35.7504C17.267 35.7391 17.3681 35.6847 17.4383 35.5992C17.5882 35.4236 17.7284 35.2399 17.8583 35.049L18.0011 35.133C17.8716 35.3736 17.7198 35.6014 17.5475 35.8134C17.3569 36.1027 17.0507 36.2956 16.7075 36.3426C16.5322 36.3495 16.3686 36.2546 16.2875 36.099C16.21 35.9508 16.1534 35.7925 16.1195 35.6286L15.8045 34.3686L14.7923 35.7C14.6518 35.8763 14.4927 36.0368 14.3177 36.1788C14.1958 36.2663 14.0475 36.3093 13.8977 36.3006C13.7318 36.3132 13.5717 36.2364 13.4777 36.099C13.4305 36.0221 13.4072 35.933 13.4105 35.8428C13.3952 35.7352 13.4364 35.6272 13.5197 35.5572ZM17.8121 37.905C18.1066 37.5953 18.3775 37.264 18.6227 36.9138C18.9666 36.3744 19.2324 35.789 19.4123 35.175C19.5952 34.6267 19.7356 34.065 19.8323 33.495C19.9141 32.981 19.9563 32.4615 19.9583 31.941C19.9639 31.4068 19.9146 30.8734 19.8113 30.3492C19.7326 29.9619 19.6115 29.5845 19.4501 29.2236L19.6433 29.1606C19.9773 29.7125 20.2345 30.3074 20.4077 30.9288C20.5912 31.5751 20.6845 32.2436 20.6849 32.9154C20.6976 33.6058 20.5807 34.2925 20.3405 34.9398C19.8189 36.1586 19.0019 37.2282 17.9633 38.052L17.8121 37.905Z" fill="#231F20"/>
<path d="M41.3278 41.3239H0.512207V0.987061" stroke="#231F20" stroke-width="1.5" stroke-linecap="round" stroke-linejoin="round"/>
</g>
<defs>
<clipPath id="clip0">
<rect width="42" height="42" fill="white"/>
</clipPath>
</defs>
</svg>
