<svg width="42" height="42" viewBox="0 0 42 42" fill="none" xmlns="http://www.w3.org/2000/svg">
<path d="M31.1221 32.5752L32.2813 34.3224C32.5795 34.776 32.8357 35.196 33.1213 35.6496H33.1717C33.4405 35.1624 33.7093 34.7466 33.9781 34.3056L35.1205 32.5752H36.7165L33.9445 36.5106L36.8005 40.7106H35.1205L33.9277 38.8794C33.6085 38.409 33.3397 37.9554 33.0541 37.4682H33.0205C32.7517 37.9554 32.4661 38.3922 32.1805 38.8794L31.0045 40.7106H29.3371L32.2309 36.54L29.4757 32.5584L31.1221 32.5752ZM36.7963 34.9356L37.6363 34.1334C38.7661 33.117 39.3499 32.4534 39.3499 31.7814C39.3604 31.5111 39.252 31.2498 39.0532 31.0664C38.8544 30.883 38.5853 30.7959 38.3167 30.828C37.9024 30.8502 37.5043 30.9965 37.1743 31.248L36.9055 30.66C37.378 30.288 37.9631 30.088 38.5645 30.093C39.8245 30.093 40.3705 30.891 40.3705 31.626C40.3705 32.6466 39.5977 33.3942 38.5645 34.3056L38.1445 34.6878V34.713H40.4713V35.4606H36.7963V34.9356Z" fill="#231F20"/>
<path d="M41.8374 15.9714L0.169434 16.1023L0.173445 17.3791L41.8414 17.2482L41.8374 15.9714Z" fill="#231F20"/>
<path d="M21.4744 1.26422H20.1934V31.7352H21.4744V1.26422Z" fill="#231F20"/>
<path d="M10.5333 18.0604C11.2825 18.0581 11.888 17.4507 11.8856 16.7038C11.8833 15.9569 11.274 15.3533 10.5248 15.3557C9.77556 15.358 9.1701 15.9654 9.17244 16.7123C9.17479 17.4592 9.78406 18.0628 10.5333 18.0604Z" fill="#231F20"/>
<path d="M30.9911 17.992C31.7403 17.9896 32.3458 17.3822 32.3434 16.6353C32.3411 15.8884 31.7318 15.2848 30.9826 15.2872C30.2333 15.2895 29.6279 15.8969 29.6302 16.6438C29.6326 17.3907 30.2418 17.9943 30.9911 17.992Z" fill="#231F20"/>
<path d="M31.5209 27.6528C31.2889 27.6528 31.1009 27.4648 31.1009 27.2328C31.0799 16.1448 29.9627 10.1892 27.8333 9.52143C25.7039 8.85363 22.4741 13.4946 19.5929 17.5812C16.7117 21.6678 14.1833 25.242 12.2555 24.6414C10.7813 24.1794 10.1177 21.4788 10.0967 15.8802L10.0799 7.98003C10.0799 7.74807 10.2679 7.56003 10.4999 7.56003C10.7318 7.56003 10.9199 7.74807 10.9199 7.98003L10.9451 15.876C10.9661 22.3776 11.9321 23.6502 12.5033 23.8308C13.8347 24.2508 16.5185 20.4456 18.8831 17.1108C22.0835 12.5748 25.3931 7.87083 28.0811 8.71083C29.7233 9.24003 31.9199 11.697 31.9493 27.2244C31.9516 27.3387 31.9072 27.449 31.8264 27.5299C31.7455 27.6107 31.6352 27.6551 31.5209 27.6528Z" fill="#231F20"/>
</svg>
