<svg width="42" height="42" viewBox="0 0 42 42" fill="none" xmlns="http://www.w3.org/2000/svg">
<path d="M29.9333 24.381C28.4591 26.0064 26.5145 28.2954 26.3423 30.5844C26.9618 30.9529 27.3427 31.6192 27.3461 32.34C27.3473 32.8473 27.1568 33.3364 26.8127 33.7092C27.1572 34.0801 27.3479 34.568 27.3461 35.0742C27.3444 35.7792 26.9813 36.434 26.3843 36.8088C26.559 37.1105 26.6543 37.4515 26.6615 37.8C26.6615 39.1902 25.5695 39.8538 24.3347 39.8538C23.7889 41.1073 22.5519 41.918 21.1847 41.918C19.8175 41.918 18.5804 41.1073 18.0347 39.8538C16.7957 39.8538 15.7037 39.1902 15.7037 37.8C15.7103 37.4474 15.8057 37.1022 15.9809 36.7962C15.3856 36.4197 15.0231 35.7659 15.0191 35.0616C15.0173 34.5554 15.2079 34.0675 15.5525 33.6966C15.2159 33.3251 15.0302 32.8413 15.0317 32.34C15.0365 31.6196 15.4192 30.9547 16.0397 30.5886C15.8675 28.2996 13.9397 26.0106 12.4445 24.3852C10.9991 22.8311 10.2106 20.7785 10.2437 18.6564C10.2437 12.8436 15.7793 9.08041 21.1889 9.08041C26.5985 9.08041 32.1341 12.8604 32.1341 18.6564C32.1661 20.777 31.3776 22.828 29.9333 24.381ZM21.1889 11.8104C17.3207 11.8104 12.9821 14.3766 12.9821 18.6522C13.0058 20.0656 13.5194 21.4269 14.4353 22.5036C14.8553 22.974 15.3089 23.4234 15.7373 23.9106C17.2577 25.7292 18.5387 27.867 18.7529 30.282H23.6249C23.8391 27.867 25.1243 25.7292 26.6405 23.9106C27.0605 23.4234 27.5393 22.974 27.9467 22.5036C28.861 21.426 29.3744 20.0652 29.3999 18.6522C29.3999 14.3766 25.0571 11.8104 21.1889 11.8104ZM25.2923 19.32C24.9196 19.309 24.6206 19.0082 24.6119 18.6354C24.6119 17.1612 22.3229 16.5816 21.1889 16.5816C20.9323 16.6018 20.686 16.4763 20.5516 16.2568C20.4171 16.0373 20.4171 15.7609 20.5516 15.5414C20.686 15.322 20.9323 15.1965 21.1889 15.2166C23.1797 15.2166 25.9769 16.2624 25.9769 18.6354C25.968 19.0098 25.6666 19.3112 25.2923 19.32Z" fill="#231F20"/>
<path d="M11.172 10.3782L7.18202 6.38821M21.1176 0.688812V6.32941V0.688812ZM40.7904 16.8756H35.1498H40.7904ZM35.0532 6.38821L31.0632 10.3782L35.0532 6.38821ZM7.08542 16.8756H1.44482H7.08542Z" stroke="#231F20"/>
</svg>
