<svg width="42" height="42" viewBox="0 0 42 42" fill="none" xmlns="http://www.w3.org/2000/svg">
<path d="M9.05545 15.96C9.66433 16.0247 10.2626 16.1658 10.8363 16.38C10.4535 16.4466 10.0656 16.479 9.67705 16.4766C8.89585 16.4766 8.51365 16.3296 8.53045 16.1826C8.54725 16.0356 8.71945 15.96 9.05545 15.96Z" fill="#231F20"/>
<path d="M16.1871 11.676C16.2459 11.676 16.2711 11.7012 16.2711 11.76C16.1135 12.1179 15.8748 12.4343 15.5739 12.684C15.1533 13.1257 14.6967 13.5317 14.2089 13.8978C14.5229 13.3053 14.9049 12.7514 15.3471 12.2472C15.7209 11.865 15.9981 11.676 16.1871 11.676Z" fill="#231F20"/>
<path d="M18.6819 14.5194C18.7701 14.5194 18.8037 14.5614 18.8037 14.6412C18.7869 14.7924 18.6441 14.952 18.3753 15.12C18.0742 15.301 17.7469 15.4342 17.4051 15.5148C17.616 15.25 17.8555 15.0091 18.1191 14.7966C18.2749 14.6503 18.4709 14.5538 18.6819 14.5194Z" fill="#231F20"/>
<path d="M22.7769 14.5152C22.8903 14.5152 22.9323 14.574 22.9323 14.7C22.8003 15.0681 22.5863 15.4013 22.3065 15.6744C21.8151 16.2498 21.4539 16.5396 21.3069 16.5396C21.1599 16.5396 21.1095 16.4598 21.1095 16.296C21.2205 15.8702 21.4559 15.487 21.7857 15.1956C22.2141 14.742 22.5417 14.5152 22.7769 14.5152Z" fill="#231F20"/>
<path d="M31.4038 14.5194C31.492 14.5194 31.5256 14.5614 31.5256 14.6412C31.5004 14.7924 31.366 14.952 31.0804 15.12C30.7845 15.2994 30.463 15.4325 30.127 15.5148C30.338 15.25 30.5774 15.0091 30.841 14.7966C30.9969 14.6503 31.1928 14.5538 31.4038 14.5194Z" fill="#231F20"/>
<path fill-rule="evenodd" clip-rule="evenodd" d="M3.07852 33.9486C3.58252 35.3976 5.31292 35.7 6.69052 35.7H7.21132V38.8836H6.68632C4.12852 38.8836 1.39852 36.8718 0.470322 34.2636C0.0768234 33.2419 0.058962 32.1136 0.419922 31.08C0.432918 30.8646 0.459867 30.646 0.48807 30.4171C0.523667 30.1283 0.561262 29.8233 0.575322 29.4882C0.587962 29.2881 0.537202 29.1059 0.489823 28.9359C0.442743 28.7669 0.399002 28.6099 0.424122 28.4592C0.490538 28.0635 0.731996 27.7443 1.00914 27.378C1.15261 27.1884 1.30565 26.9861 1.44892 26.754C2.29198 25.3199 2.9296 23.7747 3.34312 22.1634C3.40747 21.9188 3.37651 21.6634 3.34592 21.4109C3.31661 21.169 3.28764 20.93 3.34312 20.706C3.41031 20.4348 3.60576 20.2004 3.80545 19.9609C3.94279 19.7962 4.08214 19.6291 4.18312 19.446C4.85932 18.291 5.73712 16.0608 5.86312 14.8848C5.88524 14.6544 5.84911 14.4134 5.81438 14.1818C5.76999 13.8858 5.72789 13.6051 5.81272 13.3812C5.91952 13.0217 6.17334 12.7899 6.4399 12.5464C6.60314 12.3973 6.77116 12.2438 6.91312 12.054C7.77595 10.6631 8.37136 9.12331 8.66872 7.51379C8.69183 7.31931 8.64784 7.13012 8.60273 6.93611C8.54945 6.70696 8.49461 6.47107 8.54692 6.21179C8.60914 5.90342 8.88214 5.58635 9.17521 5.24598C9.33718 5.05785 9.50529 4.86261 9.64732 4.65779C9.92453 4.25389 10.142 3.72659 10.3666 3.18185C11.0134 1.61371 11.7197 -0.0990014 14.0825 0.571188L14.0573 0.646788C14.4743 0.522579 14.9041 0.446484 15.3383 0.419988H34.4105C35.5318 0.396438 36.5955 0.915755 37.2665 1.81439C37.921 2.7709 38.089 3.97904 37.7201 5.07779L30.8531 27.7788C29.6729 31.6512 29.0219 32.4912 25.8383 32.4912H4.05712C3.69803 32.4634 3.34621 32.6029 3.10372 32.8692C2.90632 33.1674 2.88112 33.3942 3.07852 33.9486ZM15.5697 12.789C16.0611 12.2808 16.3341 11.9364 16.3341 11.76C16.3425 11.655 16.2963 11.6088 16.1913 11.6088C15.9603 11.6088 15.5403 11.8524 15.0153 12.3942C14.7675 12.6273 14.5359 12.8771 14.3223 13.1418C14.1165 13.398 13.7805 13.86 13.3143 14.5194C12.916 14.8451 12.4837 15.1267 12.0249 15.3594C11.7094 15.5138 11.3638 15.5969 11.0127 15.603C10.6915 15.6246 10.3747 15.519 10.1307 15.309C9.92351 15.0988 9.82978 14.802 9.87865 14.511C9.98584 13.6964 10.3878 12.9493 11.0085 12.411C11.5273 11.8194 12.2602 11.4583 13.0455 11.4072C13.2921 11.3951 13.5326 11.4864 13.7091 11.6592C13.8746 11.8295 13.9521 12.0667 13.9191 12.3018C13.8161 12.8928 13.5208 13.4332 13.0791 13.839C12.5499 14.3808 12.0753 14.6496 11.6553 14.6496C11.5005 14.6535 11.3502 14.5979 11.2353 14.4942C11.1171 14.3891 11.0628 14.2296 11.0925 14.0742C11.1051 13.9188 11.1975 13.839 11.1975 13.839C11.1975 13.839 11.2143 13.8348 11.1975 13.9482C11.1807 14.0616 11.2353 14.1204 11.3613 14.1204C11.4425 14.1175 11.5194 14.0828 11.5755 14.0238C11.6395 13.9662 11.6799 13.8869 11.6889 13.8012C11.7057 13.65 11.6343 13.5744 11.4747 13.5744C11.3519 13.5744 11.2353 13.6281 11.1555 13.7214C11.0628 13.8168 11.0064 13.9416 10.9959 14.0742C10.9715 14.2391 11.0296 14.4055 11.1513 14.5194C11.278 14.6422 11.4496 14.7075 11.6259 14.7C12.2177 14.6311 12.7574 14.3287 13.1253 13.86C13.6042 13.4481 13.9249 12.8823 14.0325 12.2598C14.0748 12.0036 13.9884 11.7429 13.8015 11.5626C13.5829 11.3814 13.3037 11.2898 13.0203 11.3064C12.2009 11.3317 11.4199 11.6593 10.8279 12.2262C10.198 12.6937 9.77829 13.3911 9.66025 14.1666C9.60861 14.5451 9.72525 14.9273 9.97945 15.2124C10.2506 15.4871 10.6274 15.6311 11.0127 15.6072C11.6735 15.6072 12.4155 15.2796 13.2387 14.6244C12.9601 15.0031 12.6496 15.3572 12.3105 15.6828C12.0781 15.8916 11.8089 16.0554 11.5167 16.1658C10.8338 15.9613 10.1286 15.84 9.41665 15.8046C8.80345 15.8046 8.49265 15.9054 8.46745 16.1448C8.44225 16.3842 8.83285 16.506 9.63085 16.506C10.0763 16.5067 10.5207 16.4646 10.9581 16.38C11.4305 16.5455 11.9113 16.6857 12.3987 16.8C12.7271 16.8711 13.0622 16.9077 13.3983 16.9092C13.7874 16.9313 14.1748 16.8425 14.5155 16.653C14.6182 16.5865 14.6884 16.5331 14.7196 16.4927C14.9308 16.356 15.1941 16.101 15.5085 15.7287C15.4289 15.862 15.3727 16.0084 15.343 16.1616C15.3286 16.2762 15.362 16.3916 15.4354 16.4808C15.5057 16.5655 15.6109 16.6134 15.721 16.611C15.9596 16.611 16.3776 16.2814 16.8752 15.6222C16.8206 15.7308 16.787 15.8432 16.7751 15.96C16.7602 16.1262 16.8132 16.2913 16.9221 16.4178C17.0262 16.5417 17.1802 16.6126 17.3421 16.611C17.7201 16.611 18.2073 16.2876 18.7953 15.645L18.9801 15.4392L19.0221 15.3883V15.4098C19.0389 15.4098 19.0599 15.393 19.0893 15.3594C19.5093 14.8134 19.7823 14.5446 19.9293 14.5446C20.0049 14.5446 20.0049 14.5782 20.0049 14.6496C19.8706 14.9899 19.6819 15.3062 19.4463 15.5862L18.7197 16.59H19.1901C19.4799 16.17 19.6815 15.8844 19.7949 15.75C19.8345 15.7022 19.8754 15.6555 19.9176 15.6101C20.0097 15.5195 20.1062 15.4335 20.2068 15.3524C20.1785 15.4325 20.1573 15.5149 20.1435 15.5988C20.1225 15.8214 20.2107 15.9306 20.4039 15.9306C20.4154 15.9292 20.4269 15.9276 20.4383 15.9258C20.4448 15.9262 20.4516 15.9264 20.4585 15.9264C20.5316 15.9264 20.6259 15.892 20.7333 15.8233C20.8173 15.7763 20.8939 15.7157 20.9595 15.6433C20.9685 15.6347 20.9776 15.626 20.9868 15.6171C20.9191 15.7467 20.8791 15.8807 20.8659 16.0188C20.8462 16.1659 20.8805 16.3151 20.9625 16.4388C21.0328 16.5487 21.1554 16.614 21.2859 16.611C21.4432 16.6006 21.5919 16.5352 21.7059 16.4262C21.9417 16.2046 22.1594 15.9644 22.3569 15.708C22.2692 15.8421 22.2132 15.9943 22.1931 16.1532C22.1762 16.2686 22.2048 16.3861 22.2729 16.4808C22.3377 16.5656 22.4393 16.614 22.5459 16.611C22.7223 16.611 22.9743 16.4304 23.3103 16.0734C23.3883 16.0014 23.4635 15.9264 23.5356 15.8488C23.491 15.9467 23.4589 16.0504 23.4404 16.1574C23.4249 16.2714 23.4568 16.3868 23.5286 16.4766C23.599 16.5613 23.7042 16.6092 23.8142 16.6068C24.0406 16.6068 24.3976 16.3203 24.8817 15.7506C24.8057 15.8734 24.754 16.0101 24.7299 16.1532C24.7132 16.2666 24.7435 16.3819 24.8139 16.4724C24.88 16.5556 24.9807 16.6036 25.0869 16.6026C25.2225 16.5889 25.3488 16.528 25.4439 16.4304C25.6468 16.2439 25.8376 16.0447 26.0151 15.834L26.1033 15.7332C26.0081 15.8563 25.9433 16.0003 25.9143 16.1532C25.8997 16.2678 25.9298 16.3836 25.9983 16.4766C26.0626 16.5624 26.1641 16.6123 26.2713 16.611C26.4519 16.611 26.7123 16.4304 27.0525 16.0734C27.2709 15.8727 27.466 15.6481 27.6341 15.404C27.6347 15.406 27.6354 15.4079 27.6363 15.4098C27.6531 15.4098 27.6741 15.393 27.7035 15.3594C28.1235 14.8134 28.4007 14.5446 28.5435 14.5446C28.6233 14.5446 28.6233 14.5782 28.6233 14.6496C28.489 14.9899 28.3003 15.3062 28.0647 15.5862L27.3381 16.59H27.8085C28.0983 16.17 28.2957 15.8844 28.4133 15.75C28.5397 15.597 28.6803 15.4564 28.8333 15.33C28.8009 15.4171 28.777 15.5071 28.7619 15.5988C28.7409 15.8214 28.8291 15.9306 29.0223 15.9306C29.2447 15.9037 29.4488 15.7945 29.5943 15.6246C29.5429 15.7329 29.5119 15.8447 29.5012 15.96C29.4843 16.1264 29.5376 16.2923 29.6482 16.4178C29.7527 16.5412 29.9065 16.612 30.0682 16.611C30.4462 16.611 30.9292 16.2876 31.5172 15.645L31.702 15.4392L31.7818 15.3426C31.7776 15.3366 31.7711 15.3327 31.7638 15.3319C31.7566 15.3311 31.7493 15.3335 31.744 15.3384C31.723 15.3384 31.6936 15.3594 31.66 15.4014C31.002 16.177 30.4714 16.5648 30.0682 16.5648C29.8288 16.5648 29.7196 16.4556 29.7406 16.2414C29.7893 15.9998 29.9009 15.7752 30.064 15.5904C30.489 15.5239 30.9038 15.4039 31.2988 15.2334C31.5676 15.1074 31.7188 14.952 31.7188 14.7714C31.7284 14.6971 31.7 14.6229 31.6432 14.574C31.5793 14.5182 31.497 14.4883 31.4122 14.49C31.1157 14.519 30.8291 14.6122 30.5722 14.763C30.172 14.9681 29.8835 15.1926 29.7068 15.4364C29.4423 15.7379 29.1964 15.8886 29.0433 15.8886C28.8837 15.8886 28.8333 15.7794 28.8333 15.5694C28.845 15.4707 28.8719 15.3743 28.9131 15.2838L28.9635 15.246L29.2281 15.0906C29.6061 14.868 29.8077 14.6454 29.8119 14.574C29.8161 14.5026 29.7825 14.469 29.7027 14.469C29.5396 14.4903 29.39 14.571 29.2827 14.6958C29.1141 14.8603 28.9724 15.0502 28.8627 15.2586C28.7139 15.3729 28.5736 15.4979 28.4427 15.6324C28.6346 15.4115 28.7676 15.1457 28.8291 14.8596C28.8543 14.5992 28.6905 14.469 28.5603 14.469C28.4301 14.469 28.1403 14.7294 27.7119 15.2838L27.6773 15.3281C27.6746 15.3154 27.6673 15.3048 27.6573 15.3048C27.6447 15.3048 27.6153 15.3174 27.6153 15.3426L27.5397 15.4266L27.4011 15.5904C26.8803 16.2246 26.5191 16.5438 26.3175 16.5438C26.2125 16.5438 26.1747 16.4892 26.1747 16.38C26.2898 16.0575 26.4604 15.7576 26.6787 15.4938L27.3885 14.511C27.2968 14.5254 27.2042 14.5338 27.1113 14.5362C27.0462 14.5345 26.9815 14.5261 26.9181 14.511L26.4981 15.1368C25.8401 16.086 25.3809 16.5606 25.1205 16.5606C25.0239 16.5606 24.9945 16.506 24.9945 16.3926C25.0135 16.239 25.0745 16.0937 25.1709 15.9726L26.2209 14.4942C26.1346 14.5074 26.0477 14.5158 25.9605 14.5194C25.8927 14.5173 25.8252 14.5089 25.7589 14.4942L25.1854 15.3156C25.1759 15.3218 25.1655 15.3321 25.154 15.3468C24.524 16.149 24.0956 16.548 23.8646 16.548C23.7428 16.548 23.7008 16.4934 23.7008 16.38C23.7307 16.2258 23.7986 16.0814 23.8982 15.96L24.8894 14.5278H25.3892L25.427 14.469L24.923 14.4648L25.4354 13.734C25.3614 13.7536 25.2852 13.7634 25.2086 13.7634C25.1362 13.7634 25.0642 13.7535 24.9944 13.734L24.4778 14.4648H24.0956L24.0494 14.5236H24.44L23.6966 15.5862C23.6822 15.6043 23.6684 15.6227 23.655 15.6415C23.4817 15.8438 23.298 16.0371 23.1045 16.2204C22.8567 16.4514 22.6803 16.5648 22.5795 16.5648C22.4787 16.5648 22.4493 16.506 22.4493 16.3884C22.5379 16.1073 22.6806 15.8462 22.8693 15.6198L23.6505 14.5152C23.5616 14.5301 23.4718 14.5385 23.3817 14.5404C23.3138 14.5393 23.2462 14.5309 23.1801 14.5152L22.9491 14.8806C22.9736 14.8258 22.9906 14.7678 22.9995 14.7084C23.0121 14.5572 22.9407 14.4816 22.7811 14.4816C22.5133 14.5074 22.2548 14.5936 22.0251 14.7336C21.5014 14.9955 21.1611 15.2889 20.9908 15.6095L20.9835 15.6156L20.9713 15.63L20.9595 15.6433C20.8799 15.7181 20.8038 15.7781 20.7333 15.8233C20.6423 15.8741 20.5426 15.9091 20.4383 15.9258C20.2946 15.9167 20.2485 15.808 20.2485 15.6072C20.2602 15.5085 20.2871 15.4121 20.3283 15.3216L20.3787 15.2838L20.6475 15.1284C21.0213 14.9058 21.2187 14.6832 21.2271 14.6118C21.2355 14.5404 21.1977 14.5068 21.1179 14.5068C20.9548 14.5281 20.8052 14.6088 20.6979 14.7336C20.5307 14.8992 20.3891 15.0889 20.2779 15.2964C20.254 15.3148 20.2303 15.3335 20.2068 15.3524L20.2149 15.33C20.1098 15.4168 20.0105 15.5104 19.9176 15.6101C19.8975 15.6299 19.8776 15.65 19.8579 15.6702C20.0499 15.4493 20.1828 15.1835 20.2443 14.8974C20.2695 14.637 20.1813 14.5068 19.9755 14.5068C19.8369 14.5068 19.5219 14.7672 19.1019 15.2838L19.0566 15.3387C19.0526 15.3349 19.0475 15.3325 19.0419 15.3319C19.0347 15.3311 19.0274 15.3335 19.0221 15.3384C19.0011 15.3384 18.9717 15.3594 18.9381 15.4014C18.2787 16.1784 17.7621 16.5648 17.3421 16.5648C17.1069 16.5648 17.0187 16.4556 17.0187 16.2414C17.0674 15.9998 17.1789 15.7752 17.3421 15.5904C17.767 15.5239 18.1819 15.4039 18.5769 15.2334C18.8457 15.1074 18.9969 14.952 18.9969 14.7714C19.0065 14.6971 18.9781 14.6229 18.9213 14.574C18.8574 14.5182 18.775 14.4883 18.6903 14.49C18.3938 14.519 18.1071 14.6122 17.8503 14.763C17.5269 14.9392 17.2722 15.1225 17.0914 15.3175C17.0828 15.3238 17.0725 15.3336 17.0608 15.3468C16.4308 16.149 16.0024 16.548 15.7714 16.548C15.6496 16.548 15.6076 16.4934 15.6076 16.38C15.6373 16.2265 15.7036 16.0825 15.8008 15.96L16.8004 14.5278H17.296L17.3296 14.469H16.8256L17.338 13.7382C17.2639 13.7578 17.1877 13.7677 17.1112 13.7676C17.0387 13.7676 16.9667 13.7577 16.897 13.7382L16.3804 14.469H16.0024L15.9604 14.5278H16.3468L15.8002 15.309C15.7873 15.3094 15.7588 15.322 15.7588 15.3468C15.2957 15.9212 14.9381 16.2889 14.689 16.4514H14.6709C14.6558 16.4647 14.6405 16.4776 14.6249 16.4901C14.5544 16.5287 14.4941 16.548 14.4442 16.548C14.3266 16.548 14.2804 16.4934 14.2804 16.38C14.3238 16.2064 14.4072 16.0453 14.524 15.9096L15.5278 14.5026C15.4304 14.517 15.3322 14.5254 15.2338 14.5278C15.1715 14.5258 15.1096 14.5174 15.049 14.5026L14.356 15.5022C14.1981 15.6959 14.0861 15.9227 14.0284 16.1658C14.014 16.2784 14.0459 16.3921 14.1166 16.4808C14.1875 16.5672 14.2948 16.6154 14.4064 16.611C14.418 16.611 14.4298 16.6103 14.442 16.6089C14.2829 16.6917 14.1052 16.7362 13.9233 16.737C13.7323 16.7365 13.542 16.714 13.3563 16.6698C13.1603 16.639 12.5681 16.4836 11.5797 16.2036C12.1076 16.0888 12.6011 15.8514 13.0203 15.5106C13.4788 15.0782 13.8608 14.5712 14.1501 14.0112C14.6631 13.6526 15.1387 13.2431 15.5697 12.789ZM15.7882 14.0238C15.8636 13.9613 15.913 13.8729 15.9268 13.776C15.9371 13.7325 15.9251 13.6867 15.8948 13.6539C15.8645 13.6211 15.8198 13.6054 15.7756 13.6122C15.6772 13.6175 15.5843 13.6595 15.5152 13.7298C15.4404 13.7892 15.3909 13.8748 15.3766 13.9692C15.364 14.0826 15.4144 14.1372 15.532 14.1372C15.6287 14.1332 15.7203 14.0927 15.7882 14.0238Z" fill="#231F20"/>
<path d="M39.7529 8.11019C40.3356 8.32507 40.8474 8.69724 41.2313 9.18539C41.8707 10.1368 42.0364 11.3297 41.6807 12.4194L34.8095 35.1288C34.0991 37.3073 32.1094 38.8147 29.8199 38.9088H12.7175V35.7H29.8199C30.5579 35.7026 31.2639 35.3983 31.7687 34.86C31.877 34.7406 31.9665 34.6059 32.0346 34.4606C32.0616 34.4007 32.0851 34.3392 32.1048 34.2762L39.627 9.52138C39.7048 9.25225 39.7495 8.97497 39.7604 8.69563C39.7602 8.6209 39.7577 8.54612 39.7529 8.47139V8.11019Z" fill="#231F20"/>
<path d="M7.7614 41.7312V34.734H12.1462V41.7312L11.6338 41.4708L9.9538 40.6098L8.2696 41.475L7.7614 41.7312Z" fill="#231F20"/>
</svg>
