<svg width="42" height="42" viewBox="0 0 42 42" fill="none" xmlns="http://www.w3.org/2000/svg">
<path d="M8.4584 7.11059C7.7192 5.93459 7.0262 5.35079 6.3584 5.35079C5.39374 5.36002 4.61725 6.14588 4.6196 7.11059C4.62191 8.08154 5.40845 8.86808 6.3794 8.87039C6.82704 8.85966 7.25188 8.67068 7.5596 8.34539C7.90103 7.96593 8.20224 7.55212 8.4584 7.11059ZM9.059 6.14459C9.8542 4.91259 10.7446 4.29659 11.7302 4.29659V5.35079C11.0792 5.35079 10.3862 5.93459 9.6512 7.11059C9.90975 7.55374 10.2153 7.96773 10.5626 8.34539C10.8653 8.67034 11.2862 8.85959 11.7302 8.87039V9.92042C10.7418 9.92039 9.8514 9.30579 9.059 8.07659C8.2638 9.30579 7.3692 9.92039 6.3752 9.92039C5.62858 9.92375 4.91151 9.62893 4.38318 9.10139C3.85484 8.57384 3.55895 7.85721 3.5612 7.11059C3.55348 6.35931 3.85764 5.63846 4.4012 5.11979C4.91869 4.57452 5.64032 4.27003 6.392 4.27979C7.3776 4.29099 8.2666 4.91259 9.059 6.14459Z" fill="#231F20"/>
<path d="M32.7092 39.753H32.1128L31.3148 38.6736L30.5084 39.753H29.954L31.0544 38.3502L29.9666 36.96H30.563L31.3568 38.0226L32.1548 36.96H32.7092L31.6046 38.346L32.7092 39.753Z" fill="#231F20"/>
<path d="M36.1197 38.1486L33.6837 39.2322V38.85L35.6073 38.01L33.6837 37.17V36.7878L36.1197 37.884V38.1486Z" fill="#231F20"/>
<path d="M39.7822 36.96L38.1358 40.7946H37.6318L38.1568 39.6186L37.0312 36.96H37.5478L38.413 39.06L39.2866 36.96H39.7822Z" fill="#231F20"/>
<path d="M40.5381 10.5546C40.5424 10.5438 40.5424 10.5318 40.5381 10.521C40.5401 10.5042 40.5401 10.4873 40.5381 10.4706L34.1625 1.25999C34.1625 1.25999 34.1625 1.25999 34.1373 1.25999C34.1121 1.25999 34.1373 1.23479 34.1037 1.23059H33.9945C33.9945 1.23059 33.9693 1.23059 33.9651 1.23059L28.1103 9.41639C28.109 9.42895 28.109 9.44163 28.1103 9.45419C28.108 9.46526 28.108 9.47672 28.1103 9.48779C28.1103 9.48779 28.1103 9.48779 28.1103 9.50879C28.1201 9.54261 28.1427 9.57127 28.1733 9.58859L32.3397 11.886C32.3603 11.8922 32.3822 11.8922 32.4027 11.886L40.4121 10.6554C40.4413 10.6501 40.4679 10.6353 40.4877 10.6134C40.4877 10.6134 40.4877 10.6134 40.4877 10.5882C40.4877 10.563 40.4877 10.563 40.4877 10.5462C40.4877 10.5294 40.5381 10.5588 40.5381 10.5546ZM28.6353 9.56759L32.7093 8.94179L32.2893 11.5584L28.6353 9.56759ZM32.9907 8.89979L36.2037 8.39999L39.9837 10.458L32.5623 11.6046L32.9907 8.89979ZM33.0369 8.61839L34.0953 1.94039L36.0525 8.15639L33.0369 8.61839ZM39.9711 10.1472L36.3255 8.17319L34.4397 2.16299L39.9711 10.1472ZM32.7597 8.66039L28.5177 9.31139L33.8307 1.89419L32.7597 8.66039ZM31.2603 30.0972L26.8797 25.725L27.0099 25.536C29.1941 22.3456 28.9076 18.0741 26.3169 15.204C24.0052 12.6273 20.3427 11.7453 17.1114 12.9871C13.8801 14.2289 11.7509 17.3367 11.7597 20.7984C11.7596 21.0959 11.7764 21.3932 11.8101 21.6888C11.9171 22.6248 12.1842 23.5355 12.5997 24.381C13.6478 26.5919 15.6133 28.2315 17.9762 28.8661C20.3392 29.5007 22.8617 29.0664 24.8763 27.678L25.0653 27.5478L29.4249 31.92C29.664 32.1662 29.9932 32.3042 30.3363 32.3022C30.858 32.3029 31.329 31.9903 31.5309 31.5094C31.7329 31.0284 31.6262 30.4732 31.2603 30.1014V30.0972ZM15.6405 24.381C15.015 23.6029 14.6038 22.6748 14.4477 21.6888C14.3949 21.3948 14.3654 21.0971 14.3595 20.7984C14.3451 18.0884 16.2236 15.7356 18.8696 15.1497C21.5155 14.5639 24.2117 15.9038 25.3425 18.3666C25.7015 19.1213 25.8894 19.9459 25.8927 20.7816C25.9043 23.2325 24.3597 25.421 22.0466 26.2312C19.7334 27.0414 17.1609 26.2951 15.6405 24.3726V24.381Z" fill="#231F20"/>
<path fill-rule="evenodd" clip-rule="evenodd" d="M2.34834 40.2486V29.1102H3.59834V40.2486H2.34834Z" fill="#231F20"/>
<path d="M1.92334 29.4168L2.97334 27.6024L4.01914 29.4168H1.92334Z" fill="#231F20"/>
<path fill-rule="evenodd" clip-rule="evenodd" d="M2.5314 39.6176L9.4152 32.7338L10.2991 33.6177L3.41528 40.5015L2.5314 39.6176Z" fill="#231F20"/>
<path d="M8.89962 32.6508L10.9198 32.109L10.378 34.1334L8.89962 32.6508Z" fill="#231F20"/>
<path fill-rule="evenodd" clip-rule="evenodd" d="M2.97334 39.4346H16.4259V40.6846H2.97334V39.4346Z" fill="#231F20"/>
<path d="M16.1195 39.0096L17.9339 40.0596L16.1195 41.1054V39.0096Z" fill="#231F20"/>
</svg>
