<svg width="42" height="42" viewBox="0 0 42 42" fill="none" xmlns="http://www.w3.org/2000/svg">
<g clip-path="url(#clip0)">
<path fill-rule="evenodd" clip-rule="evenodd" d="M41.5294 22.5642C41.9436 22.5642 42.2794 22.9 42.2794 23.3142V40.887C42.2794 41.3012 41.9436 41.637 41.5294 41.637H16.7032C16.289 41.637 15.9532 41.3012 15.9532 40.887C15.9532 40.4728 16.289 40.137 16.7032 40.137H40.7794V23.3142C40.7794 22.9 41.1152 22.5642 41.5294 22.5642Z" fill="#231F20"/>
<path fill-rule="evenodd" clip-rule="evenodd" d="M39.3901 24.2523L39.9025 23.8911L40.1906 24.2998L39.6782 24.661L39.3901 24.2523Z" fill="#231F20"/>
<path fill-rule="evenodd" clip-rule="evenodd" d="M38.6784 25.3667L37.4612 26.2227L37.1735 25.8138L38.3908 24.9577L38.6784 25.3667ZM35.0267 27.9348L32.5923 29.6468L32.3047 29.2378L34.7391 27.5258L35.0267 27.9348ZM30.1579 31.3588L27.7235 33.0709L27.4358 32.6619L29.8703 30.9498L30.1579 31.3588ZM25.289 34.7829L22.8546 36.4949L22.567 36.0859L25.0014 34.3739L25.289 34.7829ZM20.4202 38.2069L19.203 39.0629L18.9154 38.654L20.1326 37.7979L20.4202 38.2069Z" fill="#231F20"/>
<path fill-rule="evenodd" clip-rule="evenodd" d="M17.9038 39.3676L18.4204 39.0064L18.7069 39.4161L18.1903 39.7773L17.9038 39.3676Z" fill="#231F20"/>
<path fill-rule="evenodd" clip-rule="evenodd" d="M36.907 40.8885C36.8922 38.3212 38.9602 36.2273 41.5275 36.2102L41.5308 36.7102C39.2395 36.7255 37.3938 38.5942 37.4069 40.8856L36.907 40.8885Z" fill="#231F20"/>
<path fill-rule="evenodd" clip-rule="evenodd" d="M32.9211 0.899071C33.0879 1.27818 32.9159 1.72079 32.5368 1.88767L24.1228 5.5915L36.8688 20.4059C37.1389 20.7199 37.1034 21.1934 36.7894 21.4636C36.4754 21.7337 36.0018 21.6982 35.7317 21.3842L22.3253 5.80219C22.1703 5.62204 22.1099 5.37908 22.1624 5.14731C22.2149 4.91553 22.3741 4.72235 22.5917 4.6266L31.9325 0.514802C32.3116 0.34792 32.7542 0.519962 32.9211 0.899071Z" fill="#231F20"/>
<path fill-rule="evenodd" clip-rule="evenodd" d="M25.7335 4.27313L25.6196 4.12674L26.0143 3.81977L26.1392 3.98034C26.9759 5.16837 26.691 6.8099 25.5032 7.64682L25.501 7.64834C25.3558 7.74834 25.2017 7.83463 25.0406 7.90615L24.8377 7.44915C24.9702 7.39037 25.0969 7.31946 25.2162 7.23733C26.1759 6.56031 26.4069 5.23468 25.7335 4.27313Z" fill="#231F20"/>
<path fill-rule="evenodd" clip-rule="evenodd" d="M32.5244 3.80157L32.3858 3.18837L32.8735 3.07814L33.0121 3.69134L32.5244 3.80157Z" fill="#231F20"/>
<path fill-rule="evenodd" clip-rule="evenodd" d="M33.1512 6.62113L32.8099 5.09023L33.298 4.98144L33.6392 6.51234L33.1512 6.62113ZM34.5162 12.7447L33.8337 9.68293L34.3217 9.57414L35.0042 12.6359L34.5162 12.7447ZM35.5399 17.3374L35.1987 15.8065L35.6867 15.6977L36.028 17.2286L35.5399 17.3374Z" fill="#231F20"/>
<path fill-rule="evenodd" clip-rule="evenodd" d="M35.8167 18.5966L35.6824 17.9834L36.1708 17.8763L36.3052 18.4895L35.8167 18.5966Z" fill="#231F20"/>
<path d="M27.4173 27.6108C27.419 27.5857 27.419 27.5604 27.4173 27.5352C27.4153 27.4998 27.4053 27.4653 27.3879 27.4344L13.6665 7.59784C13.6665 7.57684 13.6287 7.57264 13.6077 7.55584C13.5867 7.53904 13.5699 7.50544 13.5405 7.49284C13.5111 7.48024 13.5405 7.49284 13.5195 7.49284C13.4888 7.48853 13.4577 7.48853 13.4271 7.49284C13.394 7.48465 13.3594 7.48465 13.3263 7.49284H13.3011C13.2801 7.49284 13.2717 7.52644 13.2549 7.53904C13.2322 7.55203 13.2111 7.56752 13.1919 7.58524L0.612874 25.1538C0.612874 25.1538 0.612874 25.1832 0.612874 25.1958C0.595557 25.2206 0.581445 25.2474 0.570874 25.2756C0.56687 25.3007 0.56687 25.3262 0.570874 25.3512C0.570874 25.3512 0.570874 25.3764 0.570874 25.389C0.588215 25.4609 0.63358 25.5229 0.696874 25.5612L9.72267 30.4836C9.76575 30.5051 9.81313 30.5166 9.86127 30.5172H9.90747L27.1737 27.867C27.2378 27.8542 27.2965 27.8219 27.3417 27.7746C27.344 27.7551 27.344 27.7354 27.3417 27.7158C27.3627 27.6897 27.3784 27.6598 27.3879 27.6276L27.4173 27.6108ZM1.75107 25.4814L10.5333 24.1332L9.65967 29.7738L8.39967 29.1018L1.75107 25.4814ZM11.1381 24.0408L18.0597 22.9782L26.2329 27.4218L10.2141 29.8788L11.1381 24.0408ZM11.2347 23.436L13.5237 9.03424L17.7237 22.4406L11.2347 23.436ZM26.1951 26.7372L24.6705 25.8972L18.3705 22.4616L14.2797 9.51724L26.1951 26.7372ZM10.6299 23.52L1.49067 24.9312L12.9483 8.93764L10.6299 23.52Z" fill="#231F20"/>
</g>
<defs>
<clipPath id="clip0">
<rect width="42" height="42" fill="white"/>
</clipPath>
</defs>
</svg>
