<svg width="42" height="42" viewBox="0 0 42 42" fill="none" xmlns="http://www.w3.org/2000/svg">
<path d="M1.49104 37.7664H25.431C26.2909 37.7336 27.0496 37.1943 27.363 36.393L30.0112 28.8177L29.2448 29.3133L26.8296 36.2082C26.593 36.7857 26.0458 37.1761 25.4226 37.212H1.48264C1.27663 37.2265 1.07633 37.1404 0.945041 36.981C0.838031 36.8027 0.823946 36.5836 0.907241 36.393L11.55 5.98499C11.7927 5.41794 12.3369 5.03835 12.9528 5.00639L36.9054 4.98539C37.1118 4.96872 37.3131 5.0552 37.443 5.21639C37.5507 5.39299 37.5648 5.61119 37.4808 5.80019L31.3584 23.2791L32.1193 22.7876L37.9932 5.98499C38.1393 5.62528 38.0985 5.21665 37.884 4.89299C37.6502 4.58481 37.2793 4.41192 36.8928 4.43099H12.9528C12.094 4.46305 11.3356 5.0005 11.0208 5.80019L0.390641 36.2082C0.244554 36.5693 0.285384 36.9792 0.499841 37.3044C0.73276 37.6138 1.10434 37.787 1.49104 37.7664Z" fill="#231F20"/>
<path fill-rule="evenodd" clip-rule="evenodd" d="M24.5535 27.6749C22.459 26.7883 19.5168 26.2458 16.2122 26.2458C12.5585 26.2458 9.34912 26.9103 7.23856 27.9688H6.69067V28.2188H6.77328C5.41081 29.0041 4.61595 29.9737 4.61595 31.0338C4.61595 32.1637 5.519 33.1902 7.04991 34H4.56967C4.50064 34 4.44467 34.056 4.44467 34.125C4.44467 34.194 4.50064 34.25 4.56967 34.25H7.55739C9.66542 35.2179 12.7379 35.8176 16.2122 35.8176C22.7179 35.8176 27.8125 33.7218 27.8125 31.0338C27.8125 30.7902 27.7707 30.5515 27.6897 30.3187L27.207 30.6308C27.2436 30.7678 27.2624 30.9065 27.2624 31.0464C27.2624 32.1829 26.0239 33.2309 24.0473 34H8.39344C6.40726 33.2272 5.16195 32.1734 5.16195 31.0338C5.16195 29.9651 6.25715 28.9736 8.03152 28.2188H23.7115L24.5535 27.6749ZM16.2122 26.796C19.088 26.796 21.7498 27.2463 23.7401 27.9688H8.66783C10.6599 27.2458 13.3284 26.796 16.2122 26.796ZM16.2122 35.28C18.9035 35.28 21.4074 34.889 23.3489 34.25H9.09164C11.0308 34.8887 13.5283 35.28 16.2122 35.28Z" fill="#231F20"/>
<path d="M22.3315 30.9844H5.62807V31.2344H22.3315V30.9844Z" fill="#231F20"/>
<path fill-rule="evenodd" clip-rule="evenodd" d="M33.2389 9.86679H26.9115C25.5559 8.75671 23.4569 8.043 21.1052 8.043C18.7521 8.043 16.6522 8.75607 15.2966 9.86679H13.0579V10.1168H15.0113C14.1901 10.8872 13.709 11.8207 13.709 12.8268L13.7091 12.8544L13.7094 12.8824H11.9953V13.1324H13.7238C13.8265 14.1834 14.4547 15.1429 15.4397 15.9022H12.5642L13.0536 13.6752L10.4412 14.5152L11.256 15.246C9.81347 17.1955 9.19055 19.5889 9.44466 21.9334H8.81167V22.1834H9.47511C9.5889 23.0245 9.81624 23.8571 10.1598 24.6582L9.69835 24.9532H7.75327V25.2032H9.30728L9.24 25.2462L11.6634 26.5062L11.6134 25.2032H27.9343V24.9532H11.6039L11.5584 23.7678L10.6302 24.36C10.3353 23.6537 10.1357 22.9223 10.0294 22.1834H28.9969V21.9334H9.99701C9.89046 21.0089 9.92894 20.0757 10.1084 19.1678H30.0553V18.9178H10.1615C10.3819 17.9492 10.764 17.0133 11.303 16.1522H12.2478L12.4656 16.3506L12.5092 16.1522H15.7877C17.1335 17.0537 19.02 17.6148 21.1052 17.6148C23.1977 17.6148 25.083 17.0533 26.4264 16.1522H31.1179V15.9022H26.7739C27.758 15.1425 28.3842 14.1825 28.4865 13.1324H32.1763V12.8824H28.5009C28.5012 12.8639 28.5014 12.8454 28.5014 12.8268C28.5014 11.8215 28.0194 10.8877 27.1971 10.1168H33.2389V9.86679ZM11.9734 15.9022L11.6634 15.6198C11.5954 15.7129 11.5294 15.807 11.4653 15.9022H11.9734ZM21.1052 8.5932C23.0209 8.5932 24.755 9.08081 25.9986 9.86679H16.2127C17.4556 9.08123 19.1886 8.5932 21.1052 8.5932ZM14.2592 12.8268C14.2592 11.7966 14.8558 10.8515 15.8473 10.1168H26.364C27.3546 10.8509 27.9512 11.7956 27.9512 12.8268C27.9512 12.8454 27.951 12.8639 27.9506 12.8824H14.2597C14.2593 12.8639 14.2592 12.8454 14.2592 12.8268ZM14.2768 13.1324H27.9336C27.808 14.2205 27.0174 15.1953 25.8126 15.9022H16.4003C15.1943 15.1948 14.4026 14.2194 14.2768 13.1324ZM16.8665 16.1522H25.3464C24.1796 16.7235 22.7058 17.0646 21.1052 17.0646C19.5058 17.0646 18.033 16.7232 16.8665 16.1522Z" fill="#231F20"/>
<path d="M37.2289 24.1542L24.4399 32.4198L20.1895 32.8398L22.3315 29.1186L35.1205 20.8446L37.2289 24.1542ZM25.9561 30.4206L24.7801 28.56L23.3815 29.463L22.8271 30.4206L24.1375 30.2946L23.4781 31.4412L24.5701 31.332L25.9561 30.4206ZM34.5703 22.3314C34.4954 22.3427 34.4238 22.3699 34.3603 22.4112L26.0401 27.7956C25.9749 27.8353 25.9202 27.89 25.8805 27.9552C25.8133 28.0728 25.8595 28.1442 25.9897 28.1316C26.065 28.1217 26.1369 28.0944 26.1997 28.0518L34.5241 22.68C34.5893 22.6403 34.644 22.5856 34.6837 22.5204C34.7509 22.3902 34.7047 22.3188 34.5703 22.3314ZM40.7653 21.8694L38.2201 23.52L36.1201 20.2146L38.6401 18.5682C38.9735 18.3438 39.3546 18.2 39.7531 18.1482C40.0251 18.0873 40.3085 18.1828 40.4881 18.396L41.6851 20.2566C41.793 20.5138 41.7579 20.8088 41.5927 21.0336C41.3834 21.371 41.1006 21.6567 40.7653 21.8694Z" fill="#231F20"/>
</svg>
