<svg width="42" height="42" viewBox="0 0 42 42" fill="none" xmlns="http://www.w3.org/2000/svg">
<path d="M26.3968 11.4576C26.4669 11.6464 26.5231 11.8401 26.5648 12.0372C26.5942 12.1884 26.6278 12.3816 26.6572 12.6126L26.8 11.9826C26.8462 11.7852 26.8966 11.6004 26.947 11.4282L30.307 0.881958H33.8686V1.67996H30.8572L26.6572 14.553H26.2372L23.5198 7.55996C23.1664 7.48629 22.831 7.34356 22.5328 7.13996V6.74516H24.7378L26.3968 11.4576Z" fill="#231F20"/>
<path d="M31.2102 9.61793H35.4984V10.5629H31.2102V9.61793Z" fill="#231F20"/>
<path d="M40.2066 14.364H35.7629V13.923C36.0191 13.8138 36.2753 13.713 36.5316 13.6248C36.7878 13.5366 37.0523 13.4694 37.3169 13.4064V5.93457L37.3799 5.03997C37.0963 5.15397 36.8003 5.23432 36.4979 5.27937C36.1863 5.32184 35.8716 5.33869 35.5571 5.32977L35.4815 4.96437C35.9741 4.8029 36.4565 4.61216 36.9263 4.39317C37.4205 4.17243 37.8847 3.8902 38.3081 3.55317H38.6903V13.4064C38.9423 13.4694 39.1985 13.5408 39.4506 13.6248C39.7025 13.7088 39.9587 13.8138 40.2107 13.923L40.2066 14.364ZM20.9999 31.92V32.7138C20.1852 33.0766 19.3425 33.373 18.4799 33.6C17.6081 33.8337 16.725 34.0229 15.8339 34.167H14.8679V17.2914H7.64815V24.4734C7.64815 25.2756 7.61455 26.1114 7.55155 26.9682C7.48855 27.825 7.38775 28.6482 7.24915 29.4882C7.11055 30.3282 6.95095 31.0842 6.76195 31.8276C6.59494 32.5022 6.38593 33.1656 6.13615 33.8142C5.82878 33.9576 5.49243 34.028 5.15335 34.02C4.72495 34.0368 4.30495 34.0368 3.89335 34.02C3.53902 34.0103 3.18559 33.9795 2.83495 33.9276C2.53255 33.8772 2.38135 33.8394 2.38135 33.8142L2.19235 33.5118C2.82784 32.4809 3.33557 31.3766 3.70435 30.2232C4.17847 28.8211 4.56837 27.392 4.87195 25.9434C5.18695 24.4314 5.42215 22.9152 5.59015 21.3906C5.74383 20.0294 5.82514 18.6611 5.83375 17.2914H5.19115C4.47458 17.2949 3.77121 17.4845 3.14995 17.8416C2.42306 18.2675 1.79238 18.8396 1.29775 19.5216L0.810547 19.215C0.925913 18.6122 1.08882 18.0196 1.29775 17.4426C1.4916 16.9009 1.79466 16.4049 2.18815 15.9852C2.62181 15.5431 3.15241 15.2081 3.73795 15.0066C4.53606 14.7503 5.37522 14.6463 6.21175 14.7C6.48895 14.7 7.00135 14.7 7.74475 14.7378L10.3487 14.8134L13.5449 14.889C19.6391 15.0276 10.7645 14.9268 16.7957 14.9268C17.5979 14.9268 18.2741 14.9268 18.8159 14.9268C19.2681 14.912 19.718 14.8558 20.1599 14.7588C20.4797 14.6982 20.7902 14.5965 21.0839 14.4564C21.3585 14.3147 21.6128 14.1367 21.8399 13.9272L22.3859 14.28C22.2939 15.0644 21.9557 15.7996 21.4199 16.38C20.7719 17.0257 19.8754 17.3583 18.9629 17.2914H18.4799V31.6134L20.9999 31.92ZM25.7123 26.8548L27.7199 29.8746C28.2365 30.6558 28.6775 31.3824 29.1395 32.1678H29.2277C29.6897 31.3278 30.1559 30.6012 30.6179 29.841L32.5919 26.8548H35.3513L30.5591 33.6462L35.4899 40.9038H32.5877L30.5297 37.7412C29.9753 36.9264 29.5091 36.141 29.0219 35.301H28.9799C28.5179 36.141 28.0223 36.897 27.5015 37.7412L25.4687 40.9038H22.6547L27.6233 33.7302L22.8689 26.8548H25.7123ZM35.5109 30.933L36.9893 29.5428C38.9381 27.7872 39.9293 26.6826 39.9293 25.4856C39.9293 24.591 39.3708 23.8392 38.1485 23.8392C37.4322 23.8794 36.7444 24.134 36.1745 24.57L35.6999 23.52C36.5151 22.876 37.5255 22.5293 38.5643 22.5372C40.7693 22.5372 41.6849 23.9232 41.6849 25.1874C41.6849 26.9472 40.3451 28.2408 38.5643 29.8074L37.8335 30.4668V30.513H41.8487V31.8024H35.5109V30.933Z" fill="#231F20"/>
</svg>
