<svg width="42" height="42" viewBox="0 0 42 42" fill="none" xmlns="http://www.w3.org/2000/svg">
<path d="M13.3142 35.0616C13.5082 35.2414 13.6639 35.4585 13.772 35.7C13.901 36.0066 13.9612 36.3378 13.9484 36.6702C13.9526 37.0409 13.8796 37.4085 13.7342 37.7496C13.5948 38.0684 13.3902 38.3545 13.1336 38.5896C12.8427 38.8628 12.4938 39.0667 12.113 39.186C11.6978 39.3192 11.2638 39.3845 10.8278 39.3792C10.3523 39.3804 9.87847 39.324 9.41659 39.2112C9.02677 39.1209 8.64584 38.9958 8.27839 38.8374V37.632H8.36659C8.72517 37.8632 9.1138 38.0441 9.52159 38.1696C9.93624 38.3074 10.3699 38.3797 10.8068 38.3838C11.069 38.3822 11.3296 38.3411 11.5796 38.262C11.8261 38.1976 12.0537 38.0752 12.2432 37.905C12.4208 37.7503 12.5639 37.56 12.6632 37.3464C12.7563 37.0982 12.8005 36.8343 12.7934 36.5694C12.8016 36.3068 12.7514 36.0457 12.6464 35.805C12.5508 35.6113 12.406 35.4462 12.2264 35.3262C12.0358 35.2016 11.8212 35.1186 11.5964 35.0826C11.333 35.0359 11.0659 35.0134 10.7984 35.0154H10.2692V34.0536H10.6892C11.1833 34.0791 11.6732 33.9515 12.092 33.6882C12.4348 33.4427 12.6269 33.0379 12.6002 32.6172C12.6055 32.4269 12.5606 32.2386 12.47 32.0712C12.3797 31.9145 12.2529 31.7819 12.1004 31.6848C11.9332 31.5926 11.7513 31.5301 11.5628 31.5C11.3517 31.4523 11.1365 31.4255 10.9202 31.4202C10.5232 31.426 10.1294 31.4926 9.75259 31.6176C9.33983 31.748 8.94696 31.9346 8.58499 32.172H8.53039V30.9624C8.88133 30.8025 9.24707 30.6773 9.62239 30.5886C10.0563 30.4788 10.502 30.4223 10.9496 30.4206C11.3223 30.4156 11.6944 30.4536 12.0584 30.534C12.3668 30.6076 12.6607 30.7325 12.9278 30.9036C13.1893 31.073 13.4056 31.3037 13.5578 31.5756C13.706 31.859 13.7798 32.1756 13.772 32.4954C13.779 32.9666 13.5958 33.4209 13.2638 33.7554C12.9493 34.1049 12.5314 34.3448 12.071 34.44V34.5198C12.2903 34.5623 12.5044 34.6285 12.7094 34.7172C12.9287 34.7975 13.1331 34.9139 13.3142 35.0616Z" fill="#231F20"/>
<path d="M35.9439 38.1696L35.2803 38.9214L32.6259 35.9394L29.9673 38.9214L29.2911 38.1696L31.9749 35.2296L29.2911 32.2896L29.9547 31.5L32.6133 34.4862L35.2803 31.5L35.9565 32.256L33.2769 35.196L35.9439 38.1696Z" fill="#231F20"/>
<path d="M14.9103 10.0044H3.28467V8.52178H14.9103V10.0044ZM10.1979 5.83799H7.98027V3.29279H10.1811L10.1979 5.83799ZM10.1979 15.2334H7.98027V12.6882H10.1811L10.1979 15.2334ZM38.3883 10.6848H27.0483V9.16018H38.3883V10.6848ZM38.3883 14.7H27.0483V13.1712H38.3883V14.7ZM5.98107 25.431H5.46027C5.19443 25.1317 4.9814 24.7894 4.83027 24.4188C4.52785 23.6219 4.52785 22.7419 4.83027 21.945C4.98134 21.573 5.19436 21.2294 5.46027 20.9286H5.98527V20.9538C5.85619 21.0716 5.73811 21.2009 5.63247 21.3402C5.51081 21.4957 5.40527 21.6631 5.31747 21.84C5.22071 22.0369 5.14606 22.244 5.09487 22.4574C5.03536 22.6907 5.00572 22.9306 5.00667 23.1714C5.00501 23.4133 5.03322 23.6546 5.09067 23.8896C5.14483 24.1026 5.22084 24.3095 5.31747 24.507C5.4032 24.6867 5.50736 24.857 5.62827 25.0152C5.73415 25.1542 5.85222 25.2835 5.98107 25.4016V25.431ZM8.96727 23.4066C8.96762 23.5634 8.93767 23.7189 8.87907 23.8644C8.76833 24.1498 8.53809 24.3724 8.24907 24.4734C8.07965 24.5353 7.90021 24.5652 7.71987 24.5616C7.53908 24.5613 7.35884 24.5416 7.18227 24.5028C7.03785 24.4693 6.89715 24.4215 6.76227 24.36V23.8812H6.79587C6.92884 23.9621 7.06953 24.0297 7.21587 24.0828C7.37568 24.1364 7.5429 24.1648 7.71147 24.1668C7.81813 24.1664 7.9242 24.1509 8.02647 24.1206C8.1282 24.0883 8.22146 24.0338 8.29947 23.961C8.36693 23.8933 8.41857 23.8116 8.45067 23.7216C8.48603 23.6204 8.50309 23.5137 8.50107 23.4066C8.5049 23.3013 8.48479 23.1964 8.44227 23.1C8.40383 23.0222 8.34596 22.9556 8.27427 22.9068C8.18756 22.8449 8.08883 22.802 7.98447 22.7808C7.85834 22.7581 7.73042 22.7468 7.60227 22.7472C7.47287 22.746 7.34361 22.7559 7.21587 22.7766C7.08987 22.7766 6.98487 22.8102 6.89247 22.8312V21.084H8.94207V21.483H7.33347V22.3902C7.4006 22.386 7.46793 22.386 7.53507 22.3902H7.71567C7.87792 22.3866 8.04004 22.4021 8.19867 22.4364C8.33558 22.4654 8.46545 22.521 8.58087 22.6002C8.70137 22.6827 8.79951 22.7938 8.86647 22.9236C8.93564 23.0751 8.97008 23.2401 8.96727 23.4066Z" fill="#231F20"/>
<path d="M12.4659 23.9946L12.2139 24.2508L11.2143 23.2428L10.2189 24.2508L9.96272 23.9946L10.9707 22.9992L9.96272 21.9996L10.2189 21.7476L11.2143 22.7514L12.2139 21.7476L12.4659 21.9996L11.4579 22.9992L12.4659 23.9946Z" fill="#231F20"/>
<path d="M15.5067 22.848C15.583 22.9176 15.6444 23.0019 15.6873 23.0958C15.7387 23.2179 15.7631 23.3497 15.7587 23.4822C15.7586 23.6263 15.7301 23.7691 15.6747 23.9022C15.6165 24.0281 15.5353 24.142 15.4353 24.2382C15.3152 24.3486 15.1716 24.4304 15.0153 24.4776C14.851 24.5294 14.6795 24.5549 14.5071 24.5532C14.319 24.5517 14.1317 24.5292 13.9485 24.486C13.8014 24.455 13.6567 24.4129 13.5159 24.36V23.8686H13.5495C13.6918 23.9592 13.8459 24.0298 14.0073 24.0786C14.1708 24.1356 14.3425 24.1654 14.5155 24.1668C14.6197 24.1655 14.7231 24.1485 14.8221 24.1164C14.9191 24.0904 15.0085 24.0414 15.0825 23.9736C15.1493 23.9117 15.2034 23.8375 15.2421 23.7552C15.2784 23.6557 15.2955 23.5502 15.2925 23.4444C15.2955 23.3405 15.2754 23.2372 15.2337 23.142C15.1984 23.0659 15.1433 23.0006 15.0741 22.953C14.9975 22.9041 14.9118 22.8712 14.8221 22.8564C14.7181 22.8389 14.6127 22.8305 14.5071 22.8312H14.3013V22.4532H14.4609C14.6565 22.4622 14.85 22.4109 15.0153 22.3062C15.1517 22.2109 15.2294 22.0523 15.2211 21.8862C15.2229 21.8103 15.2056 21.7352 15.1707 21.6678C15.1342 21.6066 15.0838 21.5548 15.0237 21.5166C14.959 21.4778 14.8879 21.4507 14.8137 21.4368C14.7309 21.4192 14.6464 21.4108 14.5617 21.4116C14.4031 21.4128 14.2456 21.4398 14.0955 21.4914C13.9322 21.5425 13.7767 21.616 13.6335 21.7098H13.6125V21.2268C13.7473 21.1639 13.888 21.1146 14.0325 21.0798C14.2075 21.03 14.3882 21.0032 14.5701 21C14.7184 20.9985 14.8664 21.014 15.0111 21.0462C15.1335 21.0751 15.25 21.1248 15.3555 21.1932C15.4597 21.2584 15.545 21.3496 15.6033 21.4578C15.6611 21.5708 15.6899 21.6963 15.6873 21.8232C15.6895 22.0075 15.6167 22.1848 15.4857 22.3146C15.3618 22.4522 15.1969 22.5464 15.0153 22.5834V22.6128C15.1022 22.6295 15.1867 22.6562 15.2673 22.6926C15.3545 22.7321 15.4352 22.7845 15.5067 22.848ZM18.7827 22.785C18.8132 23.2541 18.7083 23.722 18.4803 24.1332C18.2645 24.4059 17.9357 24.565 17.5878 24.565C17.24 24.565 16.9112 24.4059 16.6953 24.1332C16.4773 23.7234 16.3784 23.2607 16.4097 22.7976C16.3763 22.3325 16.4769 21.8675 16.6995 21.4578C16.9126 21.1805 17.2424 21.018 17.592 21.018C17.9417 21.018 18.2715 21.1805 18.4845 21.4578C18.7037 21.8645 18.8069 22.3236 18.7827 22.785ZM18.1779 23.8224C18.2357 23.6888 18.2725 23.5471 18.2871 23.4024C18.3091 23.2015 18.3189 22.9996 18.3165 22.7976C18.3187 22.5956 18.3089 22.3936 18.2871 22.1928C18.2735 22.0478 18.2366 21.906 18.1779 21.7728C18.1324 21.6652 18.0565 21.5733 17.9595 21.5082C17.8527 21.4417 17.7282 21.4095 17.6025 21.4158C17.477 21.4105 17.3528 21.4427 17.2455 21.5082C17.1462 21.5736 17.0687 21.6672 17.0229 21.777C16.9645 21.9174 16.929 22.0663 16.9179 22.218C16.8968 22.416 16.887 22.6152 16.8885 22.8144C16.8868 23.0135 16.8952 23.2125 16.9137 23.4108C16.9289 23.5554 16.9657 23.697 17.0229 23.8308C17.0666 23.9405 17.141 24.0353 17.2371 24.1038C17.3476 24.1688 17.4744 24.2009 17.6025 24.1962C17.7275 24.2012 17.8513 24.1706 17.9595 24.108C18.0621 24.0397 18.1389 23.9392 18.1779 23.8224ZM20.8029 23.1798C20.812 23.6103 20.7363 24.0384 20.5803 24.4398C20.4273 24.8095 20.2145 25.1514 19.9503 25.452H19.4253C19.5542 25.3339 19.6723 25.2046 19.7781 25.0656C19.9019 24.9085 20.0076 24.7381 20.0931 24.5574C20.1866 24.359 20.2611 24.1523 20.3157 23.94C20.3751 23.7053 20.4033 23.4638 20.3997 23.2218C20.4021 22.9812 20.3738 22.7413 20.3157 22.5078C20.2682 22.2771 20.1935 22.053 20.0931 21.84C20.0057 21.6603 19.9001 21.49 19.7781 21.3318C19.6749 21.1906 19.5566 21.061 19.4253 20.9454V20.9202H19.9503C20.2153 21.2248 20.4282 21.571 20.5803 21.945C20.7332 22.3384 20.8088 22.7577 20.8029 23.1798Z" fill="#231F20"/>
<path d="M24.5703 23.1798H23.3103V24.4398H22.9281V23.1798H21.6681V22.8144H22.9281V21.5544H23.3103V22.8144H24.5703V23.1798Z" fill="#231F20"/>
<path d="M26.8424 25.431H26.3216C26.0546 25.1326 25.8414 24.7901 25.6916 24.4188C25.3892 23.6219 25.3892 22.7419 25.6916 21.945C25.8414 21.5724 26.0545 21.2285 26.3216 20.9286H26.8424V20.9538C26.7133 21.0716 26.5952 21.201 26.4896 21.3402C26.3708 21.4969 26.2668 21.6642 26.1788 21.84C26.0821 22.0369 26.0074 22.244 25.9562 22.4574C25.8967 22.6907 25.8671 22.9306 25.868 23.1714C25.8664 23.4133 25.8946 23.6546 25.952 23.8896C26.0062 24.1026 26.0822 24.3095 26.1788 24.507C26.2645 24.6867 26.3687 24.857 26.4896 25.0152C26.5955 25.1542 26.7136 25.2835 26.8424 25.4016V25.431ZM29.8202 23.4066C29.8206 23.5634 29.7906 23.7189 29.732 23.8644C29.6213 24.1498 29.391 24.3724 29.102 24.4734C28.9326 24.5353 28.7531 24.5652 28.5728 24.5616C28.392 24.5613 28.2118 24.5416 28.0352 24.5028C27.8908 24.4693 27.7501 24.4215 27.6152 24.36V23.8812H27.6488C27.7822 23.9614 27.9228 24.0289 28.0688 24.0828C28.2286 24.1365 28.3958 24.1648 28.5644 24.1668C28.6711 24.1665 28.7771 24.1509 28.8794 24.1206C28.9811 24.0883 29.0744 24.0338 29.1524 23.961C29.2199 23.8933 29.2715 23.8116 29.3036 23.7216C29.339 23.6204 29.356 23.5138 29.354 23.4066C29.3566 23.3041 29.3365 23.2023 29.2952 23.1084C29.2568 23.0306 29.1989 22.9641 29.1272 22.9152C29.0405 22.8534 28.9418 22.8104 28.8374 22.7892C28.7113 22.7665 28.5834 22.7552 28.4552 22.7556C28.3258 22.7545 28.1966 22.7643 28.0688 22.785C27.9428 22.785 27.8378 22.8186 27.7454 22.8396V21.084H29.8202L29.8202 21.483H28.1948V22.3902C28.2619 22.386 28.3293 22.386 28.3964 22.3902H28.5602C28.7225 22.3866 28.8846 22.4021 29.0432 22.4364C29.1804 22.4645 29.3104 22.5203 29.4254 22.6002C29.5459 22.6827 29.6441 22.7938 29.711 22.9236C29.7831 23.0744 29.8204 23.2395 29.8202 23.4066Z" fill="#231F20"/>
<path d="M33.3274 23.9946L33.0754 24.2508L32.0758 23.2428L31.0804 24.2508L30.8242 23.9946L31.8322 22.9992L30.8242 21.9996L31.0804 21.7476L32.0758 22.7514L33.0754 21.7476L33.3274 21.9996L32.3404 22.9992L33.3274 23.9946Z" fill="#231F20"/>
<path d="M36.6789 21.5922L35.1375 24.4902H34.6461L36.2841 21.483H34.3479V21.084H36.6789V21.5922Z" fill="#231F20"/>
<path d="M38.6866 23.1798C38.6956 23.6103 38.62 24.0384 38.464 24.4398C38.311 24.8095 38.0981 25.1514 37.834 25.452H37.309C37.4379 25.3339 37.5559 25.2046 37.6618 25.0656C37.7841 24.9075 37.8897 24.7372 37.9768 24.5574C38.08 24.3463 38.1616 24.1254 38.2204 23.898C38.2779 23.6629 38.3061 23.4217 38.3044 23.1798C38.3047 22.9393 38.2765 22.6996 38.2204 22.4658C38.1611 22.2493 38.0795 22.0396 37.9768 21.84C37.8893 21.6603 37.7838 21.49 37.6618 21.3318C37.5573 21.1916 37.4392 21.0621 37.309 20.9454V20.9202H37.834C38.0982 21.2222 38.311 21.5656 38.464 21.9366C38.6179 22.3327 38.6935 22.7549 38.6866 23.1798Z" fill="#231F20"/>
</svg>
