<svg width="42" height="42" viewBox="0 0 42 42" fill="none" xmlns="http://www.w3.org/2000/svg">
<path fill-rule="evenodd" clip-rule="evenodd" d="M2.14833 14.3035C2.401 14.1759 2.70395 14.2015 2.93168 14.3695L36.9811 39.4981C37.2417 39.6905 37.3494 40.0284 37.2481 40.336C37.1469 40.6437 36.8596 40.8516 36.5357 40.8516H2.48633C2.07211 40.8516 1.73633 40.5158 1.73633 40.1016V14.973C1.73633 14.69 1.89567 14.431 2.14833 14.3035ZM3.23633 16.4586V39.3516H34.2564L3.23633 16.4586Z" fill="#231F20"/>
<path fill-rule="evenodd" clip-rule="evenodd" d="M7.01118 6.07399C7.11241 5.76632 7.39971 5.5584 7.7236 5.5584H19.8742C20.2884 5.5584 20.6242 5.89419 20.6242 6.3084V15.2754C20.6242 15.5584 20.4649 15.8174 20.2122 15.9449C19.9595 16.0725 19.6566 16.0469 19.4289 15.8789L7.27826 6.91186C7.01765 6.71954 6.90995 6.38165 7.01118 6.07399ZM10.0029 7.0584L19.1242 13.7898V7.0584H10.0029Z" fill="#231F20"/>
<path fill-rule="evenodd" clip-rule="evenodd" d="M27.6881 2.48639C27.6881 2.07218 28.0239 1.73639 28.4381 1.73639H40.2359C40.4939 1.73639 40.7339 1.86904 40.8711 2.08758C41.0083 2.30611 41.0235 2.57984 40.9114 2.81225L29.1136 27.2689C28.9616 27.5839 28.612 27.7521 28.271 27.6741C27.9299 27.5962 27.6881 27.2928 27.6881 26.943V2.48639ZM29.1881 3.23639V23.6621L39.0414 3.23639H29.1881Z" fill="#231F20"/>
</svg>
