<svg width="42" height="42" viewBox="0 0 42 42" fill="none" xmlns="http://www.w3.org/2000/svg">
<path d="M25.085 21.0046C21.5633 15.4011 18.2451 12.5993 15.1303 12.5993C12.8899 12.5663 10.7354 13.4591 9.17628 15.0665C7.56787 16.6241 6.67567 18.7766 6.71108 21.014C6.67511 23.2516 7.56739 25.4043 9.17628 26.9615C10.7352 28.5687 12.8903 29.46 15.1303 29.424C17.1494 29.424 19.0136 28.586 20.7228 26.9099C21.856 25.8124 23.3101 23.8439 25.085 21.0046ZM27.9587 16.3939C31.759 10.5058 36.0195 7.56176 40.7402 7.56176V12.5993C37.6254 12.5993 34.3056 15.4011 30.7808 21.0046C32.562 23.8439 34.0161 25.8092 35.143 26.9006C36.8553 28.5735 38.7211 29.4115 40.7402 29.4147V34.4381C36.0164 34.4381 31.7559 31.4988 27.9587 25.6201C24.1615 31.4988 19.8854 34.4381 15.1303 34.4381C11.5506 34.4985 8.10484 33.0796 5.60761 30.5169C3.04211 28.0224 1.62167 24.5804 1.68208 21.0046C1.62072 17.4301 3.04142 13.9891 5.60761 11.4971C8.10114 8.9273 11.5481 7.50283 15.1303 7.56176C19.8885 7.56176 24.1647 10.5058 27.9587 16.3939Z" fill="#010101"/>
</svg>
