<svg width="42" height="42" viewBox="0 0 42 42" fill="none" xmlns="http://www.w3.org/2000/svg">
<path d="M16.023 22.5246H13.923V21.9198H16.023V22.5246Z" fill="#231F20"/>
<path d="M20.0086 22.0038C20.119 22.1053 20.2076 22.2282 20.269 22.365C20.3468 22.542 20.3827 22.7346 20.374 22.9278C20.3755 23.1424 20.3341 23.3552 20.2522 23.5536C20.1701 23.739 20.0515 23.9061 19.9036 24.045C19.7346 24.2038 19.5323 24.3229 19.3114 24.3936C19.0711 24.4698 18.8201 24.5067 18.568 24.5028C18.2935 24.5043 18.0198 24.4719 17.7532 24.4062C17.5279 24.3531 17.3074 24.2814 17.0938 24.192V23.4906H17.1442C17.3508 23.6255 17.5757 23.7302 17.812 23.8014C18.0516 23.8826 18.3025 23.9251 18.5554 23.9274C18.7079 23.9249 18.8592 23.9009 19.0048 23.856C19.146 23.8169 19.2766 23.7465 19.387 23.6502C19.4864 23.5586 19.5651 23.4469 19.618 23.3226C19.6729 23.1808 19.6987 23.0294 19.6936 22.8774C19.6992 22.7241 19.669 22.5717 19.6054 22.4322C19.5543 22.3209 19.4728 22.2262 19.3702 22.1592C19.2617 22.0857 19.1384 22.0369 19.009 22.0164C18.8564 21.9904 18.7018 21.9778 18.547 21.9786H18.2446V21.42H18.4798C18.7653 21.4355 19.0485 21.3621 19.2904 21.21C19.4941 21.067 19.6087 20.8283 19.5928 20.58C19.5953 20.4702 19.5693 20.3617 19.5172 20.265C19.4639 20.1753 19.3906 20.0992 19.303 20.0424C19.2067 19.9853 19.1017 19.9442 18.9922 19.9206C18.8704 19.8976 18.7466 19.8864 18.6226 19.887C18.3928 19.8901 18.1647 19.9283 17.9464 20.0004C17.7075 20.0772 17.48 20.1859 17.2702 20.3238H17.2198V19.6308C17.424 19.5396 17.6364 19.4679 17.854 19.4166C18.1107 19.351 18.3746 19.3186 18.6394 19.32C18.8556 19.3163 19.0713 19.3389 19.282 19.3872C19.4607 19.4262 19.6303 19.4989 19.7818 19.6014C19.9333 19.6985 20.0587 19.8311 20.1472 19.9878C20.2326 20.1508 20.2746 20.333 20.269 20.517C20.2719 20.7879 20.1677 21.049 19.9792 21.2436C19.7948 21.4431 19.5524 21.5797 19.2862 21.6342V21.6804C19.413 21.7032 19.537 21.7398 19.6558 21.7896C19.784 21.842 19.903 21.9142 20.0086 22.0038Z" fill="#231F20"/>
<path d="M22.5329 24.402H21.735V23.4486H22.5329V24.402Z" fill="#231F20"/>
<path d="M27.2999 21.9114C27.3501 22.5932 27.2044 23.2752 26.8799 23.877C26.5609 24.2713 26.0809 24.5005 25.5737 24.5005C25.0665 24.5005 24.5864 24.2713 24.2675 23.877C23.9498 23.2773 23.8045 22.6013 23.8475 21.924C23.7995 21.2437 23.9451 20.5636 24.2675 19.9626C24.58 19.558 25.0624 19.3211 25.5737 19.3211C26.0849 19.3211 26.5673 19.558 26.8799 19.9626C27.197 20.561 27.3423 21.2355 27.2999 21.9114ZM26.4221 23.4276C26.5052 23.2237 26.5576 23.0085 26.5775 22.7892C26.6086 22.4977 26.6226 22.2046 26.6195 21.9114C26.6223 21.6154 26.6083 21.3196 26.5775 21.0252C26.5589 20.8066 26.505 20.5924 26.4179 20.391C26.3507 20.2343 26.2399 20.1002 26.0987 20.0046C25.9414 19.9115 25.7604 19.8663 25.5779 19.8744C25.3954 19.8668 25.2145 19.912 25.0571 20.0046C24.9136 20.1024 24.8013 20.2394 24.7337 20.3994C24.6466 20.6035 24.5941 20.8207 24.5783 21.042C24.5485 21.3322 24.5345 21.6239 24.5363 21.9156C24.5363 22.2642 24.5363 22.554 24.5699 22.7892C24.5911 23.006 24.6449 23.2184 24.7295 23.4192C24.7904 23.5794 24.8988 23.7172 25.0403 23.814C25.2014 23.9135 25.3888 23.9618 25.5779 23.9526C25.7604 23.9602 25.9412 23.915 26.0987 23.8224C26.2386 23.725 26.3455 23.5873 26.4053 23.4276H26.4221Z" fill="#231F20"/>
<path d="M31.6552 20.16L29.3998 24.402H28.6858L31.0798 20.0088H28.249V19.4208H31.6552V20.16Z" fill="#231F20"/>
<path d="M35.9561 22.8186C35.9565 23.0471 35.9137 23.2737 35.8301 23.4864C35.7516 23.6862 35.633 23.8677 35.4815 24.0198C35.3182 24.1786 35.1237 24.3016 34.9103 24.381C34.6621 24.4679 34.4003 24.5091 34.1375 24.5028C33.8733 24.5051 33.6098 24.4769 33.3521 24.4188C33.1324 24.3736 32.9184 24.3046 32.7137 24.213V23.52H32.7599C32.9617 23.6441 33.1774 23.7442 33.4025 23.8182C33.6353 23.8967 33.8791 23.9378 34.1249 23.94C34.2812 23.9389 34.4367 23.9163 34.5869 23.8728C34.7353 23.8268 34.8706 23.7462 34.9817 23.6376C35.0799 23.5402 35.1558 23.4227 35.2043 23.2932C35.2587 23.1396 35.2844 22.9773 35.2799 22.8144C35.2822 22.6696 35.2521 22.526 35.1917 22.3944C35.1351 22.2794 35.0497 22.181 34.9439 22.1088C34.8184 22.0201 34.6751 21.9599 34.5239 21.9324C34.3417 21.8934 34.1557 21.8751 33.9695 21.8778C33.7796 21.8765 33.59 21.8906 33.4025 21.9198C33.2219 21.945 33.0623 21.9744 32.9321 21.9996V19.4208H35.9267V20.0088H33.5747V21.3318H34.1291C34.3674 21.3282 34.6054 21.3507 34.8389 21.399C35.0388 21.444 35.2284 21.5267 35.3975 21.6426C35.5769 21.761 35.7218 21.9247 35.8175 22.1172C35.9171 22.3372 35.9646 22.5772 35.9561 22.8186Z" fill="#231F20"/>
<path d="M11.2895 39.48L10.3739 40.5006L6.77867 36.4644L3.17927 40.5006L2.26367 39.48L5.87987 35.4816L2.26367 31.5L3.17927 30.4836L6.77867 34.5198L10.3739 30.4836L11.2895 31.5L7.66067 35.5026L11.2895 39.48Z" fill="#231F20"/>
<path d="M39.5135 5.07778H31.9535V4.06138H39.5135V5.07778ZM39.5135 7.74898H31.9535V6.71999H39.5135V7.74898ZM37.7705 39.3162V39.7362C37.3617 39.908 36.9405 40.0484 36.5105 40.1562C36.0745 40.2724 35.633 40.3663 35.1875 40.4376H34.7045V31.9956H31.0799V35.5908C31.0799 36.0108 31.0799 36.4308 31.0337 36.8508C30.9875 37.2708 30.9497 37.6908 30.8825 38.1108C30.8153 38.5308 30.7313 38.9088 30.6347 39.2826C30.5528 39.6194 30.449 39.9505 30.3239 40.2738C30.1708 40.3474 30.0023 40.3834 29.8325 40.3788C29.6183 40.3788 29.4125 40.3788 29.2109 40.3788C29.0361 40.3715 28.8621 40.3518 28.6901 40.32C28.5389 40.2948 28.4633 40.278 28.4633 40.2612L28.3709 40.11C28.6886 39.5953 28.9425 39.0439 29.1269 38.4678C29.3623 37.7677 29.5545 37.0537 29.7023 36.33C29.8619 35.5698 29.9795 34.8138 30.0635 34.0494C30.1393 33.3673 30.18 32.6818 30.1853 31.9956H29.8661C29.5061 31.9972 29.1529 32.0927 28.8413 32.2728C28.4787 32.4861 28.1641 32.7721 27.9173 33.1128L27.6695 32.9616C27.7295 32.659 27.8123 32.3613 27.9173 32.0712C28.013 31.8004 28.1647 31.5528 28.3625 31.3446C28.5784 31.123 28.843 30.9547 29.1353 30.8532C29.5349 30.7242 29.955 30.6701 30.3743 30.6936C30.5129 30.6936 30.7691 30.6936 31.1429 30.6936L32.4449 30.7314L34.0451 30.7692C34.6121 30.7692 35.1539 30.7692 35.6705 30.7692H36.6827C36.9157 30.7768 37.149 30.7641 37.3799 30.7314C37.5411 30.7013 37.6978 30.6505 37.8461 30.5802C37.9834 30.5093 38.1105 30.4203 38.2241 30.3156L38.4887 30.4836C38.4423 30.8799 38.2701 31.2508 37.9973 31.542C37.6716 31.8635 37.2231 32.0288 36.7667 31.9956H36.5399V39.165L37.7705 39.3162ZM5.84206 11.0838C5.9023 11.2483 5.95141 11.4167 5.98906 11.5878C6.01426 11.7222 6.04366 11.8902 6.06886 12.096C6.11506 11.8986 6.15706 11.718 6.19486 11.5416C6.23266 11.3652 6.27886 11.2098 6.32086 11.0586L9.26086 1.85638H12.3689V2.54938H9.73546L6.06886 13.7802H5.71186L3.35986 7.67339C3.04777 7.61634 2.74968 7.49938 2.48206 7.32898V6.98458H4.39726L5.84206 11.0838Z" fill="#231F20"/>
<path d="M9.96656 12.432L11.2602 11.2224C12.9402 9.68939 13.8348 8.72339 13.8348 7.67759C13.8348 6.90059 13.3476 6.24539 12.285 6.24539C11.6593 6.28038 11.0583 6.50119 10.5588 6.87959L10.1388 5.95979C10.8522 5.40413 11.7335 5.10788 12.6378 5.11979C14.5656 5.11979 15.3636 6.32519 15.3636 7.42979C15.3636 8.96699 14.196 10.0926 12.6378 11.466L12.0036 12.0414V12.0792H15.498V13.188H9.96656V12.432Z" fill="#231F20"/>
</svg>
