<svg width="42" height="42" viewBox="0 0 42 42" fill="none" xmlns="http://www.w3.org/2000/svg">
<mask id="mask0" mask-type="alpha" maskUnits="userSpaceOnUse" x="0" y="4" width="39" height="34">
<path d="M0.419922 4.62H38.2107V37.9579H0.419922V4.62Z" fill="white"/>
</mask>
<g mask="url(#mask0)">
<path fill-rule="evenodd" clip-rule="evenodd" d="M25.5541 37.9577H1.60405C1.17691 37.9577 0.824534 37.7922 0.612434 37.494C0.402854 37.1979 0.362954 36.8002 0.501974 36.4003L11.1435 5.99192C11.4132 5.22332 12.2611 4.61978 13.0751 4.61978H37.0264C37.4536 4.61978 37.806 4.784 38.0176 5.08304C38.2297 5.38292 38.2688 5.771 38.1277 6.1763L27.487 36.5847C27.2169 37.3542 26.3681 37.9577 25.5541 37.9577ZM13.0751 5.17628C12.5026 5.17628 11.8592 5.63408 11.6698 6.1763L1.02781 36.5847C0.947174 36.814 0.960194 37.0228 1.06561 37.1719C1.17103 37.3197 1.36255 37.4012 1.60405 37.4012H25.5541C26.1266 37.4012 26.7713 36.9426 26.9607 36.4003L37.6014 5.99192C37.6821 5.7626 37.669 5.55386 37.5636 5.4056C37.459 5.25818 37.2679 5.17628 37.0264 5.17628H13.0751Z" fill="#231F20"/>
</g>
<path d="M4.68994 34.318H24.8726M13.1773 10.1828H33.36H13.1773ZM12.1166 13.1999H32.2993H12.1166ZM11.0555 16.2166H31.2382H11.0555ZM9.99488 19.2337H30.1776H9.99488ZM8.93341 22.2504H29.1165H8.93341ZM7.87274 25.2675H28.0558H7.87274ZM6.81166 28.2842H23.1912H6.81166ZM5.75061 31.3013H25.9337H5.75061Z" stroke="#231F20" stroke-width="0.25" stroke-linecap="round"/>
<path fill-rule="evenodd" clip-rule="evenodd" d="M7.87268 32.8968C6.84116 32.8968 6.002 33.5344 6.002 34.3181C6.002 35.1022 6.84116 35.7398 7.87268 35.7398C8.9042 35.7398 9.74378 35.1022 9.74378 34.3181C9.74378 33.5344 8.9042 32.8968 7.87268 32.8968ZM7.87268 36.2887C6.53834 36.2887 5.45264 35.4046 5.45264 34.3181C5.45264 33.2316 6.53834 32.347 7.87268 32.347C9.20744 32.347 10.2931 33.2316 10.2931 34.3181C10.2931 35.4046 9.20744 36.2887 7.87268 36.2887Z" fill="#231F20"/>
<path fill-rule="evenodd" clip-rule="evenodd" d="M28.6162 11.5823L29.4176 12.5315L30.67 11.5823L30.9388 11.9049L29.6927 12.8499L30.4898 13.7932L30.0618 14.1158L29.2651 13.1716L28.019 14.1158L27.7451 13.7932L28.9913 12.8499L28.1941 11.9049L28.6162 11.5823Z" fill="#231F20"/>
<path fill-rule="evenodd" clip-rule="evenodd" d="M25.8573 17.7605L26.6578 18.7101L27.9111 17.7605L28.179 18.0843L26.9333 19.0285L27.7309 19.9718L27.3021 20.2952L26.5053 19.3502L25.2592 20.2952L24.9854 19.9718L26.2307 19.0285L25.4339 18.0843L25.8573 17.7605Z" fill="#231F20"/>
<path fill-rule="evenodd" clip-rule="evenodd" d="M37.9234 19.3372L22.501 29.3005V31.505L24.609 32.6092L38.3816 23.7086L37.9234 19.3372Z" fill="#FEFEFE"/>
<path fill-rule="evenodd" clip-rule="evenodd" d="M40.9333 22.0597L38.3814 23.7086L36.273 20.4003L38.8199 18.7602C39.1786 18.5225 39.5881 18.3645 39.9354 18.3314C40.2828 18.2973 40.5482 18.3902 40.67 18.5804L41.8662 20.441C41.977 20.633 41.9506 20.9135 41.7754 21.2176C41.6003 21.5217 41.287 21.8308 40.9333 22.0597ZM34.7413 22.5242C34.6791 22.5301 34.6081 22.554 34.5304 22.604L26.2002 27.9872C26.1233 28.0367 26.0716 28.093 26.041 28.1463C25.9734 28.2631 26.0196 28.3341 26.1519 28.3215C26.2136 28.3156 26.285 28.2917 26.3619 28.2421L34.6934 22.8581C34.7707 22.8086 34.8211 22.7527 34.8522 22.6989C34.9198 22.5826 34.8736 22.5112 34.7413 22.5242ZM26.1254 30.6126L24.9351 28.7432L23.5361 29.647L22.9846 30.6042L24.2925 30.4778L23.6335 31.6227L24.7268 31.5164L26.1254 30.6126ZM37.3982 24.3441L24.6088 32.6088L20.3575 33.0209L22.5008 29.3001L35.2894 21.0357L37.3982 24.3441ZM18.7074 8.64966C15.8493 8.64966 13.5246 10.0886 13.5246 11.8572C13.5246 13.6254 15.8493 15.0639 18.7074 15.0639C21.5651 15.0639 23.8898 13.6254 23.8898 11.8572C23.8898 10.0886 21.5651 8.64966 18.7074 8.64966ZM18.7074 15.4801C15.62 15.4801 13.1088 13.8551 13.1088 11.8572C13.1088 9.85926 15.62 8.23386 18.7074 8.23386C21.7944 8.23386 24.3056 9.85926 24.3056 11.8572C24.3056 13.8551 21.7944 15.4801 18.7074 15.4801ZM15.0041 22.4309C10.4698 22.4309 6.63894 23.8996 6.63894 25.6389C6.63894 27.3768 10.4698 28.8451 15.0041 28.8451C19.5384 28.8451 23.3692 27.3768 23.3692 25.6389C23.3692 23.8996 19.5384 22.4309 15.0041 22.4309ZM15.0041 29.2614C10.08 29.2614 6.22314 27.67 6.22314 25.6389C6.22314 23.6069 10.08 22.0151 15.0041 22.0151C19.9282 22.0151 23.785 23.6069 23.785 25.6389C23.785 27.67 19.9282 29.2614 15.0041 29.2614ZM12.6592 15.0378L13.1422 15.4797L13.498 13.8677L11.9238 14.3654L12.4135 14.8131C11.1951 16.5053 10.9423 18.6834 11.7537 20.4865L11.1922 20.8397L12.6525 21.6091L12.5891 19.9598L12.0364 20.3084C11.3009 18.6318 11.5387 16.6166 12.6592 15.0378Z" fill="#231F20"/>
</svg>
