<svg width="42" height="42" viewBox="0 0 42 42" fill="none" xmlns="http://www.w3.org/2000/svg">
<path fill-rule="evenodd" clip-rule="evenodd" d="M7.12602 40.3133H7.24194V28.7079H7.12602V40.3133Z" fill="#231F20"/>
<path fill-rule="evenodd" clip-rule="evenodd" d="M1.25977 34.569H12.8715V34.4531H1.25977V34.569Z" fill="#231F20"/>
<path fill-rule="evenodd" clip-rule="evenodd" d="M3.70787 36.1785C3.67847 36.1785 3.64865 36.1676 3.62639 36.1449C3.58061 36.0995 3.58019 36.026 3.62597 35.9807L10.2359 29.3358C10.2809 29.2905 10.3544 29.2901 10.4001 29.3354C10.4451 29.3804 10.4455 29.4539 10.4006 29.4996L3.79019 36.1445C3.76793 36.1671 3.73769 36.1785 3.70787 36.1785Z" fill="#231F20"/>
<path fill-rule="evenodd" clip-rule="evenodd" d="M8.1266 37.4709C8.0972 37.4709 8.06696 37.46 8.0447 37.4373L1.39946 30.8274C1.3541 30.7816 1.3541 30.7081 1.39904 30.6632C1.4444 30.6178 1.5179 30.6174 1.56326 30.6623L8.20808 37.2723C8.25386 37.3181 8.25428 37.3916 8.2085 37.4365C8.18624 37.4596 8.156 37.4709 8.1266 37.4709ZM7.66393 32.581C7.66393 32.8305 7.46191 33.0325 7.21243 33.0325C6.96295 33.0325 6.76093 32.8305 6.76093 32.581C6.76093 32.3316 6.96295 32.1295 7.21243 32.1295C7.46191 32.1295 7.66393 32.3316 7.66393 32.581Z" fill="#231F20"/>
<path fill-rule="evenodd" clip-rule="evenodd" d="M5.70707 34.5014C5.70707 34.7509 5.50505 34.9529 5.25557 34.9529C5.00609 34.9529 4.80407 34.7509 4.80407 34.5014C4.80407 34.2519 5.00609 34.0499 5.25557 34.0499C5.50505 34.0499 5.70707 34.2519 5.70707 34.5014ZM15.205 24.2085C14.5927 23.4424 14.1718 22.5281 14.0135 21.5176C13.9681 21.2248 13.9236 20.9321 13.9236 20.6272C13.9236 17.4448 16.5125 14.856 19.6944 14.856C20.8826 14.856 21.9868 15.2184 22.9057 15.8362C23.7735 16.42 24.4614 17.2407 24.9087 18.1958C24.9108 18.2004 24.9142 18.205 24.9163 18.2101C25.2594 18.948 25.4648 19.7616 25.4648 20.6272C25.4648 23.8095 22.8759 26.3984 19.6944 26.3984C17.8771 26.3984 16.2727 25.537 15.2139 24.219C15.2113 24.2157 15.208 24.2123 15.205 24.2085ZM30.8232 29.9256L26.4526 25.5542L26.5828 25.3652C27.5463 23.9737 28.0545 22.3357 28.0545 20.6272C28.0545 19.6066 27.8617 18.6326 27.5253 17.7271C27.1524 16.7233 26.5938 15.8119 25.8886 15.0311C25.884 15.0265 25.8793 15.0219 25.8751 15.0168C25.2451 14.3238 24.5076 13.7299 23.6794 13.2789C22.4941 12.6329 21.1367 12.2662 19.6944 12.2662C15.0849 12.2662 11.3335 16.0173 11.3335 20.6272C11.3335 20.9279 11.3515 21.2248 11.3826 21.5176C11.4843 22.4727 11.7543 23.3761 12.1512 24.2085C12.1525 24.2123 12.1546 24.2157 12.1563 24.219C12.6523 25.2556 13.3524 26.1741 14.2092 26.9213C15.6792 28.2044 17.5948 28.9881 19.6944 28.9881C21.3782 28.9881 23.0607 28.4648 24.4316 27.5152L24.6206 27.3846L28.9911 31.7425C29.2276 31.9899 29.5577 32.1285 29.9004 32.1285C30.6027 32.1285 31.1949 31.535 31.1949 30.8328C31.1949 30.4968 31.0563 30.157 30.8232 29.9256Z" fill="#231F20"/>
<path d="M8.07966 1.68005C8.07672 1.68005 8.07378 1.68047 8.07084 1.68089L2.27694 2.49485C2.22864 2.50199 2.18874 2.54903 2.18874 2.59985L2.17656 8.85323C2.17656 8.88137 2.18832 8.90741 2.20806 8.92463C2.22402 8.93807 2.24418 8.94605 2.2656 8.94605C2.26938 8.94605 2.27358 8.94521 2.2782 8.94437L8.0721 8.13041C8.12208 8.12327 8.1603 8.07833 8.1603 8.02583L8.17206 1.77245C8.17206 1.74431 8.1603 1.71785 8.14056 1.70105C8.12544 1.68803 8.10738 1.68089 8.08764 1.68005H8.07966ZM2.28072 2.60027C2.28072 2.59397 2.2866 2.58683 2.28954 2.58557L8.08008 1.77245L8.06832 8.02541C8.06832 8.03297 8.06328 8.03885 8.05908 8.03969L2.26896 8.85323L2.28072 2.60027ZM8.0238 1.79219L2.32566 2.59313C2.30256 2.59649 2.28576 2.61581 2.28576 2.63849L2.27442 8.78897C2.27442 8.80283 2.2803 8.81501 2.28996 8.82383C2.29836 8.83139 2.30928 8.83517 2.3202 8.83517C2.3223 8.83517 2.3244 8.83517 2.3265 8.83475L8.02506 8.03381C8.04774 8.03087 8.06454 8.01155 8.06454 7.98845L8.0763 1.83797C8.0763 1.82495 8.07042 1.81193 8.06076 1.80311C8.05152 1.79555 8.0406 1.79177 8.02968 1.79177C8.02758 1.79177 8.0238 1.79219 8.0238 1.79219ZM2.37774 2.67923L7.9839 1.89089L7.97256 7.94855L2.3664 8.73605L2.37774 2.67923Z" fill="#231F20"/>
<path fill-rule="evenodd" clip-rule="evenodd" d="M2.37774 2.67923L2.3664 8.73605L7.97256 7.94855L7.9839 1.89089L2.37774 2.67923ZM2.3202 8.83517C2.30928 8.83517 2.29836 8.83139 2.28996 8.82383C2.2803 8.81501 2.27442 8.80283 2.27442 8.78897L2.28576 2.63849C2.28576 2.61581 2.30256 2.59649 2.32566 2.59313L8.0238 1.79219C8.03682 1.79051 8.05068 1.79429 8.06076 1.80311C8.07042 1.81193 8.0763 1.82495 8.0763 1.83797L8.06454 7.98845C8.06454 8.01155 8.04774 8.03087 8.02506 8.03381L2.3265 8.83475C2.3244 8.83517 2.3223 8.83517 2.3202 8.83517ZM8.08008 1.77245L2.28954 2.58557C2.2866 2.58683 2.28072 2.59397 2.28072 2.60027L2.26896 8.85323L8.05908 8.03969C8.06328 8.03885 8.06832 8.03297 8.06832 8.02541L8.08008 1.77245ZM2.2656 8.94605C2.24418 8.94605 2.22402 8.93807 2.20806 8.92463C2.18832 8.90741 2.17656 8.88137 2.17656 8.85323L2.18874 2.59985C2.18874 2.54903 2.22864 2.50199 2.27694 2.49485L8.07084 1.68089C8.09646 1.67753 8.12124 1.68467 8.14056 1.70105C8.1603 1.71785 8.17206 1.74431 8.17206 1.77245L8.1603 8.02583C8.1603 8.07833 8.12208 8.12327 8.0721 8.13041L2.2782 8.94437C2.27358 8.94521 2.26938 8.94605 2.2656 8.94605Z" fill="#231F20"/>
<path fill-rule="evenodd" clip-rule="evenodd" d="M5.34573 4.29348L5.33439 10.3507L10.9405 9.5628L10.9519 3.50556L5.34573 4.29348ZM5.28819 10.4498C5.27727 10.4498 5.26677 10.4456 5.25795 10.4385C5.24829 10.4293 5.24241 10.4171 5.24241 10.4036L5.25375 4.25316C5.25375 4.23048 5.27055 4.21116 5.29323 4.2078L10.9914 3.40728C11.0044 3.40518 11.0182 3.40938 11.0279 3.41778C11.0384 3.4266 11.0439 3.4392 11.0439 3.45264L11.0325 9.60312C11.0325 9.6258 11.0157 9.64512 10.993 9.64848L5.29449 10.449C5.29239 10.4494 5.29029 10.4498 5.28819 10.4498ZM11.0476 3.38712L5.25753 4.20066C5.25459 4.2015 5.24871 4.20864 5.24871 4.21494L5.23653 10.4683L11.0271 9.65394C11.0313 9.65352 11.0363 9.64764 11.0363 9.63966L11.0476 3.38712ZM5.23317 10.5603C5.21259 10.5603 5.19201 10.5527 5.17605 10.5389C5.15631 10.5217 5.14455 10.496 5.14455 10.4679L5.15631 4.21452C5.15673 4.16328 5.19663 4.11624 5.24493 4.10994L11.0388 3.29514C11.064 3.29136 11.0896 3.29892 11.1085 3.31572C11.1287 3.33294 11.14 3.35856 11.14 3.3867L11.1283 9.64008C11.1283 9.693 11.0901 9.73836 11.0397 9.74466L5.24577 10.5595C5.24157 10.5599 5.23737 10.5603 5.23317 10.5603Z" fill="#231F20"/>
<path d="M11.0388 3.29514L5.24493 4.10994C5.19663 4.11624 5.15673 4.16328 5.15631 4.21452L5.14455 10.4679C5.14455 10.496 5.15631 10.5217 5.17605 10.5389C5.19201 10.5527 5.21259 10.5603 5.23317 10.5603C5.23737 10.5603 5.24157 10.5599 5.24577 10.5595L11.0397 9.74466C11.0901 9.73836 11.1283 9.693 11.1283 9.64008L11.14 3.3867C11.14 3.35856 11.1287 3.33294 11.1085 3.31572C11.093 3.30186 11.0726 3.2941 11.0516 3.2941C11.0474 3.2941 11.043 3.2943 11.0388 3.29514ZM5.24871 4.21494C5.24871 4.20864 5.25459 4.2015 5.25753 4.20066L11.0476 3.38712L11.0363 9.63966C11.0363 9.64764 11.0313 9.65352 11.0271 9.65394L5.23653 10.4683L5.24871 4.21494ZM10.9914 3.40728L5.29323 4.2078C5.27055 4.21116 5.25375 4.23048 5.25375 4.25316L5.24241 10.4036C5.24241 10.4171 5.24829 10.4293 5.25795 10.4385C5.26677 10.4456 5.27727 10.4498 5.28819 10.4498C5.29029 10.4498 5.29239 10.4494 5.29449 10.449L10.993 9.64848C11.0157 9.64512 11.0325 9.6258 11.0325 9.60312L11.0439 3.45264C11.0439 3.4392 11.0384 3.4266 11.0279 3.41778C11.0199 3.41064 11.0092 3.40666 10.9983 3.40666C10.9962 3.40666 10.9935 3.40686 10.9914 3.40728ZM5.34573 4.29348L10.9519 3.50556L10.9405 9.5628L5.33439 10.3507L5.34573 4.29348Z" fill="#231F20"/>
<path fill-rule="evenodd" clip-rule="evenodd" d="M5.34573 4.29348L5.33439 10.3507L10.9405 9.5628L10.9519 3.50556L5.34573 4.29348ZM5.28819 10.4498C5.27727 10.4498 5.26677 10.4456 5.25795 10.4385C5.24829 10.4293 5.24241 10.4171 5.24241 10.4036L5.25375 4.25316C5.25375 4.23048 5.27055 4.21116 5.29323 4.2078L10.9914 3.40728C11.0044 3.40518 11.0182 3.40938 11.0279 3.41778C11.0384 3.4266 11.0439 3.4392 11.0439 3.45264L11.0325 9.60312C11.0325 9.6258 11.0157 9.64512 10.993 9.64848L5.29449 10.449C5.29239 10.4494 5.29029 10.4498 5.28819 10.4498ZM11.0476 3.38712L5.25753 4.20066C5.25459 4.2015 5.24871 4.20864 5.24871 4.21494L5.23653 10.4683L11.0271 9.65394C11.0313 9.65352 11.0363 9.64764 11.0363 9.63966L11.0476 3.38712ZM5.23317 10.5603C5.21259 10.5603 5.19201 10.5527 5.17605 10.5389C5.15631 10.5217 5.14455 10.496 5.14455 10.4679L5.15631 4.21452C5.15673 4.16328 5.19663 4.11624 5.24493 4.10994L11.0388 3.29514C11.064 3.29136 11.0896 3.29892 11.1085 3.31572C11.1287 3.33294 11.14 3.35856 11.14 3.3867L11.1283 9.64008C11.1283 9.693 11.0901 9.73836 11.0397 9.74466L5.24577 10.5595C5.24157 10.5599 5.23737 10.5603 5.23317 10.5603Z" fill="#231F20"/>
<path fill-rule="evenodd" clip-rule="evenodd" d="M11.0937 3.4326C11.0861 3.4326 11.0785 3.4305 11.0718 3.42672L8.10409 1.81266C8.08939 1.80468 8.08008 1.78925 8.08008 1.77245L8.08057 1.77066C8.05873 1.75848 8.05075 1.73076 8.06293 1.70892C8.07511 1.68666 8.10325 1.67826 8.12551 1.69044L11.0932 3.30492C11.1218 3.32046 11.14 3.35184 11.14 3.3867C11.14 3.40266 11.1315 3.4179 11.1176 3.42588C11.11 3.4305 11.1021 3.4326 11.0937 3.4326Z" fill="#231F20"/>
<path d="M8.07838 1.68005C8.07586 1.68005 8.07378 1.68047 8.07084 1.68089C8.05152 1.68341 8.03554 1.69853 8.03176 1.71869C8.02841 1.73801 8.03806 1.75733 8.05486 1.76699L11.023 3.38105C11.0322 3.38609 11.0394 3.38693 11.0486 3.38567C11.0562 3.38945 11.0633 3.39155 11.0709 3.39155C11.0873 3.39155 11.1032 3.38315 11.1116 3.36761C11.1238 3.34493 11.1155 3.3171 11.0932 3.30492L8.12551 1.69044C8.11375 1.68456 8.1019 1.68089 8.0893 1.68005" fill="#231F20"/>
<path fill-rule="evenodd" clip-rule="evenodd" d="M11.0937 3.4326C11.0861 3.4326 11.0785 3.4305 11.0718 3.42672L8.10409 1.81266C8.09191 1.80594 8.08311 1.79373 8.08059 1.78029L8.05486 1.76699C8.03806 1.75733 8.02841 1.73801 8.03176 1.71869C8.03554 1.69853 8.05152 1.68341 8.07084 1.68089C8.09646 1.67753 8.12124 1.68467 8.14056 1.70105C8.1456 1.70567 8.15031 1.70973 8.15409 1.71561L11.0563 3.29397C11.0756 3.29523 11.0938 3.30228 11.1085 3.31572C11.1287 3.33294 11.14 3.35856 11.14 3.3867C11.14 3.40266 11.1315 3.4179 11.1176 3.42588C11.11 3.4305 11.1021 3.4326 11.0937 3.4326Z" fill="#231F20"/>
<path d="M8.07838 1.68005C8.07586 1.68005 8.07378 1.68047 8.07084 1.68089C8.05152 1.68341 8.03554 1.69853 8.03176 1.71869C8.02841 1.73801 8.03806 1.75733 8.05486 1.76699L11.023 3.38105C11.0322 3.38609 11.0394 3.38693 11.0486 3.38567C11.0562 3.38945 11.0633 3.39155 11.0709 3.39155C11.0873 3.39155 11.1032 3.38315 11.1116 3.36761C11.1238 3.34493 11.1155 3.3171 11.0932 3.30492L8.12551 1.69044C8.11375 1.68456 8.1019 1.68089 8.0893 1.68005H8.07838Z" fill="#231F20"/>
<path fill-rule="evenodd" clip-rule="evenodd" d="M11.0486 3.38567L8.08057 1.77066L8.12411 1.68974L11.0922 3.30422L11.0486 3.38567Z" fill="#231F20"/>
<path d="M8.07838 1.68005C8.07586 1.68005 8.07378 1.68047 8.07084 1.68089C8.05152 1.68341 8.03554 1.69853 8.03176 1.71869C8.02841 1.73801 8.03806 1.75733 8.05486 1.76699L11.023 3.38105C11.0322 3.38609 11.0394 3.38693 11.0486 3.38567C11.0562 3.38945 11.0633 3.39155 11.0709 3.39155C11.0873 3.39155 11.1032 3.38315 11.1116 3.36761C11.1238 3.34493 11.1155 3.3171 11.0932 3.30492L8.12551 1.69044C8.11375 1.68456 8.1019 1.68089 8.0893 1.68005" fill="#231F20"/>
<path fill-rule="evenodd" clip-rule="evenodd" d="M11.0709 3.39155C11.0633 3.39155 11.0562 3.38945 11.0486 3.38567C11.0394 3.38693 11.0322 3.38609 11.023 3.38105L8.05486 1.76699C8.03806 1.75733 8.02841 1.73801 8.03176 1.71869C8.03554 1.69853 8.05152 1.68341 8.07084 1.68089C8.09058 1.67837 8.10871 1.68162 8.12551 1.69044L11.0932 3.30492C11.1155 3.3171 11.1238 3.34493 11.1116 3.36761C11.1032 3.38315 11.0873 3.39155 11.0709 3.39155Z" fill="#231F20"/>
<path fill-rule="evenodd" clip-rule="evenodd" d="M8.1601 7.99847L11.0363 9.56297L11.0476 3.41375L8.17144 1.84925L8.1601 7.99847ZM11.082 9.68645C11.0745 9.68645 11.0669 9.68435 11.0598 9.68057L8.09248 8.06609C8.07736 8.05811 8.06832 8.04221 8.06832 8.02541L8.08008 1.77245C8.08008 1.75649 8.08828 1.74089 8.10214 1.73249C8.11642 1.72451 8.13364 1.72409 8.14792 1.73165L11.1156 3.34613C11.1303 3.35411 11.14 3.36948 11.14 3.3867L11.1283 9.64008C11.1283 9.65604 11.1194 9.67133 11.1056 9.67973C11.0984 9.68435 11.0904 9.68645 11.082 9.68645Z" fill="#231F20"/>
<path d="M8.10214 1.73249C8.08828 1.74089 8.08008 1.75649 8.08008 1.77245L8.06832 8.02541C8.06832 8.04221 8.07736 8.05811 8.09248 8.06609L11.0598 9.68057C11.0669 9.68435 11.0745 9.68645 11.082 9.68645C11.0904 9.68645 11.0984 9.68435 11.1056 9.67973C11.1194 9.67133 11.1283 9.65604 11.1283 9.64008L11.14 3.3867C11.14 3.36948 11.1303 3.35411 11.1156 3.34613L8.14792 1.73165C8.14078 1.72829 8.13352 1.72583 8.12596 1.72583C8.11756 1.72583 8.10928 1.72829 8.10214 1.73249ZM8.1601 7.99847L8.17144 1.84925L11.0476 3.41375L11.0363 9.56297L8.1601 7.99847Z" fill="#231F20"/>
<path fill-rule="evenodd" clip-rule="evenodd" d="M8.1601 7.99847L11.0363 9.56297L11.0476 3.41375L8.17144 1.84925L8.1601 7.99847ZM11.082 9.68645C11.0745 9.68645 11.0669 9.68435 11.0598 9.68057L8.09248 8.06609C8.07736 8.05811 8.06832 8.04221 8.06832 8.02541L8.08008 1.77245C8.08008 1.75649 8.08828 1.74089 8.10214 1.73249C8.11642 1.72451 8.13364 1.72409 8.14792 1.73165L11.1156 3.34613C11.1303 3.35411 11.14 3.36948 11.14 3.3867L11.1283 9.64008C11.1283 9.65604 11.1194 9.67133 11.1056 9.67973C11.0984 9.68435 11.0904 9.68645 11.082 9.68645Z" fill="#231F20"/>
<path fill-rule="evenodd" clip-rule="evenodd" d="M11.0333 9.74571C11.0253 9.74571 11.0182 9.74361 11.0114 9.73983L8.04372 8.12577C8.02608 8.11611 8.01642 8.09637 8.0202 8.07663C8.02356 8.05731 8.03934 8.04221 8.05908 8.03969C8.06328 8.03885 8.06832 8.03297 8.06832 8.02541C8.06832 8.00903 8.0769 7.99431 8.09076 7.98633C8.10462 7.97793 8.12184 7.97751 8.13654 7.98549L11.1038 9.59955C11.119 9.60795 11.1283 9.62328 11.1283 9.64008C11.1283 9.693 11.0901 9.73836 11.0397 9.74466C11.0376 9.74508 11.0354 9.74571 11.0333 9.74571Z" fill="#231F20"/>
<path d="M8.09076 7.98633C8.0769 7.99431 8.06832 8.00903 8.06832 8.02541C8.06832 8.03297 8.06328 8.03885 8.05908 8.03969C8.03934 8.04221 8.02356 8.05731 8.0202 8.07663C8.01642 8.09637 8.02608 8.11611 8.04372 8.12577L11.0114 9.73983C11.0182 9.74361 11.0253 9.74571 11.0333 9.74571C11.0354 9.74571 11.0376 9.74508 11.0397 9.74466C11.0901 9.73836 11.1283 9.693 11.1283 9.64008C11.1283 9.62328 11.119 9.60795 11.1038 9.59955L8.13654 7.98549C8.1294 7.98171 8.12162 7.97962 8.11407 7.97962C8.10609 7.97962 8.0979 7.98213 8.09076 7.98633Z" fill="#231F20"/>
<path fill-rule="evenodd" clip-rule="evenodd" d="M11.0333 9.74571C11.0253 9.74571 11.0182 9.74361 11.0114 9.73983L8.04372 8.12577C8.02608 8.11611 8.01642 8.09637 8.0202 8.07663C8.02356 8.05731 8.03934 8.04221 8.05908 8.03969C8.06328 8.03885 8.06832 8.03297 8.06832 8.02541C8.06832 8.00903 8.0769 7.99431 8.09076 7.98633C8.10462 7.97793 8.12184 7.97751 8.13654 7.98549L11.1038 9.59955C11.119 9.60795 11.1283 9.62328 11.1283 9.64008C11.1283 9.693 11.0901 9.73836 11.0397 9.74466C11.0376 9.74508 11.0354 9.74571 11.0333 9.74571Z" fill="#231F20"/>
<path d="M8.09076 7.98633C8.0769 7.99431 8.06832 8.00903 8.06832 8.02541C8.06832 8.03297 8.06328 8.03885 8.05908 8.03969C8.03934 8.04221 8.02356 8.05731 8.0202 8.07663C8.01642 8.09637 8.02608 8.11611 8.04372 8.12577L11.0114 9.73983C11.0182 9.74361 11.0253 9.74571 11.0333 9.74571C11.0354 9.74571 11.0376 9.74508 11.0397 9.74466C11.0901 9.73836 11.1283 9.693 11.1283 9.64008C11.1283 9.62328 11.119 9.60795 11.1038 9.59955L8.13654 7.98549C8.1294 7.98171 8.12162 7.97962 8.11407 7.97962C8.10609 7.97962 8.0979 7.98213 8.09076 7.98633Z" fill="#231F20"/>
<path fill-rule="evenodd" clip-rule="evenodd" d="M11.0531 9.70837L8.08578 8.09389L8.12946 8.01325L11.0968 9.62773L11.0531 9.70837Z" fill="#231F20"/>
<path d="M8.09076 7.98633C8.0769 7.99431 8.06832 8.00903 8.06832 8.02541C8.06832 8.03297 8.06328 8.03885 8.05908 8.03969C8.03934 8.04221 8.02356 8.05731 8.0202 8.07663C8.01642 8.09637 8.02608 8.11611 8.04372 8.12577L11.0114 9.73983C11.0182 9.74361 11.0253 9.74571 11.0333 9.74571C11.0354 9.74571 11.0376 9.74508 11.0397 9.74466C11.0901 9.73836 11.1283 9.693 11.1283 9.64008C11.1283 9.62328 11.119 9.60795 11.1038 9.59955L8.13654 7.98549C8.1294 7.98171 8.12162 7.97962 8.11407 7.97962C8.10609 7.97962 8.0979 7.98213 8.09076 7.98633Z" fill="#231F20"/>
<path fill-rule="evenodd" clip-rule="evenodd" d="M11.0361 9.72934L8.06842 8.11486L8.1121 8.03422L11.0802 9.6487L11.0361 9.72934Z" fill="#231F20"/>
<path d="M8.09076 7.98633C8.0769 7.99431 8.06832 8.00903 8.06832 8.02541C8.06832 8.03297 8.06328 8.03885 8.05908 8.03969C8.03934 8.04221 8.02356 8.05731 8.0202 8.07663C8.01642 8.09637 8.02608 8.11611 8.04372 8.12577L11.0114 9.73983C11.0182 9.74361 11.0253 9.74571 11.0333 9.74571C11.0354 9.74571 11.0376 9.74508 11.0397 9.74466C11.0901 9.73836 11.1283 9.693 11.1283 9.64008C11.1283 9.62328 11.119 9.60795 11.1038 9.59955L8.13654 7.98549C8.1294 7.98171 8.12162 7.97962 8.11407 7.97962C8.10609 7.97962 8.0979 7.98213 8.09076 7.98633Z" fill="#231F20"/>
<path fill-rule="evenodd" clip-rule="evenodd" d="M11.0333 9.74571C11.0253 9.74571 11.0182 9.74361 11.0114 9.73983L8.04372 8.12577C8.02608 8.11611 8.01642 8.09637 8.0202 8.07663C8.02356 8.05731 8.03934 8.04221 8.05908 8.03969C8.06328 8.03885 8.06832 8.03297 8.06832 8.02541C8.06832 8.00903 8.0769 7.99431 8.09076 7.98633C8.10462 7.97793 8.12184 7.97751 8.13654 7.98549L11.1038 9.59955C11.119 9.60795 11.1283 9.62328 11.1283 9.64008C11.1283 9.693 11.0901 9.73836 11.0397 9.74466C11.0376 9.74508 11.0354 9.74571 11.0333 9.74571Z" fill="#231F20"/>
<path fill-rule="evenodd" clip-rule="evenodd" d="M2.41607 8.9254L5.24813 10.466L10.8892 9.67342L8.05709 8.13244L2.41607 8.9254ZM5.23973 10.56C5.23175 10.56 5.22461 10.5579 5.21747 10.5542L2.24975 8.93968C2.23253 8.93044 2.22287 8.9107 2.22665 8.89138C2.23001 8.87164 2.24555 8.85652 2.26571 8.85358L8.05908 8.03969C8.06832 8.03843 8.07893 8.04004 8.08775 8.04466L11.0555 9.65914C11.0727 9.6688 11.0824 9.68812 11.0786 9.70744C11.0752 9.72718 11.0594 9.74214 11.0397 9.74466L5.24577 10.5595C5.24367 10.5599 5.24183 10.56 5.23973 10.56Z" fill="#231F20"/>
<path d="M8.05908 8.03969L2.26571 8.85358C2.24555 8.85652 2.23001 8.87164 2.22665 8.89138C2.22287 8.9107 2.23253 8.93044 2.24975 8.93968L5.21747 10.5542C5.22461 10.5579 5.23175 10.56 5.23973 10.56C5.24183 10.56 5.24367 10.5599 5.24577 10.5595L11.0397 9.74466C11.0594 9.74214 11.0752 9.72718 11.0786 9.70744C11.0824 9.68812 11.0727 9.6688 11.0555 9.65914L8.08775 8.04466C8.08103 8.04088 8.07287 8.03884 8.06573 8.03884C8.06321 8.03884 8.06118 8.03927 8.05908 8.03969ZM2.41607 8.9254L8.05709 8.13244L10.8892 9.67342L5.24813 10.466L2.41607 8.9254Z" fill="#231F20"/>
<path fill-rule="evenodd" clip-rule="evenodd" d="M2.41607 8.9254L5.24813 10.466L10.8892 9.67342L8.05709 8.13244L2.41607 8.9254ZM5.23973 10.56C5.23175 10.56 5.22461 10.5579 5.21747 10.5542L2.24975 8.93968C2.23253 8.93044 2.22287 8.9107 2.22665 8.89138C2.23001 8.87164 2.24555 8.85652 2.26571 8.85358L8.05908 8.03969C8.06832 8.03843 8.07893 8.04004 8.08775 8.04466L11.0555 9.65914C11.0727 9.6688 11.0824 9.68812 11.0786 9.70744C11.0752 9.72718 11.0594 9.74214 11.0397 9.74466L5.24577 10.5595C5.24367 10.5599 5.24183 10.56 5.23973 10.56Z" fill="#231F20"/>
<path fill-rule="evenodd" clip-rule="evenodd" d="M5.21328 10.5554C5.20572 10.5554 5.19858 10.5533 5.19144 10.5495L2.22372 8.93542C2.19474 8.91946 2.17656 8.88809 2.17656 8.85323C2.17656 8.83685 2.18592 8.82244 2.19978 8.81404C2.21364 8.80606 2.23044 8.80564 2.24514 8.81362L5.21286 10.4277C5.22756 10.4357 5.23653 10.4515 5.23653 10.4683C5.25795 10.4805 5.26578 10.5092 5.25402 10.531C5.24562 10.5465 5.22966 10.5554 5.21328 10.5554Z" fill="#231F20"/>
<path d="M2.19978 8.81404C2.18592 8.82244 2.17656 8.83685 2.17656 8.85323C2.17656 8.88809 2.19474 8.91946 2.22372 8.93542L5.19144 10.5495C5.19858 10.5533 5.20572 10.5554 5.21328 10.5554C5.22966 10.5554 5.24562 10.5465 5.25402 10.531C5.2662 10.5087 5.25768 10.4816 5.23626 10.4694L5.23653 10.4683C5.23653 10.4515 5.22756 10.4357 5.21286 10.4277L2.24514 8.81362C2.23842 8.80984 2.23032 8.80747 2.22318 8.80747C2.2152 8.80747 2.20734 8.80984 2.19978 8.81404Z" fill="#231F20"/>
<path fill-rule="evenodd" clip-rule="evenodd" d="M5.23317 10.5603C5.21259 10.5603 5.19201 10.5527 5.17605 10.5389C5.17143 10.5343 5.16702 10.5298 5.16282 10.5243L2.26104 8.94595C2.24172 8.94469 2.22276 8.93765 2.20806 8.92463C2.18832 8.90741 2.17746 8.88169 2.17746 8.85397C2.17788 8.83717 2.18634 8.82202 2.19978 8.81404C2.21364 8.80606 2.23044 8.80564 2.24514 8.81362L5.21286 10.4277C5.22504 10.434 5.2338 10.4466 5.23632 10.4596L5.26153 10.4735C5.27917 10.4827 5.28883 10.5025 5.28504 10.5218C5.28168 10.5415 5.26551 10.5565 5.24577 10.5595C5.24157 10.5599 5.23737 10.5603 5.23317 10.5603Z" fill="#231F20"/>
<path d="M2.19978 8.81404C2.18592 8.82244 2.17656 8.83685 2.17656 8.85323C2.17656 8.88809 2.19474 8.91946 2.22372 8.93542L5.19144 10.5495C5.19858 10.5533 5.20572 10.5554 5.21328 10.5554C5.22966 10.5554 5.24562 10.5465 5.25402 10.531C5.2662 10.5087 5.25768 10.4816 5.23626 10.4694L5.23653 10.4683C5.23653 10.4515 5.22756 10.4357 5.21286 10.4277L2.24514 8.81362C2.23842 8.80984 2.23032 8.80747 2.22318 8.80747C2.2152 8.80747 2.20734 8.80984 2.19978 8.81404Z" fill="#231F20"/>
<path fill-rule="evenodd" clip-rule="evenodd" d="M5.17524 10.5345L2.20752 8.92L2.25162 8.83936L5.21934 10.4538L5.17524 10.5345Z" fill="#231F20"/>
<path d="M2.19978 8.81404C2.18592 8.82244 2.17656 8.83685 2.17656 8.85323C2.17656 8.88809 2.19474 8.91946 2.22372 8.93542L5.19144 10.5495C5.19858 10.5533 5.20572 10.5554 5.21328 10.5554C5.22966 10.5554 5.24562 10.5465 5.25402 10.531C5.2662 10.5087 5.25768 10.4816 5.23626 10.4694L5.23653 10.4683C5.23653 10.4515 5.22756 10.4357 5.21286 10.4277L2.24514 8.81362C2.23842 8.80984 2.23032 8.80747 2.22318 8.80747C2.2152 8.80747 2.20734 8.80984 2.19978 8.81404Z" fill="#231F20"/>
<path fill-rule="evenodd" clip-rule="evenodd" d="M5.21328 10.5554C5.20572 10.5554 5.19858 10.5533 5.19144 10.5495L2.22372 8.93542C2.19474 8.91946 2.17746 8.88883 2.17746 8.85397C2.17788 8.83717 2.18634 8.82202 2.19978 8.81404C2.21364 8.80606 2.23044 8.80564 2.24514 8.81362L5.21286 10.4277C5.22756 10.4357 5.23653 10.4515 5.23653 10.4683L5.23626 10.4694C5.25768 10.4816 5.2662 10.5087 5.25402 10.531C5.24562 10.5465 5.22966 10.5554 5.21328 10.5554Z" fill="#231F20"/>
<path fill-rule="evenodd" clip-rule="evenodd" d="M5.23317 10.5603C5.21805 10.5603 5.20404 10.5566 5.19144 10.5495L2.22372 8.93542C2.20104 8.92324 2.19283 8.89519 2.20543 8.87293C2.21719 8.85067 2.24345 8.84266 2.26571 8.85358C2.27453 8.85274 2.28607 8.85445 2.29363 8.85907L5.26153 10.4735C5.27917 10.4827 5.28883 10.5025 5.28504 10.5218C5.28168 10.5415 5.26551 10.5565 5.24577 10.5595C5.24157 10.5599 5.23737 10.5603 5.23317 10.5603Z" fill="#231F20"/>
<path d="M2.20543 8.87293C2.19283 8.89519 2.20104 8.92324 2.22372 8.93542L5.19144 10.5495C5.20404 10.5566 5.21805 10.5603 5.23317 10.5603C5.23737 10.5603 5.24157 10.5599 5.24577 10.5595C5.26551 10.5565 5.28168 10.5415 5.28504 10.5218C5.28883 10.5025 5.27917 10.4827 5.26153 10.4735L2.29363 8.85907C2.28607 8.85445 2.27453 8.85274 2.26571 8.85358C2.25899 8.85064 2.25275 8.84862 2.24603 8.84862C2.22965 8.84862 2.21383 8.85781 2.20543 8.87293Z" fill="#231F20"/>
<path fill-rule="evenodd" clip-rule="evenodd" d="M5.23317 10.5603C5.21259 10.5603 5.19201 10.5527 5.17605 10.5389C5.17143 10.5343 5.16702 10.5298 5.16282 10.5243L2.26104 8.94595C2.24172 8.94469 2.22276 8.93765 2.20806 8.92463C2.18832 8.90741 2.17746 8.88169 2.17746 8.85397C2.17788 8.83717 2.18634 8.82202 2.19978 8.81404C2.21364 8.80606 2.23044 8.80564 2.24514 8.81362L5.21286 10.4277C5.22504 10.434 5.2338 10.4466 5.23632 10.4596L5.26153 10.4735C5.27917 10.4827 5.28883 10.5025 5.28504 10.5218C5.28168 10.5415 5.26551 10.5565 5.24577 10.5595C5.24157 10.5599 5.23737 10.5603 5.23317 10.5603Z" fill="#231F20"/>
<path d="M2.20543 8.87293C2.19283 8.89519 2.20104 8.92324 2.22372 8.93542L5.19144 10.5495C5.20404 10.5566 5.21805 10.5603 5.23317 10.5603C5.23737 10.5603 5.24157 10.5599 5.24577 10.5595C5.26551 10.5565 5.28168 10.5415 5.28504 10.5218C5.28883 10.5025 5.27917 10.4827 5.26153 10.4735L2.29363 8.85907C2.28607 8.85445 2.27453 8.85274 2.26571 8.85358C2.25899 8.85064 2.25275 8.84862 2.24603 8.84862C2.22965 8.84862 2.21383 8.85781 2.20543 8.87293Z" fill="#231F20"/>
<path fill-rule="evenodd" clip-rule="evenodd" d="M5.19317 10.5509L2.22545 8.93598L2.26955 8.85534L5.23727 10.4702L5.19317 10.5509Z" fill="#231F20"/>
<path d="M2.20543 8.87293C2.19283 8.89519 2.20104 8.92324 2.22372 8.93542L5.19144 10.5495C5.20404 10.5566 5.21805 10.5603 5.23317 10.5603C5.23737 10.5603 5.24157 10.5599 5.24577 10.5595C5.26551 10.5565 5.28168 10.5415 5.28504 10.5218C5.28883 10.5025 5.27917 10.4827 5.26153 10.4735L2.29363 8.85907C2.28607 8.85445 2.27453 8.85274 2.26571 8.85358C2.25899 8.85064 2.25275 8.84862 2.24603 8.84862C2.22965 8.84862 2.21383 8.85781 2.20543 8.87293Z" fill="#231F20"/>
<path fill-rule="evenodd" clip-rule="evenodd" d="M5.23317 10.5603C5.21805 10.5603 5.20404 10.5566 5.19144 10.5495L2.22372 8.93542C2.20104 8.92324 2.19283 8.89519 2.20543 8.87293C2.21719 8.85067 2.24345 8.84266 2.26571 8.85358C2.27453 8.85274 2.28607 8.85445 2.29363 8.85907L5.26153 10.4735C5.27917 10.4827 5.28883 10.5025 5.28504 10.5218C5.28168 10.5415 5.26551 10.5565 5.24577 10.5595C5.24157 10.5599 5.23737 10.5603 5.23317 10.5603Z" fill="#231F20"/>
<path fill-rule="evenodd" clip-rule="evenodd" d="M2.26926 8.82611L5.145 10.391L5.15634 4.24181L2.2806 2.67731L2.26926 8.82611ZM5.19078 10.5141C5.18322 10.5141 5.17566 10.5124 5.16894 10.5086L2.20122 8.89415C2.18652 8.88617 2.17746 8.87077 2.17746 8.85397L2.18874 2.59985C2.18874 2.58389 2.19744 2.56895 2.21088 2.56055C2.22516 2.55215 2.24238 2.55215 2.25666 2.55971L5.22438 4.17419C5.23908 4.18217 5.24871 4.19772 5.24871 4.21494L5.23653 10.4683C5.23653 10.4843 5.22816 10.4994 5.21472 10.5078C5.20716 10.512 5.19918 10.5141 5.19078 10.5141Z" fill="#231F20"/>
<path d="M2.21088 2.56055C2.19744 2.56895 2.18874 2.58389 2.18874 2.59985L2.17656 8.85323C2.17656 8.87045 2.18652 8.88617 2.20122 8.89415L5.16894 10.5086C5.17566 10.5124 5.18322 10.5141 5.19078 10.5141C5.19918 10.5141 5.20716 10.512 5.21472 10.5078C5.22816 10.4994 5.23653 10.4843 5.23653 10.4683L5.24871 4.21494C5.24871 4.19772 5.23908 4.18217 5.22438 4.17419L2.25666 2.55971C2.24994 2.55593 2.24208 2.55404 2.2341 2.55404C2.22612 2.55404 2.21844 2.55635 2.21088 2.56055ZM2.26926 8.82611L2.2806 2.67731L5.15634 4.24181L5.145 10.391L2.26926 8.82611Z" fill="#231F20"/>
<path fill-rule="evenodd" clip-rule="evenodd" d="M2.26926 8.82611L5.145 10.391L5.15634 4.24181L2.2806 2.67731L2.26926 8.82611ZM5.19078 10.5141C5.18322 10.5141 5.17566 10.5124 5.16894 10.5086L2.20122 8.89415C2.18652 8.88617 2.17656 8.87045 2.17656 8.85323L2.18874 2.59985C2.18874 2.58389 2.19744 2.56895 2.21088 2.56055C2.22516 2.55215 2.24238 2.55215 2.25666 2.55971L5.22438 4.17419C5.23908 4.18217 5.24871 4.19772 5.24871 4.21494L5.23653 10.4683C5.23653 10.4843 5.22816 10.4994 5.21472 10.5078C5.20716 10.512 5.19918 10.5141 5.19078 10.5141Z" fill="#231F20"/>
<path fill-rule="evenodd" clip-rule="evenodd" d="M5.20274 4.26068C5.19476 4.26068 5.18762 4.25858 5.18048 4.2548L2.21276 2.64074C2.19806 2.63234 2.18832 2.61665 2.18874 2.59985C2.18874 2.54903 2.22864 2.50199 2.27694 2.49485C2.28702 2.49359 2.29676 2.49584 2.30558 2.50046L5.2733 4.11452C5.29094 4.12418 5.30018 4.14392 5.29682 4.16366C5.29304 4.18298 5.27727 4.19814 5.25753 4.20066C5.25459 4.2015 5.24871 4.20864 5.24871 4.21494C5.24871 4.23132 5.24012 4.24598 5.22626 4.25396C5.2187 4.25816 5.21114 4.26068 5.20274 4.26068Z" fill="#231F20"/>
<path d="M2.27694 2.49485C2.22864 2.50199 2.18874 2.54903 2.18874 2.59985C2.18832 2.61665 2.19806 2.63234 2.21276 2.64074L5.18048 4.2548C5.18762 4.25858 5.19476 4.26068 5.20274 4.26068C5.21114 4.26068 5.2187 4.25816 5.22626 4.25396C5.24012 4.24598 5.24871 4.23132 5.24871 4.21494C5.24871 4.20864 5.25459 4.2015 5.25753 4.20066C5.27727 4.19814 5.29304 4.18298 5.29682 4.16366C5.30018 4.14392 5.29094 4.12418 5.2733 4.11452L2.30558 2.50046C2.29886 2.49668 2.2909 2.49445 2.28334 2.49445C2.28124 2.49445 2.27904 2.49485 2.27694 2.49485Z" fill="#231F20"/>
<path fill-rule="evenodd" clip-rule="evenodd" d="M5.20274 4.26068C5.19476 4.26068 5.18762 4.25858 5.18048 4.2548L2.21276 2.64074C2.19806 2.63234 2.18832 2.61665 2.18874 2.59985C2.18874 2.54903 2.22864 2.50199 2.27694 2.49485C2.28702 2.49359 2.29676 2.49584 2.30558 2.50046L5.2733 4.11452C5.29094 4.12418 5.30018 4.14392 5.29682 4.16366C5.29304 4.18298 5.27727 4.19814 5.25753 4.20066C5.25459 4.2015 5.24871 4.20864 5.24871 4.21494C5.24871 4.23132 5.24012 4.24598 5.22626 4.25396C5.2187 4.25816 5.21114 4.26068 5.20274 4.26068Z" fill="#231F20"/>
<path d="M2.27694 2.49485C2.22864 2.50199 2.18874 2.54903 2.18874 2.59985C2.18832 2.61665 2.19806 2.63234 2.21276 2.64074L5.18048 4.2548C5.18762 4.25858 5.19476 4.26068 5.20274 4.26068C5.21114 4.26068 5.2187 4.25816 5.22626 4.25396C5.24012 4.24598 5.24871 4.23132 5.24871 4.21494C5.24871 4.20864 5.25459 4.2015 5.25753 4.20066C5.27727 4.19814 5.29304 4.18298 5.29682 4.16366C5.30018 4.14392 5.29094 4.12418 5.2733 4.11452L2.30558 2.50046C2.29886 2.49668 2.2909 2.49445 2.28334 2.49445C2.28124 2.49445 2.27904 2.49485 2.27694 2.49485Z" fill="#231F20"/>
<path fill-rule="evenodd" clip-rule="evenodd" d="M5.18753 4.22783L2.21981 2.61335L2.26349 2.53271L5.23121 4.14719L5.18753 4.22783Z" fill="#231F20"/>
<path d="M2.27694 2.49485C2.22864 2.50199 2.18874 2.54903 2.18874 2.59985C2.18832 2.61665 2.19806 2.63234 2.21276 2.64074L5.18048 4.2548C5.18762 4.25858 5.19476 4.26068 5.20274 4.26068C5.21114 4.26068 5.2187 4.25816 5.22626 4.25396C5.24012 4.24598 5.24871 4.23132 5.24871 4.21494C5.24871 4.20864 5.25459 4.2015 5.25753 4.20066C5.27727 4.19814 5.29304 4.18298 5.29682 4.16366C5.30018 4.14392 5.29094 4.12418 5.2733 4.11452L2.30558 2.50046C2.29886 2.49668 2.2909 2.49445 2.28334 2.49445C2.28124 2.49445 2.27904 2.49485 2.27694 2.49485Z" fill="#231F20"/>
<path fill-rule="evenodd" clip-rule="evenodd" d="M5.20517 4.20599L2.23745 2.59151L2.28113 2.51087L5.24885 4.12535L5.20517 4.20599Z" fill="#231F20"/>
<path fill-rule="evenodd" clip-rule="evenodd" d="M5.20274 4.26068C5.19476 4.26068 5.18762 4.25858 5.18048 4.2548L2.21276 2.64074C2.19806 2.63234 2.18832 2.61665 2.18874 2.59985C2.18874 2.54903 2.22864 2.50199 2.27694 2.49485C2.28702 2.49359 2.29676 2.49584 2.30558 2.50046L5.2733 4.11452C5.29094 4.12418 5.30018 4.14392 5.29682 4.16366C5.29304 4.18298 5.27727 4.19814 5.25753 4.20066C5.25459 4.2015 5.24871 4.20864 5.24871 4.21494C5.24871 4.23132 5.24012 4.24598 5.22626 4.25396C5.2187 4.25816 5.21114 4.26068 5.20274 4.26068Z" fill="#231F20"/>
<path fill-rule="evenodd" clip-rule="evenodd" d="M2.42786 2.56677L5.25992 4.10775L10.9009 3.31479L8.06888 1.77423L2.42786 2.56677ZM5.25152 4.20141C5.24354 4.20141 5.23598 4.19931 5.22926 4.19553L2.26154 2.58105C2.24432 2.57181 2.23466 2.55207 2.23802 2.53275C2.2418 2.51301 2.2572 2.49779 2.27694 2.49485L8.07084 1.68089C8.08008 1.67963 8.09072 1.68141 8.09912 1.68603L11.0668 3.30051C11.0845 3.31017 11.0941 3.32949 11.0904 3.34881C11.0866 3.36855 11.071 3.38367 11.0513 3.38661L5.25753 4.20066C5.25543 4.20108 5.25362 4.20141 5.25152 4.20141Z" fill="#231F20"/>
<path fill-rule="evenodd" clip-rule="evenodd" d="M2.42786 2.56677L5.25992 4.10775L10.9009 3.31479L8.06888 1.77423L2.42786 2.56677ZM5.25152 4.20141C5.24354 4.20141 5.23598 4.19931 5.22926 4.19553L2.26154 2.58105C2.24432 2.57181 2.23466 2.55207 2.23802 2.53275C2.2418 2.51301 2.2572 2.49779 2.27694 2.49485L8.07084 1.68089C8.08008 1.67963 8.09072 1.68141 8.09912 1.68603L11.0668 3.30051C11.0845 3.31017 11.0941 3.32949 11.0904 3.34881C11.0866 3.36855 11.071 3.38367 11.0513 3.38661L5.25753 4.20066C5.25543 4.20108 5.25362 4.20141 5.25152 4.20141Z" fill="#231F20"/>
<path fill-rule="evenodd" clip-rule="evenodd" d="M8.06476 7.96116L10.9409 9.52566L10.9523 3.47976L8.0761 1.91526L8.06476 7.96116ZM10.9867 9.64914C10.9791 9.64914 10.9716 9.64704 10.9649 9.64326L7.99714 8.02878C7.98202 8.0208 7.97278 8.00484 7.97278 7.98804L7.98454 1.83798C7.98454 1.82202 7.99294 1.8069 8.0068 1.7985C8.02108 1.79052 8.0383 1.7901 8.05216 1.79766L11.0199 3.41214C11.035 3.42012 11.0439 3.43584 11.0439 3.45264L11.0325 9.60312C11.0325 9.6195 11.0241 9.63402 11.0102 9.64242C11.0031 9.64704 10.9951 9.64914 10.9867 9.64914Z" fill="#231F20"/>
<path fill-rule="evenodd" clip-rule="evenodd" d="M8.06476 7.96116L10.9409 9.52566L10.9523 3.47976L8.0761 1.91526L8.06476 7.96116ZM10.9867 9.64914C10.9791 9.64914 10.9716 9.64704 10.9649 9.64326L7.99714 8.02878C7.98202 8.0208 7.97278 8.00484 7.97278 7.98804L7.98454 1.83798C7.98454 1.82202 7.99294 1.8069 8.0068 1.7985C8.02108 1.79052 8.0383 1.7901 8.05216 1.79766L11.0199 3.41214C11.035 3.42012 11.0439 3.43584 11.0439 3.45264L11.0325 9.60312C11.0325 9.6195 11.0241 9.63402 11.0102 9.64242C11.0031 9.64704 10.9951 9.64914 10.9867 9.64914Z" fill="#231F20"/>
<path fill-rule="evenodd" clip-rule="evenodd" d="M2.47641 2.66523L5.30847 4.20579L10.8537 3.42627L8.02167 1.88613L2.47641 2.66523ZM5.30007 4.29945C5.29209 4.29945 5.28495 4.29777 5.27781 4.29399L2.31009 2.67909C2.29287 2.66985 2.28321 2.65053 2.28699 2.63079C2.29035 2.61105 2.3055 2.59607 2.32566 2.59313L8.0238 1.79219C8.03346 1.79093 8.04418 1.79262 8.05216 1.79766L11.0199 3.41214C11.0375 3.4218 11.0469 3.44139 11.0432 3.46071C11.0402 3.48003 11.0247 3.49557 11.0045 3.49809L5.30595 4.29903C5.30385 4.29945 5.30217 4.29945 5.30007 4.29945Z" fill="#231F20"/>
<path fill-rule="evenodd" clip-rule="evenodd" d="M2.47641 2.66523L5.30847 4.20579L10.8537 3.42627L8.02167 1.88613L2.47641 2.66523ZM5.30007 4.29945C5.29209 4.29945 5.28495 4.29777 5.27781 4.29399L2.31009 2.67909C2.29287 2.66985 2.28321 2.65053 2.28699 2.63079C2.29035 2.61105 2.3055 2.59607 2.32566 2.59313L8.0238 1.79219C8.03346 1.79093 8.04418 1.79262 8.05216 1.79766L11.0199 3.41214C11.0375 3.4218 11.0469 3.44139 11.0432 3.46071C11.0402 3.48003 11.0247 3.49557 11.0045 3.49809L5.30595 4.29903C5.30385 4.29945 5.30217 4.29945 5.30007 4.29945Z" fill="#231F20"/>
<path fill-rule="evenodd" clip-rule="evenodd" d="M2.36626 8.76217L5.24242 10.3267L5.25376 4.28077L2.3776 2.71585L2.36626 8.76217ZM5.28819 10.4498C5.28021 10.4498 5.27308 10.4481 5.26594 10.4443L2.29822 8.82979C2.28352 8.82181 2.27442 8.80577 2.27442 8.78897L2.28576 2.63849C2.28576 2.62211 2.29444 2.60791 2.3083 2.59951C2.32216 2.59111 2.3398 2.59111 2.35366 2.59867L5.32138 4.21315C5.3365 4.22071 5.34574 4.23667 5.34574 4.25347L5.33398 10.404C5.33398 10.4199 5.32558 10.435 5.31172 10.4434C5.30458 10.4476 5.29659 10.4498 5.28819 10.4498Z" fill="#231F20"/>
<path fill-rule="evenodd" clip-rule="evenodd" d="M2.36626 8.76217L5.24242 10.3267L5.25376 4.28077L2.3776 2.71585L2.36626 8.76217ZM5.28819 10.4498C5.28021 10.4498 5.27308 10.4481 5.26594 10.4443L2.29822 8.82979C2.28352 8.82181 2.27442 8.80577 2.27442 8.78897L2.28576 2.63849C2.28576 2.62211 2.29444 2.60791 2.3083 2.59951C2.32216 2.59111 2.3398 2.59111 2.35366 2.59867L5.32138 4.21315C5.3365 4.22071 5.34574 4.23667 5.34574 4.25347L5.33398 10.404C5.33398 10.4199 5.32558 10.435 5.31172 10.4434C5.30458 10.4476 5.29659 10.4498 5.28819 10.4498Z" fill="#231F20"/>
<path fill-rule="evenodd" clip-rule="evenodd" d="M2.46478 8.81546L5.29684 10.356L10.8421 9.5765L8.01004 8.03636L2.46478 8.81546ZM5.28819 10.4498C5.28021 10.4498 5.27308 10.4481 5.26594 10.4443L2.29822 8.82979C2.281 8.82055 2.27158 8.80076 2.27494 8.78102C2.27872 8.76128 2.29426 8.74658 2.314 8.74364L8.01257 7.94312C8.02181 7.94144 8.03231 7.94354 8.04071 7.94816L11.0088 9.56222C11.0261 9.57188 11.0353 9.59162 11.0319 9.61136C11.0286 9.63068 11.0128 9.64596 10.993 9.64848L5.29449 10.449C5.29239 10.4494 5.29029 10.4498 5.28819 10.4498Z" fill="#231F20"/>
<path fill-rule="evenodd" clip-rule="evenodd" d="M2.46478 8.81546L5.29684 10.356L10.8421 9.5765L8.01004 8.03636L2.46478 8.81546ZM5.28819 10.4498C5.28021 10.4498 5.27308 10.4481 5.26594 10.4443L2.29822 8.82979C2.281 8.82055 2.27158 8.80076 2.27494 8.78102C2.27872 8.76128 2.29426 8.74658 2.314 8.74364L8.01257 7.94312C8.02181 7.94144 8.03231 7.94354 8.04071 7.94816L11.0088 9.56222C11.0261 9.57188 11.0353 9.59162 11.0319 9.61136C11.0286 9.63068 11.0128 9.64596 10.993 9.64848L5.29449 10.449C5.29239 10.4494 5.29029 10.4498 5.28819 10.4498Z" fill="#231F20"/>
<path fill-rule="evenodd" clip-rule="evenodd" d="M34.6731 35.2216C34.6232 35.2855 34.553 35.3178 34.4636 35.3178C34.3859 35.3178 34.3216 35.293 34.2716 35.2439C34.2212 35.1944 34.196 35.136 34.196 35.0696C34.196 35.023 34.2179 34.9436 34.2615 34.831C34.2615 34.8012 34.246 34.7748 34.2166 34.7517C34.1906 34.7307 34.1591 34.7206 34.1221 34.7206C33.9503 34.7206 33.8067 34.905 33.6912 35.2746C33.6261 35.4879 33.5534 35.8466 33.4732 36.351H34.2384L34.1906 36.5812H33.4094L32.7525 38.8236C32.6139 39.4166 32.4274 39.8962 32.1939 40.2621C31.9599 40.6279 31.6609 40.8106 31.2963 40.8106C31.1292 40.8106 30.9927 40.7661 30.8856 40.6766C30.7793 40.5871 30.7256 40.488 30.7256 40.378C30.7256 40.3091 30.7474 40.2457 30.7923 40.1856C30.8369 40.1264 30.9036 40.0966 30.9931 40.0966C31.0708 40.0966 31.1367 40.1222 31.1905 40.1739C31.2443 40.2251 31.2711 40.2885 31.2711 40.3641C31.2711 40.4057 31.259 40.4469 31.235 40.4897C31.2111 40.5321 31.1993 40.5615 31.1993 40.5771C31.1993 40.5981 31.2123 40.6149 31.2384 40.6287C31.2648 40.6422 31.2989 40.6493 31.3396 40.6493C31.5345 40.6493 31.7 40.4964 31.8348 40.1894C31.9062 40.029 31.9713 39.808 32.0309 39.5266L32.8466 36.5812H32.2119L32.2598 36.351H32.9247C33.0498 35.818 33.1901 35.4228 33.3459 35.1666C33.5778 34.7735 33.8638 34.5765 34.2044 34.5765C34.3598 34.5765 34.4896 34.621 34.5933 34.7101C34.6971 34.7995 34.7487 34.9012 34.7487 35.0159C34.7487 35.0893 34.7231 35.1578 34.6731 35.2216ZM36.2879 34.7479C36.0703 34.9768 35.8977 35.1889 35.7696 35.3834C35.5382 35.7265 35.3509 36.1268 35.2064 36.5846C35.0783 36.992 34.988 37.3809 34.9351 37.7501C34.8826 38.1197 34.8565 38.4271 34.8565 38.672C34.8565 39.0563 34.8775 39.3717 34.92 39.6178C34.9624 39.8635 35.0523 40.1857 35.1896 40.5842L35.0695 40.625C34.8242 40.2088 34.6465 39.7879 34.5352 39.3637C34.4244 38.9391 34.3689 38.5162 34.3689 38.0953C34.3689 37.5372 34.4613 37.0428 34.647 36.6119C34.9237 35.9689 35.4412 35.3124 36.1984 34.6417L36.2879 34.7479ZM35.6021 38.9208C35.6572 38.883 35.7134 38.8641 35.7701 38.8641C35.7979 38.8641 35.8251 38.8679 35.8529 38.8763C35.8802 38.8843 35.9096 38.8969 35.9423 38.9154L36.0625 38.9809C36.078 38.9897 36.0935 38.9964 36.1087 38.9994C36.1234 39.0032 36.1397 39.0048 36.1582 39.0048C36.2153 39.0048 36.2594 38.9906 36.2905 38.962C36.3216 38.933 36.4006 38.8331 36.5291 38.6617C36.6135 38.5496 36.8059 38.2757 37.1057 37.8414C37.1057 37.8255 37.0797 37.7024 37.0272 37.4723C36.9743 37.2421 36.926 37.0468 36.8827 36.8868C36.839 36.7242 36.8004 36.6176 36.7659 36.5659C36.7315 36.5147 36.6677 36.4886 36.5736 36.4886C36.5412 36.4886 36.4791 36.5 36.3846 36.5231C36.3254 36.5365 36.2611 36.5525 36.1926 36.5709L36.1616 36.4643L36.5425 36.3341C36.6412 36.3 36.7319 36.2723 36.8159 36.2517C36.8995 36.2312 36.9709 36.2207 37.0301 36.2207C37.1263 36.2207 37.1985 36.2496 37.2464 36.3063C37.3199 36.3979 37.3817 36.5793 37.4317 36.849L37.5039 37.2404C37.7101 36.9246 37.8697 36.7028 37.9848 36.5743C38.0877 36.458 38.1847 36.3706 38.2763 36.3135C38.3678 36.2564 38.4548 36.2278 38.5371 36.2278C38.6152 36.2278 38.6778 36.2391 38.7261 36.2618C38.8134 36.3034 38.8567 36.3807 38.8567 36.4958C38.8567 36.573 38.8344 36.6344 38.7916 36.6772C38.7479 36.7209 38.6916 36.7423 38.6232 36.7423C38.598 36.7423 38.5736 36.7398 38.5509 36.7339C38.5283 36.7284 38.5043 36.72 38.4791 36.7083L38.3897 36.6705C38.3645 36.6587 38.3405 36.6495 38.3179 36.6411C38.2948 36.6331 38.2775 36.6293 38.2662 36.6293C38.1633 36.6293 38.0205 36.7625 37.837 37.0292C37.6538 37.2959 37.5623 37.4496 37.5623 37.4912C37.5623 37.5256 37.5837 37.6369 37.6257 37.8259C37.6685 38.0145 37.7147 38.214 37.7647 38.4244C37.8109 38.6239 37.8495 38.7612 37.8819 38.8368C37.9344 38.9603 37.9936 39.0221 38.0604 39.0221C38.1221 39.0221 38.1847 38.9876 38.249 38.9192C38.3128 38.8503 38.409 38.7268 38.5371 38.5483L38.6337 38.6067C38.535 38.7852 38.4329 38.9376 38.3279 39.0632C38.1289 39.3014 37.9386 39.4202 37.758 39.4202C37.6433 39.4202 37.5535 39.3656 37.4867 39.2556C37.448 39.1917 37.4102 39.0863 37.3737 38.9397L37.1608 38.0918L36.4568 39.0153C36.3195 39.1749 36.2137 39.2829 36.1393 39.3379C36.0654 39.3929 35.973 39.4202 35.863 39.4202C35.7164 39.4202 35.6173 39.3744 35.5643 39.2829C35.5349 39.235 35.5198 39.1779 35.5198 39.1111C35.5198 39.0221 35.5471 38.9586 35.6021 38.9208ZM38.4888 40.5016C38.7269 40.2458 38.9088 40.0232 39.0348 39.8355C39.2498 39.5062 39.4271 39.116 39.5665 38.6649C39.6879 38.2806 39.7773 37.9064 39.8345 37.5423C39.8916 37.1786 39.9201 36.8308 39.9201 36.499C39.9201 36.0937 39.8865 35.7367 39.8189 35.428C39.7517 35.1189 39.6707 34.866 39.577 34.6691L39.7072 34.6279C39.9252 34.9803 40.0957 35.3768 40.2209 35.8178C40.3456 36.2579 40.4078 36.7035 40.4078 37.1546C40.4078 37.6649 40.3313 38.1177 40.1776 38.5142C39.9008 39.2328 39.3679 39.9308 38.5783 40.6083L38.4888 40.5016ZM38.7591 9.02948V9.32264C38.489 9.4436 38.177 9.55028 37.8238 9.64436C37.4705 9.73718 37.1446 9.80648 36.8468 9.85268H36.4978V3.62912H33.8325V6.281C33.8325 6.57794 33.8207 6.8858 33.7976 7.20206C33.7745 7.51832 33.7372 7.82786 33.6859 8.12984C33.6351 8.4314 33.5746 8.72036 33.5045 8.9942C33.4352 9.2693 33.3583 9.51332 33.2743 9.7271C33.1903 9.7733 33.0698 9.79976 32.9119 9.80396C32.7531 9.809 32.5998 9.809 32.4511 9.80396C32.302 9.79976 32.1718 9.78758 32.0601 9.76952C31.9492 9.75062 31.8929 9.73718 31.8929 9.7271L31.8228 9.6158C32.0278 9.29954 32.2142 8.89466 32.3814 8.40158C32.5486 7.90808 32.6905 7.3835 32.8069 6.82448C32.9232 6.26588 33.0114 5.7056 33.0719 5.1428C33.1328 4.58 33.1626 4.076 33.1626 3.62912H32.9253C32.6653 3.62912 32.4142 3.69716 32.1718 3.83198C31.9299 3.9668 31.7023 4.17302 31.4885 4.45232L31.3075 4.34018C31.3537 4.10834 31.4137 3.8891 31.4885 3.68456C31.5628 3.48044 31.6716 3.30026 31.8165 3.1478C31.9606 2.99366 32.1517 2.87396 32.3885 2.78534C32.6254 2.69672 32.9303 2.65724 33.3025 2.6669C33.4045 2.6669 33.5931 2.67068 33.8678 2.68034C34.142 2.69 34.4629 2.69966 34.8304 2.70764C35.1979 2.7173 35.591 2.72654 36.0094 2.73662C38.2606 2.78744 34.9841 2.75006 37.2101 2.75006C37.5075 2.75006 37.7566 2.74712 37.9565 2.74292C38.1564 2.73872 38.3236 2.72234 38.4592 2.69378C38.5932 2.6669 38.7079 2.62868 38.8007 2.58206C38.8939 2.53586 38.9863 2.47076 39.08 2.3876L39.2753 2.51276C39.2383 2.8097 39.1169 3.07136 38.912 3.29354C38.7079 3.51698 38.405 3.62912 38.0052 3.62912H37.838V8.91776L38.7591 9.02948Z" fill="#231F20"/>
</svg>
