<svg width="42" height="42" viewBox="0 0 42 42" fill="none" xmlns="http://www.w3.org/2000/svg">
<path d="M6.69052 35.7C5.31292 35.7 3.58252 35.3976 3.07852 33.9486C2.88112 33.3942 2.90632 33.1674 3.10372 32.8692C3.34621 32.6029 3.69803 32.4634 4.05712 32.4912H25.8383C29.0219 32.4912 29.6729 31.6512 30.8531 27.7788L37.7201 5.07779C38.089 3.97904 37.921 2.7709 37.2665 1.81439C36.5955 0.915755 35.5318 0.396438 34.4105 0.419988H15.3383C14.9041 0.446484 14.4743 0.522579 14.0573 0.646788L14.0825 0.571188C10.8989 -0.331812 10.7225 3.09119 9.64732 4.65779C9.24832 5.23319 8.64352 5.73299 8.54692 6.21179C8.45032 6.69059 8.71912 7.08959 8.66872 7.51379C8.37136 9.12331 7.77595 10.6631 6.91312 12.054C6.53932 12.5538 5.98492 12.8016 5.81272 13.3812C5.66152 13.7802 5.91352 14.3598 5.86312 14.8848C5.73712 16.0608 4.85932 18.291 4.18312 19.446C3.93532 19.8954 3.45652 20.2482 3.34312 20.706C3.22972 21.1638 3.46912 21.6846 3.34312 22.1634C2.9296 23.7747 2.29198 25.3199 1.44892 26.754C1.02892 27.4344 0.524922 27.8586 0.424122 28.4592C0.373722 28.7616 0.600522 29.0892 0.575322 29.4882C0.550122 30.0888 0.449322 30.5928 0.419922 31.08C0.058962 32.1136 0.0768234 33.2419 0.470322 34.2636C1.39852 36.8718 4.12852 38.8836 6.68632 38.8836H7.21132V35.7H6.69052Z" fill="#231F20"/>
<path d="M41.2311 9.1854C40.8471 8.69725 40.3354 8.32508 39.7527 8.1102C39.7527 8.2278 39.7527 8.3496 39.7527 8.4714C39.7785 8.87162 39.7373 9.27334 39.6309 9.66L32.1087 34.272C32.0383 34.4899 31.9223 34.6904 31.7685 34.86C31.2636 35.3984 30.5577 35.7026 29.8197 35.7H12.7173V38.9088H29.8197C32.1092 38.8147 34.0989 37.3073 34.8093 35.1288L41.6805 12.4194C42.0362 11.3297 41.8705 10.1368 41.2311 9.1854Z" fill="#231F20"/>
<path d="M32.1046 34.2762C32.0356 34.4963 31.9211 34.6995 31.7686 34.8726C31.924 34.6993 32.04 34.4944 32.1088 34.272L39.631 9.65999C39.7421 9.26843 39.7861 8.86086 39.7612 8.45459C39.7722 8.81502 39.7269 9.17496 39.6268 9.52139L32.1046 34.2762Z" fill="white"/>
<path d="M7.76123 34.734V35.6916V35.7042V38.913V41.7312L8.26943 41.475L9.95363 40.6098L11.6336 41.4708L12.146 41.7312V38.913V35.7042V35.6916V34.734H7.76123Z" fill="#231F20"/>
<path d="M16.3336 11.76C16.3336 11.9364 16.0606 12.2808 15.5692 12.789C15.1383 13.2431 14.6626 13.6525 14.1496 14.0112C13.8603 14.5712 13.4783 15.0782 13.0198 15.5106C12.6006 15.8514 12.1071 16.0888 11.5792 16.2036C12.5676 16.4836 13.1598 16.639 13.3558 16.6698C13.5416 16.7139 13.7318 16.7365 13.9228 16.737C14.1984 16.7358 14.4642 16.6343 14.6704 16.4514H14.7166C14.7235 16.4496 14.7307 16.4496 14.7376 16.4514C14.7376 16.4934 14.6578 16.5606 14.515 16.653C14.1743 16.8425 13.7869 16.9313 13.3978 16.9092C13.0617 16.9077 12.7267 16.8711 12.3982 16.8C11.9109 16.6856 11.43 16.5454 10.9576 16.38C10.5202 16.4645 10.0758 16.5067 9.63037 16.506C8.83237 16.506 8.44177 16.3842 8.46697 16.1448C8.49217 15.9054 8.80297 15.8046 9.41617 15.8046C10.1282 15.84 10.8333 15.9612 11.5162 16.1658C11.8084 16.0554 12.0776 15.8916 12.31 15.6828C12.6491 15.3572 12.9596 15.0031 13.2382 14.6244C12.415 15.2796 11.673 15.6072 11.0122 15.6072C10.6269 15.6311 10.2501 15.4871 9.97897 15.2124C9.72476 14.9272 9.60812 14.5451 9.65977 14.1666C9.7778 13.3911 10.1975 12.6937 10.8274 12.2262C11.4195 11.6593 12.2004 11.3316 13.0198 11.3064C13.3032 11.2898 13.5824 11.3814 13.801 11.5626C13.9879 11.7429 14.0743 12.0035 14.032 12.2598C13.9245 12.8823 13.6037 13.448 13.1248 13.86C12.7569 14.3287 12.2172 14.6311 11.6254 14.7C11.4491 14.7075 11.2775 14.6422 11.1508 14.5194C11.0291 14.4055 10.971 14.2391 10.9954 14.0742C11.0059 13.9416 11.0623 13.8168 11.155 13.7214C11.2348 13.6281 11.3514 13.5744 11.4742 13.5744C11.6338 13.5744 11.7052 13.65 11.6884 13.8012C11.6794 13.8869 11.639 13.9661 11.575 14.0238C11.519 14.0828 11.4421 14.1175 11.3608 14.1204C11.2348 14.1204 11.1802 14.0616 11.197 13.9482C11.2138 13.8348 11.197 13.839 11.197 13.839C11.197 13.839 11.1046 13.9188 11.092 14.0742C11.0623 14.2296 11.1166 14.3891 11.2348 14.4942C11.3497 14.5978 11.5 14.6534 11.6548 14.6496C12.0748 14.6496 12.5494 14.3808 13.0786 13.839C13.5203 13.4332 13.8156 12.8928 13.9186 12.3018C13.9516 12.0667 13.8741 11.8295 13.7086 11.6592C13.5321 11.4864 13.2916 11.3951 13.045 11.4072C12.2597 11.4582 11.5269 11.8193 11.008 12.411C10.3873 12.9493 9.98535 13.6964 9.87817 14.511C9.82929 14.802 9.92302 15.0988 10.1302 15.309C10.3742 15.5189 10.691 15.6245 11.0122 15.603C11.3633 15.5969 11.7089 15.5137 12.0244 15.3594C12.4832 15.1267 12.9155 14.845 13.3138 14.5194C13.78 13.86 14.116 13.398 14.3218 13.1418C14.5354 12.8771 14.767 12.6273 15.0148 12.3942C15.5398 11.8524 15.9598 11.6088 16.1908 11.6088C16.2958 11.6088 16.342 11.655 16.3336 11.76ZM10.8358 16.38C10.2621 16.1658 9.66384 16.0247 9.05497 15.96C8.71897 15.96 8.54677 16.0356 8.52997 16.1826C8.51317 16.3296 8.89537 16.4766 9.67657 16.4766C10.0651 16.4789 10.453 16.4466 10.8358 16.38ZM16.2706 11.76C16.2706 11.7012 16.2454 11.676 16.1866 11.676C15.9976 11.676 15.7204 11.865 15.3466 12.2472C14.9044 12.7514 14.5225 13.3053 14.2084 13.8978C14.6962 13.5317 15.1528 13.1257 15.5734 12.684C15.8743 12.4343 16.113 12.1179 16.2706 11.76Z" fill="white"/>
<path d="M15.8296 15.3384L15.7876 15.3972L15.5986 15.6198C15.0568 16.2792 14.6578 16.611 14.4058 16.611C14.2941 16.6153 14.1869 16.5671 14.116 16.4808C14.0452 16.392 14.0134 16.2784 14.0278 16.1658C14.0855 15.9227 14.1975 15.6958 14.3554 15.5022L15.0484 14.5026C15.109 14.5173 15.1709 14.5258 15.2332 14.5278C15.3316 14.5254 15.4298 14.517 15.5272 14.5026L14.5234 15.9096C14.4066 16.0452 14.3232 16.2063 14.2798 16.38C14.2798 16.4934 14.326 16.548 14.4436 16.548C14.6704 16.548 15.1114 16.149 15.7582 15.3468C15.7582 15.3216 15.7876 15.309 15.8002 15.309C15.8128 15.309 15.8296 15.3216 15.8296 15.3384ZM15.9262 13.776C15.9123 13.8729 15.8629 13.9612 15.7876 14.0238C15.7196 14.0927 15.6281 14.1332 15.5314 14.1372C15.4138 14.1372 15.3634 14.0826 15.376 13.9692C15.3903 13.8747 15.4398 13.7892 15.5146 13.7298C15.5837 13.6595 15.6766 13.6175 15.775 13.6122C15.8192 13.6054 15.8639 13.621 15.8942 13.6539C15.9245 13.6867 15.9365 13.7325 15.9262 13.776Z" fill="white"/>
<path d="M17.3292 14.469L17.2956 14.5278H16.8L15.8004 15.96C15.7033 16.0825 15.637 16.2265 15.6072 16.38C15.6072 16.4934 15.6492 16.548 15.771 16.548C16.002 16.548 16.4304 16.149 17.0604 15.3468C17.0828 15.3216 17.0996 15.309 17.1108 15.309C17.1108 15.309 17.1108 15.309 17.1108 15.3342L17.0646 15.393L16.8798 15.6156C16.38 16.2792 15.96 16.611 15.7206 16.611C15.6106 16.6134 15.5054 16.5654 15.435 16.4808C15.3617 16.3916 15.3282 16.2762 15.3426 16.1616C15.3831 15.9533 15.4724 15.7576 15.603 15.5904L16.3464 14.5278H15.96L16.002 14.469H16.38L16.8966 13.7382C16.9664 13.7577 17.0384 13.7676 17.1108 13.7676C17.1874 13.7676 17.2636 13.7577 17.3376 13.7382L16.8252 14.469H17.3292Z" fill="white"/>
<path d="M19.0592 15.3426L18.9794 15.4392L18.7946 15.645C18.2066 16.2876 17.7194 16.611 17.3414 16.611C17.1796 16.6126 17.0256 16.5417 16.9214 16.4178C16.8126 16.2913 16.7596 16.1262 16.7744 15.96C16.8206 15.5064 17.1944 15.12 17.8496 14.763C18.1065 14.6122 18.3931 14.519 18.6896 14.49C18.7744 14.4882 18.8568 14.5182 18.9206 14.574C18.9775 14.6229 19.0059 14.6971 18.9962 14.7714C18.9962 14.952 18.845 15.1074 18.5762 15.2334C18.1813 15.4039 17.7664 15.5238 17.3414 15.5904C17.1783 15.7752 17.0668 15.9998 17.018 16.2414C17.018 16.4556 17.1062 16.5648 17.3414 16.5648C17.7614 16.5648 18.278 16.1784 18.9374 15.4014C18.971 15.3594 19.0004 15.3384 19.0214 15.3384C19.0268 15.3335 19.034 15.3311 19.0413 15.3319C19.0485 15.3327 19.0551 15.3366 19.0592 15.3426ZM18.803 14.6412C18.803 14.5614 18.7694 14.5194 18.6812 14.5194C18.4702 14.5538 18.2743 14.6503 18.1184 14.7966C17.8548 15.0091 17.6154 15.25 17.4044 15.5148C17.7463 15.4341 18.0736 15.301 18.3746 15.12C18.6434 14.952 18.7862 14.7924 18.803 14.6412Z" fill="white"/>
<path d="M21.2392 15.3384C21.1662 15.4415 21.0801 15.5346 20.983 15.6156C20.837 15.7906 20.6297 15.9032 20.4034 15.9306C20.2102 15.9306 20.122 15.8214 20.143 15.5988C20.1581 15.5071 20.182 15.4171 20.2144 15.33C20.0614 15.4563 19.9208 15.597 19.7944 15.75C19.681 15.8844 19.4794 16.17 19.1896 16.59H18.9544H18.7192L19.4458 15.5862C19.6814 15.3062 19.8701 14.9899 20.0044 14.6496C20.0044 14.5782 20.0044 14.5446 19.9288 14.5446C19.7818 14.5446 19.5088 14.8134 19.0888 15.3594C19.0594 15.393 19.0384 15.4098 19.0216 15.4098C19.0048 15.4098 19.0216 15.4098 19.0216 15.4098C19.0216 15.4098 19.0216 15.3846 19.0216 15.3804L19.1014 15.2838C19.5214 14.7672 19.8364 14.5068 19.975 14.5068C20.1808 14.5068 20.269 14.637 20.2438 14.8974C20.1823 15.1834 20.0494 15.4493 19.8574 15.6702C19.9883 15.5356 20.1286 15.4107 20.2774 15.2964C20.3886 15.0889 20.5302 14.8992 20.6974 14.7336C20.8047 14.6088 20.9543 14.5281 21.1174 14.5068C21.1972 14.5068 21.235 14.5404 21.2266 14.6118C21.2182 14.6832 21.0208 14.9058 20.647 15.1284L20.3782 15.2838L20.3278 15.3216C20.2866 15.4121 20.2597 15.5084 20.248 15.6072C20.248 15.8172 20.2984 15.9264 20.458 15.9264C20.6176 15.9264 20.878 15.7626 21.1552 15.435C21.214 15.3804 21.2476 15.351 21.2602 15.351C21.2728 15.351 21.2392 15.3216 21.2392 15.3384Z" fill="white"/>
<path d="M23.9397 15.3384C23.759 15.607 23.5475 15.8537 23.3097 16.0734C22.9737 16.4304 22.7217 16.611 22.5453 16.611C22.4386 16.614 22.3371 16.5656 22.2723 16.4808C22.2042 16.3861 22.1756 16.2686 22.1925 16.1532C22.2125 15.9943 22.2686 15.842 22.3563 15.708C22.1588 15.9644 21.9411 16.2045 21.7053 16.4262C21.5913 16.5352 21.4426 16.6006 21.2853 16.611C21.1548 16.614 21.0322 16.5487 20.9619 16.4388C20.8799 16.3151 20.8456 16.1659 20.8653 16.0188C20.9115 15.5358 21.2853 15.1032 22.0245 14.7336C22.2542 14.5936 22.5127 14.5074 22.7805 14.4816C22.9401 14.4816 23.0115 14.5572 22.9989 14.7084C22.99 14.7678 22.973 14.8257 22.9485 14.8806L23.1795 14.5152C23.2456 14.5309 23.3132 14.5393 23.3811 14.5404C23.4712 14.5385 23.561 14.5301 23.6499 14.5152L22.8687 15.6198C22.68 15.8462 22.5373 16.1073 22.4487 16.3884C22.4487 16.506 22.4781 16.5648 22.5789 16.5648C22.6797 16.5648 22.8561 16.4514 23.1039 16.2204C23.379 15.9596 23.6345 15.6789 23.8683 15.3804C23.8893 15.3552 23.9019 15.3426 23.9145 15.3426C23.9271 15.3426 23.9397 15.3216 23.9397 15.3384ZM22.9317 14.7C22.9317 14.574 22.8897 14.5152 22.7763 14.5152C22.5411 14.5152 22.2135 14.742 21.7851 15.1956C21.4553 15.487 21.2199 15.8701 21.1089 16.296C21.1089 16.4598 21.1593 16.5396 21.3063 16.5396C21.4533 16.5396 21.8145 16.2498 22.3059 15.6744C22.5857 15.4012 22.7996 15.068 22.9317 14.7Z" fill="white"/>
<path d="M25.4265 14.469L25.3887 14.5278H24.8889L23.8977 15.96C23.798 16.0814 23.7302 16.2257 23.7003 16.38C23.7003 16.4934 23.7423 16.548 23.8641 16.548C24.0951 16.548 24.5235 16.149 25.1535 15.3468C25.1731 15.3216 25.1899 15.309 25.2039 15.309C25.2039 15.309 25.2249 15.309 25.2249 15.3342L25.1787 15.393L24.9939 15.6156C24.4521 16.275 24.0573 16.6068 23.8137 16.6068C23.7036 16.6092 23.5985 16.5612 23.5281 16.4766C23.4562 16.3867 23.4243 16.2714 23.4399 16.1574C23.4759 15.9485 23.564 15.752 23.6961 15.5862L24.4395 14.5236H24.0489L24.0951 14.4648H24.4773L24.9939 13.734C25.0636 13.7535 25.1357 13.7634 25.2081 13.7634C25.2847 13.7634 25.3609 13.7535 25.4349 13.734L24.9225 14.4648L25.4265 14.469Z" fill="white"/>
<path d="M27.678 15.3384C27.5002 15.608 27.29 15.8548 27.0522 16.0734C26.712 16.4304 26.4516 16.611 26.271 16.611C26.1638 16.6123 26.0623 16.5624 25.998 16.4766C25.9295 16.3836 25.8994 16.2678 25.914 16.1532C25.943 16.0002 26.0078 15.8563 26.103 15.7332L26.0148 15.834C25.8373 16.0447 25.6465 16.2439 25.4436 16.4304C25.3485 16.5279 25.2221 16.5889 25.0866 16.6026C24.9804 16.6036 24.8797 16.5555 24.8136 16.4724C24.7432 16.3819 24.7129 16.2666 24.7296 16.1532C24.7606 15.9692 24.8371 15.796 24.9522 15.6492L25.7586 14.4942C25.8249 14.5089 25.8924 14.5173 25.9602 14.5194C26.0474 14.5157 26.1343 14.5073 26.2206 14.4942L25.1706 15.9726C25.0742 16.0937 25.0132 16.239 24.9942 16.3926C24.9942 16.506 25.0236 16.5606 25.1202 16.5606C25.3806 16.5606 25.8398 16.086 26.4978 15.1368L26.9178 14.511C26.9811 14.5261 27.0459 14.5345 27.111 14.5362C27.2038 14.5338 27.2964 14.5254 27.3882 14.511L26.6784 15.4938C26.4601 15.7576 26.2895 16.0575 26.1744 16.38C26.1744 16.4892 26.2122 16.5438 26.3172 16.5438C26.5188 16.5438 26.88 16.2246 27.4008 15.5904L27.5394 15.4266L27.615 15.3426C27.615 15.3174 27.6444 15.3048 27.657 15.3048C27.6696 15.3048 27.678 15.3216 27.678 15.3384Z" fill="white"/>
<path d="M29.8579 15.3384C29.7832 15.4401 29.6972 15.5331 29.6017 15.6156C29.4557 15.7906 29.2484 15.9033 29.0221 15.9306C28.8289 15.9306 28.7407 15.8214 28.7617 15.5988C28.7768 15.5071 28.8007 15.4171 28.8331 15.33C28.6801 15.4564 28.5395 15.597 28.4131 15.75C28.2955 15.8844 28.0981 16.17 27.8083 16.59H27.5731H27.3379L28.0645 15.5862C28.3001 15.3062 28.4887 14.9899 28.6231 14.6496C28.6231 14.5782 28.6231 14.5446 28.5433 14.5446C28.4005 14.5446 28.1233 14.8134 27.7033 15.3594C27.6739 15.393 27.6529 15.4098 27.6361 15.4098C27.6193 15.4098 27.6361 15.4098 27.6361 15.4098C27.6316 15.4005 27.6316 15.3897 27.6361 15.3804L27.7117 15.2838C28.1401 14.7294 28.4299 14.469 28.5601 14.469C28.6903 14.469 28.8541 14.5992 28.8289 14.8596C28.7673 15.1457 28.6344 15.4115 28.4425 15.6324C28.5733 15.4979 28.7137 15.3729 28.8625 15.2586C28.9722 15.0502 29.1139 14.8603 29.2825 14.6958C29.3898 14.571 29.5393 14.4903 29.7025 14.469C29.7823 14.469 29.8159 14.5026 29.8117 14.574C29.8075 14.6454 29.6059 14.868 29.2279 15.0906L28.9633 15.246L28.9129 15.2838C28.8717 15.3743 28.8448 15.4706 28.8331 15.5694C28.8331 15.7794 28.8835 15.8886 29.0431 15.8886C29.2027 15.8886 29.4631 15.7248 29.7403 15.3972C29.7991 15.3426 29.8327 15.3132 29.8453 15.3132C29.8579 15.3132 29.8579 15.3216 29.8579 15.3384Z" fill="white"/>
<path d="M31.7812 15.3426L31.7014 15.4392L31.5166 15.645C30.9286 16.2876 30.4456 16.611 30.0676 16.611C29.9059 16.612 29.7521 16.5412 29.6476 16.4178C29.537 16.2923 29.4837 16.1264 29.5006 15.96C29.5426 15.5064 29.8996 15.1074 30.5716 14.763C30.8285 14.6122 31.1151 14.519 31.4116 14.49C31.4964 14.4882 31.5788 14.5182 31.6426 14.574C31.6995 14.6229 31.7279 14.6971 31.7182 14.7714C31.7182 14.952 31.567 15.1074 31.2982 15.2334C30.9033 15.4039 30.4884 15.5238 30.0634 15.5904C29.9003 15.7752 29.7888 15.9998 29.74 16.2414C29.719 16.4556 29.8282 16.5648 30.0676 16.5648C30.4708 16.5648 31.0014 16.177 31.6594 15.4014C31.693 15.3594 31.7224 15.3384 31.7434 15.3384C31.7488 15.3335 31.756 15.3311 31.7633 15.3319C31.7705 15.3327 31.7771 15.3366 31.7812 15.3426ZM31.525 14.6412C31.525 14.5614 31.4914 14.5194 31.4032 14.5194C31.1922 14.5538 30.9963 14.6503 30.8404 14.7966C30.5768 15.0091 30.3374 15.25 30.1264 15.5148C30.4625 15.4325 30.784 15.2994 31.0798 15.12C31.3654 14.952 31.4998 14.7924 31.525 14.6412Z" fill="white"/>
</svg>
