<svg width="42" height="42" viewBox="0 0 42 42" fill="none" xmlns="http://www.w3.org/2000/svg">
<path d="M6.60704 33.8562H2.99924V32.8104H6.60704V33.8562Z" fill="#231F20"/>
<path d="M13.4907 32.9574C13.6846 33.139 13.8402 33.3575 13.9485 33.6C14.0783 33.9065 14.1399 34.2375 14.1291 34.5702C14.1336 34.9424 14.0607 35.3114 13.9149 35.6538C13.774 35.9718 13.5696 36.2576 13.3143 36.4938C13.0224 36.7666 12.6739 36.9717 12.2937 37.0944C11.877 37.2273 11.4417 37.2926 11.0043 37.2876C10.5301 37.2872 10.0576 37.2293 9.5973 37.1154C9.20615 37.0269 8.82379 36.9032 8.4549 36.7458V35.5278H8.5431C8.90261 35.7574 9.291 35.9381 9.6981 36.0654C10.1128 36.2032 10.5464 36.2755 10.9833 36.2796C11.2468 36.2763 11.5084 36.2353 11.7603 36.1578C12.0062 36.0919 12.2334 35.9696 12.4239 35.8008C12.5944 35.6428 12.7303 35.4512 12.8229 35.238C12.9161 34.9913 12.9603 34.7288 12.9531 34.4652C12.9614 34.2013 12.9112 33.9388 12.8061 33.6966C12.7116 33.5033 12.5665 33.3393 12.3861 33.222C12.1958 33.0961 11.9812 33.0117 11.7561 32.9742C11.4923 32.9309 11.2254 32.9098 10.9581 32.9112H10.4457V31.9494H10.8657C11.3598 31.975 11.8497 31.8473 12.2685 31.584C12.6155 31.339 12.8122 30.9329 12.7893 30.5088C12.805 30.1313 12.6133 29.7754 12.2895 29.5806C12.125 29.4806 11.9446 29.4095 11.7561 29.3706C11.5442 29.3315 11.329 29.3132 11.1135 29.316C10.7167 29.3203 10.3229 29.3854 9.9459 29.5092C9.53417 29.6423 9.14163 29.8286 8.7783 30.0636H8.7237V28.8582C9.07391 28.6965 9.43984 28.5712 9.8157 28.4844C10.2495 28.3733 10.6952 28.3155 11.1429 28.3122C11.5158 28.3084 11.8879 28.3479 12.2517 28.4298C12.5608 28.5016 12.855 28.6266 13.1211 28.7994C13.6644 29.1408 13.9845 29.7458 13.9611 30.387C13.9686 30.8584 13.7854 31.3128 13.4529 31.647C13.1369 31.993 12.7193 32.2297 12.2601 32.3232V32.403C12.4793 32.4438 12.6934 32.5086 12.8985 32.5962C13.1138 32.6845 13.3137 32.8064 13.4907 32.9574ZM22.1511 22.827H19.0767V22.26H20.2569V18.438H19.0767V17.9214C19.2483 17.9191 19.4195 17.905 19.5891 17.8794C19.7349 17.8649 19.877 17.8251 20.0091 17.7618C20.1193 17.7052 20.2143 17.6232 20.2863 17.5224C20.3588 17.4031 20.3994 17.2671 20.4039 17.1276H21.0003V22.26H22.1595L22.1511 22.827Z" fill="#231F20"/>
<path d="M24.8558 22.827H23.9402V21.7392H24.8516L24.8558 22.827Z" fill="#231F20"/>
<path d="M30.2738 19.9836C30.3306 20.7615 30.1646 21.5395 29.795 22.2264C29.4359 22.683 28.8871 22.9496 28.3061 22.9496C27.7252 22.9496 27.1764 22.683 26.8172 22.2264C26.4561 21.5427 26.2932 20.7717 26.3468 20.0004C26.291 19.2244 26.4555 18.4484 26.8214 17.7618C27.1796 17.3021 27.7297 17.0333 28.3124 17.0333C28.8952 17.0333 29.4453 17.3021 29.8034 17.7618C30.1638 18.4442 30.3267 19.2137 30.2738 19.9836ZM29.27 21.714C29.3653 21.4863 29.4262 21.2456 29.4506 21C29.4872 20.6667 29.504 20.3315 29.501 19.9962C29.5036 19.6595 29.4868 19.3229 29.4506 18.9882C29.4299 18.7387 29.3674 18.4946 29.2658 18.2658C29.1906 18.0846 29.0634 17.9297 28.9004 17.8206C28.7212 17.7159 28.5156 17.6649 28.3082 17.6736C28.1036 17.663 27.9 17.7095 27.7202 17.808C27.5559 17.9186 27.4274 18.0748 27.3506 18.2574C27.2516 18.4927 27.1907 18.7422 27.17 18.9966C27.1406 19.299 27.1238 19.6308 27.1238 19.992C27.1204 20.3243 27.1344 20.6566 27.1658 20.9874C27.1903 21.2344 27.2512 21.4764 27.3464 21.7056C27.4228 21.8908 27.553 22.0489 27.7202 22.1592C28.096 22.3638 28.5499 22.3638 28.9256 22.1592C29.0832 22.0494 29.2034 21.8941 29.27 21.714Z" fill="#231F20"/>
<path d="M35.2804 17.997L32.71 22.827H31.87L34.6084 17.8122H31.3744V17.1444H35.2804V17.997Z" fill="#231F20"/>
<path d="M40.169 21.021C40.1689 21.2815 40.119 21.5395 40.022 21.7812C39.9342 22.0095 39.7998 22.2169 39.6272 22.3902C39.4393 22.5728 39.2164 22.7157 38.972 22.8102C38.69 22.909 38.3929 22.9573 38.0942 22.953C37.7917 22.9539 37.4902 22.9201 37.1954 22.8522C36.9461 22.7997 36.7026 22.7223 36.4688 22.6212V21.8064H36.5402C36.771 21.9472 37.0177 22.06 37.2752 22.1424C37.5455 22.2357 37.8293 22.2839 38.1152 22.2852C38.2933 22.2866 38.4705 22.2597 38.6402 22.2054C38.798 22.1493 38.9415 22.0589 39.0602 21.9408C39.1717 21.8289 39.2576 21.6942 39.3122 21.546C39.3727 21.3763 39.4011 21.1969 39.3962 21.0168C39.4017 20.846 39.3672 20.6763 39.2954 20.5212C39.2323 20.3914 39.1368 20.28 39.0182 20.1978C38.873 20.0969 38.7086 20.0269 38.5352 19.992C38.3248 19.9516 38.111 19.9319 37.8968 19.9332C37.6818 19.9334 37.467 19.9488 37.2542 19.9794C37.0442 20.0088 36.8678 20.0424 36.7166 20.0718V17.1318H40.1354V17.7996H37.4474V19.32C37.5566 19.32 37.67 19.32 37.7834 19.2948H38.0816C38.3525 19.2924 38.6228 19.3192 38.888 19.3746C39.1161 19.4267 39.3326 19.5207 39.5264 19.6518C39.7289 19.7882 39.8925 19.9749 40.001 20.1936C40.1191 20.4531 40.1765 20.736 40.169 21.021Z" fill="#231F20"/>
<path d="M36.3724 38.5224L35.4064 39.5976L31.6264 35.3262L27.8002 39.5976L26.8342 38.5224L30.6604 34.2888L26.8342 30.0594L27.8002 28.98L31.6054 33.2514L35.4064 28.98L36.3724 30.0594L32.5378 34.2888L36.3724 38.5224Z" fill="#231F20"/>
<path d="M14.0787 12.096H2.45312V10.6176H14.0787V12.096ZM9.37052 7.93381H7.16552V5.38861H9.37052V7.93381ZM9.37052 17.325H7.16552V14.7798H9.37052V17.325ZM40.0809 4.38061H28.7409V2.85181H40.0809V4.38061ZM40.0809 8.39161H28.7409V6.86281H40.0809V8.39161Z" fill="#231F20"/>
</svg>
