<svg width="42" height="42" viewBox="0 0 42 42" fill="none" xmlns="http://www.w3.org/2000/svg">
<path fill-rule="evenodd" clip-rule="evenodd" d="M7.12598 40.3133H7.2419V28.7079H7.12598V40.3133Z" fill="#231F20"/>
<path fill-rule="evenodd" clip-rule="evenodd" d="M1.25977 34.569H12.8715V34.4531H1.25977V34.569Z" fill="#231F20"/>
<path fill-rule="evenodd" clip-rule="evenodd" d="M3.70801 36.0625L10.318 29.4177L3.70801 36.0625Z" fill="#231F20"/>
<path fill-rule="evenodd" clip-rule="evenodd" d="M3.70765 36.1785C3.67826 36.1785 3.64843 36.1676 3.62617 36.1449C3.58039 36.0995 3.57998 36.026 3.62576 35.9807L10.2357 29.3359C10.2807 29.2905 10.3542 29.2901 10.3999 29.3354C10.4449 29.3804 10.4453 29.4539 10.4004 29.4997L3.78998 36.1445C3.76771 36.1672 3.73748 36.1785 3.70765 36.1785ZM8.12626 37.3548L1.48145 30.7449L8.12626 37.3548Z" fill="#231F20"/>
<path fill-rule="evenodd" clip-rule="evenodd" d="M8.12645 37.471C8.09705 37.471 8.06681 37.4601 8.04455 37.4374L1.39931 30.8274C1.35395 30.7816 1.35395 30.7081 1.39889 30.6632C1.44425 30.6178 1.51775 30.6174 1.56311 30.6624L8.20793 37.2723C8.25371 37.3181 8.25413 37.3916 8.20835 37.4365C8.18609 37.4596 8.15585 37.471 8.12645 37.471ZM7.66377 32.5811C7.66377 32.8306 7.46175 33.0326 7.21227 33.0326C6.96279 33.0326 6.76077 32.8306 6.76077 32.5811C6.76077 32.3316 6.96279 32.1296 7.21227 32.1296C7.46175 32.1296 7.66377 32.3316 7.66377 32.5811Z" fill="#231F20"/>
<path fill-rule="evenodd" clip-rule="evenodd" d="M5.70671 34.5014C5.70671 34.7509 5.50469 34.9529 5.25521 34.9529C5.00573 34.9529 4.80371 34.7509 4.80371 34.5014C4.80371 34.2519 5.00573 34.0499 5.25521 34.0499C5.50469 34.0499 5.70671 34.2519 5.70671 34.5014ZM15.2047 24.2085C14.5923 23.4424 14.1715 22.5281 14.0131 21.5176C13.9678 21.2248 13.9233 20.9321 13.9233 20.6272C13.9233 17.4448 16.5121 14.856 19.6941 14.856C20.8822 14.856 21.9864 15.2184 22.9054 15.8362C23.7731 16.42 24.4611 17.2407 24.9084 18.1958C24.9105 18.2004 24.9138 18.205 24.9159 18.2101C25.2591 18.948 25.4644 19.7616 25.4644 20.6272C25.4644 23.8095 22.8756 26.3984 19.6941 26.3984C17.8767 26.3984 16.2723 25.537 15.2135 24.219C15.211 24.2157 15.2076 24.2123 15.2047 24.2085ZM30.8228 29.9256L26.4523 25.5542L26.5825 25.3652C27.546 23.9737 28.0542 22.3357 28.0542 20.6272C28.0542 19.6066 27.8614 18.6326 27.525 17.7271C27.152 16.7233 26.5934 15.8119 25.8882 15.0311C25.8836 15.0265 25.879 15.0219 25.8748 15.0168C25.2448 14.3238 24.5073 13.7299 23.679 13.2789C22.4938 12.6329 21.1363 12.2662 19.6941 12.2662C15.0846 12.2662 11.3331 16.0173 11.3331 20.6272C11.3331 20.9279 11.3512 21.2248 11.3823 21.5176C11.4839 22.4727 11.754 23.3761 12.1509 24.2085C12.1521 24.2123 12.1542 24.2157 12.1559 24.219C12.6519 25.2556 13.3521 26.1741 14.2089 26.9213C15.6789 28.2044 17.5945 28.9881 19.6941 28.9881C21.3778 28.9881 23.0604 28.4648 24.4312 27.5152L24.6202 27.3846L28.9908 31.7425C29.2272 31.9899 29.5573 32.1285 29.9001 32.1285C30.6023 32.1285 31.1945 31.535 31.1945 30.8328C31.1945 30.4968 31.0559 30.157 30.8228 29.9256Z" fill="#231F20"/>
<mask id="mask0" mask-type="alpha" maskUnits="userSpaceOnUse" x="2" y="1" width="7" height="8">
<path d="M2.17627 1.68005H8.17177V8.94563H2.17627V1.68005Z" fill="white"/>
</mask>
<g mask="url(#mask0)">
<path fill-rule="evenodd" clip-rule="evenodd" d="M2.37745 2.67872L2.36611 8.73596L7.97227 7.94804L7.98361 1.8908L2.37745 2.67872ZM2.31991 8.83466C2.30899 8.83466 2.29849 8.83088 2.28967 8.82374C2.28001 8.8145 2.27413 8.80232 2.27413 8.78888L2.28547 2.6384C2.28547 2.61572 2.30227 2.5964 2.32537 2.59304L8.02309 1.7921C8.03611 1.79042 8.04997 1.7942 8.06005 1.80302C8.07013 1.81184 8.07559 1.82444 8.07559 1.83788L8.06425 7.98836C8.06425 8.01104 8.04745 8.03036 8.02477 8.03372L2.32621 8.83424C2.32411 8.83466 2.32201 8.83466 2.31991 8.83466ZM8.07937 1.77236L2.28925 2.58548C2.28631 2.58632 2.28043 2.59388 2.28043 2.60018L2.26867 8.85314L8.05879 8.03918C8.06299 8.03876 8.06803 8.03288 8.06803 8.0249L8.07937 1.77236ZM2.26489 8.94554C2.24389 8.94554 2.22373 8.93756 2.20777 8.92412C2.18803 8.9069 2.17627 8.88128 2.17627 8.85314L2.18845 2.59976C2.18845 2.54852 2.22835 2.50148 2.27665 2.49476L8.07055 1.68038C8.09617 1.67702 8.12095 1.68416 8.14027 1.70054C8.16043 1.71776 8.17177 1.7438 8.17177 1.77194L8.16001 8.02532C8.16001 8.07782 8.12179 8.12318 8.07181 8.1299L2.27791 8.94428C2.27329 8.94512 2.26909 8.94554 2.26489 8.94554Z" fill="#231F20"/>
</g>
<mask id="mask1" mask-type="alpha" maskUnits="userSpaceOnUse" x="2" y="1" width="7" height="8">
<path d="M8.07986 1.68005C8.07692 1.68005 8.07398 1.68047 8.07104 1.68089L2.27714 2.49485C2.22884 2.50199 2.18894 2.54903 2.18894 2.59985L2.17676 8.85323C2.17676 8.88137 2.18852 8.90741 2.20826 8.92463C2.22422 8.93807 2.24438 8.94605 2.2658 8.94605C2.26958 8.94605 2.27378 8.94521 2.2784 8.94437L8.0723 8.13041C8.12228 8.12327 8.1605 8.07833 8.1605 8.02583L8.17226 1.77245C8.17226 1.74431 8.1605 1.71785 8.14076 1.70105C8.12564 1.68803 8.10758 1.68089 8.08784 1.68005H8.07986ZM2.28092 2.60027C2.28092 2.59397 2.2868 2.58683 2.28974 2.58557L8.08028 1.77245L8.06852 8.02541C8.06852 8.03297 8.06348 8.03885 8.05928 8.03969L2.26916 8.85323L2.28092 2.60027ZM8.024 1.79219L2.32586 2.59313C2.30276 2.59649 2.28596 2.61581 2.28596 2.63849L2.27462 8.78897C2.27462 8.80283 2.2805 8.81501 2.29016 8.82383C2.29856 8.83139 2.30948 8.83517 2.3204 8.83517C2.3225 8.83517 2.3246 8.83517 2.3267 8.83475L8.02526 8.03381C8.04794 8.03087 8.06474 8.01155 8.06474 7.98845L8.0765 1.83797C8.0765 1.82495 8.07062 1.81193 8.06096 1.80311C8.05172 1.79555 8.0408 1.79177 8.02988 1.79177C8.02778 1.79177 8.02568 1.79219 8.024 1.79219ZM2.37794 2.67923L7.9841 1.89089L7.97276 7.94855L2.3666 8.73605L2.37794 2.67923Z" fill="white"/>
</mask>
<g mask="url(#mask1)">
<path fill-rule="evenodd" clip-rule="evenodd" d="M2.37794 2.67872L2.3666 8.73596L7.97276 7.94804L7.9841 1.8908L2.37794 2.67872ZM2.3204 8.83466C2.30948 8.83466 2.29898 8.83088 2.29016 8.82374C2.2805 8.8145 2.27462 8.80232 2.27462 8.78888L2.28596 2.6384C2.28596 2.61572 2.30276 2.5964 2.32586 2.59304L8.02358 1.7921C8.0366 1.79042 8.05046 1.7942 8.06054 1.80302C8.07062 1.81184 8.07608 1.82444 8.07608 1.83788L8.06474 7.98836C8.06474 8.01104 8.04794 8.03036 8.02526 8.03372L2.3267 8.83424C2.3246 8.83466 2.3225 8.83466 2.3204 8.83466ZM8.07986 1.77236L2.28974 2.58548C2.2868 2.58632 2.28092 2.59388 2.28092 2.60018L2.26916 8.85314L8.05928 8.03918C8.06348 8.03876 8.06852 8.03288 8.06852 8.0249L8.07986 1.77236ZM2.26538 8.94554C2.24438 8.94554 2.22422 8.93756 2.20826 8.92412C2.18852 8.9069 2.17676 8.88128 2.17676 8.85314L2.18894 2.59976C2.18894 2.54852 2.22884 2.50148 2.27714 2.49476L8.07104 1.68038C8.09666 1.67702 8.12144 1.68416 8.14076 1.70054C8.16092 1.71776 8.17226 1.7438 8.17226 1.77194L8.1605 8.02532C8.1605 8.07782 8.12228 8.12318 8.0723 8.1299L2.2784 8.94428C2.27378 8.94512 2.26958 8.94554 2.26538 8.94554Z" fill="#231F20"/>
</g>
<path fill-rule="evenodd" clip-rule="evenodd" d="M5.34571 4.29348L5.33437 10.3507L10.9405 9.5628L10.9519 3.50556L5.34571 4.29348ZM5.28817 10.4498C5.27725 10.4498 5.26675 10.4456 5.25793 10.4385C5.24827 10.4293 5.24239 10.4171 5.24239 10.4036L5.25373 4.25316C5.25373 4.23048 5.27053 4.21116 5.29321 4.2078L10.9914 3.40728C11.0044 3.40518 11.0182 3.40938 11.0279 3.41778C11.0384 3.4266 11.0439 3.4392 11.0439 3.45264L11.0325 9.60312C11.0325 9.6258 11.0157 9.64512 10.993 9.64848L5.29447 10.449C5.29237 10.4494 5.29027 10.4498 5.28817 10.4498ZM11.0476 3.38712L5.25751 4.20066C5.25457 4.2015 5.24869 4.20864 5.24869 4.21494L5.23651 10.4683L11.0271 9.65394C11.0313 9.65352 11.0363 9.64764 11.0363 9.63966L11.0476 3.38712ZM5.23315 10.5603C5.21257 10.5603 5.19199 10.5527 5.17603 10.5389C5.15629 10.5217 5.14453 10.496 5.14453 10.4679L5.15629 4.21452C5.15671 4.16328 5.19661 4.11624 5.24491 4.10994L11.0388 3.29514C11.064 3.29136 11.0896 3.29892 11.1085 3.31572C11.1287 3.33294 11.14 3.35856 11.14 3.3867L11.1283 9.64008C11.1283 9.693 11.0901 9.73836 11.0397 9.74466L5.24575 10.5595C5.24155 10.5599 5.23735 10.5603 5.23315 10.5603Z" fill="#231F20"/>
<mask id="mask2" mask-type="alpha" maskUnits="userSpaceOnUse" x="5" y="3" width="7" height="8">
<path d="M11.0384 3.29533L5.24491 4.10971C5.19619 4.11601 5.15629 4.16347 5.15587 4.21429L5.14453 10.4677C5.14453 10.4958 5.15587 10.5214 5.17561 10.5386C5.19199 10.5529 5.21215 10.5601 5.23315 10.5601C5.23735 10.5601 5.24155 10.5596 5.24533 10.5592L11.0392 9.74443C11.0896 9.73813 11.1279 9.69319 11.1279 9.64027L11.1396 3.38647C11.1396 3.35875 11.1283 3.33271 11.1081 3.31549C11.0926 3.30163 11.0724 3.29407 11.0514 3.29407C11.0472 3.29407 11.0426 3.29449 11.0384 3.29533ZM5.24827 4.21471C5.24827 4.20841 5.25457 4.20169 5.25709 4.20043L11.0476 3.38689L11.0363 9.63943C11.0363 9.64741 11.0312 9.65329 11.027 9.65371L5.23651 10.4681L5.24827 4.21471ZM10.9913 3.40705L5.29321 4.20757C5.27053 4.21093 5.25331 4.23025 5.25331 4.25293L5.24197 10.4034C5.24197 10.4173 5.24785 10.429 5.25751 10.4383C5.26633 10.4458 5.27683 10.45 5.28817 10.45C5.29027 10.45 5.29195 10.4492 5.29447 10.4488L10.993 9.64825C11.0153 9.64531 11.0325 9.62599 11.0325 9.60289L11.0438 3.45241C11.0438 3.43897 11.038 3.42637 11.0279 3.41755C11.0199 3.41041 11.009 3.40663 10.9981 3.40663C10.996 3.40663 10.9934 3.40663 10.9913 3.40705ZM5.34529 4.29367L10.9514 3.50533L10.9405 9.56299L5.33395 10.3505L5.34529 4.29367Z" fill="white"/>
</mask>
<g mask="url(#mask2)">
<path fill-rule="evenodd" clip-rule="evenodd" d="M5.34522 4.29324L5.33388 10.3505L10.94 9.56256L10.9514 3.50532L5.34522 4.29324ZM5.28768 10.4496C5.27676 10.4496 5.26626 10.4454 5.25744 10.4383C5.24778 10.429 5.2419 10.4168 5.2419 10.4034L5.25324 4.25292C5.25324 4.23024 5.27004 4.21092 5.29272 4.20756L10.9909 3.40704C11.0039 3.40494 11.0177 3.40914 11.0274 3.41754C11.0379 3.42636 11.0434 3.43896 11.0434 3.4524L11.032 9.60288C11.032 9.62556 11.0152 9.64488 10.9925 9.64824L5.29398 10.4488C5.29188 10.4492 5.28978 10.4496 5.28768 10.4496ZM11.0471 3.38688L5.25702 4.20042C5.25408 4.20126 5.2482 4.2084 5.2482 4.2147L5.23602 10.4681L11.0266 9.6537C11.0308 9.65328 11.0358 9.6474 11.0358 9.63942L11.0471 3.38688ZM5.23266 10.5601C5.21208 10.5601 5.1915 10.5525 5.17554 10.5386C5.1558 10.5214 5.14404 10.4958 5.14404 10.4677L5.1558 4.21428C5.15622 4.16304 5.19612 4.116 5.24442 4.1097L11.0383 3.2949C11.0635 3.29112 11.0891 3.29868 11.108 3.31548C11.1282 3.3327 11.1395 3.35832 11.1395 3.38646L11.1278 9.63984C11.1278 9.69276 11.0896 9.73812 11.0392 9.74442L5.24526 10.5592C5.24106 10.5596 5.23686 10.5601 5.23266 10.5601Z" fill="#231F20"/>
</g>
<path fill-rule="evenodd" clip-rule="evenodd" d="M11.0936 3.43257C11.086 3.43257 11.0784 3.43047 11.0717 3.42669L8.104 1.81263C8.0893 1.80465 8.07964 1.78911 8.07964 1.77231L8.08048 1.77063C8.05864 1.75845 8.05066 1.73073 8.06284 1.70889C8.07502 1.68663 8.10316 1.67823 8.12542 1.69041L11.0931 3.30489C11.1217 3.32043 11.1398 3.35193 11.1398 3.38679C11.1398 3.40275 11.1314 3.41787 11.1175 3.42585C11.1099 3.43047 11.102 3.43257 11.0936 3.43257Z" fill="#231F20"/>
<mask id="mask3" mask-type="alpha" maskUnits="userSpaceOnUse" x="8" y="1" width="4" height="3">
<path d="M8.06284 1.70863C8.05066 1.73089 8.05864 1.75819 8.08048 1.77037L8.08006 1.77247C8.08006 1.78885 8.08888 1.80439 8.104 1.81237L11.0717 3.42685C11.0784 3.43063 11.086 3.43231 11.0936 3.43231C11.1015 3.43231 11.1099 3.43063 11.1175 3.42601C11.1309 3.41761 11.1398 3.40249 11.1398 3.38653C11.1398 3.35167 11.1217 3.32059 11.0931 3.30505L8.12542 1.69015C8.11828 1.68637 8.11072 1.68469 8.10358 1.68469C8.0872 1.68469 8.07124 1.69351 8.06284 1.70863Z" fill="white"/>
</mask>
<g mask="url(#mask3)">
<path fill-rule="evenodd" clip-rule="evenodd" d="M11.0937 3.43244C11.0862 3.43244 11.0786 3.43034 11.0719 3.42656L8.10415 1.8125C8.09197 1.80578 8.08315 1.79402 8.08063 1.78058L8.05543 1.76672C8.03821 1.75748 8.02855 1.73774 8.03191 1.718C8.03569 1.69868 8.05123 1.68356 8.07097 1.68062C8.09659 1.67726 8.12137 1.6844 8.14069 1.70078C8.14573 1.7054 8.15035 1.71002 8.15413 1.7159L11.0563 3.29426C11.0757 3.29552 11.0937 3.30224 11.1084 3.31568C11.1286 3.3329 11.1399 3.35852 11.1399 3.38666C11.1399 3.40262 11.1315 3.41774 11.1177 3.42572C11.1101 3.43034 11.1021 3.43244 11.0937 3.43244Z" fill="#231F20"/>
<mask id="mask4" mask-type="alpha" maskUnits="userSpaceOnUse" x="8" y="1" width="4" height="3">
<path d="M8.06284 1.70863C8.05066 1.73089 8.05864 1.75819 8.08048 1.77037L8.08006 1.77247C8.08006 1.78885 8.08888 1.80439 8.104 1.81237L11.0717 3.42685C11.0784 3.43063 11.086 3.43231 11.0936 3.43231C11.1015 3.43231 11.1099 3.43063 11.1175 3.42601C11.1309 3.41761 11.1398 3.40249 11.1398 3.38653C11.1398 3.35167 11.1217 3.32059 11.0931 3.30505L8.12542 1.69015C8.11828 1.68637 8.11072 1.68469 8.10358 1.68469C8.0872 1.68469 8.07124 1.69351 8.06284 1.70863Z" fill="white"/>
</mask>
<g mask="url(#mask4)">
<path fill-rule="evenodd" clip-rule="evenodd" d="M11.0654 3.40166L8.09766 1.78718L8.14134 1.70654L11.1091 3.32102L11.0654 3.40166Z" fill="#231F20"/>
</g>
<mask id="mask5" mask-type="alpha" maskUnits="userSpaceOnUse" x="8" y="1" width="4" height="3">
<path d="M8.06284 1.70863C8.05066 1.73089 8.05864 1.75819 8.08048 1.77037L8.08006 1.77247C8.08006 1.78885 8.08888 1.80439 8.104 1.81237L11.0717 3.42685C11.0784 3.43063 11.086 3.43231 11.0936 3.43231C11.1015 3.43231 11.1099 3.43063 11.1175 3.42601C11.1309 3.41761 11.1398 3.40249 11.1398 3.38653C11.1398 3.35167 11.1217 3.32059 11.0931 3.30505L8.12542 1.69015C8.11828 1.68637 8.11072 1.68469 8.10358 1.68469C8.0872 1.68469 8.07124 1.69351 8.06284 1.70863Z" fill="white"/>
</mask>
<g mask="url(#mask5)">
<path fill-rule="evenodd" clip-rule="evenodd" d="M11.0936 3.43257C11.086 3.43257 11.0784 3.43047 11.0717 3.42669L8.104 1.81263C8.0893 1.80465 8.07964 1.78911 8.07964 1.77231L8.08048 1.77063C8.05864 1.75845 8.05066 1.73073 8.06284 1.70889C8.07502 1.68663 8.10316 1.67823 8.12542 1.69041L11.0931 3.30489C11.1217 3.32043 11.1398 3.35193 11.1398 3.38679C11.1398 3.40275 11.1314 3.41787 11.1175 3.42585C11.1099 3.43047 11.102 3.43257 11.0936 3.43257Z" fill="#231F20"/>
</g>
</g>
<mask id="mask6" mask-type="alpha" maskUnits="userSpaceOnUse" x="8" y="1" width="4" height="3">
<path d="M8.03125 1.68005H11.117V3.39155H8.03125V1.68005Z" fill="white"/>
</mask>
<g mask="url(#mask6)">
<path fill-rule="evenodd" clip-rule="evenodd" d="M11.0711 3.39134C11.0635 3.39134 11.0564 3.38924 11.0488 3.38546C11.0396 3.38672 11.032 3.38588 11.0232 3.38126L8.05503 1.76678C8.03781 1.75712 8.02857 1.73738 8.03193 1.71848C8.03529 1.69874 8.05125 1.68362 8.07015 1.68068C8.08989 1.67816 8.10837 1.6811 8.12517 1.68992L11.0929 3.3044L11.0933 3.30482C11.1152 3.317 11.1236 3.34514 11.1118 3.36698C11.103 3.38252 11.0874 3.39134 11.0711 3.39134Z" fill="#231F20"/>
</g>
<mask id="mask7" mask-type="alpha" maskUnits="userSpaceOnUse" x="8" y="1" width="4" height="3">
<path d="M8.07853 1.68005C8.07601 1.68005 8.07349 1.68047 8.07055 1.68089C8.05123 1.68341 8.03569 1.69853 8.03191 1.71869C8.02855 1.73801 8.03821 1.75733 8.05501 1.76699L11.0232 3.38105C11.0324 3.38609 11.0395 3.38693 11.0488 3.38567C11.0563 3.38945 11.0635 3.39155 11.071 3.39155C11.0874 3.39155 11.1034 3.38315 11.1118 3.36761C11.124 3.34493 11.1156 3.31721 11.0933 3.30503L11.0929 3.30461L8.12557 1.69013C8.11381 1.68425 8.10205 1.68089 8.08945 1.68005" fill="white"/>
</mask>
<g mask="url(#mask7)">
<path fill-rule="evenodd" clip-rule="evenodd" d="M11.0937 3.4322C11.0862 3.4322 11.0786 3.4301 11.0719 3.42632L8.10415 1.81226C8.09197 1.80554 8.08315 1.79378 8.08063 1.78034L8.05543 1.76648C8.03821 1.75724 8.02855 1.7375 8.03191 1.71776C8.03569 1.69844 8.05123 1.68332 8.07097 1.68038C8.09659 1.67702 8.12137 1.68416 8.14069 1.70054C8.14573 1.70516 8.15035 1.70978 8.15413 1.71566L11.0563 3.29402C11.0757 3.29528 11.0937 3.302 11.1084 3.31544C11.1286 3.33266 11.1399 3.35828 11.1399 3.38642C11.1399 3.40238 11.1315 3.4175 11.1177 3.42548C11.1101 3.4301 11.1021 3.4322 11.0937 3.4322Z" fill="#231F20"/>
<mask id="mask8" mask-type="alpha" maskUnits="userSpaceOnUse" x="8" y="1" width="4" height="3">
<path d="M8.07853 1.68005C8.07601 1.68005 8.07349 1.68047 8.07055 1.68089C8.05123 1.68341 8.03569 1.69853 8.03191 1.71869C8.02855 1.73801 8.03821 1.75733 8.05501 1.76699L11.0232 3.38105C11.0324 3.38609 11.0395 3.38693 11.0488 3.38567C11.0563 3.38945 11.0635 3.39155 11.071 3.39155C11.0874 3.39155 11.1034 3.38315 11.1118 3.36761C11.124 3.34493 11.1156 3.31721 11.0933 3.30503L11.0929 3.30461L8.12557 1.69013C8.11381 1.68425 8.10205 1.68089 8.08945 1.68005H8.07853Z" fill="white"/>
</mask>
<g mask="url(#mask8)">
<path fill-rule="evenodd" clip-rule="evenodd" d="M11.0483 3.38482L8.08057 1.77034L8.12425 1.6897L11.0924 3.30418L11.0483 3.38482Z" fill="#231F20"/>
</g>
<mask id="mask9" mask-type="alpha" maskUnits="userSpaceOnUse" x="8" y="1" width="4" height="3">
<path d="M8.07853 1.68005C8.07601 1.68005 8.07349 1.68047 8.07055 1.68089C8.05123 1.68341 8.03569 1.69853 8.03191 1.71869C8.02855 1.73801 8.03821 1.75733 8.05501 1.76699L11.0232 3.38105C11.0324 3.38609 11.0395 3.38693 11.0488 3.38567C11.0563 3.38945 11.0635 3.39155 11.071 3.39155C11.0874 3.39155 11.1034 3.38315 11.1118 3.36761C11.124 3.34493 11.1156 3.31721 11.0933 3.30503L11.0929 3.30461L8.12557 1.69013C8.11381 1.68425 8.10205 1.68089 8.08945 1.68005" fill="white"/>
</mask>
<g mask="url(#mask9)">
<path fill-rule="evenodd" clip-rule="evenodd" d="M11.0715 3.39134C11.064 3.39134 11.0568 3.38924 11.0493 3.38546C11.04 3.38672 11.0325 3.38588 11.0237 3.38126L8.05552 1.76678C8.0383 1.75712 8.02906 1.73738 8.03242 1.71848C8.03578 1.69874 8.05174 1.68362 8.07064 1.68068C8.09038 1.67816 8.10886 1.6811 8.12566 1.68992L11.0934 3.3044L11.0938 3.30482C11.1156 3.317 11.124 3.34514 11.1123 3.36698C11.1035 3.38252 11.0879 3.39134 11.0715 3.39134Z" fill="#231F20"/>
</g>
</g>
<path fill-rule="evenodd" clip-rule="evenodd" d="M8.16034 7.99843L11.0365 9.56293L11.0478 3.41371L8.17168 1.84921L8.16034 7.99843ZM11.0823 9.68641C11.0747 9.68641 11.0672 9.68431 11.06 9.68053L8.09272 8.06605C8.0776 8.05807 8.06836 8.04211 8.06836 8.02531L8.08012 1.77193C8.08012 1.75597 8.08852 1.74085 8.10238 1.73245C8.11666 1.72447 8.13388 1.72405 8.14816 1.73161L11.1159 3.34609C11.1306 3.35407 11.1402 3.36961 11.1402 3.38683L11.1281 9.64021C11.1281 9.65617 11.1197 9.67129 11.1058 9.67969C11.0987 9.68431 11.0907 9.68641 11.0823 9.68641Z" fill="#231F20"/>
<mask id="mask10" mask-type="alpha" maskUnits="userSpaceOnUse" x="8" y="1" width="4" height="9">
<path d="M8.10238 1.73213C8.0881 1.74053 8.08012 1.75565 8.08012 1.77203L8.06836 8.02541C8.06836 8.04221 8.07718 8.05775 8.0923 8.06615L11.06 9.68021C11.0667 9.68399 11.0747 9.68609 11.0823 9.68609C11.0903 9.68609 11.0987 9.68399 11.1054 9.67979C11.1197 9.67139 11.1281 9.65627 11.1281 9.64031L11.1398 3.38651C11.1398 3.36971 11.1306 3.35417 11.1159 3.34577L8.14816 1.73129C8.14102 1.72793 8.13346 1.72583 8.1259 1.72583C8.1175 1.72583 8.10952 1.72793 8.10238 1.73213ZM8.16034 7.99853L8.17168 1.84931L11.0478 3.41339L11.0365 9.56303L8.16034 7.99853Z" fill="white"/>
</mask>
<g mask="url(#mask10)">
<path fill-rule="evenodd" clip-rule="evenodd" d="M8.15985 7.99868L11.036 9.56318L11.0474 3.41396L8.17119 1.84946L8.15985 7.99868ZM11.0818 9.68666C11.0742 9.68666 11.0667 9.68456 11.0595 9.68078L8.09223 8.0663C8.07711 8.05832 8.06787 8.04236 8.06787 8.02556L8.07963 1.77218C8.07963 1.75622 8.08803 1.7411 8.10189 1.7327C8.11617 1.72472 8.13339 1.7243 8.14767 1.73186L11.1154 3.34634C11.1301 3.35432 11.1398 3.36986 11.1398 3.38708L11.1276 9.64046C11.1276 9.65642 11.1192 9.67154 11.1053 9.67994C11.0982 9.68456 11.0902 9.68666 11.0818 9.68666Z" fill="#231F20"/>
</g>
<path fill-rule="evenodd" clip-rule="evenodd" d="M11.0334 9.74569C11.0254 9.74569 11.0183 9.74359 11.0116 9.73981L8.04386 8.12575C8.02622 8.11609 8.01656 8.09635 8.02034 8.07661C8.0237 8.05729 8.03924 8.04217 8.05898 8.03965C8.0636 8.03923 8.06822 8.03335 8.06822 8.02537C8.06822 8.00899 8.07704 7.99429 8.0909 7.98631C8.10476 7.97791 8.12198 7.97749 8.13668 7.98547L11.104 9.59953C11.1191 9.60793 11.1283 9.62347 11.1283 9.64027C11.1283 9.69319 11.0901 9.73813 11.0397 9.74485C11.0376 9.74527 11.0355 9.74569 11.0334 9.74569Z" fill="#231F20"/>
<mask id="mask11" mask-type="alpha" maskUnits="userSpaceOnUse" x="8" y="7" width="4" height="3">
<path d="M8.09084 7.98591C8.07698 7.99431 8.06816 8.00901 8.06816 8.02539C8.06816 8.03295 8.06312 8.03883 8.0585 8.03967C8.03876 8.04219 8.02364 8.05731 8.01986 8.07663C8.01608 8.09637 8.02574 8.11569 8.04338 8.12535L11.0115 9.73984C11.0178 9.74362 11.0254 9.7453 11.0329 9.7453C11.0355 9.7453 11.0371 9.74488 11.0392 9.74446C11.0896 9.73816 11.1279 9.69322 11.1279 9.6403C11.1279 9.6235 11.119 9.60796 11.1039 9.59956L8.1362 7.98507C8.12906 7.98129 8.1215 7.97961 8.11394 7.97961C8.10596 7.97961 8.09798 7.98171 8.09084 7.98591Z" fill="white"/>
</mask>
<g mask="url(#mask11)">
<path fill-rule="evenodd" clip-rule="evenodd" d="M11.0334 9.74557C11.0254 9.74557 11.0183 9.74347 11.0116 9.73969L8.04386 8.12563C8.02622 8.11597 8.01656 8.09623 8.02034 8.07649C8.0237 8.05717 8.03924 8.04205 8.05898 8.03953C8.0636 8.03911 8.06822 8.03323 8.06822 8.02525C8.06822 8.00887 8.07704 7.99417 8.0909 7.98619C8.10476 7.97779 8.12198 7.97737 8.13668 7.98535L11.104 9.59941C11.1191 9.60781 11.1283 9.62335 11.1283 9.64015C11.1283 9.69307 11.0901 9.73801 11.0397 9.74473C11.0376 9.74515 11.0355 9.74557 11.0334 9.74557Z" fill="#231F20"/>
</g>
<mask id="mask12" mask-type="alpha" maskUnits="userSpaceOnUse" x="8" y="7" width="4" height="3">
<path d="M8.09084 7.98591C8.07698 7.99431 8.06816 8.00901 8.06816 8.02539C8.06816 8.03295 8.06312 8.03883 8.0585 8.03967C8.03876 8.04219 8.02364 8.05731 8.01986 8.07663C8.01608 8.09637 8.02574 8.11569 8.04338 8.12535L11.0115 9.73984C11.0178 9.74362 11.0254 9.7453 11.0329 9.7453C11.0355 9.7453 11.0371 9.74488 11.0392 9.74446C11.0896 9.73816 11.1279 9.69322 11.1279 9.6403C11.1279 9.6235 11.119 9.60796 11.1039 9.59956L8.1362 7.98507C8.12906 7.98129 8.1215 7.97961 8.11394 7.97961C8.10596 7.97961 8.09798 7.98171 8.09084 7.98591Z" fill="white"/>
</mask>
<g mask="url(#mask12)">
<path fill-rule="evenodd" clip-rule="evenodd" d="M11.0527 9.7083L8.08545 8.09382L8.12913 8.01318L11.0964 9.62766L11.0527 9.7083Z" fill="#231F20"/>
<mask id="mask13" mask-type="alpha" maskUnits="userSpaceOnUse" x="8" y="7" width="4" height="3">
<path d="M8.09084 7.98591C8.07698 7.99431 8.06816 8.00901 8.06816 8.02539C8.06816 8.03295 8.06312 8.03883 8.0585 8.03967C8.03876 8.04219 8.02364 8.05731 8.01986 8.07663C8.01608 8.09637 8.02574 8.11569 8.04338 8.12535L11.0115 9.73984C11.0178 9.74362 11.0254 9.7453 11.0329 9.7453C11.0355 9.7453 11.0371 9.74488 11.0392 9.74446C11.0896 9.73816 11.1279 9.69322 11.1279 9.6403C11.1279 9.6235 11.119 9.60796 11.1039 9.59956L8.1362 7.98507C8.12906 7.98129 8.1215 7.97961 8.11394 7.97961C8.10596 7.97961 8.09798 7.98171 8.09084 7.98591Z" fill="white"/>
</mask>
<g mask="url(#mask13)">
<path fill-rule="evenodd" clip-rule="evenodd" d="M11.0361 9.7293L8.06836 8.11482L8.11204 8.03418L11.0802 9.64866L11.0361 9.7293Z" fill="#231F20"/>
</g>
<mask id="mask14" mask-type="alpha" maskUnits="userSpaceOnUse" x="8" y="7" width="4" height="3">
<path d="M8.09084 7.98591C8.07698 7.99431 8.06816 8.00901 8.06816 8.02539C8.06816 8.03295 8.06312 8.03883 8.0585 8.03967C8.03876 8.04219 8.02364 8.05731 8.01986 8.07663C8.01608 8.09637 8.02574 8.11569 8.04338 8.12535L11.0115 9.73984C11.0178 9.74362 11.0254 9.7453 11.0329 9.7453C11.0355 9.7453 11.0371 9.74488 11.0392 9.74446C11.0896 9.73816 11.1279 9.69322 11.1279 9.6403C11.1279 9.6235 11.119 9.60796 11.1039 9.59956L8.1362 7.98507C8.12906 7.98129 8.1215 7.97961 8.11394 7.97961C8.10596 7.97961 8.09798 7.98171 8.09084 7.98591Z" fill="white"/>
</mask>
<g mask="url(#mask14)">
<path fill-rule="evenodd" clip-rule="evenodd" d="M11.0334 9.74557C11.0254 9.74557 11.0183 9.74347 11.0116 9.73969L8.04386 8.12563C8.02622 8.11597 8.01656 8.09623 8.02034 8.07649C8.0237 8.05717 8.03924 8.04205 8.05898 8.03953C8.0636 8.03911 8.06822 8.03323 8.06822 8.02525C8.06822 8.00887 8.07704 7.99417 8.0909 7.98619C8.10476 7.97779 8.12198 7.97737 8.13668 7.98535L11.104 9.59941C11.1191 9.60781 11.1283 9.62335 11.1283 9.64015C11.1283 9.69307 11.0901 9.73801 11.0397 9.74473C11.0376 9.74515 11.0355 9.74557 11.0334 9.74557Z" fill="#231F20"/>
</g>
</g>
<path fill-rule="evenodd" clip-rule="evenodd" d="M2.41631 8.92537L5.24837 10.4659L10.8894 9.67339L8.05733 8.13241L2.41631 8.92537ZM5.23997 10.56C5.23199 10.56 5.22485 10.5579 5.21771 10.5541L2.24999 8.93965C2.23277 8.93041 2.22311 8.91067 2.22689 8.89135C2.23025 8.87161 2.24579 8.85649 2.26595 8.85355L8.05985 8.03959C8.06909 8.03833 8.07917 8.04001 8.08799 8.04463L11.0557 9.65911C11.0729 9.66877 11.0826 9.68809 11.0788 9.70741C11.0754 9.72715 11.0599 9.74227 11.0402 9.74479L5.24585 10.5596C5.24375 10.56 5.24207 10.56 5.23997 10.56Z" fill="#231F20"/>
<mask id="mask15" mask-type="alpha" maskUnits="userSpaceOnUse" x="2" y="8" width="10" height="3">
<path d="M8.05894 8.03966L2.26546 8.8532C2.24488 8.85656 2.22934 8.87126 2.2264 8.891C2.22262 8.91032 2.23228 8.93006 2.2495 8.93972L5.21722 10.5538C5.22394 10.5576 5.2315 10.5597 5.23906 10.5597C5.24158 10.5597 5.24326 10.5597 5.24536 10.5592L11.0397 9.74444C11.0594 9.74234 11.075 9.72722 11.0783 9.70748C11.0821 9.68816 11.0724 9.66842 11.0556 9.65876L8.0875 8.0447C8.08078 8.04092 8.0728 8.03882 8.06566 8.03882C8.06314 8.03882 8.06104 8.03924 8.05894 8.03966ZM2.41582 8.92502L8.05684 8.13248L10.8889 9.67304L5.24788 10.466L2.41582 8.92502Z" fill="white"/>
</mask>
<g mask="url(#mask15)">
<path fill-rule="evenodd" clip-rule="evenodd" d="M2.41582 8.92561L5.24788 10.4662L10.8889 9.67363L8.05684 8.13265L2.41582 8.92561ZM5.23948 10.5603C5.2315 10.5603 5.22436 10.5582 5.21722 10.5544L2.2495 8.93989C2.23228 8.93065 2.22262 8.91091 2.2264 8.89159C2.22976 8.87185 2.2453 8.85673 2.26546 8.85379L8.05936 8.03983C8.0686 8.03857 8.07868 8.04025 8.0875 8.04487L11.0552 9.65935C11.0724 9.66901 11.0821 9.68833 11.0783 9.70765C11.075 9.72739 11.0594 9.74251 11.0397 9.74503L5.24536 10.5598C5.24326 10.5603 5.24158 10.5603 5.23948 10.5603Z" fill="#231F20"/>
</g>
<path fill-rule="evenodd" clip-rule="evenodd" d="M5.21343 10.5554C5.20587 10.5554 5.19873 10.5533 5.19159 10.5495C5.19117 10.5495 5.19117 10.5495 5.19075 10.5491L2.22387 8.93544C2.19489 8.91948 2.17725 8.8884 2.17725 8.85354C2.17725 8.83716 2.18607 8.82246 2.19993 8.81406C2.21379 8.80608 2.23059 8.80566 2.24529 8.81364L5.21301 10.4277C5.22771 10.4357 5.23695 10.4512 5.23695 10.468L5.23653 10.4693C5.25795 10.4815 5.26593 10.5092 5.25417 10.531C5.24577 10.5466 5.22981 10.5554 5.21343 10.5554Z" fill="#231F20"/>
<mask id="mask16" mask-type="alpha" maskUnits="userSpaceOnUse" x="2" y="8" width="4" height="3">
<path d="M2.19986 8.8138C2.186 8.8222 2.17718 8.83732 2.17676 8.85328C2.17676 8.88856 2.19482 8.91964 2.2238 8.93518L5.19068 10.5492C5.1911 10.5497 5.1911 10.5497 5.19152 10.5497C5.19866 10.5534 5.2058 10.5551 5.21336 10.5551C5.22974 10.5551 5.2457 10.5459 5.25368 10.5312C5.26586 10.5089 5.25788 10.4816 5.23646 10.4694L5.23688 10.4678C5.23688 10.4514 5.22764 10.4358 5.21294 10.4279L2.2448 8.81338C2.23808 8.8096 2.23052 8.8075 2.22338 8.8075C2.2154 8.8075 2.20742 8.8096 2.19986 8.8138Z" fill="white"/>
</mask>
<g mask="url(#mask16)">
<path fill-rule="evenodd" clip-rule="evenodd" d="M5.23407 10.5605C5.21265 10.5605 5.19249 10.5529 5.17653 10.5391C5.17191 10.5345 5.16729 10.5298 5.16309 10.5244L2.26131 8.94602C2.24199 8.94476 2.22351 8.93762 2.20881 8.9246C2.18907 8.90738 2.17773 8.88176 2.17773 8.85404C2.17815 8.83724 2.18655 8.82253 2.19999 8.81455C2.21469 8.80615 2.23191 8.80573 2.24577 8.81371L5.21349 10.4282C5.22567 10.4345 5.23407 10.4467 5.23659 10.4597L5.26179 10.4736C5.27943 10.4828 5.28909 10.5025 5.28531 10.5219C5.28195 10.5416 5.26641 10.5567 5.24667 10.5597C5.24247 10.5601 5.23827 10.5605 5.23407 10.5605Z" fill="#231F20"/>
<mask id="mask17" mask-type="alpha" maskUnits="userSpaceOnUse" x="2" y="8" width="4" height="3">
<path d="M2.19986 8.8138C2.186 8.8222 2.17718 8.83732 2.17676 8.85328C2.17676 8.88856 2.19482 8.91964 2.2238 8.93518L5.19068 10.5492C5.1911 10.5497 5.1911 10.5497 5.19152 10.5497C5.19866 10.5534 5.2058 10.5551 5.21336 10.5551C5.22974 10.5551 5.2457 10.5459 5.25368 10.5312C5.26586 10.5089 5.25788 10.4816 5.23646 10.4694L5.23688 10.4678C5.23688 10.4514 5.22764 10.4358 5.21294 10.4279L2.2448 8.81338C2.23808 8.8096 2.23052 8.8075 2.22338 8.8075C2.2154 8.8075 2.20742 8.8096 2.19986 8.8138Z" fill="white"/>
</mask>
<g mask="url(#mask17)">
<path fill-rule="evenodd" clip-rule="evenodd" d="M5.17524 10.5345L2.20752 8.92L2.25162 8.83936L5.21934 10.4538L5.17524 10.5345Z" fill="#231F20"/>
</g>
<mask id="mask18" mask-type="alpha" maskUnits="userSpaceOnUse" x="2" y="8" width="4" height="3">
<path d="M2.19986 8.8138C2.186 8.8222 2.17718 8.83732 2.17676 8.85328C2.17676 8.88856 2.19482 8.91964 2.2238 8.93518L5.19068 10.5492C5.1911 10.5497 5.1911 10.5497 5.19152 10.5497C5.19866 10.5534 5.2058 10.5551 5.21336 10.5551C5.22974 10.5551 5.2457 10.5459 5.25368 10.5312C5.26586 10.5089 5.25788 10.4816 5.23646 10.4694L5.23688 10.4678C5.23688 10.4514 5.22764 10.4358 5.21294 10.4279L2.2448 8.81338C2.23808 8.8096 2.23052 8.8075 2.22338 8.8075C2.2154 8.8075 2.20742 8.8096 2.19986 8.8138Z" fill="white"/>
</mask>
<g mask="url(#mask18)">
<path fill-rule="evenodd" clip-rule="evenodd" d="M5.21391 10.5556C5.20635 10.5556 5.19921 10.5535 5.19207 10.5497C5.19165 10.5497 5.19165 10.5497 5.19123 10.5493L2.22435 8.93568C2.19537 8.91972 2.17773 8.88864 2.17773 8.85378C2.17773 8.8374 2.18655 8.8227 2.20041 8.8143C2.21427 8.80632 2.23107 8.8059 2.24577 8.81388L5.21349 10.4279C5.22819 10.4359 5.23743 10.4515 5.23743 10.4683L5.23701 10.4695C5.25843 10.4817 5.26641 10.5094 5.25465 10.5313C5.24625 10.5468 5.23029 10.5556 5.21391 10.5556Z" fill="#231F20"/>
</g>
</g>
<path fill-rule="evenodd" clip-rule="evenodd" d="M5.23335 10.5605C5.21823 10.5605 5.20395 10.5567 5.19135 10.5496L2.22405 8.93508C2.20137 8.9229 2.19297 8.89518 2.20557 8.87292C2.21733 8.85066 2.24421 8.84268 2.26647 8.8536C2.27529 8.85276 2.28621 8.85444 2.29377 8.85906L5.26149 10.4731C5.27913 10.4828 5.28837 10.5025 5.28501 10.5223C5.28165 10.5416 5.26569 10.5567 5.24595 10.5596C5.24175 10.5601 5.23755 10.5605 5.23335 10.5605Z" fill="#231F20"/>
<mask id="mask19" mask-type="alpha" maskUnits="userSpaceOnUse" x="2" y="8" width="4" height="3">
<path d="M2.20539 8.87257C2.19321 8.89483 2.20119 8.92297 2.22387 8.93515L5.19117 10.5496C5.20419 10.5568 5.21847 10.5601 5.23317 10.5601C5.23779 10.5601 5.24199 10.5597 5.24577 10.5593C5.26551 10.5568 5.28147 10.5412 5.28483 10.5219C5.28861 10.5022 5.27937 10.4824 5.26131 10.4732L2.29359 8.85913C2.28603 8.85451 2.27511 8.85283 2.26671 8.85325C2.25999 8.85031 2.25285 8.84863 2.24613 8.84863C2.22975 8.84863 2.21379 8.85745 2.20539 8.87257Z" fill="white"/>
</mask>
<g mask="url(#mask19)">
<path fill-rule="evenodd" clip-rule="evenodd" d="M5.23359 10.5601C5.21217 10.5601 5.19201 10.5526 5.17605 10.5387C5.17143 10.5341 5.16681 10.5295 5.16261 10.524L2.26083 8.94565C2.24151 8.94439 2.22303 8.93725 2.20833 8.92423C2.18859 8.90701 2.17725 8.88139 2.17725 8.85367C2.17767 8.83687 2.18607 8.82217 2.19951 8.81419C2.21421 8.80579 2.23143 8.80537 2.24529 8.81335L5.21301 10.4278C5.22519 10.4341 5.23359 10.4463 5.23611 10.4593L5.26131 10.4732C5.27895 10.4824 5.28861 10.5022 5.28483 10.5215C5.28147 10.5412 5.26593 10.5563 5.24619 10.5593C5.24199 10.5597 5.23779 10.5601 5.23359 10.5601Z" fill="#231F20"/>
<mask id="mask20" mask-type="alpha" maskUnits="userSpaceOnUse" x="2" y="8" width="4" height="3">
<path d="M2.20539 8.87257C2.19321 8.89483 2.20119 8.92297 2.22387 8.93515L5.19117 10.5496C5.20419 10.5568 5.21847 10.5601 5.23317 10.5601C5.23779 10.5601 5.24199 10.5597 5.24577 10.5593C5.26551 10.5568 5.28147 10.5412 5.28483 10.5219C5.28861 10.5022 5.27937 10.4824 5.26131 10.4732L2.29359 8.85913C2.28603 8.85451 2.27511 8.85283 2.26671 8.85325C2.25999 8.85031 2.25285 8.84863 2.24613 8.84863C2.22975 8.84863 2.21379 8.85745 2.20539 8.87257Z" fill="white"/>
</mask>
<g mask="url(#mask20)">
<path fill-rule="evenodd" clip-rule="evenodd" d="M5.19331 10.5509L2.22559 8.93599L2.26969 8.85535L5.23741 10.4702L5.19331 10.5509Z" fill="#231F20"/>
</g>
<mask id="mask21" mask-type="alpha" maskUnits="userSpaceOnUse" x="2" y="8" width="4" height="3">
<path d="M2.20539 8.87257C2.19321 8.89483 2.20119 8.92297 2.22387 8.93515L5.19117 10.5496C5.20419 10.5568 5.21847 10.5601 5.23317 10.5601C5.23779 10.5601 5.24199 10.5597 5.24577 10.5593C5.26551 10.5568 5.28147 10.5412 5.28483 10.5219C5.28861 10.5022 5.27937 10.4824 5.26131 10.4732L2.29359 8.85913C2.28603 8.85451 2.27511 8.85283 2.26671 8.85325C2.25999 8.85031 2.25285 8.84863 2.24613 8.84863C2.22975 8.84863 2.21379 8.85745 2.20539 8.87257Z" fill="white"/>
</mask>
<g mask="url(#mask21)">
<path fill-rule="evenodd" clip-rule="evenodd" d="M5.23335 10.5604C5.21823 10.5604 5.20395 10.5566 5.19135 10.5494L2.22405 8.93496C2.20137 8.92278 2.19297 8.89506 2.20557 8.8728C2.21733 8.85054 2.24421 8.84256 2.26647 8.85348C2.27529 8.85264 2.28621 8.85432 2.29377 8.85894L5.26149 10.473C5.27913 10.4827 5.28837 10.5024 5.28501 10.5221C5.28165 10.5415 5.26569 10.5566 5.24595 10.5595C5.24175 10.5599 5.23755 10.5604 5.23335 10.5604Z" fill="#231F20"/>
</g>
</g>
<path fill-rule="evenodd" clip-rule="evenodd" d="M2.26916 8.82617L5.1449 10.3911L5.15624 4.24187L2.2805 2.67737L2.26916 8.82617ZM5.19068 10.5141C5.18312 10.5141 5.17556 10.5125 5.16884 10.5087L2.20112 8.89421C2.18642 8.88623 2.17676 8.87027 2.17676 8.85347L2.18894 2.60009C2.18894 2.58413 2.19734 2.56901 2.21078 2.56061C2.22506 2.55221 2.24228 2.55221 2.25656 2.55977L5.22428 4.17425C5.23898 4.18223 5.24864 4.19777 5.24864 4.21499L5.23646 10.4684C5.23646 10.4843 5.22806 10.4994 5.21462 10.5078C5.20706 10.512 5.19908 10.5141 5.19068 10.5141Z" fill="#231F20"/>
<mask id="mask22" mask-type="alpha" maskUnits="userSpaceOnUse" x="2" y="2" width="4" height="9">
<path d="M2.21078 2.56038C2.19734 2.56878 2.18894 2.5839 2.18894 2.59986L2.17676 8.85324C2.17676 8.87046 2.18642 8.886 2.20112 8.89398L5.16926 10.5085C5.17556 10.5122 5.18354 10.5139 5.19068 10.5139C5.19908 10.5139 5.20748 10.5118 5.21462 10.508C5.22806 10.4996 5.23688 10.4845 5.23688 10.4681L5.24864 4.21476C5.24864 4.19796 5.23898 4.18242 5.22428 4.17402L2.25656 2.55954C2.24984 2.55576 2.24228 2.55408 2.2343 2.55408C2.22632 2.55408 2.21834 2.55618 2.21078 2.56038ZM2.26916 8.82594L2.28092 2.67714L5.15624 4.24164L5.1449 10.3909L2.26916 8.82594Z" fill="white"/>
</mask>
<g mask="url(#mask22)">
<path fill-rule="evenodd" clip-rule="evenodd" d="M2.26965 8.82605L5.14539 10.391L5.15673 4.24175L2.28099 2.67725L2.26965 8.82605ZM5.19117 10.514C5.18361 10.514 5.17605 10.5123 5.16933 10.5086L2.20161 8.89409C2.18691 8.88611 2.17725 8.87015 2.17725 8.85335L2.18943 2.59997C2.18943 2.58401 2.19783 2.56889 2.21127 2.56049C2.22555 2.55209 2.24277 2.55209 2.25705 2.55965L5.22477 4.17413C5.23947 4.18211 5.24913 4.19765 5.24913 4.21487L5.23695 10.4682C5.23695 10.4842 5.22855 10.4993 5.21511 10.5077C5.20755 10.5119 5.19957 10.514 5.19117 10.514Z" fill="#231F20"/>
</g>
<path fill-rule="evenodd" clip-rule="evenodd" d="M5.2029 4.26067C5.19492 4.26067 5.18778 4.25857 5.18064 4.25479L2.21292 2.64073C2.19822 2.63233 2.18856 2.61679 2.18898 2.59999C2.18898 2.54917 2.22888 2.50213 2.27718 2.49499C2.28726 2.49373 2.29692 2.49583 2.30574 2.50045L5.27346 4.11451C5.2911 4.12417 5.30034 4.14391 5.29698 4.16365C5.2932 4.18297 5.27766 4.19809 5.25792 4.20061C5.25498 4.20145 5.24868 4.20859 5.24868 4.21489C5.24868 4.23127 5.24028 4.24597 5.22642 4.25395C5.21886 4.25815 5.2113 4.26067 5.2029 4.26067Z" fill="#231F20"/>
<mask id="mask23" mask-type="alpha" maskUnits="userSpaceOnUse" x="2" y="2" width="4" height="3">
<path d="M2.27718 2.49493C2.22888 2.50207 2.18898 2.54911 2.18898 2.59993C2.18856 2.61673 2.19822 2.63227 2.21292 2.64067L5.18064 4.25515C5.18778 4.25851 5.19492 4.26061 5.2029 4.26061C5.21088 4.26061 5.21886 4.25809 5.22642 4.25389C5.24028 4.24591 5.24868 4.23121 5.24868 4.21483C5.24868 4.20853 5.25498 4.20181 5.2575 4.20055C5.27724 4.19803 5.29278 4.18333 5.29656 4.16359C5.30034 4.14385 5.2911 4.12369 5.27304 4.11487L2.30532 2.50039C2.2986 2.49661 2.29104 2.49451 2.28348 2.49451C2.28138 2.49451 2.27928 2.49493 2.27718 2.49493Z" fill="white"/>
</mask>
<g mask="url(#mask23)">
<path fill-rule="evenodd" clip-rule="evenodd" d="M5.20241 4.26079C5.19443 4.26079 5.18729 4.25869 5.18015 4.25491L2.21243 2.64085C2.19773 2.63245 2.18807 2.61691 2.18849 2.60011C2.18849 2.54929 2.22839 2.50225 2.27669 2.49511C2.28677 2.49385 2.29643 2.49595 2.30525 2.50057L5.27297 4.11463C5.29061 4.12429 5.29985 4.14403 5.29649 4.16377C5.29271 4.18309 5.27717 4.19821 5.25743 4.20073C5.25449 4.20157 5.24819 4.20871 5.24819 4.21501C5.24819 4.23139 5.23979 4.24609 5.22593 4.25407C5.21837 4.25827 5.21081 4.26079 5.20241 4.26079Z" fill="#231F20"/>
</g>
<mask id="mask24" mask-type="alpha" maskUnits="userSpaceOnUse" x="2" y="2" width="4" height="3">
<path d="M2.27718 2.49493C2.22888 2.50207 2.18898 2.54911 2.18898 2.59993C2.18856 2.61673 2.19822 2.63227 2.21292 2.64067L5.18064 4.25515C5.18778 4.25851 5.19492 4.26061 5.2029 4.26061C5.21088 4.26061 5.21886 4.25809 5.22642 4.25389C5.24028 4.24591 5.24868 4.23121 5.24868 4.21483C5.24868 4.20853 5.25498 4.20181 5.2575 4.20055C5.27724 4.19803 5.29278 4.18333 5.29656 4.16359C5.30034 4.14385 5.2911 4.12369 5.27304 4.11487L2.30532 2.50039C2.2986 2.49661 2.29104 2.49451 2.28348 2.49451C2.28138 2.49451 2.27928 2.49493 2.27718 2.49493Z" fill="white"/>
</mask>
<g mask="url(#mask24)">
<path fill-rule="evenodd" clip-rule="evenodd" d="M5.18745 4.22783L2.21973 2.61335L2.26341 2.53271L5.23113 4.14719L5.18745 4.22783Z" fill="#231F20"/>
<mask id="mask25" mask-type="alpha" maskUnits="userSpaceOnUse" x="2" y="2" width="4" height="3">
<path d="M2.27718 2.49493C2.22888 2.50207 2.18898 2.54911 2.18898 2.59993C2.18856 2.61673 2.19822 2.63227 2.21292 2.64067L5.18064 4.25515C5.18778 4.25851 5.19492 4.26061 5.2029 4.26061C5.21088 4.26061 5.21886 4.25809 5.22642 4.25389C5.24028 4.24591 5.24868 4.23121 5.24868 4.21483C5.24868 4.20853 5.25498 4.20181 5.2575 4.20055C5.27724 4.19803 5.29278 4.18333 5.29656 4.16359C5.30034 4.14385 5.2911 4.12369 5.27304 4.11487L2.30532 2.50039C2.2986 2.49661 2.29104 2.49451 2.28348 2.49451C2.28138 2.49451 2.27928 2.49493 2.27718 2.49493Z" fill="white"/>
</mask>
<g mask="url(#mask25)">
<path fill-rule="evenodd" clip-rule="evenodd" d="M5.20551 4.20598L2.23779 2.5915L2.28147 2.51086L5.24919 4.12534L5.20551 4.20598Z" fill="#231F20"/>
</g>
<mask id="mask26" mask-type="alpha" maskUnits="userSpaceOnUse" x="2" y="2" width="4" height="3">
<path d="M2.27718 2.49493C2.22888 2.50207 2.18898 2.54911 2.18898 2.59993C2.18856 2.61673 2.19822 2.63227 2.21292 2.64067L5.18064 4.25515C5.18778 4.25851 5.19492 4.26061 5.2029 4.26061C5.21088 4.26061 5.21886 4.25809 5.22642 4.25389C5.24028 4.24591 5.24868 4.23121 5.24868 4.21483C5.24868 4.20853 5.25498 4.20181 5.2575 4.20055C5.27724 4.19803 5.29278 4.18333 5.29656 4.16359C5.30034 4.14385 5.2911 4.12369 5.27304 4.11487L2.30532 2.50039C2.2986 2.49661 2.29104 2.49451 2.28348 2.49451C2.28138 2.49451 2.27928 2.49493 2.27718 2.49493Z" fill="white"/>
</mask>
<g mask="url(#mask26)">
<path fill-rule="evenodd" clip-rule="evenodd" d="M5.20241 4.26079C5.19443 4.26079 5.18729 4.25869 5.18015 4.25491L2.21243 2.64085C2.19773 2.63245 2.18807 2.61691 2.18849 2.60011C2.18849 2.54929 2.22839 2.50225 2.27669 2.49511C2.28677 2.49385 2.29643 2.49595 2.30525 2.50057L5.27297 4.11463C5.29061 4.12429 5.29985 4.14403 5.29649 4.16377C5.29271 4.18309 5.27717 4.19821 5.25743 4.20073C5.25449 4.20157 5.24819 4.20871 5.24819 4.21501C5.24819 4.23139 5.23979 4.24609 5.22593 4.25407C5.21837 4.25827 5.21081 4.26079 5.20241 4.26079Z" fill="#231F20"/>
</g>
</g>
<path fill-rule="evenodd" clip-rule="evenodd" d="M2.42781 2.56673L5.25987 4.10771L10.9009 3.31475L8.06883 1.77419L2.42781 2.56673ZM5.25147 4.20137C5.24349 4.20137 5.23593 4.19927 5.22921 4.19549L2.26149 2.58101C2.24427 2.57177 2.23461 2.55203 2.23797 2.53271C2.24175 2.51297 2.25729 2.49785 2.27703 2.49491L8.07093 1.68095C8.08017 1.67969 8.09067 1.68137 8.09907 1.68599L11.0668 3.30047C11.0844 3.31013 11.0941 3.32945 11.0903 3.34877C11.0865 3.36851 11.071 3.38363 11.0512 3.38657L5.25735 4.20095C5.25525 4.20137 5.25357 4.20137 5.25147 4.20137Z" fill="#231F20"/>
<mask id="mask27" mask-type="alpha" maskUnits="userSpaceOnUse" x="2" y="1" width="10" height="4">
<path d="M8.07093 1.68096L2.27703 2.49492C2.25729 2.49786 2.24175 2.51298 2.23797 2.5323C2.23461 2.55162 2.24427 2.57136 2.26149 2.58102L5.22921 4.1955C5.23593 4.19928 5.24349 4.20096 5.25147 4.20096C5.25315 4.20096 5.25567 4.20096 5.25735 4.20054L11.0517 3.38658C11.071 3.38364 11.0865 3.36852 11.0903 3.34878C11.0941 3.32988 11.0848 3.31014 11.0668 3.30048L8.09949 1.686C8.09277 1.68222 8.08521 1.68054 8.07765 1.68054C8.07513 1.68054 8.07303 1.68054 8.07093 1.68096ZM2.42781 2.56674L8.06883 1.7742L10.9009 3.31518L5.26029 4.10772L2.42781 2.56674Z" fill="white"/>
</mask>
<g mask="url(#mask27)">
<path fill-rule="evenodd" clip-rule="evenodd" d="M2.42781 2.5666L5.25987 4.10758L10.9009 3.31462L8.06883 1.77406L2.42781 2.5666ZM5.25147 4.20124C5.24349 4.20124 5.23593 4.19914 5.22921 4.19536L2.26149 2.58088C2.24427 2.57164 2.23461 2.5519 2.23797 2.53258C2.24175 2.51284 2.25729 2.49772 2.27703 2.49478L8.07093 1.68082C8.08017 1.67956 8.09067 1.68124 8.09907 1.68586L11.0668 3.30034C11.0844 3.31 11.0941 3.32932 11.0903 3.34864C11.0865 3.36838 11.071 3.3835 11.0512 3.38644L5.25735 4.20082C5.25525 4.20124 5.25357 4.20124 5.25147 4.20124Z" fill="#231F20"/>
</g>
<path fill-rule="evenodd" clip-rule="evenodd" d="M8.06464 7.96115L10.9408 9.52565L10.9521 3.47975L8.07598 1.91525L8.06464 7.96115ZM10.9866 9.64913C10.979 9.64913 10.9715 9.64703 10.9647 9.64325L7.99702 8.02877C7.9819 8.02079 7.97266 8.00483 7.97266 7.98803L7.98442 1.83797C7.98442 1.82201 7.99282 1.80689 8.00668 1.79849C8.02096 1.79051 8.03818 1.79009 8.05204 1.79765L11.0198 3.41213C11.0349 3.42011 11.0441 3.43607 11.0441 3.45287L11.0324 9.60293C11.0324 9.61931 11.024 9.63401 11.0101 9.64241C11.003 9.64703 10.995 9.64913 10.9866 9.64913Z" fill="#231F20"/>
<mask id="mask28" mask-type="alpha" maskUnits="userSpaceOnUse" x="7" y="1" width="5" height="9">
<path d="M8.00668 1.79847C7.99282 1.80645 7.98442 1.82157 7.98442 1.83753L7.97266 7.98801C7.97266 8.00481 7.9819 8.02077 7.99702 8.02833L10.9647 9.64281C10.9715 9.64659 10.9794 9.64869 10.9866 9.64869C10.995 9.64869 11.003 9.64659 11.0101 9.64239C11.024 9.63399 11.0328 9.61929 11.0328 9.60291L11.0441 3.45243C11.0441 3.43563 11.0349 3.42051 11.0198 3.41211L8.05204 1.79763C8.04532 1.79385 8.03776 1.79175 8.0302 1.79175C8.02222 1.79175 8.01382 1.79385 8.00668 1.79847ZM8.06464 7.96071L8.0764 1.91523L10.9521 3.47973L10.9408 9.52563L8.06464 7.96071Z" fill="white"/>
</mask>
<g mask="url(#mask28)">
<path fill-rule="evenodd" clip-rule="evenodd" d="M8.06464 7.96152L10.9408 9.52602L10.9521 3.48012L8.07598 1.91562L8.06464 7.96152ZM10.9866 9.6495C10.979 9.6495 10.9715 9.6474 10.9647 9.64362L7.99702 8.02914C7.9819 8.02116 7.97266 8.0052 7.97266 7.9884L7.98442 1.83834C7.98442 1.82238 7.99282 1.80726 8.00668 1.79886C8.02096 1.79088 8.03818 1.79046 8.05204 1.79802L11.0198 3.4125C11.0349 3.42048 11.0441 3.43644 11.0441 3.45324L11.0324 9.6033C11.0324 9.61968 11.024 9.63438 11.0101 9.64278C11.003 9.6474 10.995 9.6495 10.9866 9.6495Z" fill="#231F20"/>
</g>
<path fill-rule="evenodd" clip-rule="evenodd" d="M2.47637 2.66528L5.30843 4.20584L10.8537 3.42632L8.02163 1.88618L2.47637 2.66528ZM5.30003 4.2995C5.29205 4.2995 5.28491 4.29782 5.27777 4.29404L2.31005 2.67914C2.29283 2.6699 2.28317 2.65058 2.28695 2.63084C2.29031 2.6111 2.30585 2.5964 2.32601 2.59346L8.02373 1.79252C8.03339 1.79126 8.04389 1.79294 8.05187 1.79798L11.02 3.41204C11.0376 3.4217 11.0469 3.44144 11.0431 3.46076C11.0402 3.48008 11.0246 3.49562 11.0045 3.49814L5.30591 4.29908C5.30381 4.2995 5.30213 4.2995 5.30003 4.2995Z" fill="#231F20"/>
<mask id="mask29" mask-type="alpha" maskUnits="userSpaceOnUse" x="2" y="1" width="10" height="4">
<path d="M8.02415 1.79217L2.32601 2.59311C2.30585 2.59647 2.29031 2.61117 2.28695 2.63091C2.28317 2.65023 2.29283 2.66955 2.31047 2.67921L5.27777 4.29369C5.28491 4.29747 5.29205 4.29915 5.30003 4.29915C5.30213 4.29915 5.30423 4.29915 5.30633 4.29873L11.0045 3.49821C11.0246 3.49527 11.0402 3.48015 11.0435 3.46041C11.0473 3.44109 11.0376 3.42135 11.02 3.41211L8.05229 1.79763C8.04557 1.79385 8.03801 1.79175 8.03003 1.79175C8.02793 1.79175 8.02583 1.79217 8.02415 1.79217ZM2.47637 2.66493L8.02163 1.88583L10.8541 3.42639L5.30885 4.20549L2.47637 2.66493Z" fill="white"/>
</mask>
<g mask="url(#mask29)">
<path fill-rule="evenodd" clip-rule="evenodd" d="M2.47686 2.66528L5.30892 4.20584L10.8542 3.42632L8.02212 1.88618L2.47686 2.66528ZM5.30052 4.2995C5.29254 4.2995 5.2854 4.29782 5.27826 4.29404L2.31054 2.67914C2.29332 2.6699 2.28366 2.65058 2.28744 2.63084C2.2908 2.6111 2.30634 2.5964 2.3265 2.59346L8.02422 1.79252C8.03388 1.79126 8.04438 1.79294 8.05236 1.79798L11.0205 3.41204C11.0381 3.4217 11.0474 3.44144 11.0436 3.46076C11.0407 3.48008 11.0251 3.49562 11.005 3.49814L5.3064 4.29908C5.3043 4.2995 5.30262 4.2995 5.30052 4.2995Z" fill="#231F20"/>
</g>
<path fill-rule="evenodd" clip-rule="evenodd" d="M2.36639 8.76221L5.24255 10.3267L5.25389 4.28081L2.37773 2.71589L2.36639 8.76221ZM5.28833 10.4502C5.28035 10.4502 5.27321 10.4481 5.26607 10.4443L2.29835 8.82983C2.28365 8.82185 2.27441 8.80589 2.27441 8.78909L2.28617 2.63903C2.28617 2.62265 2.29457 2.60795 2.30843 2.59955C2.32229 2.59115 2.33993 2.59115 2.35379 2.59871L5.32151 4.21319C5.33663 4.22075 5.34587 4.23671 5.34587 4.25351L5.33411 10.404C5.33411 10.4199 5.32571 10.4351 5.31185 10.4435C5.30471 10.4477 5.29673 10.4502 5.28833 10.4502Z" fill="#231F20"/>
<mask id="mask30" mask-type="alpha" maskUnits="userSpaceOnUse" x="2" y="2" width="4" height="9">
<path d="M2.30843 2.59949C2.29457 2.60789 2.28575 2.62259 2.28575 2.63855L2.27441 8.78903C2.27441 8.80625 2.28323 8.82179 2.29793 8.82977L5.26607 10.4443C5.27279 10.448 5.28035 10.4501 5.28833 10.4501C5.29631 10.4501 5.30471 10.4476 5.31143 10.4434C5.32529 10.435 5.33411 10.4199 5.33411 10.4039L5.34545 4.25303C5.34545 4.23665 5.33663 4.22111 5.32151 4.21313L2.35379 2.59865C2.34665 2.59487 2.33909 2.59277 2.33153 2.59277C2.32355 2.59277 2.31557 2.59487 2.30843 2.59949ZM2.36639 8.76173L2.37773 2.71583L5.25347 4.28075L5.24213 10.3267L2.36639 8.76173Z" fill="white"/>
</mask>
<g mask="url(#mask30)">
<path fill-rule="evenodd" clip-rule="evenodd" d="M2.36639 8.76245L5.24255 10.327L5.25389 4.28105L2.37773 2.71613L2.36639 8.76245ZM5.28833 10.4504C5.28035 10.4504 5.27321 10.4483 5.26607 10.4446L2.29835 8.83007C2.28365 8.82209 2.27441 8.80613 2.27441 8.78933L2.28617 2.63927C2.28617 2.62289 2.29457 2.60819 2.30843 2.59979C2.32229 2.59139 2.33993 2.59139 2.35379 2.59895L5.32151 4.21343C5.33663 4.22099 5.34587 4.23695 5.34587 4.25375L5.33411 10.4042C5.33411 10.4202 5.32571 10.4353 5.31185 10.4437C5.30471 10.4479 5.29673 10.4504 5.28833 10.4504Z" fill="#231F20"/>
</g>
<path fill-rule="evenodd" clip-rule="evenodd" d="M2.46492 8.81542L5.29698 10.356L10.8422 9.57646L8.01018 8.03632L2.46492 8.81542ZM5.28858 10.4501C5.2806 10.4501 5.27346 10.448 5.26632 10.4442L2.2986 8.8297C2.28138 8.82046 2.27172 8.80072 2.27508 8.78098C2.27886 8.76124 2.2944 8.74654 2.31414 8.7436L8.0127 7.94308C8.02194 7.9414 8.03244 7.9435 8.04084 7.94812L11.009 9.56218C11.0262 9.57184 11.0354 9.59158 11.0321 9.61132C11.0287 9.63064 11.0132 9.64576 10.9934 9.64828L5.29446 10.4492C5.29236 10.4496 5.29068 10.4501 5.28858 10.4501Z" fill="#231F20"/>
<mask id="mask31" mask-type="alpha" maskUnits="userSpaceOnUse" x="2" y="7" width="10" height="4">
<path d="M8.01312 7.94305L2.31414 8.74357C2.2944 8.74651 2.27886 8.76121 2.27508 8.78053C2.27172 8.80027 2.28138 8.82043 2.29818 8.82967L5.26632 10.4441C5.27304 10.4479 5.2806 10.45 5.28858 10.45C5.29068 10.45 5.29236 10.4492 5.29488 10.4488L10.9934 9.64825C11.0132 9.64573 11.0287 9.63103 11.0325 9.61129C11.0359 9.59113 11.0262 9.57139 11.009 9.56215L8.04084 7.94809C8.03454 7.94473 8.02698 7.94263 8.01984 7.94263C8.01732 7.94263 8.01522 7.94263 8.01312 7.94305ZM2.46492 8.81539L8.01018 8.03587L10.8422 9.57643L5.29698 10.3559L2.46492 8.81539Z" fill="white"/>
</mask>
<g mask="url(#mask31)">
<path fill-rule="evenodd" clip-rule="evenodd" d="M2.46492 8.81493L5.29698 10.3555L10.8422 9.57597L8.01018 8.03583L2.46492 8.81493ZM5.28858 10.4496C5.2806 10.4496 5.27346 10.4475 5.26632 10.4437L2.2986 8.82921C2.28138 8.81997 2.27172 8.80023 2.27508 8.78049C2.27886 8.76075 2.2944 8.74605 2.31414 8.74311L8.0127 7.94259C8.02194 7.94091 8.03244 7.94301 8.04084 7.94763L11.009 9.56169C11.0262 9.57135 11.0354 9.59109 11.0321 9.61083C11.0287 9.63015 11.0132 9.64527 10.9934 9.64779L5.29446 10.4487C5.29236 10.4492 5.29068 10.4496 5.28858 10.4496Z" fill="#231F20"/>
</g>
<path fill-rule="evenodd" clip-rule="evenodd" d="M34.6732 35.2216C34.6232 35.2855 34.553 35.3178 34.4636 35.3178C34.3859 35.3178 34.3216 35.293 34.2716 35.2439C34.2212 35.1943 34.196 35.1359 34.196 35.0696C34.196 35.023 34.2179 34.9436 34.2616 34.831C34.2616 34.8012 34.246 34.7747 34.2166 34.7516C34.1906 34.7306 34.1591 34.7206 34.1221 34.7206C33.9503 34.7206 33.8067 34.9049 33.6912 35.2745C33.6261 35.4879 33.5534 35.8466 33.4732 36.351H34.2385L34.1906 36.5812H33.4094L32.7525 38.8235C32.6139 39.4166 32.4274 39.8962 32.1939 40.262C31.96 40.6279 31.6609 40.8106 31.2964 40.8106C31.1292 40.8106 30.9927 40.766 30.8856 40.6766C30.7793 40.5871 30.7256 40.488 30.7256 40.378C30.7256 40.3091 30.7474 40.2457 30.7924 40.1856C30.8369 40.1264 30.9037 40.0966 30.9931 40.0966C31.0708 40.0966 31.1368 40.1222 31.1905 40.1738C31.2443 40.2251 31.2712 40.2885 31.2712 40.3641C31.2712 40.4057 31.259 40.4468 31.235 40.4897C31.2111 40.5321 31.1993 40.5615 31.1993 40.577C31.1993 40.598 31.2124 40.6148 31.2384 40.6287C31.2649 40.6421 31.2989 40.6493 31.3396 40.6493C31.5345 40.6493 31.7 40.4964 31.8348 40.1894C31.9062 40.0289 31.9713 39.808 32.0309 39.5266L32.8466 36.5812H32.212L32.2598 36.351H32.9247C33.0499 35.818 33.1901 35.4228 33.346 35.1666C33.5778 34.7735 33.8638 34.5765 34.2044 34.5765C34.3598 34.5765 34.4896 34.621 34.5934 34.7101C34.6971 34.7995 34.7488 34.9012 34.7488 35.0158C34.7488 35.0893 34.7231 35.1578 34.6732 35.2216ZM36.2879 34.7479C36.0704 34.9768 35.8978 35.1889 35.7697 35.3834C35.5382 35.7265 35.3509 36.1268 35.2064 36.5846C35.0783 36.992 34.988 37.3809 34.9351 37.7501C34.8826 38.1197 34.8566 38.4271 34.8566 38.672C34.8566 39.0563 34.8776 39.3717 34.92 39.6178C34.9624 39.8635 35.0523 40.1856 35.1896 40.5842L35.0695 40.625C34.8242 40.2087 34.6466 39.7879 34.5353 39.3637C34.4244 38.9391 34.369 38.5161 34.369 38.0953C34.369 37.5371 34.4614 37.0428 34.647 36.6119C34.9238 35.9688 35.4412 35.3124 36.1985 34.6416L36.2879 34.7479ZM35.6022 38.9208C35.6572 38.883 35.7135 38.8641 35.7702 38.8641C35.7979 38.8641 35.8252 38.8679 35.8529 38.8763C35.8802 38.8843 35.9096 38.8969 35.9424 38.9154L36.0625 38.9809C36.078 38.9897 36.0936 38.9964 36.1087 38.9993C36.1234 39.0031 36.1398 39.0048 36.1582 39.0048C36.2154 39.0048 36.2595 38.9905 36.2905 38.962C36.3216 38.933 36.4006 38.833 36.5291 38.6617C36.6135 38.5495 36.8059 38.2757 37.1058 37.8414C37.1058 37.8254 37.0797 37.7024 37.0272 37.4722C36.9743 37.2421 36.926 37.0468 36.8827 36.8867C36.8391 36.7242 36.8004 36.6175 36.766 36.5659C36.7315 36.5146 36.6677 36.4886 36.5736 36.4886C36.5413 36.4886 36.4791 36.4999 36.3846 36.523C36.3254 36.5365 36.2611 36.5524 36.1927 36.5709L36.1616 36.4642L36.5425 36.334C36.6412 36.3 36.732 36.2723 36.816 36.2517C36.8995 36.2311 36.9709 36.2206 37.0302 36.2206C37.1263 36.2206 37.1986 36.2496 37.2465 36.3063C37.32 36.3979 37.3817 36.5793 37.4317 36.8489L37.5039 37.2404C37.7101 36.9245 37.8697 36.7028 37.9848 36.5743C38.0877 36.4579 38.1847 36.3706 38.2763 36.3134C38.3679 36.2563 38.4548 36.2278 38.5371 36.2278C38.6152 36.2278 38.6778 36.2391 38.7261 36.2618C38.8135 36.3034 38.8567 36.3806 38.8567 36.4957C38.8567 36.573 38.8345 36.6343 38.7916 36.6772C38.748 36.7208 38.6917 36.7423 38.6232 36.7423C38.598 36.7423 38.5737 36.7397 38.551 36.7339C38.5283 36.7284 38.5044 36.72 38.4792 36.7082L38.3897 36.6705C38.3645 36.6587 38.3406 36.6495 38.3179 36.6411C38.2948 36.6331 38.2776 36.6293 38.2662 36.6293C38.1633 36.6293 38.0205 36.7624 37.837 37.0291C37.6539 37.2958 37.5623 37.4495 37.5623 37.4911C37.5623 37.5256 37.5837 37.6369 37.6257 37.8259C37.6686 38.0145 37.7148 38.2139 37.7647 38.4244C37.8109 38.6239 37.8496 38.7612 37.8819 38.8368C37.9344 38.9603 37.9936 39.022 38.0604 39.022C38.1222 39.022 38.1847 38.9876 38.249 38.9191C38.3128 38.8503 38.409 38.7268 38.5371 38.5483L38.6337 38.6067C38.535 38.7851 38.433 38.9376 38.328 39.0632C38.1289 39.3013 37.9386 39.4202 37.758 39.4202C37.6434 39.4202 37.5535 39.3656 37.4867 39.2556C37.4481 39.1917 37.4103 39.0863 37.3737 38.9397L37.1608 38.0917L36.4569 39.0153C36.3195 39.1749 36.2137 39.2828 36.1393 39.3379C36.0654 39.3929 35.973 39.4202 35.863 39.4202C35.7164 39.4202 35.6173 39.3744 35.5644 39.2829C35.535 39.235 35.5198 39.1778 35.5198 39.1111C35.5198 39.022 35.5471 38.9586 35.6022 38.9208ZM38.4888 40.5016C38.727 40.2458 38.9088 40.0232 39.0348 39.8354C39.2499 39.5062 39.4271 39.116 39.5665 38.6649C39.6879 38.2806 39.7774 37.9064 39.8345 37.5422C39.8916 37.1785 39.9202 36.8308 39.9202 36.499C39.9202 36.0937 39.8866 35.7367 39.819 35.428C39.7518 35.1188 39.6707 34.866 39.577 34.669L39.7072 34.6279C39.9252 34.9802 40.0957 35.3767 40.2209 35.8177C40.3456 36.2579 40.4078 36.7035 40.4078 37.1546C40.4078 37.6649 40.3314 38.1176 40.1776 38.5141C39.9009 39.2327 39.3679 39.9308 38.5783 40.6082L38.4888 40.5016ZM38.7591 9.02945V9.32261C38.4891 9.44357 38.177 9.55025 37.8238 9.64433C37.4706 9.73715 37.1447 9.80645 36.8469 9.85265H36.4979V3.62909H33.8325V6.28097C33.8325 6.57791 33.8208 6.88577 33.7977 7.20203C33.7746 7.51829 33.7372 7.82783 33.686 8.12981C33.6351 8.43137 33.5747 8.72033 33.5045 8.99417C33.4352 9.26927 33.3584 9.51329 33.2744 9.72707C33.1904 9.77327 33.0698 9.79973 32.9119 9.80393C32.7531 9.80897 32.5998 9.80897 32.4512 9.80393C32.3021 9.79973 32.1719 9.78755 32.0601 9.76949C31.9493 9.75059 31.893 9.73715 31.893 9.72707L31.8228 9.61577C32.0278 9.29951 32.2143 8.89463 32.3814 8.40155C32.5486 7.90805 32.6906 7.38347 32.8069 6.82445C32.9232 6.26585 33.0114 5.70557 33.0719 5.14277C33.1328 4.57997 33.1626 4.07597 33.1626 3.62909H32.9253C32.6654 3.62909 32.4142 3.69713 32.1719 3.83195C31.9299 3.96677 31.7023 4.17299 31.4885 4.45229L31.3075 4.34015C31.3537 4.10831 31.4138 3.88907 31.4885 3.68453C31.5629 3.48041 31.6716 3.30023 31.8165 3.14777C31.9606 2.99363 32.1517 2.87393 32.3886 2.78531C32.6255 2.69669 32.9304 2.65721 33.3025 2.66687C33.4046 2.66687 33.5931 2.67065 33.8678 2.68031C34.1421 2.68997 34.463 2.69963 34.8305 2.70761C35.198 2.71727 35.5911 2.72651 36.0094 2.73659C38.2606 2.78741 34.9842 2.75003 37.2102 2.75003C37.5075 2.75003 37.7566 2.74709 37.9565 2.74289C38.1564 2.73869 38.3236 2.72231 38.4593 2.69375C38.5932 2.66687 38.7079 2.62865 38.8007 2.58203C38.894 2.53583 38.9864 2.47073 39.08 2.38757L39.2753 2.51273C39.2384 2.80967 39.117 3.07133 38.912 3.29351C38.7079 3.51695 38.4051 3.62909 38.0052 3.62909H37.8381V8.91773L38.7591 9.02945Z" fill="#231F20"/>
</svg>
