<svg width="36" height="37" viewBox="0 0 36 37" xmlns="http://www.w3.org/2000/svg">
<path d="M10.3141 32.0616C10.5081 32.2414 10.6638 32.4586 10.7719 32.7C10.9009 33.0066 10.9611 33.3378 10.9483 33.6702C10.9525 34.041 10.8795 34.4085 10.7341 34.7496C10.5947 35.0684 10.3901 35.3546 10.1335 35.5896C9.84265 35.8628 9.49374 36.0667 9.11292 36.186C8.69774 36.3193 8.26373 36.3845 7.82772 36.3792C7.35226 36.3805 6.8784 36.3241 6.41652 36.2112C6.0267 36.1209 5.64577 35.9958 5.27832 35.8374V34.632H5.36652C5.72511 34.8632 6.11373 35.0441 6.52152 35.1696C6.93617 35.3074 7.36979 35.3797 7.80672 35.3838C8.06897 35.3822 8.32949 35.3412 8.57952 35.262C8.82604 35.1977 9.05359 35.0753 9.24312 34.905C9.42073 34.7503 9.56383 34.56 9.66312 34.3464C9.75626 34.0982 9.80047 33.8344 9.79332 33.5694C9.80157 33.3069 9.75136 33.0458 9.64632 32.805C9.55076 32.6113 9.40591 32.4462 9.22632 32.3262C9.03575 32.2017 8.82109 32.1187 8.59632 32.0826C8.33293 32.0359 8.06581 32.0134 7.79832 32.0154H7.26912V31.0536H7.68912C8.18319 31.0791 8.6731 30.9515 9.09192 30.6882C9.4347 30.4427 9.62678 30.038 9.60012 29.6172C9.60543 29.4269 9.56052 29.2386 9.46992 29.0712C9.37968 28.9145 9.25287 28.7819 9.10032 28.6848C8.93312 28.5927 8.75124 28.5301 8.56272 28.5C8.35167 28.4523 8.13643 28.4256 7.92012 28.4202C7.52313 28.426 7.12936 28.4926 6.75252 28.6176C6.33976 28.748 5.94689 28.9346 5.58492 29.172H5.53032V27.9624C5.88126 27.8025 6.247 27.6773 6.62232 27.5886C7.05623 27.4788 7.50193 27.4224 7.94952 27.4206C8.32225 27.4156 8.69432 27.4537 9.05832 27.534C9.36678 27.6076 9.66067 27.7326 9.92772 27.9036C10.1893 28.073 10.4055 28.3037 10.5577 28.5756C10.706 28.8591 10.7797 29.1756 10.7719 29.4954C10.779 29.9667 10.5958 30.4209 10.2637 30.7554C9.94927 31.1049 9.53134 31.3448 9.07092 31.44V31.5198C9.29024 31.5623 9.50429 31.6285 9.70932 31.7172C9.92867 31.7976 10.1331 31.914 10.3141 32.0616Z" />
<path d="M32.9438 35.1696L32.2802 35.9214L29.6258 32.9394L26.9672 35.9214L26.291 35.1696L28.9748 32.2296L26.291 29.2896L26.9546 28.5L29.6132 31.4862L32.2802 28.5L32.9564 29.256L30.2768 32.196L32.9438 35.1696Z" />
<path d="M11.9103 7.00438H0.284668V5.52178H11.9103V7.00438ZM7.19787 2.83799H4.98027V0.292786H7.18107L7.19787 2.83799ZM7.19787 12.2334H4.98027V9.68818H7.18107L7.19787 12.2334ZM35.3883 7.68478H24.0483V6.16018H35.3883V7.68478ZM35.3883 11.7H24.0483V10.1712H35.3883V11.7ZM2.98107 22.431H2.46027C2.19443 22.1317 1.9814 21.7894 1.83027 21.4188C1.52785 20.6219 1.52785 19.7419 1.83027 18.945C1.98134 18.573 2.19436 18.2294 2.46027 17.9286H2.98527V17.9538C2.85619 18.0716 2.73811 18.2009 2.63247 18.3402C2.51081 18.4957 2.40527 18.6631 2.31747 18.84C2.22071 19.0369 2.14606 19.244 2.09487 19.4574C2.03536 19.6907 2.00572 19.9306 2.00667 20.1714C2.00501 20.4133 2.03322 20.6546 2.09067 20.8896C2.14483 21.1026 2.22084 21.3095 2.31747 21.507C2.4032 21.6867 2.50736 21.857 2.62827 22.0152C2.73415 22.1542 2.85222 22.2835 2.98107 22.4016V22.431ZM5.96727 20.4066C5.96762 20.5634 5.93767 20.7189 5.87907 20.8644C5.76833 21.1498 5.53809 21.3724 5.24907 21.4734C5.07965 21.5353 4.90021 21.5652 4.71987 21.5616C4.53908 21.5613 4.35884 21.5416 4.18227 21.5028C4.03785 21.4693 3.89715 21.4215 3.76227 21.36V20.8812H3.79587C3.92884 20.9621 4.06953 21.0297 4.21587 21.0828C4.37568 21.1364 4.5429 21.1648 4.71147 21.1668C4.81813 21.1664 4.9242 21.1509 5.02647 21.1206C5.1282 21.0883 5.22146 21.0338 5.29947 20.961C5.36693 20.8933 5.41857 20.8116 5.45067 20.7216C5.48603 20.6204 5.50309 20.5137 5.50107 20.4066C5.5049 20.3013 5.48479 20.1964 5.44227 20.1C5.40383 20.0222 5.34596 19.9556 5.27427 19.9068C5.18756 19.8449 5.08883 19.802 4.98447 19.7808C4.85834 19.7581 4.73042 19.7468 4.60227 19.7472C4.47287 19.746 4.34361 19.7559 4.21587 19.7766C4.08987 19.7766 3.98487 19.8102 3.89247 19.8312V18.084H5.94207V18.483H4.33347V19.3902C4.4006 19.386 4.46793 19.386 4.53507 19.3902H4.71567C4.87792 19.3866 5.04004 19.4021 5.19867 19.4364C5.33558 19.4654 5.46545 19.521 5.58087 19.6002C5.70137 19.6827 5.79951 19.7938 5.86647 19.9236C5.93564 20.0751 5.97008 20.2401 5.96727 20.4066Z" />
<path d="M9.46609 20.9946L9.21409 21.2508L8.21449 20.2428L7.21909 21.2508L6.96289 20.9946L7.97089 19.9992L6.96289 18.9996L7.21909 18.7476L8.21449 19.7514L9.21409 18.7476L9.46609 18.9996L8.45809 19.9992L9.46609 20.9946Z" />
<path d="M12.5069 19.848C12.5831 19.9176 12.6446 20.0019 12.6875 20.0958C12.7389 20.2179 12.7632 20.3497 12.7589 20.4822C12.7588 20.6263 12.7303 20.769 12.6749 20.9022C12.6167 21.0281 12.5355 21.142 12.4355 21.2382C12.3153 21.3486 12.1718 21.4304 12.0155 21.4776C11.8512 21.5294 11.6796 21.5549 11.5073 21.5532C11.3192 21.5517 11.1318 21.5291 10.9487 21.486C10.8015 21.455 10.6569 21.4129 10.5161 21.36V20.8686H10.5497C10.692 20.9592 10.846 21.0298 11.0075 21.0786C11.1709 21.1356 11.3426 21.1654 11.5157 21.1668C11.6199 21.1655 11.7232 21.1485 11.8223 21.1164C11.9193 21.0903 12.0086 21.0414 12.0827 20.9736C12.1494 20.9117 12.2036 20.8375 12.2423 20.7552C12.2786 20.6557 12.2957 20.5502 12.2927 20.4444C12.2956 20.3405 12.2755 20.2372 12.2339 20.142C12.1985 20.0659 12.1434 20.0006 12.0743 19.953C11.9977 19.9041 11.912 19.8712 11.8223 19.8564C11.7182 19.8389 11.6128 19.8305 11.5073 19.8312H11.3015V19.4532H11.4611C11.6566 19.4622 11.8502 19.4109 12.0155 19.3062C12.1518 19.2109 12.2296 19.0523 12.2213 18.8862C12.223 18.8103 12.2057 18.7352 12.1709 18.6678C12.1343 18.6066 12.084 18.5548 12.0239 18.5166C11.9592 18.4778 11.8881 18.4507 11.8139 18.4368C11.7311 18.4192 11.6466 18.4108 11.5619 18.4116C11.4032 18.4128 11.2458 18.4398 11.0957 18.4914C10.9324 18.5425 10.7769 18.616 10.6337 18.7098H10.6127V18.2268C10.7475 18.1639 10.8882 18.1146 11.0327 18.0798C11.2077 18.03 11.3884 18.0032 11.5703 18C11.7186 17.9985 11.8665 18.014 12.0113 18.0462C12.1337 18.0751 12.2502 18.1248 12.3557 18.1932C12.4598 18.2584 12.5452 18.3496 12.6035 18.4578C12.6612 18.5708 12.6901 18.6963 12.6875 18.8232C12.6897 19.0075 12.6169 19.1848 12.4859 19.3146C12.3619 19.4522 12.197 19.5464 12.0155 19.5834V19.6128C12.1023 19.6295 12.1869 19.6562 12.2675 19.6926C12.3547 19.7321 12.4354 19.7844 12.5069 19.848ZM15.7829 19.785C15.8134 20.2541 15.7084 20.722 15.4805 21.1332C15.2646 21.4059 14.9359 21.565 14.588 21.565C14.2402 21.565 13.9114 21.4059 13.6955 21.1332C13.4775 20.7234 13.3786 20.2607 13.4099 19.7976C13.3765 19.3324 13.4771 18.8675 13.6997 18.4578C13.9128 18.1805 14.2426 18.018 14.5922 18.018C14.9419 18.018 15.2717 18.1805 15.4847 18.4578C15.7039 18.8645 15.8071 19.3236 15.7829 19.785ZM15.1781 20.8224C15.2358 20.6888 15.2727 20.5471 15.2873 20.4024C15.3093 20.2015 15.3191 19.9996 15.3167 19.7976C15.3189 19.5956 15.3091 19.3936 15.2873 19.1928C15.2737 19.0478 15.2368 18.906 15.1781 18.7728C15.1326 18.6652 15.0567 18.5733 14.9597 18.5082C14.8529 18.4417 14.7283 18.4095 14.6027 18.4158C14.4772 18.4105 14.3529 18.4427 14.2457 18.5082C14.1464 18.5736 14.0689 18.6672 14.0231 18.777C13.9646 18.9174 13.9292 19.0663 13.9181 19.218C13.897 19.416 13.8872 19.6152 13.8887 19.8144C13.8869 20.0135 13.8953 20.2125 13.9139 20.4108C13.9291 20.5554 13.9659 20.697 14.0231 20.8308C14.0667 20.9405 14.1411 21.0353 14.2373 21.1038C14.3478 21.1688 14.4746 21.2009 14.6027 21.1962C14.7277 21.2012 14.8515 21.1706 14.9597 21.108C15.0622 21.0397 15.1391 20.9392 15.1781 20.8224ZM17.8031 20.1798C17.8121 20.6103 17.7365 21.0384 17.5805 21.4398C17.4275 21.8094 17.2146 22.1514 16.9505 22.452H16.4255C16.5544 22.3339 16.6724 22.2046 16.7783 22.0656C16.9021 21.9085 17.0077 21.7381 17.0933 21.5574C17.1868 21.359 17.2613 21.1523 17.3159 20.94C17.3752 20.7053 17.4035 20.4638 17.3999 20.2218C17.4022 19.9812 17.374 19.7413 17.3159 19.5078C17.2684 19.2771 17.1937 19.053 17.0933 18.84C17.0059 18.6603 16.9003 18.49 16.7783 18.3318C16.6751 18.1906 16.5568 18.061 16.4255 17.9454V17.9202H16.9505C17.2155 18.2248 17.4284 18.571 17.5805 18.945C17.7334 19.3384 17.809 19.7577 17.8031 20.1798Z" />
<path d="M21.5702 20.1798H20.3102V21.4398H19.928V20.1798H18.668V19.8144H19.928V18.5544H20.3102V19.8144H21.5702V20.1798Z" />
<path d="M23.8425 22.431H23.3217C23.0546 22.1326 22.8414 21.7901 22.6917 21.4188C22.3892 20.6219 22.3892 19.7419 22.6917 18.945C22.8414 18.5724 23.0545 18.2285 23.3217 17.9286H23.8425V17.9538C23.7134 18.0716 23.5953 18.201 23.4897 18.3402C23.3709 18.4969 23.2668 18.6642 23.1789 18.84C23.0821 19.0369 23.0075 19.244 22.9563 19.4574C22.8967 19.6907 22.8671 19.9306 22.8681 20.1714C22.8664 20.4133 22.8946 20.6546 22.9521 20.8896C23.0062 21.1026 23.0822 21.3095 23.1789 21.507C23.2646 21.6867 23.3688 21.857 23.4897 22.0152C23.5955 22.1542 23.7136 22.2835 23.8425 22.4016V22.431ZM26.8203 20.4066C26.8206 20.5634 26.7907 20.7189 26.7321 20.8644C26.6213 21.1498 26.3911 21.3724 26.1021 21.4734C25.9326 21.5353 25.7532 21.5652 25.5729 21.5616C25.3921 21.5613 25.2118 21.5416 25.0353 21.5028C24.8908 21.4693 24.7501 21.4215 24.6153 21.36V20.8812H24.6489C24.7822 20.9614 24.9229 21.0289 25.0689 21.0828C25.2287 21.1365 25.3959 21.1648 25.5645 21.1668C25.6711 21.1664 25.7772 21.1509 25.8795 21.1206C25.9812 21.0883 26.0744 21.0338 26.1525 20.961C26.2199 20.8933 26.2716 20.8116 26.3037 20.7216C26.339 20.6204 26.3561 20.5137 26.3541 20.4066C26.3566 20.3041 26.3366 20.2023 26.2953 20.1084C26.2568 20.0306 26.199 19.9641 26.1273 19.9152C26.0406 19.8534 25.9418 19.8104 25.8375 19.7892C25.7113 19.7665 25.5834 19.7552 25.4553 19.7556C25.3259 19.7544 25.1966 19.7643 25.0689 19.785C24.9429 19.785 24.8379 19.8186 24.7455 19.8396V18.084H26.8203L26.8203 18.483H25.1949V19.3902C25.262 19.386 25.3293 19.386 25.3965 19.3902H25.5603C25.7225 19.3866 25.8846 19.4021 26.0433 19.4364C26.1804 19.4645 26.3105 19.5203 26.4255 19.6002C26.546 19.6827 26.6441 19.7938 26.7111 19.9236C26.7831 20.0744 26.8204 20.2394 26.8203 20.4066Z" />
<path d="M30.3274 20.9946L30.0754 21.2508L29.0758 20.2428L28.0804 21.2508L27.8242 20.9946L28.8322 19.9992L27.8242 18.9996L28.0804 18.7476L29.0758 19.7514L30.0754 18.7476L30.3274 18.9996L29.3404 19.9992L30.3274 20.9946Z" />
<path d="M33.6787 18.5922L32.1373 21.4902H31.6459L33.2839 18.483H31.3477V18.084H33.6787V18.5922Z" />
<path d="M35.6867 20.1798C35.6957 20.6103 35.6201 21.0384 35.4641 21.4398C35.3111 21.8094 35.0982 22.1514 34.8341 22.452H34.3091C34.4379 22.3339 34.556 22.2046 34.6619 22.0656C34.7842 21.9075 34.8897 21.7372 34.9769 21.5574C35.0801 21.3463 35.1617 21.1254 35.2205 20.898C35.2779 20.6629 35.3061 20.4217 35.3045 20.1798C35.3047 19.9393 35.2765 19.6996 35.2205 19.4658C35.1612 19.2493 35.0796 19.0396 34.9769 18.84C34.8894 18.6603 34.7839 18.49 34.6619 18.3318C34.5574 18.1916 34.4392 18.0621 34.3091 17.9454V17.9202H34.8341C35.0983 18.2222 35.3111 18.5656 35.4641 18.9366C35.618 19.3327 35.6936 19.7549 35.6867 20.1798Z" />
</svg>
