<svg width="42" height="42" viewBox="0 0 42 42" xmlns="http://www.w3.org/2000/svg">
<path d="M6.60682 33.8562H2.99902V32.8104H6.60682V33.8562Z" />
<path d="M13.4909 32.9574C13.6847 33.139 13.8404 33.3575 13.9487 33.6C14.0784 33.9065 14.1401 34.2376 14.1293 34.5702C14.1338 34.9424 14.0608 35.3114 13.9151 35.6538C13.7742 35.9718 13.5698 36.2577 13.3145 36.4938C13.0226 36.7666 12.6741 36.9717 12.2939 37.0944C11.8772 37.2273 11.4418 37.2926 11.0045 37.2876C10.5303 37.2872 10.0578 37.2294 9.59748 37.1154C9.20632 37.0269 8.82397 36.9032 8.45508 36.7458V35.5278H8.54328C8.90278 35.7574 9.29118 35.9382 9.69828 36.0654C10.1129 36.2032 10.5465 36.2755 10.9835 36.2796C11.247 36.2763 11.5086 36.2353 11.7605 36.1578C12.0064 36.0919 12.2335 35.9697 12.4241 35.8008C12.5946 35.6428 12.7304 35.4512 12.8231 35.238C12.9163 34.9913 12.9605 34.7288 12.9533 34.4652C12.9616 34.2013 12.9114 33.9388 12.8063 33.6966C12.7118 33.5033 12.5667 33.3393 12.3863 33.222C12.196 33.0961 11.9813 33.0117 11.7563 32.9742C11.4925 32.9309 11.2256 32.9098 10.9583 32.9112H10.4459V31.9494H10.8659C11.3599 31.975 11.8499 31.8474 12.2687 31.584C12.6156 31.339 12.8124 30.9329 12.7895 30.5088C12.8051 30.1313 12.6135 29.7754 12.2897 29.5806C12.1252 29.4806 11.9448 29.4096 11.7563 29.3706C11.5444 29.3315 11.3291 29.3132 11.1137 29.316C10.7169 29.3203 10.3231 29.3854 9.94608 29.5092C9.53435 29.6423 9.14181 29.8286 8.77848 30.0636H8.72388V28.8582C9.07408 28.6965 9.44001 28.5712 9.81588 28.4844C10.2496 28.3733 10.6953 28.3155 11.1431 28.3122C11.516 28.3085 11.8881 28.3479 12.2519 28.4298C12.561 28.5016 12.8552 28.6266 13.1213 28.7994C13.6645 29.1408 13.9847 29.7458 13.9613 30.387C13.9688 30.8584 13.7855 31.3128 13.4531 31.647C13.1371 31.993 12.7194 32.2298 12.2603 32.3232V32.403C12.4795 32.4439 12.6936 32.5086 12.8987 32.5962C13.114 32.6845 13.3139 32.8064 13.4909 32.9574ZM22.1513 22.827H19.0769V22.26H20.2571V18.438H19.0769V17.9214C19.2484 17.9191 19.4196 17.905 19.5893 17.8794C19.735 17.8649 19.8772 17.8251 20.0093 17.7618C20.1194 17.7053 20.2145 17.6232 20.2865 17.5224C20.359 17.4031 20.3995 17.2672 20.4041 17.1276H21.0005V22.26H22.1597L22.1513 22.827Z" />
<path d="M24.856 22.827H23.9404V21.7392H24.8518L24.856 22.827Z" />
<path d="M30.2736 19.9836C30.3304 20.7615 30.1643 21.5395 29.7948 22.2264C29.4357 22.683 28.8868 22.9496 28.3059 22.9496C27.725 22.9496 27.1761 22.683 26.817 22.2264C26.4559 21.5427 26.293 20.7717 26.3466 20.0004C26.2907 19.2244 26.4552 18.4484 26.8212 17.7618C27.1793 17.3021 27.7295 17.0333 28.3122 17.0333C28.8949 17.0333 29.4451 17.3021 29.8032 17.7618C30.1636 18.4442 30.3265 19.2137 30.2736 19.9836ZM29.2698 21.714C29.3651 21.4863 29.426 21.2456 29.4504 21C29.4869 20.6667 29.5038 20.3315 29.5008 19.9962C29.5034 19.6595 29.4866 19.3229 29.4504 18.9882C29.4296 18.7388 29.3672 18.4946 29.2656 18.2658C29.1903 18.0846 29.0632 17.9297 28.9002 17.8206C28.721 17.7159 28.5154 17.6649 28.308 17.6736C28.1033 17.663 27.8997 17.7095 27.72 17.808C27.5556 17.9186 27.4272 18.0748 27.3504 18.2574C27.2514 18.4927 27.1904 18.7422 27.1698 18.9966C27.1404 19.299 27.1236 19.6308 27.1236 19.992C27.1201 20.3243 27.1341 20.6566 27.1656 20.9874C27.1901 21.2344 27.251 21.4764 27.3462 21.7056C27.4225 21.8908 27.5528 22.0489 27.72 22.1592C28.0957 22.3638 28.5497 22.3638 28.9254 22.1592C29.0829 22.0494 29.2031 21.8941 29.2698 21.714Z" />
<path d="M35.2805 17.997L32.7101 22.827H31.8701L34.6085 17.8122H31.3745V17.1444H35.2805V17.997Z" />
<path d="M40.169 21.021C40.1689 21.2815 40.119 21.5395 40.022 21.7812C39.9342 22.0095 39.7997 22.2169 39.6272 22.3902C39.4392 22.5729 39.2164 22.7157 38.972 22.8102C38.69 22.909 38.3929 22.9573 38.0941 22.953C37.7917 22.9539 37.4901 22.9201 37.1953 22.8522C36.946 22.7998 36.7026 22.7224 36.4688 22.6212V21.8064H36.5401C36.7709 21.9472 37.0177 22.06 37.2751 22.1424C37.5454 22.2357 37.8292 22.2839 38.1152 22.2852C38.2933 22.2866 38.4705 22.2597 38.6402 22.2054C38.798 22.1493 38.9414 22.059 39.0602 21.9408C39.1716 21.8289 39.2576 21.6943 39.3122 21.546C39.3726 21.3763 39.4011 21.1969 39.3962 21.0168C39.4016 20.846 39.3671 20.6763 39.2954 20.5212C39.2323 20.3914 39.1368 20.28 39.0182 20.1978C38.8729 20.0969 38.7085 20.0269 38.5352 19.992C38.3248 19.9516 38.111 19.9319 37.8968 19.9332C37.6817 19.9334 37.467 19.9488 37.2541 19.9794C37.0441 20.0088 36.8677 20.0424 36.7165 20.0718V17.1318H40.1354V17.7996H37.4474V19.32C37.5566 19.32 37.6699 19.32 37.7833 19.2948H38.0815C38.3524 19.2925 38.6228 19.3192 38.8879 19.3746C39.1161 19.4267 39.3325 19.5207 39.5264 19.6518C39.7289 19.7882 39.8924 19.9749 40.001 20.1936C40.119 20.4531 40.1765 20.7361 40.169 21.021Z"/>
<path d="M36.3727 38.5224L35.4067 39.5976L31.6267 35.3262L27.8005 39.5976L26.8345 38.5224L30.6607 34.2888L26.8345 30.0594L27.8005 28.98L31.6057 33.2514L35.4067 28.98L36.3727 30.0594L32.5381 34.2888L36.3727 38.5224Z" />
<path d="M14.0787 12.096H2.45312V10.6176H14.0787V12.096ZM9.37052 7.93381H7.16552V5.38861H9.37052V7.93381ZM9.37052 17.325H7.16552V14.7798H9.37052V17.325ZM40.0809 4.38061H28.7409V2.85181H40.0809V4.38061ZM40.0809 8.39161H28.7409V6.86281H40.0809V8.39161Z" />
</svg>
