<svg width="24" height="24" viewBox="0 0 24 24" fill="none" xmlns="http://www.w3.org/2000/svg">
<path d="M10.0638 5.13094C11.2009 5.14088 12.1156 6.07097 12.1056 7.20896C12.0957 8.34605 11.1656 9.25987 10.0276 9.24992C8.89052 9.23998 7.9767 8.30989 7.98665 7.1728C7.9966 6.03571 8.92669 5.12099 10.0638 5.13094Z" fill="#484F5B"/>
<path d="M14.8344 7.14937L14.001 8.16713C13.4225 8.88481 12.6127 9.41628 11.7106 9.64767L11.4792 9.71727C11.1321 9.80947 10.785 9.85647 10.3918 9.85647H9.88296C9.28097 9.85647 8.63381 9.94866 8.03182 10.134C6.68955 10.5506 5.5101 11.4301 4.72267 12.5872L4.16769 13.3971C3.8667 13.8363 3.9824 14.4148 4.4226 14.7158C4.58439 14.8315 4.76968 14.8776 4.95498 14.8776C5.25598 14.8776 5.55698 14.7384 5.74135 14.4609L6.29632 13.651C6.7356 13.003 7.3611 12.4706 8.07786 12.147V15.6875L4.69906 21.3803C4.39807 21.8891 4.55987 22.5607 5.06966 22.8608C5.23146 22.953 5.44026 23 5.62464 23C5.99523 23 6.36491 22.8147 6.55021 22.4676L10.0671 16.521L10.5064 17.7241C10.7378 18.3722 10.83 19.0429 10.8074 19.737L10.6917 21.8657C10.6682 22.4677 11.131 22.9765 11.7095 22.9991H11.7556C12.3341 22.9991 12.7968 22.5598 12.8429 21.9814L12.9586 19.8527C13.0047 18.8811 12.8664 17.932 12.5419 17.0064L12.1027 15.7572L12.1036 11.4764L12.1958 11.4529C13.4919 11.1294 14.649 10.3656 15.4813 9.3469L16.3147 8.32914C16.6383 7.91245 16.5922 7.33396 16.1755 7.01038C15.7597 6.66329 15.1577 6.7329 14.8341 7.14958L14.8344 7.14937Z" fill="#484F5B"/>
<path d="M22.2626 3.60883C22.5861 3.33134 22.4243 2.79895 21.9851 2.75286L20.8516 2.66066C20.6663 2.63716 20.5045 2.52146 20.4349 2.35966L19.9956 1.29489C19.8338 0.901704 19.278 0.901704 19.1162 1.29489L18.6769 2.35966C18.6073 2.52146 18.4455 2.63715 18.2602 2.66066L17.1249 2.75286C16.7082 2.77636 16.5229 3.30783 16.8474 3.60883L17.7034 4.3491C17.8426 4.46479 17.8887 4.65009 17.8652 4.83539L17.6112 5.94626C17.519 6.36296 17.9583 6.68654 18.3289 6.47865L19.3006 5.87666C19.4624 5.78447 19.6477 5.78447 19.8094 5.87666L20.7811 6.47865C21.1517 6.71005 21.591 6.36296 21.4988 5.94626L21.2439 4.83539C21.1978 4.6501 21.2674 4.46479 21.4057 4.3491L22.2626 3.60883Z" fill="#484F5B"/>
</svg>
