<svg width="100" height="32" viewBox="0 0 100 32" fill="none" xmlns="http://www.w3.org/2000/svg">
<g clip-path="url(#clip0)">
<path d="M65.0685 31.5807C63.7011 31.5807 62.7888 30.5055 62.907 29.1471V29.1337C62.957 28.4731 63.2523 27.8551 63.7348 27.4011C64.2173 26.947 64.8521 26.6899 65.5146 26.6801C65.849 26.6644 66.1828 26.7235 66.4915 26.8532C66.8002 26.9829 67.0761 27.1798 67.299 27.4296L66.8998 27.8221C66.7227 27.6168 66.5031 27.4525 66.2562 27.3404C66.0094 27.2283 65.7411 27.1712 65.47 27.173C64.9529 27.1856 64.4594 27.3921 64.0875 27.7516C63.7156 28.1111 63.4925 28.5973 63.4624 29.1137V29.127C63.3665 30.2223 64.0825 31.081 65.1242 31.081C65.7733 31.081 66.2194 30.8312 66.7124 30.3985L67.0336 30.7442C66.7795 31.0087 66.4743 31.2186 66.1364 31.3613C65.7986 31.504 65.4352 31.5763 65.0685 31.574" fill="#43B049"/>
<path d="M69.34 28.391C68.9801 28.3994 68.6367 28.5433 68.3783 28.7939C68.1198 29.0444 67.9654 29.3833 67.9459 29.7427V29.7561C67.9205 29.9247 67.9318 30.0968 67.9792 30.2606C68.0265 30.4244 68.1087 30.576 68.2202 30.7051C68.3316 30.8341 68.4697 30.9375 68.6249 31.0082C68.78 31.0789 68.9487 31.1151 69.1192 31.1145C69.4777 31.1069 69.8204 30.9653 70.0797 30.7176C70.339 30.4699 70.4961 30.134 70.52 29.7762V29.7628C70.5446 29.5934 70.5325 29.4207 70.4845 29.2564C70.4366 29.0922 70.3538 28.9401 70.2419 28.8106C70.13 28.6811 69.9915 28.5773 69.8359 28.506C69.6803 28.4347 69.5111 28.3978 69.34 28.3977V28.391ZM69.0612 31.5874C68.8284 31.5946 68.5967 31.5514 68.3822 31.4606C68.1677 31.3699 67.9753 31.2339 67.8183 31.0618C67.6613 30.8898 67.5433 30.6858 67.4726 30.4639C67.4018 30.2419 67.3799 30.0073 67.4083 29.7762V29.7628C67.4532 29.2661 67.6813 28.8039 68.0483 28.4662C68.4153 28.1285 68.8948 27.9394 69.3935 27.9359C69.6269 27.9289 69.859 27.9722 70.0741 28.063C70.2892 28.1538 70.4822 28.2898 70.6399 28.462C70.7976 28.6341 70.9163 28.8382 70.988 29.0604C71.0597 29.2825 71.0827 29.5175 71.0553 29.7494V29.7628C71.0098 30.2602 70.7805 30.7228 70.4122 31.0602C70.0438 31.3976 69.5629 31.5856 69.0634 31.5874" fill="#43B049"/>
<path d="M74.6243 31.5003H74.1045L74.283 29.4594C74.3388 28.8103 74.0242 28.4043 73.4086 28.4043C73.1133 28.4035 72.8291 28.5171 72.6157 28.7213C72.4024 28.9255 72.2764 29.2044 72.2643 29.4995L72.0903 31.507H71.5684L71.8739 28.0117H72.3959L72.3424 28.6207C72.4758 28.4087 72.6612 28.2345 72.8811 28.1146C73.1009 27.9948 73.3478 27.9332 73.5982 27.9359C74.4436 27.9359 74.8875 28.5047 74.8161 29.3367L74.6243 31.507" fill="#43B049"/>
<path d="M76.614 31.5672C76.1012 31.5625 75.6057 31.3814 75.2109 31.0542L75.5076 30.6817C75.835 30.9607 76.2486 31.1183 76.6787 31.1278C77.098 31.1278 77.4192 30.9047 77.4504 30.5746V30.559C77.4817 30.2066 77.0824 30.0705 76.6318 29.9433C76.0987 29.7872 75.5165 29.5976 75.5634 28.9552V28.9418C75.6169 28.3396 76.1522 27.9425 76.8415 27.9425C77.2802 27.9475 77.7077 28.0817 78.0705 28.3284L77.7984 28.721C77.5044 28.5122 77.1551 28.395 76.7947 28.3842C76.382 28.3842 76.0987 28.6072 76.0742 28.8905V28.9039C76.0452 29.2362 76.4668 29.3634 76.9218 29.5061C77.4482 29.669 78.0126 29.8764 77.9568 30.5054V30.5188C77.8988 31.188 77.3166 31.5672 76.6184 31.5672" fill="#43B049"/>
<path d="M80.4262 28.391C80.0661 28.3994 79.7224 28.5432 79.4636 28.7937C79.2048 29.0442 79.0499 29.3831 79.0298 29.7427V29.7561C79.0048 29.9246 79.0164 30.0966 79.0639 30.2602C79.1114 30.4239 79.1937 30.5753 79.305 30.7043C79.4164 30.8332 79.5543 30.9366 79.7093 31.0074C79.8643 31.0782 80.0327 31.1148 80.2031 31.1145C80.5618 31.1075 80.9048 30.966 81.1642 30.7182C81.4236 30.4703 81.5805 30.1342 81.6039 29.7762V29.7628C81.6289 29.5935 81.6172 29.4209 81.5694 29.2566C81.5217 29.0923 81.4392 28.9402 81.3274 28.8107C81.2157 28.6812 81.0773 28.5772 80.9218 28.506C80.7663 28.4347 80.5972 28.3978 80.4262 28.3977V28.391ZM80.1473 31.5874C79.9144 31.5946 79.6828 31.5513 79.4681 31.4606C79.2535 31.3699 79.061 31.2339 78.9038 31.0619C78.7466 30.8899 78.6285 30.6859 78.5575 30.464C78.4864 30.2421 78.4642 30.0075 78.4922 29.7762V29.7628C78.5371 29.2661 78.7653 28.8039 79.1322 28.4662C79.4992 28.1285 79.9788 27.9395 80.4775 27.9359C80.7107 27.9288 80.9428 27.9721 81.1578 28.0629C81.3728 28.1537 81.5656 28.2899 81.7232 28.462C81.8807 28.6342 81.9993 28.8383 82.0707 29.0605C82.1421 29.2827 82.1648 29.5177 82.137 29.7494V29.7628C82.0915 30.2602 81.8622 30.7228 81.4939 31.0602C81.1255 31.3976 80.6446 31.5856 80.1451 31.5874" fill="#43B049"/>
<path d="M83.174 31.5003H82.6543L82.9599 28.005H83.4796L83.4015 28.9173C83.5303 28.6373 83.7338 28.3982 83.9896 28.2262C84.2453 28.0543 84.5435 27.9561 84.8514 27.9425H84.9117L84.8626 28.5024H84.8224C84.0573 28.5024 83.3882 29.0511 83.2967 30.1062L83.174 31.4981" fill="#43B049"/>
<path d="M86.2857 31.5606C85.7236 31.5606 85.3221 31.284 85.3934 30.5747L85.5764 28.4645H85.0901L85.1325 28.005H85.6187L85.7102 26.95H86.2299L86.1385 28.005H87.2538L87.2136 28.4645H86.0983L85.9199 30.5055C85.8819 30.9315 86.105 31.0877 86.4574 31.0877C86.6369 31.088 86.814 31.0467 86.9749 30.9672L86.937 31.4134C86.7381 31.5144 86.5177 31.5657 86.2946 31.5628" fill="#43B049"/>
<path d="M88.5542 27.2399H87.9587L88.0077 26.6666H88.6033L88.5542 27.2399ZM88.1394 31.5003H87.6196L87.9252 28.005H88.4449L88.1394 31.5003Z" fill="#43B049"/>
<path d="M90.3655 31.5739C89.5223 31.5739 89.0784 31.0073 89.1498 30.1753L89.3416 28.005H89.8613L89.6829 30.046C89.6249 30.6951 89.9416 31.101 90.5573 31.101C90.8521 31.1007 91.1354 30.9867 91.3481 30.7826C91.5609 30.5786 91.6867 30.3003 91.6993 30.0058L91.8756 27.9983H92.3886L92.083 31.4936H91.57L91.6235 30.8847C91.4889 31.0958 91.3028 31.2692 91.0827 31.3886C90.8626 31.508 90.6158 31.5694 90.3655 31.5672" fill="#43B049"/>
<path d="M98.2818 31.5003H97.7621L97.9405 29.4593C97.9985 28.7901 97.6952 28.4042 97.1264 28.4042C96.5999 28.4042 96.1248 28.7968 96.0646 29.4861L95.8884 31.4936H95.3753L95.5538 29.4392C95.6118 28.7812 95.3017 28.3976 94.7463 28.3976C94.1909 28.3976 93.7336 28.8571 93.6779 29.4995L93.5017 31.4936H92.9819L93.2875 27.9983H93.8095L93.7559 28.5872C93.8821 28.3848 94.0571 28.2175 94.2648 28.1005C94.4726 27.9836 94.7064 27.9208 94.9448 27.918C95.1729 27.9055 95.399 27.9666 95.5898 28.0923C95.7805 28.218 95.9259 28.4016 96.0044 28.6161C96.1449 28.4018 96.3365 28.2258 96.562 28.104C96.7874 27.9821 97.0396 27.9182 97.2959 27.918C98.1011 27.918 98.5472 28.46 98.4714 29.3255L98.2818 31.4891" fill="#43B049"/>
<path d="M26.2207 27.356L24.9269 29.7695H27.0839L26.2207 27.356ZM28.2728 31.5004H27.6973L27.2512 30.249H24.6771L24.0079 31.5004H23.4614L26.0333 26.7336H26.5441L28.284 31.5004" fill="#43B049"/>
<path d="M29.9948 31.5673C29.4828 31.5622 28.9882 31.381 28.594 31.0543L28.8907 30.6818C29.2181 30.9608 29.6317 31.1184 30.0617 31.1279C30.4811 31.1279 30.8023 30.9048 30.8335 30.5747V30.5591C30.8647 30.2067 30.4632 30.0706 30.0149 29.9435C29.4818 29.7873 28.8996 29.5977 28.9464 28.9553V28.9419C29 28.3397 29.5353 27.9426 30.2246 27.9426C30.6625 27.948 31.0892 28.0822 31.4514 28.3285L31.1792 28.7211C30.8852 28.5123 30.536 28.3951 30.1755 28.3843C29.7628 28.3843 29.4795 28.6073 29.455 28.8906V28.904C29.426 29.2364 29.8476 29.3635 30.3026 29.5063C30.829 29.6691 31.3911 29.8765 31.3376 30.5056V30.519C31.2796 31.1881 30.6997 31.5673 29.9993 31.5673" fill="#43B049"/>
<path d="M33.0239 31.5673C32.5111 31.5627 32.0157 31.3815 31.6208 31.0543L31.9175 30.6818C32.2453 30.9602 32.6587 31.1177 33.0886 31.1279C33.5079 31.1279 33.8314 30.9048 33.8604 30.5747V30.5591C33.8916 30.2067 33.4901 30.0706 33.0417 29.9435C32.5064 29.7873 31.9264 29.5977 31.9711 28.9553V28.9419C32.0224 28.3397 32.5577 27.9426 33.2492 27.9426C33.6854 27.9482 34.1104 28.0816 34.4715 28.3263L34.2016 28.7189C33.9068 28.51 33.5568 28.3929 33.1956 28.3821C32.7852 28.3821 32.4997 28.6051 32.4752 28.8884V28.9018C32.4462 29.2341 32.8677 29.3613 33.3206 29.504C33.8492 29.6669 34.4113 29.8743 34.3556 30.5033V30.5167C34.2976 31.1859 33.7154 31.5651 33.0172 31.5651" fill="#43B049"/>
<path d="M36.6888 28.3709C36.0887 28.3709 35.5846 28.8705 35.4508 29.5464H37.697C37.697 28.9107 37.3735 28.3709 36.6843 28.3709H36.6888ZM36.4858 31.5807C35.5244 31.5807 34.8061 30.8446 34.8998 29.756C34.989 28.7411 35.7697 27.9292 36.7378 27.9292C37.7706 27.9292 38.2992 28.7545 38.2056 29.7828C38.2006 29.8442 38.1924 29.9052 38.181 29.9657H35.4151C35.4064 30.1178 35.4293 30.27 35.4825 30.4127C35.5357 30.5554 35.618 30.6855 35.7241 30.7948C35.8302 30.904 35.9579 30.99 36.099 31.0474C36.2401 31.1047 36.3915 31.1321 36.5438 31.1279C36.7579 31.1272 36.9697 31.0832 37.1663 30.9985C37.363 30.9137 37.5405 30.7901 37.6881 30.6349L37.987 30.9249C37.7987 31.1346 37.5677 31.3016 37.3095 31.4147C37.0514 31.5278 36.772 31.5844 36.4902 31.5807" fill="#43B049"/>
<path d="M39.8495 31.5673C39.3376 31.5622 38.8429 31.381 38.4487 31.0543L38.7454 30.6818C39.0728 30.9608 39.4864 31.1184 39.9165 31.1279C40.3358 31.1279 40.657 30.9048 40.6882 30.5747V30.5591C40.7195 30.2067 40.318 30.0706 39.8696 29.9435C39.3365 29.7873 38.7543 29.5977 38.8012 28.9553V28.9419C38.8547 28.3397 39.39 27.9426 40.0793 27.9426C40.5163 27.9478 40.9421 28.0812 41.3039 28.3263L41.0429 28.7211C40.7488 28.5123 40.3996 28.3951 40.0391 28.3843C39.6265 28.3843 39.3432 28.6073 39.3187 28.8906V28.904C39.2897 29.2364 39.7112 29.3635 40.1663 29.5063C40.6927 29.6691 41.2548 29.8765 41.2013 30.5056V30.519C41.1433 31.1881 40.5633 31.5673 39.8629 31.5673" fill="#43B049"/>
<path d="M42.8786 31.5673C42.3659 31.5627 41.8704 31.3815 41.4756 31.0543L41.7723 30.6818C42.0998 30.9605 42.5133 31.118 42.9433 31.1279C43.3627 31.1279 43.6861 30.9048 43.7151 30.5747V30.5591C43.7463 30.2067 43.3448 30.0706 42.8965 29.9435C42.3634 29.7873 41.7812 29.5977 41.8258 28.9553V28.9419C41.8771 28.3397 42.4124 27.9426 43.1039 27.9426C43.5403 27.9473 43.9655 28.0808 44.3263 28.3263L44.0564 28.7189C43.7615 28.51 43.4116 28.3929 43.0504 28.3821C42.6377 28.3821 42.3567 28.6051 42.3299 28.8884V28.9018C42.3009 29.2341 42.7225 29.3613 43.1753 29.504C43.7017 29.6669 44.2661 29.8743 44.2103 30.5033V30.5167C44.1523 31.1859 43.5701 31.5651 42.8719 31.5651" fill="#43B049"/>
<path d="M50.1237 31.5003H49.604L49.7824 29.4593C49.8404 28.7902 49.537 28.4043 48.9682 28.4043C48.4418 28.4043 47.9667 28.7969 47.9065 29.4861L47.7303 31.4936H47.2172L47.3957 29.4393C47.4537 28.7812 47.1436 28.3976 46.5882 28.3976C46.0328 28.3976 45.5755 28.8571 45.5175 29.4995L45.3435 31.4936H44.835L45.1406 27.9983H45.6603L45.609 28.5872C45.7349 28.3852 45.9095 28.218 46.1169 28.1011C46.3242 27.9842 46.5576 27.9212 46.7956 27.918C47.024 27.9054 47.2505 27.9664 47.4416 28.0921C47.6327 28.2178 47.7785 28.4015 47.8574 28.6162C47.9981 28.402 48.1897 28.2261 48.4151 28.1043C48.6405 27.9824 48.8927 27.9184 49.1489 27.918C49.9542 27.918 50.4003 28.46 50.3244 29.3255L50.1348 31.4892" fill="#43B049"/>
<path d="M52.7 28.3709C52.1 28.3709 51.5959 28.8705 51.4642 29.5464H53.7149C53.7149 28.9107 53.3915 28.3709 52.7 28.3709ZM52.5015 31.5807C51.5423 31.5807 50.8218 30.8446 50.9178 29.756C51.007 28.7411 51.7877 27.9292 52.7535 27.9292C53.7885 27.9292 54.3149 28.7545 54.2213 29.7828C54.2163 29.8442 54.2081 29.9052 54.1967 29.9657H51.4263C51.4176 30.1178 51.4406 30.27 51.4938 30.4127C51.547 30.5554 51.6292 30.6855 51.7353 30.7948C51.8415 30.904 51.9691 30.99 52.1102 31.0474C52.2513 31.1047 52.4028 31.1321 52.555 31.1279C52.7691 31.1272 52.9809 31.0832 53.1776 30.9985C53.3743 30.9137 53.5517 30.7901 53.6993 30.6349L53.9982 30.9249C53.8101 31.1348 53.5792 31.302 53.321 31.4151C53.0628 31.5282 52.7833 31.5847 52.5015 31.5807Z" fill="#43B049"/>
<path d="M57.7722 31.5005H57.2502L57.4309 29.4595C57.4867 28.8104 57.1699 28.4044 56.5565 28.4044C56.2612 28.4036 55.977 28.5172 55.7637 28.7214C55.5503 28.9256 55.4244 29.2046 55.4122 29.4997L55.236 31.5072H54.7163L55.0219 28.0118H55.5416L55.4881 28.6208C55.6213 28.4087 55.8067 28.2344 56.0266 28.1145C56.2465 27.9946 56.4935 27.9331 56.7439 27.936C57.5893 27.936 58.0332 28.5048 57.9596 29.3368L57.77 31.5072" fill="#43B049"/>
<path d="M59.7798 31.5607C59.2177 31.5607 58.8162 31.2841 58.8876 30.5748L59.0705 28.4646H58.5842L58.6244 28.0051H59.1106L59.2043 26.9501H59.7241L59.6326 28.0051H60.7479L60.7077 28.4646H59.5925L59.414 30.5056C59.3761 30.9317 59.5991 31.0878 59.9516 31.0878C60.131 31.0878 60.3081 31.0466 60.4691 30.9674L60.4289 31.4135C60.2307 31.5143 60.0111 31.5656 59.7887 31.5629" fill="#43B049"/>
<path d="M35.879 13.881H41.0272C42.2942 13.881 43.2578 14.2267 43.84 14.8624C44.0704 15.1144 44.243 15.4135 44.3459 15.7391C44.4488 16.0646 44.4794 16.4087 44.4355 16.7473V16.7763C44.3262 18.0299 43.5991 18.728 42.7693 19.1697C44.0095 19.6604 44.7367 20.4054 44.6073 21.8932V21.9245C44.4311 23.9521 42.6957 24.967 40.193 24.967H34.9087L35.879 13.881ZM40.1171 18.3622C41.1945 18.3622 41.9016 18.0143 41.9797 17.1912V17.1577C42.0421 16.4305 41.509 16.0179 40.4807 16.0179H38.0717L37.8665 18.3622H40.1171ZM40.3781 22.8234C41.4532 22.8234 42.1358 22.4442 42.2094 21.6189V21.5921C42.2741 20.8493 41.7633 20.3898 40.5075 20.3898H37.6969L37.4739 22.8279L40.3781 22.8234Z" fill="#63676A"/>
<path d="M44.8637 22.5288V22.4975C45.0266 20.6461 46.5099 19.7874 48.5219 19.7874C49.2195 19.7795 49.9126 19.8989 50.5673 20.1398L50.5807 19.9948C50.6677 18.9977 50.0967 18.4334 48.8922 18.4334C48.0763 18.4363 47.2683 18.5922 46.5099 18.8929L46.0638 17.0549C47.1171 16.5912 48.259 16.3628 49.4097 16.3857C50.7235 16.3857 51.6402 16.7359 52.1934 17.3382C52.7466 17.9404 52.9741 18.8996 52.8626 20.0439L52.4321 24.9712H50.1301L50.2104 24.0522C49.8659 24.406 49.4517 24.6844 48.994 24.8699C48.5364 25.0553 48.0452 25.1438 47.5516 25.1296C45.9522 25.1296 44.7165 24.2106 44.8637 22.531V22.5288ZM50.4402 21.9778L50.4759 21.5518C50.0031 21.3349 49.4881 21.226 48.968 21.2328C47.9397 21.2328 47.2683 21.6432 47.2014 22.4038V22.4373C47.1456 23.0842 47.6475 23.4656 48.4282 23.4656C49.5435 23.4656 50.3643 22.8477 50.4357 21.9778" fill="#63676A"/>
<path d="M54.2947 13.4058H56.7037L55.691 24.9669H53.282L54.2947 13.4058Z" fill="#63676A"/>
<path d="M56.5676 22.5288V22.4975C56.7327 20.6439 58.2183 19.7851 60.2258 19.7851C60.9234 19.7773 61.6165 19.8967 62.2713 20.1376L62.2846 19.9926C62.3716 18.9955 61.8006 18.4312 60.5983 18.4312C59.7827 18.4379 58.9756 18.5968 58.2183 18.8996L57.7722 17.0616C58.8256 16.598 59.9674 16.3697 61.118 16.3924C62.4319 16.3924 63.3486 16.7426 63.8996 17.3449C64.4505 17.9471 64.6825 18.9063 64.5821 20.0506L64.1516 24.978H61.8341L61.9144 24.0589C61.5696 24.413 61.155 24.6916 60.6969 24.877C60.2388 25.0625 59.7472 25.1508 59.2533 25.1363C57.6562 25.1363 56.4204 24.2173 56.5766 22.5377L56.5676 22.5288ZM62.153 21.9845L62.1887 21.5585C61.7142 21.3364 61.1958 21.2236 60.6719 21.2283C59.6414 21.2283 58.9722 21.6388 58.9053 22.3994V22.4328C58.8473 23.0797 59.3514 23.4612 60.1277 23.4612C61.2541 23.4612 62.0683 22.8433 62.1352 21.9733" fill="#63676A"/>
<path d="M65.9808 16.4773H68.3899L68.285 17.6819C68.9007 16.9658 69.6702 16.319 70.8881 16.319C72.7127 16.319 73.6674 17.5235 73.4957 19.4708L73.0139 24.967H70.6071L71.0219 20.2314C71.1201 19.0916 70.6338 18.5049 69.7148 18.5049C68.7958 18.5049 68.1534 19.0916 68.062 20.2314L67.6471 24.967H65.238L65.9808 16.4773Z" fill="#63676A"/>
<path d="M73.6831 20.7712V20.7378C73.7902 19.5302 74.346 18.4065 75.2408 17.5885C76.1356 16.7706 77.3044 16.3176 78.5168 16.319C80.1139 16.319 81.0641 16.8588 81.7801 17.7443L80.1696 19.328C79.6789 18.757 79.1726 18.3934 78.3182 18.3934C77.1115 18.3934 76.1657 19.4552 76.0564 20.7065V20.7445C75.9427 22.0427 76.6921 23.0866 78.006 23.0866C78.8134 23.0866 79.3978 22.7386 80.0336 22.1943L81.3184 23.6197C80.4128 24.5231 79.409 25.1811 77.7115 25.1811C75.1642 25.1811 73.4734 23.2159 73.6764 20.7958" fill="#63676A"/>
<path d="M81.4164 20.7711V20.7444C81.6283 18.3197 83.5287 16.3256 85.998 16.3256C88.8353 16.3256 89.9394 18.5271 89.7298 20.934C89.7142 21.1236 89.6785 21.3444 89.6428 21.5674H83.7362C83.8789 22.6604 84.5883 23.2315 85.6656 23.2315C86.4731 23.2315 87.0821 22.9772 87.8003 22.3593L89.0695 23.5794C88.6214 24.0913 88.0662 24.4985 87.4433 24.7722C86.8205 25.0458 86.145 25.1793 85.4649 25.1631C82.9131 25.1631 81.1866 23.3787 81.4141 20.7778L81.4164 20.7711ZM87.4635 20.064C87.4144 18.9866 86.8434 18.2572 85.8307 18.2572C84.818 18.2572 84.1221 18.971 83.8366 20.064H87.4635Z" fill="#63676A"/>
<path d="M90.0287 20.7599V20.7287C90.274 17.9025 92.2592 16.3567 94.2668 16.3567C94.7603 16.3389 95.2503 16.4453 95.6919 16.6663C96.1335 16.8873 96.5125 17.2158 96.794 17.6214L97.1598 13.4547H99.5555L98.5473 24.9824H96.1516L96.2565 23.7667C95.6007 24.5563 94.7463 25.143 93.4972 25.143C91.5254 25.143 89.7811 23.595 90.0287 20.7688V20.7599ZM96.5487 20.7688V20.7376C96.6713 19.3323 95.8215 18.4022 94.7017 18.4022C93.582 18.4022 92.5537 19.3167 92.4288 20.7376V20.7688C92.3039 22.1741 93.1693 23.1042 94.2913 23.1042C95.4133 23.1042 96.426 22.1741 96.5487 20.7688Z" fill="#63676A"/>
<path d="M26.9521 10.5708L28.5515 8.84433C29.4772 9.66742 30.4787 10.1827 31.7457 10.1827C32.7428 10.1827 33.3807 9.78787 33.4365 9.13654V9.10308C33.49 8.48521 33.1353 8.16847 31.3241 7.69335C29.1404 7.12232 27.7552 6.50668 27.9448 4.30286V4.27163C28.121 2.2641 29.8564 0.92575 32.1204 0.92575C33.5803 0.887418 35.0029 1.38943 36.1154 2.33548L34.6878 4.17348C33.7666 3.49316 32.8342 3.08273 31.8974 3.08273C30.9605 3.08273 30.4363 3.50877 30.3895 4.04634V4.07757C30.3248 4.80697 30.7798 5.04564 32.6535 5.53637C34.8507 6.12302 36.0507 6.93049 35.8812 8.86441V8.89564C35.6894 11.0995 33.9027 12.3352 31.5092 12.3352C29.818 12.355 28.1857 11.7149 26.9588 10.5507" fill="#63676A"/>
<path d="M36.6752 3.69377H39.0195L38.9147 4.89829C39.5169 4.1845 40.2842 3.5354 41.4732 3.5354C42.5528 3.5354 43.3268 4.02836 43.6837 4.87375C44.4844 4.00382 45.3901 3.5354 46.5187 3.5354C48.2631 3.5354 49.2155 4.61277 49.0371 6.65822L48.553 12.1856H46.2087L46.6191 7.44785C46.7195 6.30802 46.2756 5.72138 45.3968 5.72138C44.5179 5.72138 43.9246 6.30802 43.8353 7.44785L43.4205 12.1856H41.0694L41.4888 7.44785C41.5891 6.30802 41.1475 5.72138 40.2686 5.72138C39.3898 5.72138 38.7964 6.30802 38.7072 7.44785L38.2767 12.1856H35.9324L36.6752 3.69377Z" fill="#63676A"/>
<path d="M49.0841 9.7477V9.71424C49.2469 7.86062 50.7325 7.00408 52.7467 7.00408C53.4446 6.99784 54.1377 7.11878 54.7922 7.36097L54.8033 7.21821C54.8903 6.22114 54.3215 5.6568 53.117 5.6568C52.3003 5.66069 51.4916 5.81729 50.7325 6.11853L50.2864 4.28053C51.3384 3.81113 52.4805 3.57814 53.6323 3.59797C54.9505 3.59797 55.8629 3.94817 56.4183 4.5482C56.9982 5.18392 57.2034 6.10961 57.1031 7.26059L56.6726 12.1857H54.3527L54.433 11.269C54.0883 11.623 53.6737 11.9016 53.2156 12.087C52.7575 12.2725 52.2659 12.3608 51.772 12.3463C50.1704 12.3463 48.9369 11.4251 49.0953 9.7477H49.0841ZM54.6717 9.19005L54.7096 8.76401C54.2354 8.54958 53.72 8.44147 53.1995 8.44726C52.169 8.44726 51.4998 8.85992 51.4329 9.62055V9.65178C51.3771 10.3009 51.879 10.6801 52.6575 10.6801C53.7728 10.6801 54.5959 10.0644 54.665 9.19005" fill="#63676A"/>
<path d="M58.2294 3.69393H60.6406L60.4912 5.40479C61.0845 4.23373 61.9433 3.47087 63.3642 3.53556L63.1411 6.05612H63.014C61.4146 6.05612 60.3484 7.02196 60.17 9.04957L59.8956 12.1858H57.4866L58.2294 3.69393Z" fill="#63676A"/>
<path d="M64.3546 9.77889L64.707 5.75268H63.6943L63.875 3.69385H64.8855L67.6179 0L67.2967 3.69385H69.2909L69.1102 5.75268H67.1161L66.7971 9.38185C66.7502 9.93503 66.9621 10.2049 67.5019 10.2049C67.9257 10.2056 68.3432 10.1022 68.7176 9.90381L68.5481 11.8377C67.9555 12.1729 67.2837 12.3424 66.603 12.3285C65.1286 12.3285 64.1828 11.744 64.3546 9.77889Z" fill="#63676A"/>
<path d="M69.0903 7.98765V7.95642C69.2999 5.53177 71.2004 3.5354 73.6741 3.5354C76.5092 3.5354 77.6245 5.73922 77.4014 8.14602C77.3836 8.33785 77.3501 8.55868 77.3144 8.78174H71.4034C71.5461 9.87473 72.2577 10.4435 73.3329 10.4435C74.1426 10.4435 74.7515 10.1915 75.472 9.57137L76.7434 10.7915C76.294 11.3037 75.7377 11.7112 75.1137 11.9852C74.4898 12.2592 73.8134 12.3931 73.1321 12.3774C70.5825 12.3774 68.8538 10.593 69.0814 7.98765H69.0903ZM75.1329 7.27609C75.0839 6.19649 74.5128 5.46932 73.5001 5.46932C72.4875 5.46932 71.7915 6.18088 71.4926 7.27609H75.1329Z" fill="#63676A"/>
<path d="M78.3249 3.69393H80.7317L80.5822 5.40479C81.1733 4.23373 82.0343 3.47087 83.4574 3.53556L83.2344 6.05612H83.105C81.5034 6.05612 80.4283 7.02196 80.2588 9.04957L79.9844 12.1858H77.5798L78.3249 3.69393Z" fill="#63676A"/>
<path d="M11.6926 13.9144L8.68579 18.4381H13.9098L11.6926 13.9144Z" fill="#282B33"/>
<path d="M11.86 24.9736L14.8825 20.4254L13.9099 18.438H8.68591L0 31.5003H20.3117L17.1131 24.9736H11.86Z" fill="#0785AD"/>
<path d="M11.8601 24.9736H17.1131L14.8826 20.4254L11.8601 24.9736Z" fill="#005747"/>
<path d="M16.2053 18.438L14.8826 20.4255L17.1132 24.9736H32.1718L23.5529 7.3877L19.2278 13.8921L21.4561 18.438H16.2053Z" fill="#43B049"/>
<path d="M21.4561 18.438L19.2278 13.8921L16.2053 18.438H21.4561Z" fill="#07733B"/>
<path d="M13.91 18.438H16.2052L19.2277 13.8921L12.8348 0.849854L1.14209 18.438H8.68594L11.6928 13.9144L13.91 18.438Z" fill="#63676A"/>
</g>
<defs>
<clipPath id="clip0">
<rect width="99.5556" height="32" fill="white"/>
</clipPath>
</defs>
</svg>
