<svg width="24" height="24" viewBox="0 0 24 24" fill="none" xmlns="http://www.w3.org/2000/svg">
<path fill-rule="evenodd" clip-rule="evenodd" d="M2 6.54545C2 8.95404 3.87336 10.9251 6.2425 11.081V11.0909H11.091V6.24243H11.081C10.925 3.87333 8.95401 2 6.54545 2C4.03507 2 2 4.03507 2 6.54545ZM17.4545 2C15.046 2 13.075 3.87333 12.919 6.24243H12.909V11.0909H17.7575V11.081C20.1266 10.9251 22 8.95404 22 6.54545C22 4.03507 19.9649 2 17.4545 2ZM17.7575 12.919C20.1266 13.0749 22 15.046 22 17.4545C22 19.9649 19.9649 22 17.4545 22C15.046 22 13.075 20.1267 12.919 17.7576H12.909L12.909 12.9091L17.4451 12.9091L17.4545 12.9091L17.464 12.9091H17.7575V12.919ZM11.091 12.9091H6.55438L6.54546 12.9091L6.53653 12.9091H6.2425L6.2425 12.919C3.87336 13.0749 2 15.046 2 17.4545C2 19.9649 4.03507 22 6.54545 22C8.95401 22 10.925 20.1267 11.081 17.7576H11.091V12.9091Z" fill="#484F5B"/>
</svg>
