<svg width="22" height="22" viewBox="0 0 22 22" fill="none" xmlns="http://www.w3.org/2000/svg">
<path fill-rule="evenodd" clip-rule="evenodd" d="M21.0642 16.6049L21.0833 4.61528C21.085 3.57429 20.2333 2.72869 19.1802 2.73035L17.1936 2.73348C16.1428 2.73285 15.2907 3.57884 15.289 4.62439L15.2699 16.614L17.1149 18.9031C17.6541 19.5711 18.6751 19.5649 19.2118 18.8998L21.0642 16.6049ZM16.8455 7.58281L19.5173 7.57861L19.5015 16.064L18.1652 17.7235L16.8343 16.0682L16.8455 7.58281ZM17.1934 4.28354L19.18 4.28041C19.3685 4.28011 19.5201 4.43054 19.5244 4.61773L19.5221 6.02854L16.8503 6.03274L16.8526 4.62193C16.8506 4.43703 17.0049 4.28383 17.1934 4.28354ZM10.4945 11.6876V10.7809C10.4945 10.5672 10.315 10.3923 10.0955 10.3923H4.50835C4.28885 10.3923 4.10927 10.5672 4.10927 10.7809V11.6876C4.10927 11.9014 4.28885 12.0763 4.50835 12.0763H10.0955C10.315 12.0763 10.4945 11.9014 10.4945 11.6876ZM4.50835 13.1125H10.0955C10.315 13.1125 10.4945 13.2874 10.4945 13.5011V14.4079C10.4945 14.6216 10.315 14.7965 10.0955 14.7965H4.50835C4.28885 14.7965 4.10927 14.6216 4.10927 14.4079V13.5011C4.10927 13.2874 4.28885 13.1125 4.50835 13.1125ZM13.6872 17.7758V7.02114C13.6872 6.60986 13.5176 6.21154 13.2183 5.92333L10.428 3.20632C10.1287 2.91487 9.72299 2.74971 9.30063 2.74971H2.51295C1.63164 2.74971 0.916626 3.44596 0.916626 4.30413V17.7758C0.916626 18.634 1.63164 19.3302 2.51295 19.3302H12.0909C12.9722 19.3302 13.6872 18.634 13.6872 17.7758ZM9.43034 6.89484V4.43043L11.9612 6.89484H9.43034ZM12.0909 8.44926V17.7758H2.51295V4.30413H7.83402V7.67205C7.83402 8.10276 8.18986 8.44926 8.63218 8.44926H12.0909Z" fill="white"/>
</svg>
