<svg width="100" height="44" viewBox="0 0 100 44" fill="none" xmlns="http://www.w3.org/2000/svg">
<g clip-path="url(#clip0)">
<path d="M3.22631 11.3163H0V8.45398H10.1668V11.3163H6.94051V19.4027H3.22631V11.3163Z" fill="#484F5B"/>
<path d="M12.0475 18.9882C11.319 18.6395 10.7011 18.0984 10.2612 17.4241C9.83915 16.7334 9.61597 15.9408 9.61597 15.1327C9.61597 14.3246 9.83915 13.532 10.2612 12.8413C10.6994 12.1656 11.3178 11.6241 12.0475 11.2772C12.8492 10.8924 13.7304 10.6995 14.6206 10.7141C15.516 10.6987 16.4026 10.8915 17.2096 11.2772C17.9375 11.6236 18.5535 12.1653 18.988 12.8413C19.405 13.5338 19.6253 14.3257 19.6253 15.1327C19.6253 15.9397 19.405 16.7317 18.988 17.4241C18.5521 18.0989 17.9365 18.6403 17.2096 18.9882C16.4032 19.3757 15.5162 19.5686 14.6206 19.5513C13.7303 19.5678 12.8486 19.3749 12.0475 18.9882ZM15.6279 16.3605C15.9092 16.0086 16.0493 15.5656 16.0213 15.1171C16.0504 14.6708 15.91 14.2299 15.6279 13.8814C15.4993 13.7436 15.3435 13.6336 15.1702 13.5583C14.9969 13.4831 14.8098 13.4443 14.6206 13.4443C14.4315 13.4443 14.2444 13.4831 14.0711 13.5583C13.8978 13.6336 13.742 13.7436 13.6134 13.8814C13.3313 14.2299 13.1909 14.6708 13.22 15.1171C13.192 15.5656 13.3321 16.0086 13.6134 16.3605C13.7403 16.5011 13.8956 16.6135 14.0692 16.6904C14.2427 16.7674 14.4306 16.8072 14.6206 16.8072C14.8107 16.8072 14.9986 16.7674 15.1721 16.6904C15.3457 16.6135 15.501 16.5011 15.6279 16.3605Z" fill="#484F5B"/>
<path d="M22.7179 18.9882C21.9894 18.6394 21.3715 18.0983 20.9316 17.4241C20.5096 16.7334 20.2864 15.9408 20.2864 15.1327C20.2864 14.3246 20.5096 13.532 20.9316 12.8413C21.3698 12.1656 21.9882 11.6241 22.7179 11.2772C23.5271 10.9061 24.4077 10.714 25.2989 10.714C26.1901 10.714 27.0707 10.9061 27.88 11.2772C28.6079 11.6235 29.2239 12.1653 29.6584 12.8413C30.0754 13.5337 30.2957 14.3256 30.2957 15.1327C30.2957 15.9397 30.0754 16.7316 29.6584 17.4241C29.2225 18.0988 28.6069 18.6403 27.88 18.9882C27.0721 19.3641 26.191 19.559 25.2989 19.559C24.4069 19.559 23.5257 19.3641 22.7179 18.9882ZM26.2983 16.3605C26.5796 16.0086 26.7197 15.5656 26.6917 15.117C26.7208 14.6707 26.5804 14.2298 26.2983 13.8814C26.1697 13.7435 26.0139 13.6335 25.8406 13.5583C25.6673 13.4831 25.4802 13.4442 25.2911 13.4442C25.1019 13.4442 24.9148 13.4831 24.7415 13.5583C24.5682 13.6335 24.4124 13.7435 24.2838 13.8814C24.0017 14.2298 23.8613 14.6707 23.8904 15.117C23.8624 15.5656 24.0025 16.0086 24.2838 16.3605C24.4108 16.5011 24.566 16.6135 24.7396 16.6904C24.9131 16.7674 25.101 16.8071 25.2911 16.8071C25.4811 16.8071 25.669 16.7674 25.8425 16.6904C26.0161 16.6135 26.1714 16.5011 26.2983 16.3605Z" fill="#484F5B"/>
<path d="M31.2559 7.79712H34.7969V19.4028H31.2559V7.79712Z" fill="#484F5B"/>
<path d="M37.4253 19.3246C36.8209 19.2079 36.2374 19.0023 35.6941 18.7146L36.6699 16.3684C37.1114 16.6247 37.5887 16.8144 38.0863 16.9315C38.6005 17.0633 39.1291 17.1316 39.6601 17.1348C39.9515 17.1562 40.2444 17.1271 40.5257 17.0488C40.5938 17.0305 40.6542 16.991 40.6981 16.9361C40.742 16.8812 40.767 16.8138 40.7696 16.7438C40.7696 16.6082 40.6673 16.5144 40.4627 16.4622C40.1331 16.3899 39.7994 16.3377 39.4634 16.3058C38.8586 16.2405 38.2591 16.1333 37.6692 15.9852C37.1744 15.856 36.7251 15.5935 36.3708 15.2266C36.1727 15.0094 36.0205 14.7549 35.9231 14.4782C35.8258 14.2015 35.7854 13.9081 35.8043 13.6156C35.8009 13.0734 35.9842 12.5463 36.3236 12.1218C36.7177 11.6414 37.2379 11.2787 37.8266 11.0739C38.5948 10.7949 39.409 10.6623 40.2267 10.6829C40.8684 10.6815 41.5088 10.7417 42.1389 10.8627C42.6939 10.9601 43.232 11.1365 43.7363 11.3867L42.7605 13.7329C42.0001 13.314 41.1433 13.0985 40.2739 13.1072C39.487 13.1072 39.0935 13.2441 39.0935 13.4983C39.0935 13.6351 39.1998 13.729 39.4083 13.7876C39.7343 13.8665 40.0657 13.9214 40.3998 13.9519C41.0028 14.0156 41.6 14.1254 42.1861 14.2803C42.6783 14.4229 43.1237 14.6927 43.4766 15.0624C43.678 15.2767 43.834 15.5291 43.9354 15.8045C44.0367 16.0799 44.0814 16.3727 44.0668 16.6656C44.0682 17.1929 43.8907 17.7054 43.5632 18.1202C43.1606 18.6003 42.6322 18.9603 42.0366 19.1603C41.2549 19.4401 40.4277 19.5727 39.5971 19.5514C38.867 19.5545 38.1388 19.4785 37.4253 19.3246Z" fill="#484F5B"/>
<path d="M51.8137 12.9313H53.3088V14.9998H51.9003V19.4028H49.0556V14.9998H48.1113V12.9313H49.0556V12.9039C49.0327 12.5158 49.0907 12.1272 49.2261 11.7625C49.3616 11.3978 49.5714 11.0648 49.8425 10.7846C50.1487 10.5106 50.5069 10.3002 50.8961 10.1659C51.2854 10.0316 51.6977 9.97605 52.1088 10.0025C52.4204 10.0013 52.7314 10.0301 53.0374 10.0885C53.3006 10.1331 53.5553 10.2175 53.7928 10.3388L53.1121 12.2939C52.9122 12.1959 52.6936 12.1413 52.4708 12.1336C52.3792 12.1287 52.2876 12.1432 52.2021 12.1763C52.1166 12.2093 52.0392 12.2601 51.975 12.3252C51.841 12.4933 51.7762 12.7058 51.7941 12.9196L51.8137 12.9313Z" fill="#484F5B"/>
<path d="M55.7838 19.0704C55.2002 18.7875 54.7061 18.3506 54.3555 17.8074C54.0184 17.2544 53.8401 16.6201 53.8401 15.9735C53.8401 15.3269 54.0184 14.6926 54.3555 14.1396C54.7078 13.6046 55.2021 13.1769 55.7838 12.9039C56.4309 12.6051 57.1358 12.4503 57.8494 12.4503C58.563 12.4503 59.2679 12.6051 59.915 12.9039C60.4969 13.1826 60.9889 13.6174 61.3354 14.1591C61.6701 14.713 61.8469 15.3469 61.8469 15.993C61.8469 16.6391 61.6701 17.2731 61.3354 17.827C60.9882 18.3701 60.4966 18.8072 59.915 19.09C59.2686 19.3914 58.5634 19.5476 57.8494 19.5476C57.1354 19.5476 56.4302 19.3914 55.7838 19.09V19.0704ZM58.6481 16.9706C58.8724 16.6878 58.9844 16.333 58.9629 15.9735C58.985 15.6163 58.8728 15.2638 58.6481 14.9842C58.5447 14.8746 58.4198 14.7872 58.281 14.7275C58.1423 14.6677 57.9927 14.6369 57.8415 14.6369C57.6903 14.6369 57.5408 14.6677 57.402 14.7275C57.2633 14.7872 57.1384 14.8746 57.035 14.9842C56.8116 15.2643 56.7009 15.6168 56.7241 15.9735C56.706 16.3345 56.8222 16.6894 57.0507 16.9706C57.1525 17.0829 57.2769 17.1726 57.4159 17.234C57.5548 17.2955 57.7052 17.3272 57.8573 17.3272C58.0093 17.3272 58.1597 17.2955 58.2987 17.234C58.4376 17.1726 58.562 17.0829 58.6638 16.9706H58.6481Z" fill="#484F5B"/>
<path d="M67.5479 12.4308V14.9333C67.3394 14.9033 67.1291 14.8876 66.9184 14.8864C65.9453 14.8864 65.4587 15.3778 65.4587 16.3606V19.4028H62.614V12.5559H65.3131V13.2949C65.5979 12.9953 65.9461 12.7623 66.3326 12.6128C66.7191 12.4633 67.1343 12.4012 67.5479 12.4308Z" fill="#484F5B"/>
<path d="M3.22631 25.0022H0V22.1399H10.1668V25.0022H6.94051V33.0886H3.22631V25.0022Z" fill="#484F5B"/>
<path d="M19.1848 29.632H13.2043C13.3203 29.9452 13.543 30.2081 13.8338 30.375C14.1711 30.5575 14.5516 30.6466 14.9355 30.6331C15.2582 30.6441 15.5804 30.5991 15.8876 30.5001C16.1909 30.3807 16.4746 30.2173 16.7296 30.0152L18.5867 31.8765C17.7369 32.7837 16.4831 33.2373 14.8253 33.2373C13.8754 33.2591 12.9331 33.0638 12.0711 32.6664C11.3228 32.321 10.6893 31.7702 10.2455 31.0788C9.82584 30.3887 9.604 29.5977 9.604 28.7913C9.604 27.985 9.82584 27.1939 10.2455 26.5038C10.6725 25.8331 11.2769 25.2921 11.9924 24.9397C12.7666 24.5563 13.6221 24.3631 14.4869 24.3766C15.3108 24.3667 16.1262 24.5432 16.8713 24.8928C17.5776 25.2247 18.173 25.7513 18.5867 26.41C19.0259 27.1303 19.2472 27.9611 19.2241 28.8031C19.232 28.8539 19.2162 29.1315 19.1848 29.632ZM13.6135 27.0825C13.3623 27.3012 13.1954 27.5997 13.1413 27.9272H15.8955C15.8385 27.603 15.6719 27.3078 15.4234 27.0904C15.1666 26.8816 14.842 26.7731 14.5105 26.7854C14.1856 26.7761 13.8678 26.8814 13.6135 27.0825Z" fill="#484F5B"/>
<path d="M27.4749 25.3854C28.2618 26.058 28.6553 27.0942 28.6553 28.4902V33.0887H25.3503V31.9625C24.9516 32.8123 24.1437 33.2373 22.9266 33.2373C22.3274 33.2549 21.7321 33.1345 21.1875 32.8853C20.7394 32.6797 20.3619 32.348 20.1016 31.9312C19.8529 31.5237 19.7248 31.0548 19.7318 30.5783C19.7118 30.2009 19.7913 29.8249 19.9625 29.4875C20.1336 29.1501 20.3904 28.8629 20.7075 28.6544C21.358 28.2165 22.3443 27.9975 23.6663 27.9975H25.0985C24.9804 27.3275 24.4401 26.9939 23.4774 26.9965C23.0772 26.9974 22.6793 27.058 22.2971 27.1763C21.9303 27.2814 21.5843 27.4481 21.2741 27.669L20.141 25.3229C20.6972 25.0036 21.2998 24.7714 21.9272 24.6347C22.6092 24.4645 23.3095 24.3778 24.0125 24.3766C25.5234 24.3766 26.6775 24.7129 27.4749 25.3854ZM24.6735 30.9146C24.8823 30.7633 25.0367 30.5495 25.1142 30.3046V29.718H24.2329C23.5089 29.718 23.1469 29.9565 23.1469 30.4375C23.1445 30.5315 23.1638 30.6248 23.2033 30.7103C23.2429 30.7957 23.3017 30.8709 23.3751 30.9302C23.5514 31.0686 23.7725 31.1381 23.9968 31.1257C24.2388 31.1259 24.4751 31.0522 24.6735 30.9146Z" fill="#484F5B"/>
<path d="M32.0821 32.6821C31.3438 32.3386 30.7169 31.7968 30.2722 31.118C29.8452 30.4276 29.6191 29.633 29.6191 28.8226C29.6191 28.0122 29.8452 27.2177 30.2722 26.5273C30.7174 25.8488 31.3442 25.3072 32.0821 24.9632C32.9001 24.577 33.797 24.3843 34.7025 24.4001C35.6372 24.3693 36.5626 24.5938 37.3779 25.0492C38.1097 25.4625 38.6681 26.1229 38.9517 26.9105L36.1976 28.2557C35.8592 27.5049 35.3608 27.1295 34.7025 27.1295C34.504 27.1216 34.3062 27.1566 34.1228 27.2322C33.9393 27.3079 33.7747 27.4222 33.6401 27.5674C33.3438 27.9092 33.1941 28.3528 33.2231 28.8031C33.192 29.2583 33.3418 29.7076 33.6401 30.0544C33.7722 30.1989 33.934 30.3136 34.1146 30.3905C34.2952 30.4674 34.4903 30.5048 34.6867 30.5001C35.3425 30.5001 35.8408 30.1248 36.1818 29.374L38.936 30.7191C38.6547 31.5013 38.1024 32.1583 37.3779 32.5726C36.5642 33.0334 35.6387 33.2634 34.7025 33.2373C33.7976 33.2556 32.9007 33.0656 32.0821 32.6821Z" fill="#484F5B"/>
<path d="M48.3318 25.3307C48.977 25.9668 49.2997 26.9261 49.2997 28.2087V33.0887H45.7586V28.8187C45.7586 27.8359 45.4071 27.3458 44.7041 27.3484C44.5194 27.3397 44.335 27.3724 44.1647 27.4441C43.9944 27.5159 43.8426 27.6249 43.7205 27.7629C43.4443 28.1404 43.3131 28.6037 43.3506 29.069V33.0887H39.8096V21.483H43.3506V25.2212C44.0266 24.6531 44.8894 24.3525 45.7743 24.3766C46.2434 24.355 46.7121 24.4284 47.1517 24.5924C47.5914 24.7565 47.9929 25.0076 48.3318 25.3307Z" fill="#484F5B"/>
<path d="M59.86 29.6321H53.8795C53.9955 29.9452 54.2182 30.2081 54.509 30.375C54.8461 30.5581 55.2268 30.6473 55.6107 30.6331C55.9339 30.6413 56.256 30.5936 56.5628 30.4923C56.8656 30.3721 57.1493 30.2087 57.4048 30.0074L59.2619 31.8687C58.4199 32.7811 57.1661 33.2373 55.5005 33.2373C54.5506 33.2591 53.6083 33.0638 52.7463 32.6664C51.998 32.321 51.3645 31.7702 50.9207 31.0789C50.4874 30.3959 50.2633 29.6025 50.2755 28.7953C50.2623 27.9865 50.4836 27.1911 50.9128 26.5038C51.3399 25.8332 51.9442 25.2921 52.6598 24.9397C53.4198 24.577 54.2508 24.3848 55.0939 24.3767C55.937 24.3686 56.7716 24.5448 57.5386 24.8928C58.2442 25.2258 58.8393 25.7522 59.2541 26.41C59.6933 27.1304 59.9145 27.9611 59.8914 28.8031C59.9072 28.8539 59.8914 29.1315 59.86 29.6321ZM54.2965 27.0826C54.0427 27.2991 53.8753 27.5987 53.8244 27.9272H56.5786C56.5215 27.603 56.355 27.3078 56.1064 27.0904C55.8428 26.8949 55.5226 26.7893 55.1936 26.7893C54.8647 26.7893 54.5445 26.8949 54.2808 27.0904L54.2965 27.0826Z" fill="#484F5B"/>
<path d="M67.0169 24.3766V27.5048C66.7566 27.464 66.4935 27.4431 66.23 27.4422C65.0129 27.4422 64.4056 28.0575 64.4083 29.2879V33.0887H60.8672V24.533H64.2469V25.4558C64.8647 24.7363 65.7893 24.3766 67.0169 24.3766Z" fill="#484F5B"/>
<path d="M69.3027 33.0105C68.6984 32.8938 68.1149 32.6882 67.5715 32.4005L68.5473 30.0543C68.9888 30.3106 69.4662 30.5003 69.9637 30.6174C70.4779 30.7492 71.0065 30.8175 71.5375 30.8207C71.8263 30.8412 72.1164 30.8121 72.3953 30.7347C72.4634 30.7164 72.5238 30.6769 72.5677 30.622C72.6115 30.5671 72.6366 30.4997 72.6392 30.4297C72.6392 30.2941 72.5369 30.2003 72.3323 30.1481C72.0027 30.0758 71.669 30.0236 71.3329 29.9917C70.7281 29.9264 70.1286 29.8192 69.5388 29.6711C69.044 29.5419 68.5946 29.2794 68.2404 28.9125C68.0437 28.6947 67.8929 28.4399 67.7969 28.1632C67.7009 27.8865 67.6618 27.5935 67.6817 27.3015C67.6757 26.7638 67.8532 26.24 68.1853 25.8156C68.5794 25.3351 69.0996 24.9724 69.6883 24.7676C70.4565 24.4886 71.2707 24.356 72.0884 24.3766C72.7301 24.3752 73.3705 24.4355 74.0006 24.5565C74.5556 24.6538 75.0937 24.8303 75.598 25.0804L74.6222 27.4266C73.8618 27.0077 73.005 26.7922 72.1356 26.801C71.3487 26.801 70.9552 26.9378 70.9552 27.192C70.9552 27.3288 71.0575 27.4227 71.27 27.4813C71.596 27.5602 71.9274 27.6151 72.2615 27.6456C72.8645 27.7093 73.4617 27.8191 74.0478 27.974C74.54 28.1166 74.9854 28.3865 75.3383 28.7561C75.5394 28.9694 75.6958 29.2202 75.7985 29.4941C75.9011 29.768 75.948 30.0594 75.9363 30.3515C75.9377 30.8788 75.7603 31.3913 75.4327 31.8061C75.0315 32.2841 74.5063 32.6438 73.914 32.8462C73.1323 33.126 72.3051 33.2586 71.4746 33.2373C70.7445 33.2404 70.0162 33.1644 69.3027 33.0105Z" fill="#484F5B"/>
<path d="M87.3152 7.48425L85.0686 6.18213L84.4902 5.84194L83.9079 5.50566L80.9924 3.81251L74.6972 0.160321C74.5236 0.056839 74.3252 0.00147951 74.1227 0C73.8097 0 73.5095 0.123592 73.2881 0.343587C73.0667 0.563582 72.9424 0.86196 72.9424 1.17308V15.8053C72.9475 16.113 73.0742 16.4064 73.295 16.6222C73.5158 16.838 73.8131 16.9589 74.1227 16.9588C74.3275 16.9601 74.5288 16.9061 74.7051 16.8024L77.9392 14.9216V12.247C77.9403 11.6344 78.1856 11.0472 78.6214 10.614C79.0573 10.1808 79.6482 9.93702 80.2645 9.93599C80.6795 9.93427 81.0872 10.0437 81.4449 10.2527L83.7151 11.5744L83.9197 11.4532L84.502 11.1169L85.0804 10.7806L87.327 9.47458C87.4963 9.36818 87.6356 9.2207 87.7318 9.04603C87.8279 8.87136 87.8777 8.67525 87.8765 8.47616C87.8754 8.27707 87.8232 8.08156 87.725 7.90803C87.6268 7.7345 87.4858 7.58866 87.3152 7.48425Z" fill="#00B4EB"/>
<path d="M99.4255 8.66128L93.1067 4.98954L86.8114 1.33735C86.6342 1.23518 86.4329 1.18146 86.228 1.18164C86.0231 1.18182 85.822 1.23589 85.6449 1.33837C85.4679 1.44084 85.3213 1.58806 85.22 1.76508C85.1188 1.94209 85.0665 2.14259 85.0684 2.3462V4.85659L87.9013 6.4989C88.2505 6.70291 88.5401 6.99407 88.7412 7.34351C88.9424 7.69296 89.0483 8.08858 89.0483 8.49118C89.0483 8.89378 88.9424 9.2894 88.7412 9.63885C88.5401 9.9883 88.2505 10.2794 87.9013 10.4835L85.0684 12.1219V16.9823C85.0663 17.1868 85.119 17.3881 85.2209 17.5656C85.3228 17.7432 85.4704 17.8907 85.6486 17.9929C85.8267 18.0952 86.029 18.1485 86.2347 18.1475C86.4404 18.1465 86.6422 18.0912 86.8193 17.9873L89.6246 16.3567L90.199 16.0243L90.7735 15.688L93.1067 14.3351L99.4255 10.6633C99.5981 10.5586 99.7407 10.4115 99.8396 10.2362C99.9385 10.0609 99.9905 9.86328 99.9905 9.6623C99.9905 9.46133 99.9385 9.26372 99.8396 9.08843C99.7407 8.91315 99.5981 8.76606 99.4255 8.66128Z" fill="#F2C94F"/>
<path d="M93.4568 18.5737L90.7735 17.0096L87.4016 18.9648C87.0487 19.17 86.6475 19.279 86.2386 19.2806C85.8297 19.2823 85.4276 19.1766 85.073 18.9742C84.7184 18.7718 84.4239 18.4799 84.2193 18.1281C84.0146 17.7762 83.9072 17.3769 83.9077 16.9705V13.029L83.7031 12.9117L83.1287 12.5754L82.5542 12.243L80.8467 11.2498C80.6707 11.145 80.4695 11.0896 80.2643 11.0895C79.9513 11.0895 79.6511 11.2131 79.4297 11.4331C79.2083 11.6531 79.084 11.9514 79.084 12.2626V26.8948C79.084 27.2059 79.2083 27.5043 79.4297 27.7243C79.6511 27.9443 79.9513 28.0679 80.2643 28.0679C80.4695 28.0678 80.6707 28.0124 80.8467 27.9075L87.1419 24.2553L93.4647 20.5836C93.6386 20.4786 93.7823 20.3307 93.8817 20.1542C93.9812 19.9777 94.033 19.7787 94.0322 19.5765C94.0314 19.3742 93.978 19.1756 93.8772 18.9999C93.7764 18.8242 93.6316 18.6774 93.4568 18.5737Z" fill="#5AC923"/>
<path d="M74.5671 36.3069H1.35732C0.877095 36.3069 0.487793 36.6938 0.487793 37.1711V42.6141C0.487793 43.0914 0.877095 43.4783 1.35732 43.4783H74.5671C75.0473 43.4783 75.4366 43.0914 75.4366 42.6141V37.1711C75.4366 36.6938 75.0473 36.3069 74.5671 36.3069Z" fill="#484F5B"/>
<path d="M6.71239 41.7029C6.48302 41.6334 6.27385 41.51 6.10254 41.3432L6.26385 41.0304C6.42133 41.182 6.61085 41.2969 6.81862 41.3666C7.0475 41.4523 7.29012 41.4961 7.53471 41.4957C7.81036 41.5172 8.08581 41.4515 8.32161 41.308C8.40248 41.2545 8.46861 41.1818 8.51396 41.0964C8.55932 41.011 8.58246 40.9157 8.58129 40.8192C8.58485 40.7515 8.57408 40.6838 8.54968 40.6205C8.52529 40.5572 8.4878 40.4997 8.43965 40.4516C8.34375 40.3556 8.2265 40.2833 8.09734 40.2405C7.91147 40.1771 7.72234 40.1236 7.53077 40.0802C7.29483 40.0228 7.06233 39.9523 6.83436 39.869C6.66546 39.8012 6.51463 39.6955 6.39369 39.5601C6.26243 39.401 6.19639 39.1985 6.20877 38.9931C6.20742 38.8061 6.26072 38.6227 6.36222 38.4652C6.47722 38.2913 6.64153 38.1553 6.83436 38.0742C7.0842 37.9742 7.35203 37.9263 7.62127 37.9334C7.83963 37.9317 8.05705 37.962 8.26653 38.0234C8.46241 38.0751 8.64847 38.1583 8.81736 38.2697L8.67965 38.5943C8.51915 38.49 8.34419 38.4097 8.1603 38.3557C7.98503 38.3054 7.80368 38.2791 7.62127 38.2775C7.35269 38.2578 7.08491 38.325 6.85797 38.4691C6.77782 38.5267 6.71276 38.6026 6.66826 38.6904C6.62375 38.7782 6.60111 38.8753 6.60222 38.9736C6.59938 39.0412 6.61048 39.1087 6.63484 39.1719C6.6592 39.2351 6.6963 39.2927 6.74387 39.3411C6.84224 39.4388 6.96212 39.5124 7.09404 39.5562C7.23568 39.6031 7.42454 39.6579 7.66455 39.7165C7.89658 39.7708 8.12518 39.8387 8.34915 39.9198C8.51997 39.9862 8.67239 40.0921 8.79375 40.2288C8.92181 40.3848 8.98638 40.583 8.97474 40.784C8.97657 40.9717 8.92175 41.1555 8.81736 41.3119C8.70139 41.488 8.53384 41.6245 8.33735 41.7029C8.08643 41.7987 7.81919 41.8452 7.55044 41.8398C7.26512 41.8442 6.98129 41.7979 6.71239 41.7029Z" fill="white"/>
<path d="M14.062 37.9766V41.8086H13.6686V38.743L12.1538 41.3198H11.961L10.4462 38.7586V41.8086H10.0527V37.9766H10.3872L12.0633 40.8193L13.7197 37.9766H14.062Z" fill="white"/>
<path d="M17.969 40.7841H15.8207L15.3446 41.8086H14.9512L16.7138 37.9766H17.1073L18.87 41.8086H18.4332L17.969 40.7841ZM17.8234 40.4557L16.8948 38.3989L15.9702 40.4557H17.8234Z" fill="white"/>
<path d="M22.3758 41.8085L21.4905 40.5768C21.3883 40.5828 21.2858 40.5828 21.1836 40.5768H20.1488V41.7929H19.7554V37.9608H21.1993C21.6149 37.9368 22.0253 38.0616 22.3561 38.3127C22.4958 38.43 22.6063 38.5779 22.6786 38.7449C22.751 38.9118 22.7834 39.0932 22.7732 39.2747C22.782 39.5454 22.7019 39.8117 22.545 40.0333C22.3822 40.2489 22.1527 40.4055 21.8918 40.479L22.8361 41.7929L22.3758 41.8085ZM22.0335 39.9981C22.1291 39.9055 22.2051 39.7949 22.2571 39.6726C22.309 39.5504 22.3357 39.4191 22.3357 39.2864C22.3357 39.1537 22.309 39.0224 22.2571 38.9002C22.2051 38.7779 22.1291 38.6673 22.0335 38.5747C21.7836 38.3952 21.4797 38.3056 21.1718 38.3206H20.1488V40.2405H21.1718C21.4783 40.2589 21.7821 40.1734 22.0335 39.9981Z" fill="white"/>
<path d="M24.6892 38.3207H23.3357V37.9688H26.4518V38.3207H25.0984V41.8008H24.7049L24.6892 38.3207Z" fill="white"/>
<path d="M30.0599 41.4489V41.8008H27.3333V37.9688H29.9773V38.3207H27.7424V39.6814H29.7372V40.0256H27.7424V41.4489H30.0599Z" fill="white"/>
<path d="M33.7268 41.8085L32.8454 40.5768C32.7432 40.5828 32.6407 40.5828 32.5385 40.5768H31.5038V41.7929H31.0828V37.9608H32.5385C32.9541 37.9368 33.3645 38.0616 33.6953 38.3127C33.835 38.43 33.9455 38.5779 34.0178 38.7449C34.0902 38.9118 34.1226 39.0932 34.1124 39.2747C34.1284 39.5458 34.0494 39.814 33.8886 40.0337C33.7279 40.2533 33.4955 40.4107 33.231 40.479L34.1753 41.7929L33.7268 41.8085ZM33.4041 39.9981C33.4998 39.9055 33.5758 39.7949 33.6277 39.6726C33.6797 39.5504 33.7064 39.4191 33.7064 39.2864C33.7064 39.1537 33.6797 39.0224 33.6277 38.9002C33.5758 38.7779 33.4998 38.6673 33.4041 38.5747C33.1499 38.3921 32.8399 38.3023 32.5267 38.3206H31.5038V40.2405H32.5267C32.8385 40.2622 33.1483 40.1766 33.4041 39.9981Z" fill="white"/>
<path d="M40.0888 40.1583C40.2311 40.3354 40.3038 40.5577 40.2934 40.784C40.3007 40.9307 40.271 41.0769 40.2071 41.2093C40.1432 41.3418 40.0471 41.4563 39.9275 41.5426C39.6032 41.7404 39.2252 41.8333 38.8455 41.8085H37.071V37.9764H38.7353C39.0876 37.9552 39.4374 38.0456 39.7347 38.2345C39.8499 38.3169 39.9426 38.4266 40.0045 38.5536C40.0663 38.6806 40.0953 38.8209 40.0888 38.9618C40.0951 39.1537 40.04 39.3426 39.9314 39.5014C39.8249 39.6528 39.6737 39.7676 39.4986 39.8299C39.7267 39.8709 39.9345 39.9865 40.0888 40.1583ZM37.4802 38.3205V39.7126H38.7078C38.9608 39.7287 39.2126 39.6658 39.4278 39.5327C39.5071 39.4717 39.5712 39.3934 39.6153 39.304C39.6595 39.2145 39.6824 39.1162 39.6824 39.0165C39.6824 38.9169 39.6595 38.8186 39.6153 38.7291C39.5712 38.6397 39.5071 38.5614 39.4278 38.5004C39.2118 38.3692 38.9606 38.3064 38.7078 38.3205H37.4802ZM39.6206 41.3119C39.7092 41.2516 39.7805 41.1694 39.8275 41.0734C39.8744 40.9774 39.8953 40.8709 39.8882 40.7644C39.8882 40.2835 39.538 40.0449 38.8376 40.0449H37.4802V41.4878H38.8376C39.1114 41.5019 39.3834 41.4367 39.6206 41.3001V41.3119Z" fill="white"/>
<path d="M43.8858 40.7841H41.7376L41.2772 41.8086H40.8523L42.615 37.9766H43.0084L44.7711 41.8086H44.3422L43.8858 40.7841ZM43.7402 40.4557L42.8117 38.3989L41.8871 40.4557H43.7402Z" fill="white"/>
<path d="M45.6406 37.9766H46.0341V41.4489H48.1941V41.8008H45.6406V37.9766Z" fill="white"/>
<path d="M51.8492 40.7841H49.701L49.2367 41.8086H48.8118L50.5744 37.9766H50.9679L52.7306 41.8086H52.3292L51.8492 40.7841ZM51.6997 40.4557L50.7751 38.3989L49.8465 40.4557H51.6997Z" fill="white"/>
<path d="M56.838 37.9766V41.8086H56.5036L54.0248 38.6804V41.8086H53.6313V37.9766H53.9697L56.4524 41.0852V37.9766H56.838Z" fill="white"/>
<path d="M58.9589 41.5896C58.6575 41.4282 58.408 41.1856 58.2389 40.8897C58.0612 40.5874 57.9701 40.2426 57.9753 39.8925C57.9711 39.5414 58.0622 39.1956 58.2389 38.8915C58.4098 38.5966 58.6607 38.3554 58.9629 38.1955C59.2806 38.0255 59.6369 37.9393 59.9977 37.9452C60.2665 37.9435 60.5333 37.9913 60.7846 38.086C61.0179 38.1766 61.2277 38.3183 61.3984 38.5005L61.1426 38.7586C60.9936 38.6097 60.8155 38.4926 60.6193 38.4146C60.423 38.3366 60.2129 38.2993 60.0016 38.305C59.7103 38.302 59.4231 38.3734 59.1675 38.5122C58.924 38.6467 58.7215 38.8439 58.5812 39.0831C58.442 39.3305 58.3689 39.6091 58.3689 39.8925C58.3689 40.176 58.442 40.4546 58.5812 40.702C58.7215 40.9412 58.924 41.1384 59.1675 41.2729C59.4231 41.4117 59.7103 41.4831 60.0016 41.4801C60.2137 41.4869 60.4249 41.4494 60.6214 41.3699C60.818 41.2904 60.9956 41.1708 61.1426 41.0187L61.3984 41.2768C61.2282 41.4623 61.0166 41.6056 60.7806 41.6952C60.4853 41.8064 60.1698 41.8544 59.8545 41.8362C59.5393 41.818 59.2314 41.734 58.9511 41.5896H58.9589Z" fill="white"/>
<path d="M65.1558 41.4489V41.8008H62.4292V37.9688H65.0732V38.3207H62.8345V39.6814H64.8293V40.0256H62.8345V41.4489H65.1558Z" fill="white"/>
<path d="M66.1907 37.9765H67.7645C68.1383 37.9697 68.5081 38.0528 68.8425 38.2189C69.1442 38.3738 69.3964 38.6095 69.5704 38.8993C69.7406 39.203 69.83 39.5449 69.83 39.8925C69.83 40.2401 69.7406 40.582 69.5704 40.8857C69.3996 41.1739 69.1517 41.4094 68.8543 41.5661C68.5199 41.7321 68.1501 41.8153 67.7763 41.8085H66.2025L66.1907 37.9765ZM67.7369 41.4566C68.0441 41.4638 68.3482 41.3953 68.6222 41.2572C68.8681 41.1335 69.073 40.9421 69.2124 40.7058C69.3491 40.4563 69.4207 40.1766 69.4207 39.8925C69.4207 39.6083 69.3491 39.3287 69.2124 39.0792C69.073 38.8429 68.8681 38.6515 68.6222 38.5278C68.3482 38.3897 68.0441 38.3212 67.7369 38.3284H66.5959V41.4566H67.7369Z" fill="white"/>
</g>
<defs>
<clipPath id="clip0">
<rect width="100" height="43.4783" fill="white"/>
</clipPath>
</defs>
</svg>
