<svg width="24" height="26" viewBox="0 0 24 26" fill="none" xmlns="http://www.w3.org/2000/svg">
<path d="M12.7399 6.78052L10.7493 5.60083L10.2325 5.29617L9.7156 4.99151L7.1278 3.45757L1.55058 0.145246C1.38295 0.0460537 1.20485 0 1.03372 0C0.495908 0 0 0.435739 0 1.04861V7.68388V14.3191C0 14.9285 0.495908 15.3678 1.03372 15.3678C1.20834 15.3678 1.38645 15.3217 1.55058 15.2225L4.42126 13.5221V11.0989C4.42126 9.94405 5.34672 9.00526 6.48521 9.00526C6.84841 9.00526 7.20812 9.10445 7.52243 9.29221L9.53749 10.4861L9.71909 10.3798L10.2359 10.0751L10.7528 9.77046L12.7434 8.59078C13.4209 8.18338 13.4209 7.18437 12.7399 6.78052Z" fill="#00B4EB"/>
<path d="M23.4892 7.84683L17.8806 4.52034L12.2999 1.21156C12.1322 1.11237 11.9541 1.06631 11.783 1.06631C11.2452 1.06631 10.7493 1.50205 10.7493 2.11492V4.38926L13.2602 5.87715C13.8993 6.25621 14.28 6.9293 14.28 7.68387C14.28 8.43845 13.8993 9.11154 13.2602 9.49059L10.7493 10.9785V11.2052V11.811V12.4168V15.389C10.7493 15.9983 11.2452 16.4376 11.783 16.4376C11.9576 16.4376 12.1357 16.3916 12.2999 16.2924L14.7899 14.8151L15.2997 14.514L15.8096 14.2129L17.8806 12.9871L23.4892 9.66064C24.1702 9.2497 24.1702 8.25069 23.4892 7.84683Z" fill="#F2C94F"/>
<path d="M18.1914 16.8273L15.8097 15.4138L12.8168 17.1886C12.499 17.3764 12.1393 17.4756 11.7795 17.4756C10.6411 17.4756 9.7156 16.5368 9.7156 15.3819V11.8039L9.534 11.6976L9.02412 11.3965L8.51424 11.0954L6.99858 10.1991C6.83095 10.0999 6.65284 10.0539 6.48172 10.0539C5.94391 10.0539 5.448 10.4896 5.448 11.1025V12.9163V13.5221V14.1278V17.7413V24.3766C5.448 24.9859 5.94041 25.4252 6.48172 25.4252C6.65634 25.4252 6.83444 25.3791 6.99858 25.2799L12.5793 21.9711L18.1879 18.6446C18.8724 18.2302 18.8724 17.2312 18.1914 16.8273Z" fill="#5AC923"/>
</svg>
